G04 Layer_Color=2752767*
%FSLAX25Y25*%
%MOIN*%
G70*
G01*
G75*
%ADD118C,0.00200*%
%ADD261C,0.00267*%
%ADD262C,0.00133*%
D118*
X129200Y141700D02*
Y143300D01*
X130800D01*
Y141700D01*
X129200D01*
X9200D02*
Y143300D01*
X10800D01*
Y141700D01*
X9200D01*
X118500Y75200D02*
X117700Y76800D01*
X119300D01*
X118500Y75200D01*
Y65200D02*
X117700Y66800D01*
X119300D01*
X118500Y65200D01*
Y55200D02*
X117700Y56800D01*
X119300D01*
X118500Y55200D01*
Y45200D02*
X117700Y46800D01*
X119300D01*
X118500Y45200D01*
Y35200D02*
X117700Y36800D01*
X119300D01*
X118500Y35200D01*
Y25200D02*
X117700Y26800D01*
X119300D01*
X118500Y25200D01*
X90900Y153295D02*
X91300Y153694D01*
X91700D01*
X91300Y154095D01*
X91700Y154495D01*
X91300D01*
X90900Y154894D01*
X90500Y154495D01*
X90100D01*
X90500Y154095D01*
X90100Y153694D01*
X90500D01*
X90900Y153295D01*
X49134D02*
X49534Y153694D01*
X49934D01*
X49534Y154095D01*
X49934Y154495D01*
X49534D01*
X49134Y154894D01*
X48734Y154495D01*
X48334D01*
X48734Y154095D01*
X48334Y153694D01*
X48734D01*
X49134Y153295D01*
X31137Y24200D02*
X31537Y25000D01*
X31137Y25800D01*
X31937Y25400D01*
X32737Y25800D01*
X32337Y25000D01*
X32737Y24200D01*
X31937Y24600D01*
X31137Y24200D01*
X23200D02*
X23600Y25000D01*
X23200Y25800D01*
X24000Y25400D01*
X24800Y25800D01*
X24400Y25000D01*
X24800Y24200D01*
X24000Y24600D01*
X23200Y24200D01*
X6500Y75200D02*
X5700Y76800D01*
X7300D01*
X6500Y75200D01*
Y65200D02*
X5700Y66800D01*
X7300D01*
X6500Y65200D01*
Y55200D02*
X5700Y56800D01*
X7300D01*
X6500Y55200D01*
Y45200D02*
X5700Y46800D01*
X7300D01*
X6500Y45200D01*
Y35200D02*
X5700Y36800D01*
X7300D01*
X6500Y35200D01*
Y25200D02*
X5700Y26800D01*
X7300D01*
X6500Y25200D01*
Y15200D02*
X5700Y16800D01*
X7300D01*
X6500Y15200D01*
Y5200D02*
X5700Y6800D01*
X7300D01*
X6500Y5200D01*
X133500Y75200D02*
X132700Y76800D01*
X134300D01*
X133500Y75200D01*
Y65200D02*
X132700Y66800D01*
X134300D01*
X133500Y65200D01*
Y55200D02*
X132700Y56800D01*
X134300D01*
X133500Y55200D01*
Y45200D02*
X132700Y46800D01*
X134300D01*
X133500Y45200D01*
Y35200D02*
X132700Y36800D01*
X134300D01*
X133500Y35200D01*
Y25200D02*
X132700Y26800D01*
X134300D01*
X133500Y25200D01*
Y15200D02*
X132700Y16800D01*
X134300D01*
X133500Y15200D01*
Y5200D02*
X132700Y6800D01*
X134300D01*
X133500Y5200D01*
X11600Y162600D02*
Y162200D01*
X12400D01*
Y162600D01*
X12800D01*
Y163400D01*
X12400D01*
Y163800D01*
X11600D01*
Y163400D01*
X11200D01*
Y162600D01*
X11600D01*
X127600D02*
Y162200D01*
X128400D01*
Y162600D01*
X128800D01*
Y163400D01*
X128400D01*
Y163800D01*
X127600D01*
Y163400D01*
X127200D01*
Y162600D01*
X127600D01*
X81169Y110386D02*
X81569D01*
X81969Y110785D01*
X82370Y110386D01*
X82770D01*
Y110785D01*
X82370Y111186D01*
X82770Y111585D01*
Y111986D01*
X82370D01*
X81969Y111585D01*
X81569Y111986D01*
X81169D01*
Y111585D01*
X81569Y111186D01*
X81169Y110785D01*
Y110386D01*
X70935Y105266D02*
X71336D01*
X71736Y105666D01*
X72136Y105266D01*
X72536D01*
Y105666D01*
X72136Y106067D01*
X72536Y106466D01*
Y106867D01*
X72136D01*
X71736Y106466D01*
X71336Y106867D01*
X70935D01*
Y106466D01*
X71336Y106067D01*
X70935Y105666D01*
Y105266D01*
X76052Y102708D02*
X76452D01*
X76853Y103109D01*
X77253Y102708D01*
X77653D01*
Y103109D01*
X77253Y103508D01*
X77653Y103909D01*
Y104308D01*
X77253D01*
X76853Y103909D01*
X76452Y104308D01*
X76052D01*
Y103909D01*
X76452Y103508D01*
X76052Y103109D01*
Y102708D01*
X68372Y112944D02*
X68773D01*
X69173Y113345D01*
X69573Y112944D01*
X69972D01*
Y113345D01*
X69573Y113744D01*
X69972Y114145D01*
Y114544D01*
X69573D01*
X69173Y114145D01*
X68773Y114544D01*
X68372D01*
Y114145D01*
X68773Y113744D01*
X68372Y113345D01*
Y112944D01*
X63176Y112969D02*
X63576D01*
X63976Y113369D01*
X64376Y112969D01*
X64776D01*
Y113369D01*
X64376Y113769D01*
X64776Y114169D01*
Y114569D01*
X64376D01*
X63976Y114169D01*
X63576Y114569D01*
X63176D01*
Y114169D01*
X63576Y113769D01*
X63176Y113369D01*
Y112969D01*
X68348Y107969D02*
X68748D01*
X69148Y108369D01*
X69548Y107969D01*
X69948D01*
Y108369D01*
X69548Y108769D01*
X69948Y109169D01*
Y109569D01*
X69548D01*
X69148Y109169D01*
X68748Y109569D01*
X68348D01*
Y109169D01*
X68748Y108769D01*
X68348Y108369D01*
Y107969D01*
X65876D02*
X66276D01*
X66676Y108369D01*
X67076Y107969D01*
X67476D01*
Y108369D01*
X67076Y108769D01*
X67476Y109169D01*
Y109569D01*
X67076D01*
X66676Y109169D01*
X66276Y109569D01*
X65876D01*
Y109169D01*
X66276Y108769D01*
X65876Y108369D01*
Y107969D01*
X73492Y97669D02*
X73892D01*
X74291Y98069D01*
X74691Y97669D01*
X75091D01*
Y98069D01*
X74691Y98469D01*
X75091Y98869D01*
Y99269D01*
X74691D01*
X74291Y98869D01*
X73892Y99269D01*
X73492D01*
Y98869D01*
X73892Y98469D01*
X73492Y98069D01*
Y97669D01*
X70976Y107969D02*
X71376D01*
X71776Y108369D01*
X72176Y107969D01*
X72576D01*
Y108369D01*
X72176Y108769D01*
X72576Y109169D01*
Y109569D01*
X72176D01*
X71776Y109169D01*
X71376Y109569D01*
X70976D01*
Y109169D01*
X71376Y108769D01*
X70976Y108369D01*
Y107969D01*
X68371Y115504D02*
X68771D01*
X69172Y115903D01*
X69572Y115504D01*
X69972D01*
Y115903D01*
X69572Y116304D01*
X69972Y116703D01*
Y117104D01*
X69572D01*
X69172Y116703D01*
X68771Y117104D01*
X68371D01*
Y116703D01*
X68771Y116304D01*
X68371Y115903D01*
Y115504D01*
X65813Y112944D02*
X66214D01*
X66614Y113345D01*
X67014Y112944D01*
X67414D01*
Y113345D01*
X67014Y113744D01*
X67414Y114145D01*
Y114544D01*
X67014D01*
X66614Y114145D01*
X66214Y114544D01*
X65813D01*
Y114145D01*
X66214Y113744D01*
X65813Y113345D01*
Y112944D01*
X63176Y107969D02*
X63576D01*
X63976Y108369D01*
X64376Y107969D01*
X64776D01*
Y108369D01*
X64376Y108769D01*
X64776Y109169D01*
Y109569D01*
X64376D01*
X63976Y109169D01*
X63576Y109569D01*
X63176D01*
Y109169D01*
X63576Y108769D01*
X63176Y108369D01*
Y107969D01*
Y105269D02*
X63576D01*
X63976Y105669D01*
X64376Y105269D01*
X64776D01*
Y105669D01*
X64376Y106069D01*
X64776Y106469D01*
Y106869D01*
X64376D01*
X63976Y106469D01*
X63576Y106869D01*
X63176D01*
Y106469D01*
X63576Y106069D01*
X63176Y105669D01*
Y105269D01*
X65976Y102669D02*
X66376D01*
X66776Y103069D01*
X67176Y102669D01*
X67576D01*
Y103069D01*
X67176Y103469D01*
X67576Y103869D01*
Y104269D01*
X67176D01*
X66776Y103869D01*
X66376Y104269D01*
X65976D01*
Y103869D01*
X66376Y103469D01*
X65976Y103069D01*
Y102669D01*
X63076D02*
X63476D01*
X63876Y103069D01*
X64276Y102669D01*
X64676D01*
Y103069D01*
X64276Y103469D01*
X64676Y103869D01*
Y104269D01*
X64276D01*
X63876Y103869D01*
X63476Y104269D01*
X63076D01*
Y103869D01*
X63476Y103469D01*
X63076Y103069D01*
Y102669D01*
X10456Y116949D02*
X11256Y117749D01*
X12056Y116949D01*
X11256Y116149D01*
X10456Y116949D01*
X108976Y120569D02*
Y122169D01*
X110576D01*
Y120569D01*
X108976D01*
X109376Y120969D02*
Y121769D01*
X110176D01*
Y120969D01*
X109376D01*
X108045Y123128D02*
Y124729D01*
X109644D01*
Y123128D01*
X108045D01*
X108444Y123529D02*
Y124328D01*
X109245D01*
Y123529D01*
X108444D01*
X103576Y123269D02*
Y124869D01*
X105176D01*
Y123269D01*
X103576D01*
X103976Y123669D02*
Y124469D01*
X104776D01*
Y123669D01*
X103976D01*
X109802Y124879D02*
Y126479D01*
X111402D01*
Y124879D01*
X109802D01*
X110203Y125278D02*
Y126078D01*
X111003D01*
Y125278D01*
X110203D01*
X78826Y76246D02*
X79226D01*
X79626Y76646D01*
X80026Y76246D01*
X80426D01*
Y76646D01*
X80026Y77046D01*
X80426Y77446D01*
Y77846D01*
X80026D01*
X79626Y77446D01*
X79226Y77846D01*
X78826D01*
Y77446D01*
X79226Y77046D01*
X78826Y76646D01*
Y76246D01*
X83551Y66145D02*
X83951D01*
X84351Y66545D01*
X84751Y66145D01*
X85151D01*
Y66545D01*
X84751Y66945D01*
X85151Y67345D01*
Y67745D01*
X84751D01*
X84351Y67345D01*
X83951Y67745D01*
X83551D01*
Y67345D01*
X83951Y66945D01*
X83551Y66545D01*
Y66145D01*
X80401Y66145D02*
X80801D01*
X81201Y66545D01*
X81601Y66145D01*
X82001D01*
Y66545D01*
X81601Y66945D01*
X82001Y67345D01*
Y67745D01*
X81601D01*
X81201Y67345D01*
X80801Y67745D01*
X80401D01*
Y67345D01*
X80801Y66945D01*
X80401Y66545D01*
Y66145D01*
X52054Y53546D02*
X52454D01*
X52854Y53946D01*
X53254Y53546D01*
X53654D01*
Y53946D01*
X53254Y54346D01*
X53654Y54746D01*
Y55146D01*
X53254D01*
X52854Y54746D01*
X52454Y55146D01*
X52054D01*
Y54746D01*
X52454Y54346D01*
X52054Y53946D01*
Y53546D01*
X55203Y53546D02*
X55603D01*
X56003Y53946D01*
X56403Y53546D01*
X56803D01*
Y53946D01*
X56403Y54346D01*
X56803Y54746D01*
Y55146D01*
X56403D01*
X56003Y54746D01*
X55603Y55146D01*
X55203D01*
Y54746D01*
X55603Y54346D01*
X55203Y53946D01*
Y53546D01*
X58476Y132169D02*
X58876D01*
X59276Y132569D01*
X59676Y132169D01*
X60076D01*
Y132569D01*
X59676Y132969D01*
X60076Y133369D01*
Y133769D01*
X59676D01*
X59276Y133369D01*
X58876Y133769D01*
X58476D01*
Y133369D01*
X58876Y132969D01*
X58476Y132569D01*
Y132169D01*
X58413Y146969D02*
Y148569D01*
X60013D01*
Y146969D01*
X58413D01*
X58813Y147369D02*
Y148169D01*
X59613D01*
Y147369D01*
X58813D01*
X58476Y134669D02*
Y136269D01*
X60076D01*
Y134669D01*
X58476D01*
X58876Y135069D02*
Y135869D01*
X59676D01*
Y135069D01*
X58876D01*
X58381Y158969D02*
Y160569D01*
X59981D01*
Y158969D01*
X58381D01*
X58781Y159369D02*
Y160169D01*
X59581D01*
Y159369D01*
X58781D01*
X54436Y142369D02*
Y143969D01*
X56036D01*
Y142369D01*
X54436D01*
X54836Y142769D02*
Y143569D01*
X55636D01*
Y142769D01*
X54836D01*
X98276Y69269D02*
X98676D01*
X99076Y69669D01*
X99476Y69269D01*
X99876D01*
Y69669D01*
X99476Y70069D01*
X99876Y70469D01*
Y70869D01*
X99476D01*
X99076Y70469D01*
X98676Y70869D01*
X98276D01*
Y70469D01*
X98676Y70069D01*
X98276Y69669D01*
Y69269D01*
X80401Y47247D02*
X80801D01*
X81201Y47647D01*
X81601Y47247D01*
X82001D01*
Y47647D01*
X81601Y48047D01*
X82001Y48447D01*
Y48847D01*
X81601D01*
X81201Y48447D01*
X80801Y48847D01*
X80401D01*
Y48447D01*
X80801Y48047D01*
X80401Y47647D01*
Y47247D01*
X74101Y47247D02*
X74501D01*
X74901Y47647D01*
X75301Y47247D01*
X75701D01*
Y47647D01*
X75301Y48047D01*
X75701Y48447D01*
Y48847D01*
X75301D01*
X74901Y48447D01*
X74501Y48847D01*
X74101D01*
Y48447D01*
X74501Y48047D01*
X74101Y47647D01*
Y47247D01*
X77251D02*
X77651D01*
X78051Y47647D01*
X78451Y47247D01*
X78851D01*
Y47647D01*
X78451Y48047D01*
X78851Y48447D01*
Y48847D01*
X78451D01*
X78051Y48447D01*
X77651Y48847D01*
X77251D01*
Y48447D01*
X77651Y48047D01*
X77251Y47647D01*
Y47247D01*
X45776Y46869D02*
X46176D01*
X46576Y47269D01*
X46976Y46869D01*
X47376D01*
Y47269D01*
X46976Y47669D01*
X47376Y48069D01*
Y48469D01*
X46976D01*
X46576Y48069D01*
X46176Y48469D01*
X45776D01*
Y48069D01*
X46176Y47669D01*
X45776Y47269D01*
Y46869D01*
Y50397D02*
X46176D01*
X46576Y50797D01*
X46976Y50397D01*
X47376D01*
Y50797D01*
X46976Y51197D01*
X47376Y51597D01*
Y51997D01*
X46976D01*
X46576Y51597D01*
X46176Y51997D01*
X45776D01*
Y51597D01*
X46176Y51197D01*
X45776Y50797D01*
Y50397D01*
X48876Y47169D02*
X49276D01*
X49676Y47569D01*
X50076Y47169D01*
X50476D01*
Y47569D01*
X50076Y47969D01*
X50476Y48369D01*
Y48769D01*
X50076D01*
X49676Y48369D01*
X49276Y48769D01*
X48876D01*
Y48369D01*
X49276Y47969D01*
X48876Y47569D01*
Y47169D01*
X52054Y50397D02*
X52454D01*
X52854Y50797D01*
X53254Y50397D01*
X53654D01*
Y50797D01*
X53254Y51197D01*
X53654Y51597D01*
Y51997D01*
X53254D01*
X52854Y51597D01*
X52454Y51997D01*
X52054D01*
Y51597D01*
X52454Y51197D01*
X52054Y50797D01*
Y50397D01*
X52054Y47247D02*
X52454D01*
X52854Y47647D01*
X53254Y47247D01*
X53654D01*
Y47647D01*
X53254Y48047D01*
X53654Y48447D01*
Y48847D01*
X53254D01*
X52854Y48447D01*
X52454Y48847D01*
X52054D01*
Y48447D01*
X52454Y48047D01*
X52054Y47647D01*
Y47247D01*
X48876Y50397D02*
X49276D01*
X49676Y50797D01*
X50076Y50397D01*
X50476D01*
Y50797D01*
X50076Y51197D01*
X50476Y51597D01*
Y51997D01*
X50076D01*
X49676Y51597D01*
X49276Y51997D01*
X48876D01*
Y51597D01*
X49276Y51197D01*
X48876Y50797D01*
Y50397D01*
X67876Y75569D02*
X68276D01*
X68676Y75969D01*
X69076Y75569D01*
X69476D01*
Y75969D01*
X69076Y76369D01*
X69476Y76769D01*
Y77169D01*
X69076D01*
X68676Y76769D01*
X68276Y77169D01*
X67876D01*
Y76769D01*
X68276Y76369D01*
X67876Y75969D01*
Y75569D01*
X64653Y69294D02*
X65053D01*
X65453Y69694D01*
X65853Y69294D01*
X66253D01*
Y69694D01*
X65853Y70094D01*
X66253Y70494D01*
Y70894D01*
X65853D01*
X65453Y70494D01*
X65053Y70894D01*
X64653D01*
Y70494D01*
X65053Y70094D01*
X64653Y69694D01*
Y69294D01*
X64653Y75594D02*
X65053D01*
X65453Y75994D01*
X65853Y75594D01*
X66253D01*
Y75994D01*
X65853Y76394D01*
X66253Y76794D01*
Y77194D01*
X65853D01*
X65453Y76794D01*
X65053Y77194D01*
X64653D01*
Y76794D01*
X65053Y76394D01*
X64653Y75994D01*
Y75594D01*
X61503D02*
X61903D01*
X62303Y75994D01*
X62703Y75594D01*
X63103D01*
Y75994D01*
X62703Y76394D01*
X63103Y76794D01*
Y77194D01*
X62703D01*
X62303Y76794D01*
X61903Y77194D01*
X61503D01*
Y76794D01*
X61903Y76394D01*
X61503Y75994D01*
Y75594D01*
X86876Y72469D02*
X87276D01*
X87676Y72869D01*
X88076Y72469D01*
X88476D01*
Y72869D01*
X88076Y73269D01*
X88476Y73669D01*
Y74069D01*
X88076D01*
X87676Y73669D01*
X87276Y74069D01*
X86876D01*
Y73669D01*
X87276Y73269D01*
X86876Y72869D01*
Y72469D01*
X58353Y72444D02*
X58753D01*
X59153Y72844D01*
X59553Y72444D01*
X59953D01*
Y72844D01*
X59553Y73244D01*
X59953Y73644D01*
Y74044D01*
X59553D01*
X59153Y73644D01*
X58753Y74044D01*
X58353D01*
Y73644D01*
X58753Y73244D01*
X58353Y72844D01*
Y72444D01*
X61503Y72444D02*
X61903D01*
X62303Y72844D01*
X62703Y72444D01*
X63103D01*
Y72844D01*
X62703Y73244D01*
X63103Y73644D01*
Y74044D01*
X62703D01*
X62303Y73644D01*
X61903Y74044D01*
X61503D01*
Y73644D01*
X61903Y73244D01*
X61503Y72844D01*
Y72444D01*
X58354Y69294D02*
X58754D01*
X59154Y69694D01*
X59554Y69294D01*
X59954D01*
Y69694D01*
X59554Y70094D01*
X59954Y70494D01*
Y70894D01*
X59554D01*
X59154Y70494D01*
X58754Y70894D01*
X58354D01*
Y70494D01*
X58754Y70094D01*
X58354Y69694D01*
Y69294D01*
X58353Y75594D02*
X58753D01*
X59153Y75994D01*
X59553Y75594D01*
X59953D01*
Y75994D01*
X59553Y76394D01*
X59953Y76794D01*
Y77194D01*
X59553D01*
X59153Y76794D01*
X58753Y77194D01*
X58353D01*
Y76794D01*
X58753Y76394D01*
X58353Y75994D01*
Y75594D01*
X55204Y69295D02*
X55604D01*
X56004Y69695D01*
X56404Y69295D01*
X56804D01*
Y69695D01*
X56404Y70095D01*
X56804Y70495D01*
Y70895D01*
X56404D01*
X56004Y70495D01*
X55604Y70895D01*
X55204D01*
Y70495D01*
X55604Y70095D01*
X55204Y69695D01*
Y69295D01*
X47776Y130769D02*
Y132369D01*
X49376D01*
Y130769D01*
X47776D01*
X48176Y131169D02*
Y131969D01*
X48976D01*
Y131169D01*
X48176D01*
X26476Y124869D02*
Y126469D01*
X28076D01*
Y124869D01*
X26476D01*
X26876Y125269D02*
Y126069D01*
X27676D01*
Y125269D01*
X26876D01*
X14676Y31469D02*
Y33069D01*
X16276D01*
Y31469D01*
X14676D01*
X15076Y31869D02*
Y32669D01*
X15876D01*
Y31869D01*
X15076D01*
X18476Y31512D02*
Y33112D01*
X20076D01*
Y31512D01*
X18476D01*
X18876Y31912D02*
Y32712D01*
X19676D01*
Y31912D01*
X18876D01*
X19376Y43769D02*
Y45369D01*
X20976D01*
Y43769D01*
X19376D01*
X19776Y44169D02*
Y44969D01*
X20576D01*
Y44169D01*
X19776D01*
X16576Y46169D02*
Y47769D01*
X18176D01*
Y46169D01*
X16576D01*
X16976Y46569D02*
Y47369D01*
X17776D01*
Y46569D01*
X16976D01*
X30476Y48169D02*
Y49769D01*
X32076D01*
Y48169D01*
X30476D01*
X30876Y48569D02*
Y49369D01*
X31676D01*
Y48569D01*
X30876D01*
X30376Y44569D02*
Y46169D01*
X31976D01*
Y44569D01*
X30376D01*
X30776Y44969D02*
Y45769D01*
X31576D01*
Y44969D01*
X30776D01*
X11176Y15969D02*
Y17569D01*
X12776D01*
Y15969D01*
X11176D01*
X11576Y16369D02*
Y17169D01*
X12376D01*
Y16369D01*
X11576D01*
X7776Y20169D02*
Y21769D01*
X9376D01*
Y20169D01*
X7776D01*
X8176Y20569D02*
Y21369D01*
X8976D01*
Y20569D01*
X8176D01*
X55579Y112944D02*
X55979D01*
X56379Y113345D01*
X56779Y112944D01*
X57178D01*
Y113345D01*
X56779Y113744D01*
X57178Y114145D01*
Y114544D01*
X56779D01*
X56379Y114145D01*
X55979Y114544D01*
X55579D01*
Y114145D01*
X55979Y113744D01*
X55579Y113345D01*
Y112944D01*
X68370Y110385D02*
X68770D01*
X69170Y110784D01*
X69570Y110385D01*
X69971D01*
Y110784D01*
X69570Y111185D01*
X69971Y111584D01*
Y111985D01*
X69570D01*
X69170Y111584D01*
X68770Y111985D01*
X68370D01*
Y111584D01*
X68770Y111185D01*
X68370Y110784D01*
Y110385D01*
X48905Y75594D02*
X49305D01*
X49705Y75994D01*
X50105Y75594D01*
X50505D01*
Y75994D01*
X50105Y76394D01*
X50505Y76794D01*
Y77194D01*
X50105D01*
X49705Y76794D01*
X49305Y77194D01*
X48905D01*
Y76794D01*
X49305Y76394D01*
X48905Y75994D01*
Y75594D01*
X52054D02*
X52454D01*
X52854Y75994D01*
X53254Y75594D01*
X53654D01*
Y75994D01*
X53254Y76394D01*
X53654Y76794D01*
Y77194D01*
X53254D01*
X52854Y76794D01*
X52454Y77194D01*
X52054D01*
Y76794D01*
X52454Y76394D01*
X52054Y75994D01*
Y75594D01*
X55204Y75594D02*
X55604D01*
X56004Y75994D01*
X56404Y75594D01*
X56804D01*
Y75994D01*
X56404Y76394D01*
X56804Y76794D01*
Y77194D01*
X56404D01*
X56004Y76794D01*
X55604Y77194D01*
X55204D01*
Y76794D01*
X55604Y76394D01*
X55204Y75994D01*
Y75594D01*
X74101D02*
X74501D01*
X74901Y75994D01*
X75301Y75594D01*
X75701D01*
Y75994D01*
X75301Y76394D01*
X75701Y76794D01*
Y77194D01*
X75301D01*
X74901Y76794D01*
X74501Y77194D01*
X74101D01*
Y76794D01*
X74501Y76394D01*
X74101Y75994D01*
Y75594D01*
X52054Y72444D02*
X52454D01*
X52854Y72844D01*
X53254Y72444D01*
X53654D01*
Y72844D01*
X53254Y73244D01*
X53654Y73644D01*
Y74044D01*
X53254D01*
X52854Y73644D01*
X52454Y74044D01*
X52054D01*
Y73644D01*
X52454Y73244D01*
X52054Y72844D01*
Y72444D01*
X92999Y53546D02*
X93399D01*
X93799Y53946D01*
X94199Y53546D01*
X94599D01*
Y53946D01*
X94199Y54346D01*
X94599Y54746D01*
Y55146D01*
X94199D01*
X93799Y54746D01*
X93399Y55146D01*
X92999D01*
Y54746D01*
X93399Y54346D01*
X92999Y53946D01*
Y53546D01*
X92999Y50397D02*
X93399D01*
X93799Y50797D01*
X94199Y50397D01*
X94599D01*
Y50797D01*
X94199Y51197D01*
X94599Y51597D01*
Y51997D01*
X94199D01*
X93799Y51597D01*
X93399Y51997D01*
X92999D01*
Y51597D01*
X93399Y51197D01*
X92999Y50797D01*
Y50397D01*
X89849Y50397D02*
X90249D01*
X90649Y50797D01*
X91049Y50397D01*
X91449D01*
Y50797D01*
X91049Y51197D01*
X91449Y51597D01*
Y51997D01*
X91049D01*
X90649Y51597D01*
X90249Y51997D01*
X89849D01*
Y51597D01*
X90249Y51197D01*
X89849Y50797D01*
Y50397D01*
X70952Y50397D02*
X71352D01*
X71752Y50797D01*
X72152Y50397D01*
X72552D01*
Y50797D01*
X72152Y51197D01*
X72552Y51597D01*
Y51997D01*
X72152D01*
X71752Y51597D01*
X71352Y51997D01*
X70952D01*
Y51597D01*
X71352Y51197D01*
X70952Y50797D01*
Y50397D01*
X86700Y53546D02*
X87100D01*
X87500Y53946D01*
X87900Y53546D01*
X88300D01*
Y53946D01*
X87900Y54346D01*
X88300Y54746D01*
Y55146D01*
X87900D01*
X87500Y54746D01*
X87100Y55146D01*
X86700D01*
Y54746D01*
X87100Y54346D01*
X86700Y53946D01*
Y53546D01*
X89849Y53546D02*
X90249D01*
X90649Y53946D01*
X91049Y53546D01*
X91449D01*
Y53946D01*
X91049Y54346D01*
X91449Y54746D01*
Y55146D01*
X91049D01*
X90649Y54746D01*
X90249Y55146D01*
X89849D01*
Y54746D01*
X90249Y54346D01*
X89849Y53946D01*
Y53546D01*
X83550Y53546D02*
X83950D01*
X84350Y53946D01*
X84750Y53546D01*
X85150D01*
Y53946D01*
X84750Y54346D01*
X85150Y54746D01*
Y55146D01*
X84750D01*
X84350Y54746D01*
X83950Y55146D01*
X83550D01*
Y54746D01*
X83950Y54346D01*
X83550Y53946D01*
Y53546D01*
X74101Y53546D02*
X74501D01*
X74901Y53946D01*
X75301Y53546D01*
X75701D01*
Y53946D01*
X75301Y54346D01*
X75701Y54746D01*
Y55146D01*
X75301D01*
X74901Y54746D01*
X74501Y55146D01*
X74101D01*
Y54746D01*
X74501Y54346D01*
X74101Y53946D01*
Y53546D01*
X64652D02*
X65052D01*
X65452Y53946D01*
X65852Y53546D01*
X66252D01*
Y53946D01*
X65852Y54346D01*
X66252Y54746D01*
Y55146D01*
X65852D01*
X65452Y54746D01*
X65052Y55146D01*
X64652D01*
Y54746D01*
X65052Y54346D01*
X64652Y53946D01*
Y53546D01*
X58353Y47247D02*
X58753D01*
X59153Y47647D01*
X59553Y47247D01*
X59953D01*
Y47647D01*
X59553Y48047D01*
X59953Y48447D01*
Y48847D01*
X59553D01*
X59153Y48447D01*
X58753Y48847D01*
X58353D01*
Y48447D01*
X58753Y48047D01*
X58353Y47647D01*
Y47247D01*
X61503Y47247D02*
X61903D01*
X62303Y47647D01*
X62703Y47247D01*
X63103D01*
Y47647D01*
X62703Y48047D01*
X63103Y48447D01*
Y48847D01*
X62703D01*
X62303Y48447D01*
X61903Y48847D01*
X61503D01*
Y48447D01*
X61903Y48047D01*
X61503Y47647D01*
Y47247D01*
X64652D02*
X65052D01*
X65452Y47647D01*
X65852Y47247D01*
X66252D01*
Y47647D01*
X65852Y48047D01*
X66252Y48447D01*
Y48847D01*
X65852D01*
X65452Y48447D01*
X65052Y48847D01*
X64652D01*
Y48447D01*
X65052Y48047D01*
X64652Y47647D01*
Y47247D01*
X70952D02*
X71352D01*
X71752Y47647D01*
X72152Y47247D01*
X72552D01*
Y47647D01*
X72152Y48047D01*
X72552Y48447D01*
Y48847D01*
X72152D01*
X71752Y48447D01*
X71352Y48847D01*
X70952D01*
Y48447D01*
X71352Y48047D01*
X70952Y47647D01*
Y47247D01*
X83550Y47247D02*
X83950D01*
X84350Y47647D01*
X84750Y47247D01*
X85150D01*
Y47647D01*
X84750Y48047D01*
X85150Y48447D01*
Y48847D01*
X84750D01*
X84350Y48447D01*
X83950Y48847D01*
X83550D01*
Y48447D01*
X83950Y48047D01*
X83550Y47647D01*
Y47247D01*
X86700Y47247D02*
X87100D01*
X87500Y47647D01*
X87900Y47247D01*
X88300D01*
Y47647D01*
X87900Y48047D01*
X88300Y48447D01*
Y48847D01*
X87900D01*
X87500Y48447D01*
X87100Y48847D01*
X86700D01*
Y48447D01*
X87100Y48047D01*
X86700Y47647D01*
Y47247D01*
X89849D02*
X90249D01*
X90649Y47647D01*
X91049Y47247D01*
X91449D01*
Y47647D01*
X91049Y48047D01*
X91449Y48447D01*
Y48847D01*
X91049D01*
X90649Y48447D01*
X90249Y48847D01*
X89849D01*
Y48447D01*
X90249Y48047D01*
X89849Y47647D01*
Y47247D01*
X92999Y47247D02*
X93399D01*
X93799Y47647D01*
X94199Y47247D01*
X94599D01*
Y47647D01*
X94199Y48047D01*
X94599Y48447D01*
Y48847D01*
X94199D01*
X93799Y48447D01*
X93399Y48847D01*
X92999D01*
Y48447D01*
X93399Y48047D01*
X92999Y47647D01*
Y47247D01*
X80401Y50397D02*
X80801D01*
X81201Y50797D01*
X81601Y50397D01*
X82001D01*
Y50797D01*
X81601Y51197D01*
X82001Y51597D01*
Y51997D01*
X81601D01*
X81201Y51597D01*
X80801Y51997D01*
X80401D01*
Y51597D01*
X80801Y51197D01*
X80401Y50797D01*
Y50397D01*
X83550Y50397D02*
X83950D01*
X84350Y50797D01*
X84750Y50397D01*
X85150D01*
Y50797D01*
X84750Y51197D01*
X85150Y51597D01*
Y51997D01*
X84750D01*
X84350Y51597D01*
X83950Y51997D01*
X83550D01*
Y51597D01*
X83950Y51197D01*
X83550Y50797D01*
Y50397D01*
X86700D02*
X87100D01*
X87500Y50797D01*
X87900Y50397D01*
X88300D01*
Y50797D01*
X87900Y51197D01*
X88300Y51597D01*
Y51997D01*
X87900D01*
X87500Y51597D01*
X87100Y51997D01*
X86700D01*
Y51597D01*
X87100Y51197D01*
X86700Y50797D01*
Y50397D01*
X52054Y66145D02*
X52454D01*
X52854Y66545D01*
X53254Y66145D01*
X53654D01*
Y66545D01*
X53254Y66945D01*
X53654Y67345D01*
Y67745D01*
X53254D01*
X52854Y67345D01*
X52454Y67745D01*
X52054D01*
Y67345D01*
X52454Y66945D01*
X52054Y66545D01*
Y66145D01*
X48905D02*
X49305D01*
X49705Y66545D01*
X50105Y66145D01*
X50505D01*
Y66545D01*
X50105Y66945D01*
X50505Y67345D01*
Y67745D01*
X50105D01*
X49705Y67345D01*
X49305Y67745D01*
X48905D01*
Y67345D01*
X49305Y66945D01*
X48905Y66545D01*
Y66145D01*
X67803Y66145D02*
X68203D01*
X68603Y66545D01*
X69003Y66145D01*
X69403D01*
Y66545D01*
X69003Y66945D01*
X69403Y67345D01*
Y67745D01*
X69003D01*
X68603Y67345D01*
X68203Y67745D01*
X67803D01*
Y67345D01*
X68203Y66945D01*
X67803Y66545D01*
Y66145D01*
X86700D02*
X87100D01*
X87500Y66545D01*
X87900Y66145D01*
X88300D01*
Y66545D01*
X87900Y66945D01*
X88300Y67345D01*
Y67745D01*
X87900D01*
X87500Y67345D01*
X87100Y67745D01*
X86700D01*
Y67345D01*
X87100Y66945D01*
X86700Y66545D01*
Y66145D01*
X89850D02*
X90250D01*
X90650Y66545D01*
X91050Y66145D01*
X91450D01*
Y66545D01*
X91050Y66945D01*
X91450Y67345D01*
Y67745D01*
X91050D01*
X90650Y67345D01*
X90250Y67745D01*
X89850D01*
Y67345D01*
X90250Y66945D01*
X89850Y66545D01*
Y66145D01*
X77251Y72444D02*
X77651D01*
X78051Y72844D01*
X78451Y72444D01*
X78851D01*
Y72844D01*
X78451Y73244D01*
X78851Y73644D01*
Y74044D01*
X78451D01*
X78051Y73644D01*
X77651Y74044D01*
X77251D01*
Y73644D01*
X77651Y73244D01*
X77251Y72844D01*
Y72444D01*
X67802Y69294D02*
X68202D01*
X68602Y69694D01*
X69002Y69294D01*
X69402D01*
Y69694D01*
X69002Y70094D01*
X69402Y70494D01*
Y70894D01*
X69002D01*
X68602Y70494D01*
X68202Y70894D01*
X67802D01*
Y70494D01*
X68202Y70094D01*
X67802Y69694D01*
Y69294D01*
X55529Y102657D02*
X55929D01*
X56330Y103058D01*
X56730Y102657D01*
X57130D01*
Y103058D01*
X56730Y103457D01*
X57130Y103858D01*
Y104258D01*
X56730D01*
X56330Y103858D01*
X55929Y104258D01*
X55529D01*
Y103858D01*
X55929Y103457D01*
X55529Y103058D01*
Y102657D01*
X83728Y110386D02*
X84128D01*
X84528Y110785D01*
X84929Y110386D01*
X85329D01*
Y110785D01*
X84929Y111186D01*
X85329Y111585D01*
Y111986D01*
X84929D01*
X84528Y111585D01*
X84128Y111986D01*
X83728D01*
Y111585D01*
X84128Y111186D01*
X83728Y110785D01*
Y110386D01*
X74102Y66145D02*
X74502D01*
X74902Y66545D01*
X75302Y66145D01*
X75702D01*
Y66545D01*
X75302Y66945D01*
X75702Y67345D01*
Y67745D01*
X75302D01*
X74902Y67345D01*
X74502Y67745D01*
X74102D01*
Y67345D01*
X74502Y66945D01*
X74102Y66545D01*
Y66145D01*
X61076Y63369D02*
X61476D01*
X61876Y63769D01*
X62276Y63369D01*
X62676D01*
Y63769D01*
X62276Y64169D01*
X62676Y64569D01*
Y64969D01*
X62276D01*
X61876Y64569D01*
X61476Y64969D01*
X61076D01*
Y64569D01*
X61476Y64169D01*
X61076Y63769D01*
Y63369D01*
X44676Y62369D02*
X45076D01*
X45476Y62769D01*
X45876Y62369D01*
X46276D01*
Y62769D01*
X45876Y63169D01*
X46276Y63569D01*
Y63969D01*
X45876D01*
X45476Y63569D01*
X45076Y63969D01*
X44676D01*
Y63569D01*
X45076Y63169D01*
X44676Y62769D01*
Y62369D01*
X72776Y16369D02*
Y17969D01*
X74376D01*
Y16369D01*
X72776D01*
X73176Y16769D02*
Y17569D01*
X73976D01*
Y16769D01*
X73176D01*
X75976Y6869D02*
Y8469D01*
X77576D01*
Y6869D01*
X75976D01*
X76376Y7269D02*
Y8069D01*
X77176D01*
Y7269D01*
X76376D01*
X84476Y3369D02*
Y4969D01*
X86076D01*
Y3369D01*
X84476D01*
X84876Y3769D02*
Y4569D01*
X85676D01*
Y3769D01*
X84876D01*
X80476Y6469D02*
Y8069D01*
X82076D01*
Y6469D01*
X80476D01*
X80876Y6869D02*
Y7669D01*
X81676D01*
Y6869D01*
X80876D01*
X44976Y6426D02*
Y8026D01*
X46576D01*
Y6426D01*
X44976D01*
X45376Y6826D02*
Y7626D01*
X46176D01*
Y6826D01*
X45376D01*
X41176Y9269D02*
Y10869D01*
X42776D01*
Y9269D01*
X41176D01*
X41576Y9669D02*
Y10469D01*
X42376D01*
Y9669D01*
X41576D01*
X44076Y41469D02*
Y43069D01*
X45676D01*
Y41469D01*
X44076D01*
X44476Y41869D02*
Y42669D01*
X45276D01*
Y41869D01*
X44476D01*
X51076Y24436D02*
Y26036D01*
X52676D01*
Y24436D01*
X51076D01*
X51476Y24836D02*
Y25636D01*
X52276D01*
Y24836D01*
X51476D01*
X100121Y42542D02*
Y44142D01*
X101722D01*
Y42542D01*
X100121D01*
X100522Y42943D02*
Y43742D01*
X101321D01*
Y42943D01*
X100522D01*
X102681Y42542D02*
Y44142D01*
X104280D01*
Y42542D01*
X102681D01*
X103080Y42943D02*
Y43742D01*
X103881D01*
Y42943D01*
X103080D01*
X120076Y118269D02*
Y119869D01*
X121676D01*
Y118269D01*
X120076D01*
X120476Y118669D02*
Y119469D01*
X121276D01*
Y118669D01*
X120476D01*
X122176Y116069D02*
Y117669D01*
X123776D01*
Y116069D01*
X122176D01*
X122576Y116469D02*
Y117269D01*
X123376D01*
Y116469D01*
X122576D01*
X64319Y146969D02*
Y148569D01*
X65918D01*
Y146969D01*
X64319D01*
X64719Y147369D02*
Y148169D01*
X65518D01*
Y147369D01*
X64719D01*
X64279Y142369D02*
Y143969D01*
X65879D01*
Y142369D01*
X64279D01*
X64679Y142769D02*
Y143569D01*
X65479D01*
Y142769D01*
X64679D01*
X68256Y146969D02*
Y148569D01*
X69855D01*
Y146969D01*
X68256D01*
X68656Y147369D02*
Y148169D01*
X69455D01*
Y147369D01*
X68656D01*
X68216Y142369D02*
Y143969D01*
X69816D01*
Y142369D01*
X68216D01*
X68616Y142769D02*
Y143569D01*
X69416D01*
Y142769D01*
X68616D01*
X83969Y142369D02*
Y143969D01*
X85568D01*
Y142369D01*
X83969D01*
X84368Y142769D02*
Y143569D01*
X85168D01*
Y142769D01*
X84368D01*
X85976Y158969D02*
Y160569D01*
X87576D01*
Y158969D01*
X85976D01*
X86376Y159369D02*
Y160169D01*
X87176D01*
Y159369D01*
X86376D01*
X78076Y158969D02*
Y160569D01*
X79676D01*
Y158969D01*
X78076D01*
X78476Y159369D02*
Y160169D01*
X79276D01*
Y159369D01*
X78476D01*
X66255Y161669D02*
Y163269D01*
X67855D01*
Y161669D01*
X66255D01*
X66655Y162069D02*
Y162869D01*
X67455D01*
Y162069D01*
X66655D01*
X62318Y161669D02*
Y163269D01*
X63918D01*
Y161669D01*
X62318D01*
X62718Y162069D02*
Y162869D01*
X63518D01*
Y162069D01*
X62718D01*
X54444Y161669D02*
Y163269D01*
X56044D01*
Y161669D01*
X54444D01*
X54844Y162069D02*
Y162869D01*
X55644D01*
Y162069D01*
X54844D01*
X39076Y149069D02*
Y150669D01*
X40676D01*
Y149069D01*
X39076D01*
X39476Y149469D02*
Y150269D01*
X40276D01*
Y149469D01*
X39476D01*
X44776Y149069D02*
Y150669D01*
X46376D01*
Y149069D01*
X44776D01*
X45176Y149469D02*
Y150269D01*
X45976D01*
Y149469D01*
X45176D01*
X68375Y125741D02*
X68774D01*
X69174Y126140D01*
X69574Y125741D01*
X69974D01*
Y126140D01*
X69574Y126541D01*
X69974Y126941D01*
Y127340D01*
X69574D01*
X69174Y126941D01*
X68774Y127340D01*
X68375D01*
Y126941D01*
X68774Y126541D01*
X68375Y126140D01*
Y125741D01*
X80576Y140469D02*
Y142069D01*
X82176D01*
Y140469D01*
X80576D01*
X80976Y140869D02*
Y141669D01*
X81776D01*
Y140869D01*
X80976D01*
X66276Y158969D02*
Y160569D01*
X67876D01*
Y158969D01*
X66276D01*
X66676Y159369D02*
Y160169D01*
X67476D01*
Y159369D01*
X66676D01*
X74176Y161669D02*
Y163269D01*
X75776D01*
Y161669D01*
X74176D01*
X74576Y162069D02*
Y162869D01*
X75376D01*
Y162069D01*
X74576D01*
X70192Y158969D02*
Y160569D01*
X71792D01*
Y158969D01*
X70192D01*
X70592Y159369D02*
Y160169D01*
X71392D01*
Y159369D01*
X70592D01*
X74176Y156969D02*
Y158569D01*
X75776D01*
Y156969D01*
X74176D01*
X74576Y157369D02*
Y158169D01*
X75376D01*
Y157369D01*
X74576D01*
X124476Y112944D02*
Y114544D01*
X126076D01*
Y112944D01*
X124476D01*
X124876Y113345D02*
Y114145D01*
X125676D01*
Y113345D01*
X124876D01*
X76776Y141762D02*
Y143361D01*
X78376D01*
Y141762D01*
X76776D01*
X77176Y142162D02*
Y142962D01*
X77976D01*
Y142162D01*
X77176D01*
X77276Y132169D02*
Y133769D01*
X78876D01*
Y132169D01*
X77276D01*
X77676Y132569D02*
Y133369D01*
X78476D01*
Y132569D01*
X77676D01*
X70192Y161669D02*
Y163269D01*
X71792D01*
Y161669D01*
X70192D01*
X70592Y162069D02*
Y162869D01*
X71392D01*
Y162069D01*
X70592D01*
X106076Y100169D02*
Y101769D01*
X107676D01*
Y100169D01*
X106076D01*
X106476Y100569D02*
Y101369D01*
X107276D01*
Y100569D01*
X106476D01*
X113876Y60069D02*
Y61669D01*
X115476D01*
Y60069D01*
X113876D01*
X114276Y60469D02*
Y61269D01*
X115076D01*
Y60469D01*
X114276D01*
X110776Y70669D02*
Y72269D01*
X112376D01*
Y70669D01*
X110776D01*
X111176Y71069D02*
Y71869D01*
X111976D01*
Y71069D01*
X111176D01*
X33337Y128109D02*
Y129709D01*
X34937D01*
Y128109D01*
X33337D01*
X33737Y128509D02*
Y129309D01*
X34537D01*
Y128509D01*
X33737D01*
X36591Y131369D02*
Y132969D01*
X38191D01*
Y131369D01*
X36591D01*
X36991Y131769D02*
Y132569D01*
X37791D01*
Y131769D01*
X36991D01*
X30415Y105969D02*
Y107569D01*
X32015D01*
Y105969D01*
X30415D01*
X30814Y106369D02*
Y107169D01*
X31615D01*
Y106369D01*
X30814D01*
X30415Y102708D02*
Y104307D01*
X32015D01*
Y102708D01*
X30415D01*
X30814Y103108D02*
Y103908D01*
X31615D01*
Y103108D01*
X30814D01*
X24476Y61969D02*
Y63569D01*
X26076D01*
Y61969D01*
X24476D01*
X24876Y62369D02*
Y63169D01*
X25676D01*
Y62369D01*
X24876D01*
X29476Y61969D02*
Y63569D01*
X31076D01*
Y61969D01*
X29476D01*
X29876Y62369D02*
Y63169D01*
X30676D01*
Y62369D01*
X29876D01*
X24976Y50869D02*
Y52469D01*
X26576D01*
Y50869D01*
X24976D01*
X25376Y51269D02*
Y52069D01*
X26176D01*
Y51269D01*
X25376D01*
X131776Y106846D02*
Y108446D01*
X133376D01*
Y106846D01*
X131776D01*
X132176Y107246D02*
Y108046D01*
X132976D01*
Y107246D01*
X132176D01*
X31976Y144369D02*
Y145969D01*
X33576D01*
Y144369D01*
X31976D01*
X32376Y144769D02*
Y145569D01*
X33176D01*
Y144769D01*
X32376D01*
X30996Y131869D02*
Y133469D01*
X32596D01*
Y131869D01*
X30996D01*
X31396Y132269D02*
Y133069D01*
X32196D01*
Y132269D01*
X31396D01*
X132214Y115507D02*
Y117107D01*
X133814D01*
Y115507D01*
X132214D01*
X132614Y115907D02*
Y116707D01*
X133414D01*
Y115907D01*
X132614D01*
X132076Y123969D02*
Y125569D01*
X133676D01*
Y123969D01*
X132076D01*
X132476Y124369D02*
Y125169D01*
X133276D01*
Y124369D01*
X132476D01*
X128676Y123969D02*
Y125569D01*
X130276D01*
Y123969D01*
X128676D01*
X129076Y124369D02*
Y125169D01*
X129876D01*
Y124369D01*
X129076D01*
X117076Y127169D02*
Y128769D01*
X118676D01*
Y127169D01*
X117076D01*
X117476Y127569D02*
Y128369D01*
X118276D01*
Y127569D01*
X117476D01*
X113776Y127169D02*
Y128769D01*
X115376D01*
Y127169D01*
X113776D01*
X114176Y127569D02*
Y128369D01*
X114976D01*
Y127569D01*
X114176D01*
X79876Y131569D02*
X80276D01*
X80676Y131969D01*
X81076Y131569D01*
X81476D01*
Y131969D01*
X81076Y132369D01*
X81476Y132769D01*
Y133169D01*
X81076D01*
X80676Y132769D01*
X80276Y133169D01*
X79876D01*
Y132769D01*
X80276Y132369D01*
X79876Y131969D01*
Y131569D01*
X110576Y87469D02*
Y89069D01*
X112176D01*
Y87469D01*
X110576D01*
X110976Y87869D02*
Y88669D01*
X111776D01*
Y87869D01*
X110976D01*
X133976Y88669D02*
Y90269D01*
X135576D01*
Y88669D01*
X133976D01*
X134376Y89069D02*
Y89869D01*
X135176D01*
Y89069D01*
X134376D01*
X131076Y84169D02*
Y85769D01*
X132676D01*
Y84169D01*
X131076D01*
X131476Y84569D02*
Y85369D01*
X132276D01*
Y84569D01*
X131476D01*
X128476Y96169D02*
Y97769D01*
X130076D01*
Y96169D01*
X128476D01*
X128876Y96569D02*
Y97369D01*
X129676D01*
Y96569D01*
X128876D01*
X115523Y96769D02*
Y98369D01*
X117122D01*
Y96769D01*
X115523D01*
X115922Y97169D02*
Y97969D01*
X116723D01*
Y97169D01*
X115922D01*
X110476Y77969D02*
Y79569D01*
X112076D01*
Y77969D01*
X110476D01*
X110876Y78369D02*
Y79169D01*
X111676D01*
Y78369D01*
X110876D01*
X107576Y84069D02*
Y85669D01*
X109176D01*
Y84069D01*
X107576D01*
X107976Y84469D02*
Y85269D01*
X108776D01*
Y84469D01*
X107976D01*
X72168Y142369D02*
Y143969D01*
X73769D01*
Y142369D01*
X72168D01*
X72569Y142769D02*
Y143569D01*
X73369D01*
Y142769D01*
X72569D01*
X53876Y136769D02*
Y138369D01*
X55476D01*
Y136769D01*
X53876D01*
X54276Y137169D02*
Y137969D01*
X55076D01*
Y137169D01*
X54276D01*
X119276Y91169D02*
Y92769D01*
X120876D01*
Y91169D01*
X119276D01*
X119676Y91569D02*
Y92369D01*
X120476D01*
Y91569D01*
X119676D01*
X121776Y90269D02*
Y91869D01*
X123376D01*
Y90269D01*
X121776D01*
X122176Y90669D02*
Y91469D01*
X122976D01*
Y90669D01*
X122176D01*
X84276Y160669D02*
Y162269D01*
X85876D01*
Y160669D01*
X84276D01*
X84676Y161069D02*
Y161869D01*
X85476D01*
Y161069D01*
X84676D01*
X72176Y139369D02*
Y140969D01*
X73776D01*
Y139369D01*
X72176D01*
X72576Y139769D02*
Y140569D01*
X73376D01*
Y139769D01*
X72576D01*
X31676Y113169D02*
Y114769D01*
X33276D01*
Y113169D01*
X31676D01*
X32076Y113569D02*
Y114369D01*
X32876D01*
Y113569D01*
X32076D01*
X107776Y90869D02*
Y92469D01*
X109376D01*
Y90869D01*
X107776D01*
X108176Y91269D02*
Y92069D01*
X108976D01*
Y91269D01*
X108176D01*
X83550Y78369D02*
X83950D01*
X84350Y78769D01*
X84750Y78369D01*
X85150D01*
Y78769D01*
X84750Y79169D01*
X85150Y79569D01*
Y79969D01*
X84750D01*
X84350Y79569D01*
X83950Y79969D01*
X83550D01*
Y79569D01*
X83950Y79169D01*
X83550Y78769D01*
Y78369D01*
X61503Y50397D02*
X61903D01*
X62303Y50797D01*
X62703Y50397D01*
X63103D01*
Y50797D01*
X62703Y51197D01*
X63103Y51597D01*
Y51997D01*
X62703D01*
X62303Y51597D01*
X61903Y51997D01*
X61503D01*
Y51597D01*
X61903Y51197D01*
X61503Y50797D01*
Y50397D01*
X45755Y53546D02*
X46155D01*
X46555Y53946D01*
X46955Y53546D01*
X47355D01*
Y53946D01*
X46955Y54346D01*
X47355Y54746D01*
Y55146D01*
X46955D01*
X46555Y54746D01*
X46155Y55146D01*
X45755D01*
Y54746D01*
X46155Y54346D01*
X45755Y53946D01*
Y53546D01*
X48904D02*
X49304D01*
X49704Y53946D01*
X50104Y53546D01*
X50504D01*
Y53946D01*
X50104Y54346D01*
X50504Y54746D01*
Y55146D01*
X50104D01*
X49704Y54746D01*
X49304Y55146D01*
X48904D01*
Y54746D01*
X49304Y54346D01*
X48904Y53946D01*
Y53546D01*
X58353Y50397D02*
X58753D01*
X59153Y50797D01*
X59553Y50397D01*
X59953D01*
Y50797D01*
X59553Y51197D01*
X59953Y51597D01*
Y51997D01*
X59553D01*
X59153Y51597D01*
X58753Y51997D01*
X58353D01*
Y51597D01*
X58753Y51197D01*
X58353Y50797D01*
Y50397D01*
X36576Y53469D02*
Y55069D01*
X38176D01*
Y53469D01*
X36576D01*
X36976Y53869D02*
Y54669D01*
X37776D01*
Y53869D01*
X36976D01*
X40676Y89669D02*
Y91269D01*
X42276D01*
Y89669D01*
X40676D01*
X41076Y90069D02*
Y90869D01*
X41876D01*
Y90069D01*
X41076D01*
X40676Y92469D02*
Y94069D01*
X42276D01*
Y92469D01*
X40676D01*
X41076Y92869D02*
Y93669D01*
X41876D01*
Y92869D01*
X41076D01*
X15176Y87869D02*
Y89469D01*
X16776D01*
Y87869D01*
X15176D01*
X15576Y88269D02*
Y89069D01*
X16376D01*
Y88269D01*
X15576D01*
X15176Y98369D02*
Y99969D01*
X16776D01*
Y98369D01*
X15176D01*
X15576Y98769D02*
Y99569D01*
X16376D01*
Y98769D01*
X15576D01*
X15176Y95069D02*
Y96669D01*
X16776D01*
Y95069D01*
X15176D01*
X15576Y95469D02*
Y96269D01*
X16376D01*
Y95469D01*
X15576D01*
X15376Y104269D02*
Y105869D01*
X16976D01*
Y104269D01*
X15376D01*
X15776Y104669D02*
Y105469D01*
X16576D01*
Y104669D01*
X15776D01*
X60342Y145003D02*
Y146603D01*
X61942D01*
Y145003D01*
X60342D01*
X60742Y145403D02*
Y146203D01*
X61542D01*
Y145403D01*
X60742D01*
X35676Y139969D02*
Y141569D01*
X37276D01*
Y139969D01*
X35676D01*
X36076Y140369D02*
Y141169D01*
X36876D01*
Y140369D01*
X36076D01*
X25276Y117069D02*
Y118669D01*
X26876D01*
Y117069D01*
X25276D01*
X25676Y117469D02*
Y118269D01*
X26476D01*
Y117469D01*
X25676D01*
X22376Y104169D02*
Y105769D01*
X23976D01*
Y104169D01*
X22376D01*
X22776Y104569D02*
Y105369D01*
X23576D01*
Y104569D01*
X22776D01*
X22376Y108169D02*
Y109769D01*
X23976D01*
Y108169D01*
X22376D01*
X22776Y108569D02*
Y109369D01*
X23576D01*
Y108569D01*
X22776D01*
X19476Y111069D02*
Y112669D01*
X21076D01*
Y111069D01*
X19476D01*
X19876Y111469D02*
Y112269D01*
X20676D01*
Y111469D01*
X19876D01*
X34240Y170106D02*
Y171705D01*
X35840D01*
Y170106D01*
X34240D01*
X34639Y170505D02*
Y171306D01*
X35440D01*
Y170505D01*
X34639D01*
X104576Y170269D02*
Y171869D01*
X106176D01*
Y170269D01*
X104576D01*
X104976Y170669D02*
Y171469D01*
X105776D01*
Y170669D01*
X104976D01*
X114676Y138769D02*
Y140369D01*
X116276D01*
Y138769D01*
X114676D01*
X115076Y139169D02*
Y139969D01*
X115876D01*
Y139169D01*
X115076D01*
X112576Y138769D02*
Y140369D01*
X114176D01*
Y138769D01*
X112576D01*
X112976Y139169D02*
Y139969D01*
X113776D01*
Y139169D01*
X112976D01*
X110476Y138769D02*
Y140369D01*
X112076D01*
Y138769D01*
X110476D01*
X110876Y139169D02*
Y139969D01*
X111676D01*
Y139169D01*
X110876D01*
X77876Y27969D02*
Y29569D01*
X79476D01*
Y27969D01*
X77876D01*
X78276Y28369D02*
Y29169D01*
X79076D01*
Y28369D01*
X78276D01*
X80976Y27969D02*
Y29569D01*
X82576D01*
Y27969D01*
X80976D01*
X81376Y28369D02*
Y29169D01*
X82176D01*
Y28369D01*
X81376D01*
X84076Y27969D02*
Y29569D01*
X85676D01*
Y27969D01*
X84076D01*
X84476Y28369D02*
Y29169D01*
X85276D01*
Y28369D01*
X84476D01*
X86902Y41469D02*
Y43069D01*
X88502D01*
Y41469D01*
X86902D01*
X87302Y41869D02*
Y42669D01*
X88102D01*
Y41869D01*
X87302D01*
X101476Y30869D02*
Y32469D01*
X103076D01*
Y30869D01*
X101476D01*
X101876Y31269D02*
Y32069D01*
X102676D01*
Y31269D01*
X101876D01*
X85576Y16969D02*
Y18569D01*
X87176D01*
Y16969D01*
X85576D01*
X85976Y17369D02*
Y18169D01*
X86776D01*
Y17369D01*
X85976D01*
X85576Y13969D02*
Y15569D01*
X87176D01*
Y13969D01*
X85576D01*
X85976Y14369D02*
Y15169D01*
X86776D01*
Y14369D01*
X85976D01*
X90276Y20069D02*
Y21669D01*
X91876D01*
Y20069D01*
X90276D01*
X90676Y20469D02*
Y21269D01*
X91476D01*
Y20469D01*
X90676D01*
X120956Y19349D02*
Y20949D01*
X122556D01*
Y19349D01*
X120956D01*
X121356Y19749D02*
Y20549D01*
X122156D01*
Y19749D01*
X121356D01*
X115276Y10669D02*
Y12269D01*
X116876D01*
Y10669D01*
X115276D01*
X115676Y11069D02*
Y11869D01*
X116476D01*
Y11069D01*
X115676D01*
X118476Y10669D02*
Y12269D01*
X120076D01*
Y10669D01*
X118476D01*
X118876Y11069D02*
Y11869D01*
X119676D01*
Y11069D01*
X118876D01*
X96776Y10169D02*
Y11769D01*
X98376D01*
Y10169D01*
X96776D01*
X97176Y10569D02*
Y11369D01*
X97976D01*
Y10569D01*
X97176D01*
X102176Y10169D02*
Y11769D01*
X103776D01*
Y10169D01*
X102176D01*
X102576Y10569D02*
Y11369D01*
X103376D01*
Y10569D01*
X102576D01*
X106376Y10169D02*
Y11769D01*
X107976D01*
Y10169D01*
X106376D01*
X106776Y10569D02*
Y11369D01*
X107576D01*
Y10569D01*
X106776D01*
X111676Y10169D02*
Y11769D01*
X113276D01*
Y10169D01*
X111676D01*
X112076Y10569D02*
Y11369D01*
X112876D01*
Y10569D01*
X112076D01*
X92876Y11269D02*
Y12869D01*
X94476D01*
Y11269D01*
X92876D01*
X93276Y11669D02*
Y12469D01*
X94076D01*
Y11669D01*
X93276D01*
X89876Y11269D02*
Y12869D01*
X91476D01*
Y11269D01*
X89876D01*
X90276Y11669D02*
Y12469D01*
X91076D01*
Y11669D01*
X90276D01*
X128710Y128735D02*
Y130335D01*
X130310D01*
Y128735D01*
X128710D01*
X129110Y129135D02*
Y129935D01*
X129910D01*
Y129135D01*
X129110D01*
X98776Y74069D02*
X99176D01*
X99576Y74469D01*
X99976Y74069D01*
X100376D01*
Y74469D01*
X99976Y74869D01*
X100376Y75269D01*
Y75669D01*
X99976D01*
X99576Y75269D01*
X99176Y75669D01*
X98776D01*
Y75269D01*
X99176Y74869D01*
X98776Y74469D01*
Y74069D01*
X29476Y58769D02*
Y60369D01*
X31076D01*
Y58769D01*
X29476D01*
X29876Y59169D02*
Y59969D01*
X30676D01*
Y59169D01*
X29876D01*
X107576Y87069D02*
Y88669D01*
X109176D01*
Y87069D01*
X107576D01*
X107976Y87469D02*
Y88269D01*
X108776D01*
Y87469D01*
X107976D01*
X70951Y53547D02*
X71351D01*
X71751Y53947D01*
X72151Y53547D01*
X72551D01*
Y53947D01*
X72151Y54347D01*
X72551Y54747D01*
Y55147D01*
X72151D01*
X71751Y54747D01*
X71351Y55147D01*
X70951D01*
Y54747D01*
X71351Y54347D01*
X70951Y53947D01*
Y53547D01*
X80401Y53546D02*
X80801D01*
X81201Y53946D01*
X81601Y53546D01*
X82001D01*
Y53946D01*
X81601Y54346D01*
X82001Y54746D01*
Y55146D01*
X81601D01*
X81201Y54746D01*
X80801Y55146D01*
X80401D01*
Y54746D01*
X80801Y54346D01*
X80401Y53946D01*
Y53546D01*
X74076Y63069D02*
X74476D01*
X74876Y63469D01*
X75276Y63069D01*
X75676D01*
Y63469D01*
X75276Y63869D01*
X75676Y64269D01*
Y64669D01*
X75276D01*
X74876Y64269D01*
X74476Y64669D01*
X74076D01*
Y64269D01*
X74476Y63869D01*
X74076Y63469D01*
Y63069D01*
X21576Y122269D02*
X22376Y123069D01*
X23176Y122269D01*
X22376Y121469D01*
X21576Y122269D01*
X18576Y115669D02*
X19376Y116469D01*
X20176Y115669D01*
X19376Y114869D01*
X18576Y115669D01*
X18876Y135069D02*
X19676Y135869D01*
X20476Y135069D01*
X19676Y134269D01*
X18876Y135069D01*
X13976Y130869D02*
X14776Y131669D01*
X15576Y130869D01*
X14776Y130069D01*
X13976Y130869D01*
X4376Y86969D02*
X5176Y87769D01*
X5976Y86969D01*
X5176Y86169D01*
X4376Y86969D01*
X14476Y83369D02*
X15276Y84169D01*
X16076Y83369D01*
X15276Y82569D01*
X14476Y83369D01*
X14876Y60869D02*
X15676Y61669D01*
X16476Y60869D01*
X15676Y60069D01*
X14876Y60869D01*
X13176Y40869D02*
X13976Y41669D01*
X14776Y40869D01*
X13976Y40069D01*
X13176Y40869D01*
X13476Y50669D02*
X14276Y51469D01*
X15076Y50669D01*
X14276Y49869D01*
X13476Y50669D01*
X17976Y20869D02*
X18776Y21669D01*
X19576Y20869D01*
X18776Y20069D01*
X17976Y20869D01*
X34976Y11669D02*
X35776Y12469D01*
X36576Y11669D01*
X35776Y10869D01*
X34976Y11669D01*
X38976Y23169D02*
X39776Y23969D01*
X40576Y23169D01*
X39776Y22369D01*
X38976Y23169D01*
X38276Y5269D02*
X39076Y6069D01*
X39876Y5269D01*
X39076Y4469D01*
X38276Y5269D01*
X12776Y5169D02*
X13576Y5969D01*
X14376Y5169D01*
X13576Y4369D01*
X12776Y5169D01*
X62776Y7769D02*
X63576Y8569D01*
X64376Y7769D01*
X63576Y6969D01*
X62776Y7769D01*
X53576Y7869D02*
X54376Y8669D01*
X55176Y7869D01*
X54376Y7069D01*
X53576Y7869D01*
X81376Y20369D02*
X82176Y21169D01*
X82976Y20369D01*
X82176Y19569D01*
X81376Y20369D01*
X88376Y31869D02*
X89176Y32669D01*
X89976Y31869D01*
X89176Y31069D01*
X88376Y31869D01*
X127176Y11069D02*
X127976Y11869D01*
X128776Y11069D01*
X127976Y10269D01*
X127176Y11069D01*
X125176Y21369D02*
X125976Y22169D01*
X126776Y21369D01*
X125976Y20569D01*
X125176Y21369D01*
X124176Y30469D02*
X124976Y31269D01*
X125776Y30469D01*
X124976Y29669D01*
X124176Y30469D01*
X112176Y30769D02*
X112976Y31569D01*
X113776Y30769D01*
X112976Y29969D01*
X112176Y30769D01*
X112776Y50769D02*
X113576Y51569D01*
X114376Y50769D01*
X113576Y49969D01*
X112776Y50769D01*
X120776Y71269D02*
X121576Y72069D01*
X122376Y71269D01*
X121576Y70469D01*
X120776Y71269D01*
X129976Y81469D02*
X130776Y82269D01*
X131576Y81469D01*
X130776Y80669D01*
X129976Y81469D01*
X130876Y91669D02*
X131676Y92469D01*
X132476Y91669D01*
X131676Y90869D01*
X130876Y91669D01*
X88676Y135769D02*
X89476Y136569D01*
X90276Y135769D01*
X89476Y134969D01*
X88676Y135769D01*
X103876Y154269D02*
X104676Y155069D01*
X105476Y154269D01*
X104676Y153469D01*
X103876Y154269D01*
X92976Y169669D02*
X93776Y170469D01*
X94576Y169669D01*
X93776Y168869D01*
X92976Y169669D01*
X85976Y140769D02*
X86776Y141569D01*
X87576Y140769D01*
X86776Y139969D01*
X85976Y140769D01*
X29976Y53869D02*
X30776Y54669D01*
X31576Y53869D01*
X30776Y53069D01*
X29976Y53869D01*
X76376Y14869D02*
X77176Y15669D01*
X77976Y14869D01*
X77176Y14069D01*
X76376Y14869D01*
X88376Y25069D02*
X89176Y25869D01*
X89976Y25069D01*
X89176Y24269D01*
X88376Y25069D01*
X122576Y3732D02*
X123376Y4532D01*
X124176Y3732D01*
X123376Y2932D01*
X122576Y3732D01*
X135676Y41069D02*
X136476Y41869D01*
X137276Y41069D01*
X136476Y40269D01*
X135676Y41069D01*
X136076Y30969D02*
X136876Y31769D01*
X137676Y30969D01*
X136876Y30169D01*
X136076Y30969D01*
X58976Y142369D02*
Y143969D01*
X60576D01*
Y142369D01*
X58976D01*
X59376Y142769D02*
Y143569D01*
X60176D01*
Y142769D01*
X59376D01*
X44776Y78669D02*
X45176D01*
X45576Y79069D01*
X45976Y78669D01*
X46376D01*
Y79069D01*
X45976Y79469D01*
X46376Y79869D01*
Y80269D01*
X45976D01*
X45576Y79869D01*
X45176Y80269D01*
X44776D01*
Y79869D01*
X45176Y79469D01*
X44776Y79069D01*
Y78669D01*
Y76069D02*
X45176D01*
X45576Y76469D01*
X45976Y76069D01*
X46376D01*
Y76469D01*
X45976Y76869D01*
X46376Y77269D01*
Y77669D01*
X45976D01*
X45576Y77269D01*
X45176Y77669D01*
X44776D01*
Y77269D01*
X45176Y76869D01*
X44776Y76469D01*
Y76069D01*
X45755Y66145D02*
X46155D01*
X46555Y66545D01*
X46955Y66145D01*
X47355D01*
Y66545D01*
X46955Y66945D01*
X47355Y67345D01*
Y67745D01*
X46955D01*
X46555Y67345D01*
X46155Y67745D01*
X45755D01*
Y67345D01*
X46155Y66945D01*
X45755Y66545D01*
Y66145D01*
X48976Y72569D02*
X49376D01*
X49776Y72969D01*
X50176Y72569D01*
X50576D01*
Y72969D01*
X50176Y73369D01*
X50576Y73769D01*
Y74169D01*
X50176D01*
X49776Y73769D01*
X49376Y74169D01*
X48976D01*
Y73769D01*
X49376Y73369D01*
X48976Y72969D01*
Y72569D01*
X44876Y98269D02*
Y99869D01*
X46476D01*
Y98269D01*
X44876D01*
X45276Y98669D02*
Y99469D01*
X46076D01*
Y98669D01*
X45276D01*
X50176Y92569D02*
X50576D01*
X50976Y92969D01*
X51376Y92569D01*
X51776D01*
Y92969D01*
X51376Y93369D01*
X51776Y93769D01*
Y94169D01*
X51376D01*
X50976Y93769D01*
X50576Y94169D01*
X50176D01*
Y93769D01*
X50576Y93369D01*
X50176Y92969D01*
Y92569D01*
X109776Y95469D02*
Y97069D01*
X111376D01*
Y95469D01*
X109776D01*
X110176Y95869D02*
Y96669D01*
X110976D01*
Y95869D01*
X110176D01*
X105476Y88869D02*
Y90469D01*
X107076D01*
Y88869D01*
X105476D01*
X105876Y89269D02*
Y90069D01*
X106676D01*
Y89269D01*
X105876D01*
X109176Y64369D02*
Y65969D01*
X110776D01*
Y64369D01*
X109176D01*
X109576Y64769D02*
Y65569D01*
X110376D01*
Y64769D01*
X109576D01*
X77251Y66145D02*
X77651D01*
X78051Y66545D01*
X78451Y66145D01*
X78851D01*
Y66545D01*
X78451Y66945D01*
X78851Y67345D01*
Y67745D01*
X78451D01*
X78051Y67345D01*
X77651Y67745D01*
X77251D01*
Y67345D01*
X77651Y66945D01*
X77251Y66545D01*
Y66145D01*
X51976Y62069D02*
X52376D01*
X52776Y62469D01*
X53176Y62069D01*
X53576D01*
Y62469D01*
X53176Y62869D01*
X53576Y63269D01*
Y63669D01*
X53176D01*
X52776Y63269D01*
X52376Y63669D01*
X51976D01*
Y63269D01*
X52376Y62869D01*
X51976Y62469D01*
Y62069D01*
X38876Y116669D02*
Y118269D01*
X40476D01*
Y116669D01*
X38876D01*
X39276Y117069D02*
Y117869D01*
X40076D01*
Y117069D01*
X39276D01*
X46876Y106269D02*
X47276D01*
X47676Y106669D01*
X48076Y106269D01*
X48476D01*
Y106669D01*
X48076Y107069D01*
X48476Y107469D01*
Y107869D01*
X48076D01*
X47676Y107469D01*
X47276Y107869D01*
X46876D01*
Y107469D01*
X47276Y107069D01*
X46876Y106669D01*
Y106269D01*
X44776Y105869D02*
X45176D01*
X45576Y106269D01*
X45976Y105869D01*
X46376D01*
Y106269D01*
X45976Y106669D01*
X46376Y107069D01*
Y107469D01*
X45976D01*
X45576Y107069D01*
X45176Y107469D01*
X44776D01*
Y107069D01*
X45176Y106669D01*
X44776Y106269D01*
Y105869D01*
X98976Y107469D02*
Y109069D01*
X100576D01*
Y107469D01*
X98976D01*
X99376Y107869D02*
Y108669D01*
X100176D01*
Y107869D01*
X99376D01*
X42376Y105869D02*
X42776D01*
X43176Y106269D01*
X43576Y105869D01*
X43976D01*
Y106269D01*
X43576Y106669D01*
X43976Y107069D01*
Y107469D01*
X43576D01*
X43176Y107069D01*
X42776Y107469D01*
X42376D01*
Y107069D01*
X42776Y106669D01*
X42376Y106269D01*
Y105869D01*
X109176Y114069D02*
Y115669D01*
X110776D01*
Y114069D01*
X109176D01*
X109576Y114469D02*
Y115269D01*
X110376D01*
Y114469D01*
X109576D01*
X86287Y107893D02*
X86687D01*
X87088Y108293D01*
X87488Y107893D01*
X87888D01*
Y108293D01*
X87488Y108693D01*
X87888Y109093D01*
Y109493D01*
X87488D01*
X87088Y109093D01*
X86687Y109493D01*
X86287D01*
Y109093D01*
X86687Y108693D01*
X86287Y108293D01*
Y107893D01*
X99276Y128109D02*
Y129709D01*
X100876D01*
Y128109D01*
X99276D01*
X99676Y128509D02*
Y129309D01*
X100476D01*
Y128509D01*
X99676D01*
X81176Y118069D02*
X81576D01*
X81976Y118469D01*
X82376Y118069D01*
X82776D01*
Y118469D01*
X82376Y118869D01*
X82776Y119269D01*
Y119669D01*
X82376D01*
X81976Y119269D01*
X81576Y119669D01*
X81176D01*
Y119269D01*
X81576Y118869D01*
X81176Y118469D01*
Y118069D01*
X81169Y125741D02*
X81569D01*
X81969Y126140D01*
X82370Y125741D01*
X82770D01*
Y126140D01*
X82370Y126541D01*
X82770Y126941D01*
Y127340D01*
X82370D01*
X81969Y126941D01*
X81569Y127340D01*
X81169D01*
Y126941D01*
X81569Y126541D01*
X81169Y126140D01*
Y125741D01*
X81169Y120694D02*
X81568D01*
X81968Y121094D01*
X82368Y120694D01*
X82768D01*
Y121094D01*
X82368Y121494D01*
X82768Y121894D01*
Y122294D01*
X82368D01*
X81968Y121894D01*
X81568Y122294D01*
X81169D01*
Y121894D01*
X81568Y121494D01*
X81169Y121094D01*
Y120694D01*
X86287Y123179D02*
X86687D01*
X87088Y123580D01*
X87488Y123179D01*
X87888D01*
Y123580D01*
X87488Y123979D01*
X87888Y124380D01*
Y124779D01*
X87488D01*
X87088Y124380D01*
X86687Y124779D01*
X86287D01*
Y124380D01*
X86687Y123979D01*
X86287Y123580D01*
Y123179D01*
X94576Y128569D02*
X94976D01*
X95376Y128969D01*
X95776Y128569D01*
X96176D01*
Y128969D01*
X95776Y129369D01*
X96176Y129769D01*
Y130169D01*
X95776D01*
X95376Y129769D01*
X94976Y130169D01*
X94576D01*
Y129769D01*
X94976Y129369D01*
X94576Y128969D01*
Y128569D01*
X100376Y111869D02*
Y113469D01*
X101976D01*
Y111869D01*
X100376D01*
X100776Y112269D02*
Y113069D01*
X101576D01*
Y112269D01*
X100776D01*
X97476Y114069D02*
Y115669D01*
X99076D01*
Y114069D01*
X97476D01*
X97876Y114469D02*
Y115269D01*
X98676D01*
Y114469D01*
X97876D01*
X76051Y110389D02*
X76451D01*
X76851Y110789D01*
X77251Y110389D01*
X77652D01*
Y110789D01*
X77251Y111188D01*
X77652Y111589D01*
Y111988D01*
X77251D01*
X76851Y111589D01*
X76451Y111988D01*
X76051D01*
Y111589D01*
X76451Y111188D01*
X76051Y110789D01*
Y110389D01*
X83728Y115504D02*
X84127D01*
X84527Y115903D01*
X84927Y115504D01*
X85328D01*
Y115903D01*
X84927Y116304D01*
X85328Y116703D01*
Y117104D01*
X84927D01*
X84527Y116703D01*
X84127Y117104D01*
X83728D01*
Y116703D01*
X84127Y116304D01*
X83728Y115903D01*
Y115504D01*
X83794Y118062D02*
X84194D01*
X84594Y118463D01*
X84994Y118062D01*
X85394D01*
Y118463D01*
X84994Y118862D01*
X85394Y119263D01*
Y119662D01*
X84994D01*
X84594Y119263D01*
X84194Y119662D01*
X83794D01*
Y119263D01*
X84194Y118862D01*
X83794Y118463D01*
Y118062D01*
X86287Y118061D02*
X86687D01*
X87088Y118462D01*
X87488Y118061D01*
X87888D01*
Y118462D01*
X87488Y118861D01*
X87888Y119262D01*
Y119661D01*
X87488D01*
X87088Y119262D01*
X86687Y119661D01*
X86287D01*
Y119262D01*
X86687Y118861D01*
X86287Y118462D01*
Y118061D01*
X99176Y119269D02*
Y120869D01*
X100776D01*
Y119269D01*
X99176D01*
X99576Y119669D02*
Y120469D01*
X100376D01*
Y119669D01*
X99576D01*
X83728Y120622D02*
X84127D01*
X84527Y121021D01*
X84927Y120622D01*
X85328D01*
Y121021D01*
X84927Y121422D01*
X85328Y121821D01*
Y122222D01*
X84927D01*
X84527Y121821D01*
X84127Y122222D01*
X83728D01*
Y121821D01*
X84127Y121422D01*
X83728Y121021D01*
Y120622D01*
X81169Y123180D02*
X81569D01*
X81969Y123581D01*
X82370Y123180D01*
X82770D01*
Y123581D01*
X82370Y123980D01*
X82770Y124381D01*
Y124780D01*
X82370D01*
X81969Y124381D01*
X81569Y124780D01*
X81169D01*
Y124381D01*
X81569Y123980D01*
X81169Y123581D01*
Y123180D01*
X83728Y123180D02*
X84128D01*
X84528Y123581D01*
X84929Y123180D01*
X85329D01*
Y123581D01*
X84929Y123980D01*
X85329Y124381D01*
Y124780D01*
X84929D01*
X84528Y124381D01*
X84128Y124780D01*
X83728D01*
Y124381D01*
X84128Y123980D01*
X83728Y123581D01*
Y123180D01*
X86287Y120554D02*
X86687D01*
X87088Y120954D01*
X87488Y120554D01*
X87888D01*
Y120954D01*
X87488Y121354D01*
X87888Y121754D01*
Y122154D01*
X87488D01*
X87088Y121754D01*
X86687Y122154D01*
X86287D01*
Y121754D01*
X86687Y121354D01*
X86287Y120954D01*
Y120554D01*
X33376Y108269D02*
Y109869D01*
X34976D01*
Y108269D01*
X33376D01*
X33776Y108669D02*
Y109469D01*
X34576D01*
Y108669D01*
X33776D01*
X78609Y95030D02*
X79009D01*
X79409Y95430D01*
X79808Y95030D01*
X80208D01*
Y95430D01*
X79808Y95831D01*
X80208Y96231D01*
Y96631D01*
X79808D01*
X79409Y96231D01*
X79009Y96631D01*
X78609D01*
Y96231D01*
X79009Y95831D01*
X78609Y95430D01*
Y95030D01*
X110176Y73569D02*
Y75169D01*
X111776D01*
Y73569D01*
X110176D01*
X110576Y73969D02*
Y74769D01*
X111376D01*
Y73969D01*
X110576D01*
X103976Y72769D02*
Y74369D01*
X105576D01*
Y72769D01*
X103976D01*
X104376Y73169D02*
Y73969D01*
X105176D01*
Y73169D01*
X104376D01*
X81169Y105266D02*
X81568D01*
X81968Y105666D01*
X82368Y105266D01*
X82768D01*
Y105666D01*
X82368Y106067D01*
X82768Y106466D01*
Y106867D01*
X82368D01*
X81968Y106466D01*
X81568Y106867D01*
X81169D01*
Y106466D01*
X81568Y106067D01*
X81169Y105666D01*
Y105266D01*
X78610Y97589D02*
X79009D01*
X79409Y97989D01*
X79809Y97589D01*
X80209D01*
Y97989D01*
X79809Y98390D01*
X80209Y98790D01*
Y99190D01*
X79809D01*
X79409Y98790D01*
X79009Y99190D01*
X78610D01*
Y98790D01*
X79009Y98390D01*
X78610Y97989D01*
Y97589D01*
X88845Y95030D02*
X89245D01*
X89645Y95430D01*
X90045Y95030D01*
X90446D01*
Y95430D01*
X90045Y95831D01*
X90446Y96231D01*
Y96631D01*
X90045D01*
X89645Y96231D01*
X89245Y96631D01*
X88845D01*
Y96231D01*
X89245Y95831D01*
X88845Y95430D01*
Y95030D01*
X93276Y91669D02*
X93676D01*
X94076Y92069D01*
X94476Y91669D01*
X94876D01*
Y92069D01*
X94476Y92469D01*
X94876Y92869D01*
Y93269D01*
X94476D01*
X94076Y92869D01*
X93676Y93269D01*
X93276D01*
Y92869D01*
X93676Y92469D01*
X93276Y92069D01*
Y91669D01*
X72276Y86669D02*
X72676D01*
X73076Y87069D01*
X73476Y86669D01*
X73876D01*
Y87069D01*
X73476Y87469D01*
X73876Y87869D01*
Y88269D01*
X73476D01*
X73076Y87869D01*
X72676Y88269D01*
X72276D01*
Y87869D01*
X72676Y87469D01*
X72276Y87069D01*
Y86669D01*
X75983Y92471D02*
X76383D01*
X76783Y92871D01*
X77183Y92471D01*
X77583D01*
Y92871D01*
X77183Y93271D01*
X77583Y93672D01*
Y94072D01*
X77183D01*
X76783Y93672D01*
X76383Y94072D01*
X75983D01*
Y93672D01*
X76383Y93271D01*
X75983Y92871D01*
Y92471D01*
X78678D02*
X79078D01*
X79478Y92871D01*
X79878Y92471D01*
X80278D01*
Y92871D01*
X79878Y93271D01*
X80278Y93672D01*
Y94072D01*
X79878D01*
X79478Y93672D01*
X79078Y94072D01*
X78678D01*
Y93672D01*
X79078Y93271D01*
X78678Y92871D01*
Y92471D01*
X70866Y95030D02*
X71266D01*
X71666Y95430D01*
X72066Y95030D01*
X72466D01*
Y95430D01*
X72066Y95831D01*
X72466Y96231D01*
Y96631D01*
X72066D01*
X71666Y96231D01*
X71266Y96631D01*
X70866D01*
Y96231D01*
X71266Y95831D01*
X70866Y95430D01*
Y95030D01*
X73493Y92471D02*
X73893D01*
X74294Y92871D01*
X74694Y92471D01*
X75094D01*
Y92871D01*
X74694Y93271D01*
X75094Y93672D01*
Y94072D01*
X74694D01*
X74294Y93672D01*
X73893Y94072D01*
X73493D01*
Y93672D01*
X73893Y93271D01*
X73493Y92871D01*
Y92471D01*
X74773Y89382D02*
X75173D01*
X75573Y89782D01*
X75973Y89382D01*
X76373D01*
Y89782D01*
X75973Y90182D01*
X76373Y90582D01*
Y90982D01*
X75973D01*
X75573Y90582D01*
X75173Y90982D01*
X74773D01*
Y90582D01*
X75173Y90182D01*
X74773Y89782D01*
Y89382D01*
X77332Y89382D02*
X77732D01*
X78132Y89782D01*
X78532Y89382D01*
X78932D01*
Y89782D01*
X78532Y90182D01*
X78932Y90582D01*
Y90982D01*
X78532D01*
X78132Y90582D01*
X77732Y90982D01*
X77332D01*
Y90582D01*
X77732Y90182D01*
X77332Y89782D01*
Y89382D01*
X83728Y105268D02*
X84128D01*
X84528Y105667D01*
X84929Y105268D01*
X85329D01*
Y105667D01*
X84929Y106068D01*
X85329Y106467D01*
Y106868D01*
X84929D01*
X84528Y106467D01*
X84128Y106868D01*
X83728D01*
Y106467D01*
X84128Y106068D01*
X83728Y105667D01*
Y105268D01*
X83728Y102708D02*
X84127D01*
X84527Y103108D01*
X84927Y102708D01*
X85328D01*
Y103108D01*
X84927Y103507D01*
X85328Y103908D01*
Y104307D01*
X84927D01*
X84527Y103908D01*
X84127Y104307D01*
X83728D01*
Y103908D01*
X84127Y103507D01*
X83728Y103108D01*
Y102708D01*
X81169Y100215D02*
X81569D01*
X81969Y100615D01*
X82370Y100215D01*
X82770D01*
Y100615D01*
X82370Y101015D01*
X82770Y101415D01*
Y101815D01*
X82370D01*
X81969Y101415D01*
X81569Y101815D01*
X81169D01*
Y101415D01*
X81569Y101015D01*
X81169Y100615D01*
Y100215D01*
X65815Y120555D02*
X66215D01*
X66615Y120955D01*
X67014Y120555D01*
X67414D01*
Y120955D01*
X67014Y121355D01*
X67414Y121755D01*
Y122155D01*
X67014D01*
X66615Y121755D01*
X66215Y122155D01*
X65815D01*
Y121755D01*
X66215Y121355D01*
X65815Y120955D01*
Y120555D01*
X68374Y123269D02*
X68774D01*
X69174Y123669D01*
X69573Y123269D01*
X69973D01*
Y123669D01*
X69573Y124069D01*
X69973Y124469D01*
Y124869D01*
X69573D01*
X69174Y124469D01*
X68774Y124869D01*
X68374D01*
Y124469D01*
X68774Y124069D01*
X68374Y123669D01*
Y123269D01*
X68376Y120469D02*
X68776D01*
X69176Y120869D01*
X69576Y120469D01*
X69976D01*
Y120869D01*
X69576Y121269D01*
X69976Y121669D01*
Y122069D01*
X69576D01*
X69176Y121669D01*
X68776Y122069D01*
X68376D01*
Y121669D01*
X68776Y121269D01*
X68376Y120869D01*
Y120469D01*
X73492Y120622D02*
X73892D01*
X74291Y121021D01*
X74691Y120622D01*
X75091D01*
Y121021D01*
X74691Y121422D01*
X75091Y121821D01*
Y122222D01*
X74691D01*
X74291Y121821D01*
X73892Y122222D01*
X73492D01*
Y121821D01*
X73892Y121422D01*
X73492Y121021D01*
Y120622D01*
X73492Y125740D02*
X73892D01*
X74292Y126139D01*
X74692Y125740D01*
X75093D01*
Y126139D01*
X74692Y126540D01*
X75093Y126939D01*
Y127339D01*
X74692D01*
X74292Y126939D01*
X73892Y127339D01*
X73492D01*
Y126939D01*
X73892Y126540D01*
X73492Y126139D01*
Y125740D01*
X73476Y123269D02*
X73876D01*
X74276Y123669D01*
X74676Y123269D01*
X75076D01*
Y123669D01*
X74676Y124069D01*
X75076Y124469D01*
Y124869D01*
X74676D01*
X74276Y124469D01*
X73876Y124869D01*
X73476D01*
Y124469D01*
X73876Y124069D01*
X73476Y123669D01*
Y123269D01*
X65815D02*
X66215D01*
X66615Y123669D01*
X67014Y123269D01*
X67414D01*
Y123669D01*
X67014Y124069D01*
X67414Y124469D01*
Y124869D01*
X67014D01*
X66615Y124469D01*
X66215Y124869D01*
X65815D01*
Y124469D01*
X66215Y124069D01*
X65815Y123669D01*
Y123269D01*
X51776Y130769D02*
Y132369D01*
X53376D01*
Y130769D01*
X51776D01*
X52176Y131169D02*
Y131969D01*
X52976D01*
Y131169D01*
X52176D01*
X46576Y124569D02*
Y126169D01*
X48176D01*
Y124569D01*
X46576D01*
X46976Y124969D02*
Y125769D01*
X47776D01*
Y124969D01*
X46976D01*
X48476Y127669D02*
Y129269D01*
X50076D01*
Y127669D01*
X48476D01*
X48876Y128069D02*
Y128869D01*
X49676D01*
Y128069D01*
X48876D01*
X50176Y135269D02*
Y136869D01*
X51776D01*
Y135269D01*
X50176D01*
X50576Y135669D02*
Y136469D01*
X51376D01*
Y135669D01*
X50576D01*
X53576Y133469D02*
Y135069D01*
X55176D01*
Y133469D01*
X53576D01*
X53976Y133869D02*
Y134669D01*
X54776D01*
Y133869D01*
X53976D01*
X45876Y110369D02*
Y111969D01*
X47476D01*
Y110369D01*
X45876D01*
X46276Y110769D02*
Y111569D01*
X47076D01*
Y110769D01*
X46276D01*
X53018Y112944D02*
X53418D01*
X53819Y113345D01*
X54219Y112944D01*
X54619D01*
Y113345D01*
X54219Y113744D01*
X54619Y114145D01*
Y114544D01*
X54219D01*
X53819Y114145D01*
X53418Y114544D01*
X53018D01*
Y114145D01*
X53418Y113744D01*
X53018Y113345D01*
Y112944D01*
Y123180D02*
X53418D01*
X53819Y123581D01*
X54219Y123180D01*
X54619D01*
Y123581D01*
X54219Y123980D01*
X54619Y124381D01*
Y124780D01*
X54219D01*
X53819Y124381D01*
X53418Y124780D01*
X53018D01*
Y124381D01*
X53418Y123980D01*
X53018Y123581D01*
Y123180D01*
X53018Y115437D02*
X53418D01*
X53819Y115837D01*
X54219Y115437D01*
X54619D01*
Y115837D01*
X54219Y116237D01*
X54619Y116637D01*
Y117037D01*
X54219D01*
X53819Y116637D01*
X53418Y117037D01*
X53018D01*
Y116637D01*
X53418Y116237D01*
X53018Y115837D01*
Y115437D01*
X81376Y41469D02*
Y43069D01*
X82976D01*
Y41469D01*
X81376D01*
X81776Y41869D02*
Y42669D01*
X82576D01*
Y41869D01*
X81776D01*
X75983Y95030D02*
X76383D01*
X76783Y95430D01*
X77183Y95030D01*
X77583D01*
Y95430D01*
X77183Y95831D01*
X77583Y96231D01*
Y96631D01*
X77183D01*
X76783Y96231D01*
X76383Y96631D01*
X75983D01*
Y96231D01*
X76383Y95831D01*
X75983Y95430D01*
Y95030D01*
X73492Y95030D02*
X73892D01*
X74291Y95430D01*
X74691Y95030D01*
X75091D01*
Y95430D01*
X74691Y95831D01*
X75091Y96231D01*
Y96631D01*
X74691D01*
X74291Y96231D01*
X73892Y96631D01*
X73492D01*
Y96231D01*
X73892Y95831D01*
X73492Y95430D01*
Y95030D01*
X83728Y95030D02*
X84127D01*
X84527Y95430D01*
X84927Y95030D01*
X85328D01*
Y95430D01*
X84927Y95831D01*
X85328Y96231D01*
Y96631D01*
X84927D01*
X84527Y96231D01*
X84127Y96631D01*
X83728D01*
Y96231D01*
X84127Y95831D01*
X83728Y95430D01*
Y95030D01*
X86121Y92523D02*
X86521D01*
X86921Y92923D01*
X87321Y92523D01*
X87721D01*
Y92923D01*
X87321Y93323D01*
X87721Y93723D01*
Y94123D01*
X87321D01*
X86921Y93723D01*
X86521Y94123D01*
X86121D01*
Y93723D01*
X86521Y93323D01*
X86121Y92923D01*
Y92523D01*
X88845Y92471D02*
X89245D01*
X89645Y92871D01*
X90045Y92471D01*
X90446D01*
Y92871D01*
X90045Y93271D01*
X90446Y93672D01*
Y94072D01*
X90045D01*
X89645Y93672D01*
X89245Y94072D01*
X88845D01*
Y93672D01*
X89245Y93271D01*
X88845Y92871D01*
Y92471D01*
X81169Y97589D02*
X81568D01*
X81968Y97989D01*
X82368Y97589D01*
X82768D01*
Y97989D01*
X82368Y98390D01*
X82768Y98790D01*
Y99190D01*
X82368D01*
X81968Y98790D01*
X81568Y99190D01*
X81169D01*
Y98790D01*
X81568Y98390D01*
X81169Y97989D01*
Y97589D01*
X83728Y97589D02*
X84127D01*
X84527Y97989D01*
X84927Y97589D01*
X85328D01*
Y97989D01*
X84927Y98390D01*
X85328Y98790D01*
Y99190D01*
X84927D01*
X84527Y98790D01*
X84127Y99190D01*
X83728D01*
Y98790D01*
X84127Y98390D01*
X83728Y97989D01*
Y97589D01*
X83728Y100215D02*
X84128D01*
X84528Y100615D01*
X84929Y100215D01*
X85329D01*
Y100615D01*
X84929Y101015D01*
X85329Y101415D01*
Y101815D01*
X84929D01*
X84528Y101415D01*
X84128Y101815D01*
X83728D01*
Y101415D01*
X84128Y101015D01*
X83728Y100615D01*
Y100215D01*
X55203Y47247D02*
X55603D01*
X56003Y47647D01*
X56403Y47247D01*
X56803D01*
Y47647D01*
X56403Y48047D01*
X56803Y48447D01*
Y48847D01*
X56403D01*
X56003Y48447D01*
X55603Y48847D01*
X55203D01*
Y48447D01*
X55603Y48047D01*
X55203Y47647D01*
Y47247D01*
X55176Y50369D02*
X55576D01*
X55976Y50769D01*
X56376Y50369D01*
X56776D01*
Y50769D01*
X56376Y51169D01*
X56776Y51569D01*
Y51969D01*
X56376D01*
X55976Y51569D01*
X55576Y51969D01*
X55176D01*
Y51569D01*
X55576Y51169D01*
X55176Y50769D01*
Y50369D01*
X109176Y117969D02*
Y119569D01*
X110776D01*
Y117969D01*
X109176D01*
X109576Y118369D02*
Y119169D01*
X110376D01*
Y118369D01*
X109576D01*
X73376Y110369D02*
X73776D01*
X74176Y110769D01*
X74576Y110369D01*
X74976D01*
Y110769D01*
X74576Y111169D01*
X74976Y111569D01*
Y111969D01*
X74576D01*
X74176Y111569D01*
X73776Y111969D01*
X73376D01*
Y111569D01*
X73776Y111169D01*
X73376Y110769D01*
Y110369D01*
X76076Y97669D02*
X76476D01*
X76876Y98069D01*
X77276Y97669D01*
X77676D01*
Y98069D01*
X77276Y98469D01*
X77676Y98869D01*
Y99269D01*
X77276D01*
X76876Y98869D01*
X76476Y99269D01*
X76076D01*
Y98869D01*
X76476Y98469D01*
X76076Y98069D01*
Y97669D01*
X70776D02*
X71176D01*
X71576Y98069D01*
X71976Y97669D01*
X72376D01*
Y98069D01*
X71976Y98469D01*
X72376Y98869D01*
Y99269D01*
X71976D01*
X71576Y98869D01*
X71176Y99269D01*
X70776D01*
Y98869D01*
X71176Y98469D01*
X70776Y98069D01*
Y97669D01*
X67076Y87669D02*
X67476D01*
X67876Y88069D01*
X68276Y87669D01*
X68676D01*
Y88069D01*
X68276Y88469D01*
X68676Y88869D01*
Y89269D01*
X68276D01*
X67876Y88869D01*
X67476Y89269D01*
X67076D01*
Y88869D01*
X67476Y88469D01*
X67076Y88069D01*
Y87669D01*
X65816Y92471D02*
X66215D01*
X66615Y92871D01*
X67015Y92471D01*
X67415D01*
Y92871D01*
X67015Y93271D01*
X67415Y93672D01*
Y94072D01*
X67015D01*
X66615Y93672D01*
X66215Y94072D01*
X65816D01*
Y93672D01*
X66215Y93271D01*
X65816Y92871D01*
Y92471D01*
X76051Y105268D02*
X76451D01*
X76851Y105667D01*
X77251Y105268D01*
X77652D01*
Y105667D01*
X77251Y106068D01*
X77652Y106467D01*
Y106868D01*
X77251D01*
X76851Y106467D01*
X76451Y106868D01*
X76051D01*
Y106467D01*
X76451Y106068D01*
X76051Y105667D01*
Y105268D01*
X60776Y95069D02*
X61176D01*
X61576Y95469D01*
X61976Y95069D01*
X62376D01*
Y95469D01*
X61976Y95869D01*
X62376Y96269D01*
Y96669D01*
X61976D01*
X61576Y96269D01*
X61176Y96669D01*
X60776D01*
Y96269D01*
X61176Y95869D01*
X60776Y95469D01*
Y95069D01*
X58071Y95054D02*
X58471D01*
X58871Y95454D01*
X59271Y95054D01*
X59671D01*
Y95454D01*
X59271Y95854D01*
X59671Y96254D01*
Y96654D01*
X59271D01*
X58871Y96254D01*
X58471Y96654D01*
X58071D01*
Y96254D01*
X58471Y95854D01*
X58071Y95454D01*
Y95054D01*
X60697Y97589D02*
X61097D01*
X61497Y97989D01*
X61897Y97589D01*
X62296D01*
Y97989D01*
X61897Y98390D01*
X62296Y98790D01*
Y99190D01*
X61897D01*
X61497Y98790D01*
X61097Y99190D01*
X60697D01*
Y98790D01*
X61097Y98390D01*
X60697Y97989D01*
Y97589D01*
X58071Y97639D02*
X58471D01*
X58871Y98039D01*
X59271Y97639D01*
X59671D01*
Y98039D01*
X59271Y98439D01*
X59671Y98839D01*
Y99239D01*
X59271D01*
X58871Y98839D01*
X58471Y99239D01*
X58071D01*
Y98839D01*
X58471Y98439D01*
X58071Y98039D01*
Y97639D01*
X50460Y97589D02*
Y99190D01*
X52061D01*
Y97589D01*
X50460D01*
X50861Y97989D02*
Y98790D01*
X51661D01*
Y97989D01*
X50861D01*
X58139Y102708D02*
X58539D01*
X58938Y103108D01*
X59338Y102708D01*
X59738D01*
Y103108D01*
X59338Y103507D01*
X59738Y103908D01*
Y104307D01*
X59338D01*
X58938Y103908D01*
X58539Y104307D01*
X58139D01*
Y103908D01*
X58539Y103507D01*
X58139Y103108D01*
Y102708D01*
X63256Y95030D02*
X63656D01*
X64056Y95430D01*
X64455Y95030D01*
X64855D01*
Y95430D01*
X64455Y95831D01*
X64855Y96231D01*
Y96631D01*
X64455D01*
X64056Y96231D01*
X63656Y96631D01*
X63256D01*
Y96231D01*
X63656Y95831D01*
X63256Y95430D01*
Y95030D01*
X63276Y87669D02*
X63676D01*
X64076Y88069D01*
X64476Y87669D01*
X64876D01*
Y88069D01*
X64476Y88469D01*
X64876Y88869D01*
Y89269D01*
X64476D01*
X64076Y88869D01*
X63676Y89269D01*
X63276D01*
Y88869D01*
X63676Y88469D01*
X63276Y88069D01*
Y87669D01*
X65815Y97589D02*
X66215D01*
X66615Y97989D01*
X67014Y97589D01*
X67414D01*
Y97989D01*
X67014Y98390D01*
X67414Y98790D01*
Y99190D01*
X67014D01*
X66615Y98790D01*
X66215Y99190D01*
X65815D01*
Y98790D01*
X66215Y98390D01*
X65815Y97989D01*
Y97589D01*
X70937Y102708D02*
X71337D01*
X71737Y103108D01*
X72136Y102708D01*
X72536D01*
Y103108D01*
X72136Y103507D01*
X72536Y103908D01*
Y104307D01*
X72136D01*
X71737Y103908D01*
X71337Y104307D01*
X70937D01*
Y103908D01*
X71337Y103507D01*
X70937Y103108D01*
Y102708D01*
X65816Y105268D02*
X66215D01*
X66615Y105667D01*
X67015Y105268D01*
X67415D01*
Y105667D01*
X67015Y106068D01*
X67415Y106467D01*
Y106868D01*
X67015D01*
X66615Y106467D01*
X66215Y106868D01*
X65816D01*
Y106467D01*
X66215Y106068D01*
X65816Y105667D01*
Y105268D01*
X65815Y95030D02*
X66215D01*
X66615Y95430D01*
X67014Y95030D01*
X67414D01*
Y95430D01*
X67014Y95831D01*
X67414Y96231D01*
Y96631D01*
X67014D01*
X66615Y96231D01*
X66215Y96631D01*
X65815D01*
Y96231D01*
X66215Y95831D01*
X65815Y95430D01*
Y95030D01*
X53018Y118062D02*
X53418D01*
X53819Y118463D01*
X54219Y118062D01*
X54619D01*
Y118463D01*
X54219Y118862D01*
X54619Y119263D01*
Y119662D01*
X54219D01*
X53819Y119263D01*
X53418Y119662D01*
X53018D01*
Y119263D01*
X53418Y118862D01*
X53018Y118463D01*
Y118062D01*
X55579Y120622D02*
X55979D01*
X56379Y121021D01*
X56779Y120622D01*
X57178D01*
Y121021D01*
X56779Y121422D01*
X57178Y121821D01*
Y122222D01*
X56779D01*
X56379Y121821D01*
X55979Y122222D01*
X55579D01*
Y121821D01*
X55979Y121422D01*
X55579Y121021D01*
Y120622D01*
X56776Y129269D02*
X57176D01*
X57576Y129669D01*
X57976Y129269D01*
X58376D01*
Y129669D01*
X57976Y130069D01*
X58376Y130469D01*
Y130869D01*
X57976D01*
X57576Y130469D01*
X57176Y130869D01*
X56776D01*
Y130469D01*
X57176Y130069D01*
X56776Y129669D01*
Y129269D01*
X55579Y123180D02*
X55979D01*
X56379Y123581D01*
X56779Y123180D01*
X57178D01*
Y123581D01*
X56779Y123980D01*
X57178Y124381D01*
Y124780D01*
X56779D01*
X56379Y124381D01*
X55979Y124780D01*
X55579D01*
Y124381D01*
X55979Y123980D01*
X55579Y123581D01*
Y123180D01*
X58072Y123180D02*
X58472D01*
X58872Y123581D01*
X59272Y123180D01*
X59672D01*
Y123581D01*
X59272Y123980D01*
X59672Y124381D01*
Y124780D01*
X59272D01*
X58872Y124381D01*
X58472Y124780D01*
X58072D01*
Y124381D01*
X58472Y123980D01*
X58072Y123581D01*
Y123180D01*
X55579Y118062D02*
X55979D01*
X56379Y118463D01*
X56779Y118062D01*
X57178D01*
Y118463D01*
X56779Y118862D01*
X57178Y119263D01*
Y119662D01*
X56779D01*
X56379Y119263D01*
X55979Y119662D01*
X55579D01*
Y119263D01*
X55979Y118862D01*
X55579Y118463D01*
Y118062D01*
X60698Y123180D02*
X61098D01*
X61497Y123581D01*
X61897Y123180D01*
X62297D01*
Y123581D01*
X61897Y123980D01*
X62297Y124381D01*
Y124780D01*
X61897D01*
X61497Y124381D01*
X61098Y124780D01*
X60698D01*
Y124381D01*
X61098Y123980D01*
X60698Y123581D01*
Y123180D01*
Y120622D02*
X61098D01*
X61497Y121021D01*
X61897Y120622D01*
X62297D01*
Y121021D01*
X61897Y121422D01*
X62297Y121821D01*
Y122222D01*
X61897D01*
X61497Y121821D01*
X61098Y122222D01*
X60698D01*
Y121821D01*
X61098Y121422D01*
X60698Y121021D01*
Y120622D01*
Y118062D02*
X61098D01*
X61497Y118463D01*
X61897Y118062D01*
X62297D01*
Y118463D01*
X61897Y118862D01*
X62297Y119263D01*
Y119662D01*
X61897D01*
X61497Y119263D01*
X61098Y119662D01*
X60698D01*
Y119263D01*
X61098Y118862D01*
X60698Y118463D01*
Y118062D01*
X58072Y120622D02*
X58472D01*
X58872Y121021D01*
X59272Y120622D01*
X59672D01*
Y121021D01*
X59272Y121422D01*
X59672Y121821D01*
Y122222D01*
X59272D01*
X58872Y121821D01*
X58472Y122222D01*
X58072D01*
Y121821D01*
X58472Y121422D01*
X58072Y121021D01*
Y120622D01*
X58138Y107826D02*
X58538D01*
X58938Y108227D01*
X59338Y107826D01*
X59737D01*
Y108227D01*
X59338Y108626D01*
X59737Y109027D01*
Y109426D01*
X59338D01*
X58938Y109027D01*
X58538Y109426D01*
X58138D01*
Y109027D01*
X58538Y108626D01*
X58138Y108227D01*
Y107826D01*
X55576Y105169D02*
X55976D01*
X56376Y105569D01*
X56776Y105169D01*
X57176D01*
Y105569D01*
X56776Y105969D01*
X57176Y106369D01*
Y106769D01*
X56776D01*
X56376Y106369D01*
X55976Y106769D01*
X55576D01*
Y106369D01*
X55976Y105969D01*
X55576Y105569D01*
Y105169D01*
X55512Y107826D02*
X55912D01*
X56312Y108227D01*
X56712Y107826D01*
X57112D01*
Y108227D01*
X56712Y108626D01*
X57112Y109027D01*
Y109426D01*
X56712D01*
X56312Y109027D01*
X55912Y109426D01*
X55512D01*
Y109027D01*
X55912Y108626D01*
X55512Y108227D01*
Y107826D01*
X60697Y92471D02*
X61097D01*
X61497Y92870D01*
X61897Y92471D01*
X62296D01*
Y92870D01*
X61897Y93270D01*
X62296Y93670D01*
Y94071D01*
X61897D01*
X61497Y93670D01*
X61097Y94071D01*
X60697D01*
Y93670D01*
X61097Y93270D01*
X60697Y92870D01*
Y92471D01*
X48276Y41469D02*
Y43069D01*
X49876D01*
Y41469D01*
X48276D01*
X48676Y41869D02*
Y42669D01*
X49476D01*
Y41869D01*
X48676D01*
X51076Y22069D02*
Y23669D01*
X52676D01*
Y22069D01*
X51076D01*
X51476Y22469D02*
Y23269D01*
X52276D01*
Y22469D01*
X51476D01*
X50976Y29769D02*
Y31369D01*
X52576D01*
Y29769D01*
X50976D01*
X51376Y30169D02*
Y30969D01*
X52176D01*
Y30169D01*
X51376D01*
X50976Y27269D02*
Y28869D01*
X52576D01*
Y27269D01*
X50976D01*
X51376Y27669D02*
Y28469D01*
X52176D01*
Y27669D01*
X51376D01*
X47343Y29869D02*
Y31469D01*
X48943D01*
Y29869D01*
X47343D01*
X47743Y30269D02*
Y31069D01*
X48543D01*
Y30269D01*
X47743D01*
X43776Y29869D02*
Y31469D01*
X45376D01*
Y29869D01*
X43776D01*
X44176Y30269D02*
Y31069D01*
X44976D01*
Y30269D01*
X44176D01*
X96476Y146769D02*
Y148369D01*
X98076D01*
Y146769D01*
X96476D01*
X96876Y147169D02*
Y147969D01*
X97676D01*
Y147169D01*
X96876D01*
X96476Y144569D02*
Y146169D01*
X98076D01*
Y144569D01*
X96476D01*
X96876Y144969D02*
Y145769D01*
X97676D01*
Y144969D01*
X96876D01*
X97236Y141129D02*
Y142729D01*
X98836D01*
Y141129D01*
X97236D01*
X97636Y141529D02*
Y142329D01*
X98436D01*
Y141529D01*
X97636D01*
X111876Y164269D02*
Y165869D01*
X113476D01*
Y164269D01*
X111876D01*
X112276Y164669D02*
Y165469D01*
X113076D01*
Y164669D01*
X112276D01*
X109676Y164269D02*
Y165869D01*
X111276D01*
Y164269D01*
X109676D01*
X110076Y164669D02*
Y165469D01*
X110876D01*
Y164669D01*
X110076D01*
X99264Y153481D02*
Y155081D01*
X100864D01*
Y153481D01*
X99264D01*
X99664Y153881D02*
Y154681D01*
X100464D01*
Y153881D01*
X99664D01*
X103564Y160469D02*
Y162069D01*
X105164D01*
Y160469D01*
X103564D01*
X103964Y160869D02*
Y161669D01*
X104764D01*
Y160869D01*
X103964D01*
X103564Y157569D02*
Y159169D01*
X105164D01*
Y157569D01*
X103564D01*
X103964Y157969D02*
Y158769D01*
X104764D01*
Y157969D01*
X103964D01*
X119276Y135769D02*
Y137369D01*
X120876D01*
Y135769D01*
X119276D01*
X119676Y136169D02*
Y136969D01*
X120476D01*
Y136169D01*
X119676D01*
X119276Y133469D02*
Y135069D01*
X120876D01*
Y133469D01*
X119276D01*
X119676Y133869D02*
Y134669D01*
X120476D01*
Y133869D01*
X119676D01*
X86276Y102769D02*
X86676D01*
X87076Y103169D01*
X87476Y102769D01*
X87876D01*
Y103169D01*
X87476Y103569D01*
X87876Y103969D01*
Y104369D01*
X87476D01*
X87076Y103969D01*
X86676Y104369D01*
X86276D01*
Y103969D01*
X86676Y103569D01*
X86276Y103169D01*
Y102769D01*
X93976Y115369D02*
Y116969D01*
X95576D01*
Y115369D01*
X93976D01*
X94376Y115769D02*
Y116569D01*
X95176D01*
Y115769D01*
X94376D01*
X23200Y58769D02*
Y60369D01*
X24800D01*
Y58769D01*
X23200D01*
X23600Y59169D02*
Y59969D01*
X24400D01*
Y59169D01*
X23600D01*
X39276Y166369D02*
Y167969D01*
X40876D01*
Y166369D01*
X39276D01*
X39676Y166769D02*
Y167569D01*
X40476D01*
Y166769D01*
X39676D01*
X28076Y164569D02*
Y166169D01*
X29676D01*
Y164569D01*
X28076D01*
X28476Y164969D02*
Y165769D01*
X29276D01*
Y164969D01*
X28476D01*
X22876Y152369D02*
Y153969D01*
X24476D01*
Y152369D01*
X22876D01*
X23276Y152769D02*
Y153569D01*
X24076D01*
Y152769D01*
X23276D01*
X104174Y102969D02*
Y104569D01*
X105774D01*
Y102969D01*
X104174D01*
X104574Y103369D02*
Y104169D01*
X105374D01*
Y103369D01*
X104574D01*
X73470Y112969D02*
X73870D01*
X74270Y113369D01*
X74670Y112969D01*
X75070D01*
Y113369D01*
X74670Y113769D01*
X75070Y114169D01*
Y114569D01*
X74670D01*
X74270Y114169D01*
X73870Y114569D01*
X73470D01*
Y114169D01*
X73870Y113769D01*
X73470Y113369D01*
Y112969D01*
X76052Y112944D02*
X76452D01*
X76853Y113345D01*
X77253Y112944D01*
X77653D01*
Y113345D01*
X77253Y113744D01*
X77653Y114145D01*
Y114544D01*
X77253D01*
X76853Y114145D01*
X76452Y114544D01*
X76052D01*
Y114145D01*
X76452Y113744D01*
X76052Y113345D01*
Y112944D01*
D261*
X118774Y5737D02*
G03*
X118774Y5737I-800J0D01*
G01*
X92782D02*
G03*
X92782Y5737I-800J0D01*
G01*
X134300Y157500D02*
G03*
X134300Y157500I-800J0D01*
G01*
X123300D02*
G03*
X123300Y157500I-800J0D01*
G01*
Y168500D02*
G03*
X123300Y168500I-800J0D01*
G01*
X134300D02*
G03*
X134300Y168500I-800J0D01*
G01*
X128800Y155000D02*
G03*
X128800Y155000I-800J0D01*
G01*
X120800Y163000D02*
G03*
X120800Y163000I-800J0D01*
G01*
X136800D02*
G03*
X136800Y163000I-800J0D01*
G01*
X128800Y171000D02*
G03*
X128800Y171000I-800J0D01*
G01*
X18300Y157500D02*
G03*
X18300Y157500I-800J0D01*
G01*
X7300D02*
G03*
X7300Y157500I-800J0D01*
G01*
Y168500D02*
G03*
X7300Y168500I-800J0D01*
G01*
X18300D02*
G03*
X18300Y168500I-800J0D01*
G01*
X12800Y155000D02*
G03*
X12800Y155000I-800J0D01*
G01*
X4800Y163000D02*
G03*
X4800Y163000I-800J0D01*
G01*
X20800D02*
G03*
X20800Y163000I-800J0D01*
G01*
X12800Y171000D02*
G03*
X12800Y171000I-800J0D01*
G01*
D262*
X133900Y157500D02*
G03*
X133900Y157500I-400J0D01*
G01*
X122900D02*
G03*
X122900Y157500I-400J0D01*
G01*
Y168500D02*
G03*
X122900Y168500I-400J0D01*
G01*
X133900D02*
G03*
X133900Y168500I-400J0D01*
G01*
X128400Y155000D02*
G03*
X128400Y155000I-400J0D01*
G01*
X120400Y163000D02*
G03*
X120400Y163000I-400J0D01*
G01*
X136400D02*
G03*
X136400Y163000I-400J0D01*
G01*
X128400Y171000D02*
G03*
X128400Y171000I-400J0D01*
G01*
X17900Y157500D02*
G03*
X17900Y157500I-400J0D01*
G01*
X6900D02*
G03*
X6900Y157500I-400J0D01*
G01*
Y168500D02*
G03*
X6900Y168500I-400J0D01*
G01*
X17900D02*
G03*
X17900Y168500I-400J0D01*
G01*
X12400Y155000D02*
G03*
X12400Y155000I-400J0D01*
G01*
X4400Y163000D02*
G03*
X4400Y163000I-400J0D01*
G01*
X20400D02*
G03*
X20400Y163000I-400J0D01*
G01*
X12400Y171000D02*
G03*
X12400Y171000I-400J0D01*
G01*
M02*
