G04 Layer_Color=65535*
%FSLAX25Y25*%
%MOIN*%
G70*
G01*
G75*
%ADD44C,0.00500*%
%ADD47C,0.00800*%
%ADD53C,0.00600*%
%ADD100R,0.02000X0.02000*%
%ADD118C,0.00200*%
%ADD248R,0.03750X0.01969*%
%ADD249R,0.03750X0.02000*%
%ADD250R,0.01969X0.03750*%
%ADD251R,0.02000X0.03750*%
%ADD252R,0.00800X0.05000*%
%ADD253R,0.00800X0.05015*%
%ADD254R,0.00800X0.05085*%
%ADD255R,0.00800X0.05095*%
%ADD256R,0.02559X0.01969*%
%ADD257R,0.02559X0.01984*%
%ADD258R,0.02559X0.02000*%
%ADD259R,0.02600X0.02000*%
%ADD260R,0.02600X0.01969*%
D44*
X32576Y124169D02*
Y127071D01*
X29126Y124169D02*
Y127071D01*
X39374Y137469D02*
X42276D01*
X39374Y134019D02*
X42276D01*
X131076Y102723D02*
Y105624D01*
X127626Y102723D02*
Y105624D01*
X50176Y2732D02*
X57319Y2732D01*
Y12653D01*
X50176Y12653D02*
X57319Y12653D01*
X50176Y2732D02*
Y12653D01*
X48076Y83819D02*
Y86721D01*
X51526Y83819D02*
Y86721D01*
D47*
X43497Y171100D02*
X96600Y171000D01*
Y149232D02*
Y171000D01*
X43497Y149282D02*
Y171100D01*
Y149282D02*
X96600Y149232D01*
D53*
X86202Y22900D02*
X91402D01*
X86202D02*
Y34100D01*
X91402D01*
Y22900D02*
Y34100D01*
X70926Y2157D02*
Y13269D01*
X64576Y2157D02*
Y13269D01*
X70926D01*
X64576Y2157D02*
X70926D01*
X34596Y143006D02*
Y148206D01*
X23396Y143006D02*
X34596D01*
X23396D02*
Y148206D01*
X34596D01*
D100*
X118500Y36000D02*
D03*
Y46000D02*
D03*
Y56000D02*
D03*
Y66000D02*
D03*
Y76000D02*
D03*
Y26000D02*
D03*
X6500Y16000D02*
D03*
Y26000D02*
D03*
Y36000D02*
D03*
Y46000D02*
D03*
Y56000D02*
D03*
Y66000D02*
D03*
Y76000D02*
D03*
Y6000D02*
D03*
X133500Y16000D02*
D03*
Y26000D02*
D03*
Y36000D02*
D03*
Y46000D02*
D03*
Y56000D02*
D03*
Y66000D02*
D03*
Y76000D02*
D03*
Y6000D02*
D03*
D118*
X34676Y119869D02*
Y131468D01*
X26906Y119869D02*
X34676Y119869D01*
X26906Y119869D02*
Y131468D01*
X34676Y131468D01*
X34977Y139569D02*
X46576D01*
Y131799D02*
Y139569D01*
X34977Y131799D02*
X46576D01*
X34977D02*
Y139569D01*
X133176Y98422D02*
Y110022D01*
X125406Y98423D02*
X133176Y98422D01*
X125406Y98423D02*
Y110022D01*
X133176Y110022D01*
X47176Y79519D02*
Y91119D01*
Y79519D02*
X52565D01*
Y91119D01*
X47176D02*
X52565D01*
D248*
X30801Y127984D02*
D03*
X129303Y106538D02*
D03*
X49851Y87635D02*
D03*
D249*
X30801Y123369D02*
D03*
X129300Y101922D02*
D03*
X49852Y83020D02*
D03*
D250*
X38460Y135695D02*
D03*
D251*
X43076Y135694D02*
D03*
D252*
X73000Y153100D02*
D03*
X75000Y167400D02*
D03*
Y153090D02*
D03*
X67055Y153150D02*
D03*
X65075D02*
D03*
X63105D02*
D03*
X61145Y153140D02*
D03*
X59165Y153160D02*
D03*
X57195Y153150D02*
D03*
X76900Y153090D02*
D03*
X78900D02*
D03*
X80900D02*
D03*
X82800Y153100D02*
D03*
X84800Y153090D02*
D03*
X86800D02*
D03*
X73000Y167400D02*
D03*
X67045D02*
D03*
X65075D02*
D03*
X63095D02*
D03*
X61125D02*
D03*
X59155D02*
D03*
X57185D02*
D03*
X76900D02*
D03*
X78900D02*
D03*
X80900D02*
D03*
X82800D02*
D03*
X84800D02*
D03*
X86800D02*
D03*
X55228Y153160D02*
D03*
X53258Y153150D02*
D03*
X55218Y167400D02*
D03*
X53248D02*
D03*
D253*
X70992Y153130D02*
D03*
Y167400D02*
D03*
D254*
X69057Y153120D02*
D03*
D255*
X69052Y167400D02*
D03*
D256*
X72402Y3929D02*
D03*
D257*
Y7677D02*
D03*
D258*
Y11469D02*
D03*
D259*
X63076Y11469D02*
D03*
D260*
X63077Y3929D02*
D03*
M02*
