G04 Layer_Color=128*
%FSLAX25Y25*%
%MOIN*%
G70*
G01*
G75*
%ADD118C,0.00200*%
D118*
X124094Y142500D02*
X135906D01*
X130000Y136594D02*
Y148406D01*
X4095Y142500D02*
X15905D01*
X10000Y136594D02*
Y148406D01*
X115774Y5737D02*
X120174D01*
X117974Y3537D02*
Y7937D01*
X89782Y5737D02*
X94182D01*
X91982Y3537D02*
Y7937D01*
X116500Y76000D02*
X120500D01*
X118500Y74000D02*
Y78000D01*
X116500Y66000D02*
X120500D01*
X118500Y64000D02*
Y68000D01*
X116500Y56000D02*
X120500D01*
X118500Y54000D02*
Y58000D01*
X116500Y46000D02*
X120500D01*
X118500Y44000D02*
Y48000D01*
X116500Y36000D02*
X120500D01*
X118500Y34000D02*
Y38000D01*
X116500Y26000D02*
X120500D01*
X118500Y24000D02*
Y28000D01*
X89700Y154095D02*
X92100D01*
X90900Y152894D02*
Y155295D01*
X47934Y154095D02*
X50334D01*
X49134Y152894D02*
Y155295D01*
X30337Y25000D02*
X33537D01*
X31937Y23400D02*
Y26600D01*
X22400Y25000D02*
X25600D01*
X24000Y23400D02*
Y26600D01*
X4500Y76000D02*
X8500D01*
X6500Y74000D02*
Y78000D01*
X4500Y66000D02*
X8500D01*
X6500Y64000D02*
Y68000D01*
X4500Y56000D02*
X8500D01*
X6500Y54000D02*
Y58000D01*
X4500Y46000D02*
X8500D01*
X6500Y44000D02*
Y48000D01*
X4500Y36000D02*
X8500D01*
X6500Y34000D02*
Y38000D01*
X4500Y26000D02*
X8500D01*
X6500Y24000D02*
Y28000D01*
X4500Y16000D02*
X8500D01*
X6500Y14000D02*
Y18000D01*
X4500Y6000D02*
X8500D01*
X6500Y4000D02*
Y8000D01*
X131500Y76000D02*
X135500D01*
X133500Y74000D02*
Y78000D01*
X131500Y66000D02*
X135500D01*
X133500Y64000D02*
Y68000D01*
X131500Y56000D02*
X135500D01*
X133500Y54000D02*
Y58000D01*
X131500Y46000D02*
X135500D01*
X133500Y44000D02*
Y48000D01*
X131500Y36000D02*
X135500D01*
X133500Y34000D02*
Y38000D01*
X131500Y26000D02*
X135500D01*
X133500Y24000D02*
Y28000D01*
X131500Y16000D02*
X135500D01*
X133500Y14000D02*
Y18000D01*
X131500Y6000D02*
X135500D01*
X133500Y4000D02*
Y8000D01*
X6488Y163000D02*
X17512D01*
X12000Y157488D02*
Y168512D01*
X122488Y163000D02*
X133512D01*
X128000Y157488D02*
Y168512D01*
X81576Y111186D02*
X82363D01*
X81969Y110792D02*
Y111579D01*
X71342Y106067D02*
X72129D01*
X71736Y105673D02*
Y106460D01*
X76459Y103508D02*
X77246D01*
X76853Y103115D02*
Y103902D01*
X68779Y113744D02*
X69566D01*
X69173Y113351D02*
Y114138D01*
X63582Y113769D02*
X64370D01*
X63976Y113375D02*
Y114163D01*
X68754Y108769D02*
X69541D01*
X69148Y108375D02*
Y109163D01*
X66282Y108769D02*
X67070D01*
X66676Y108375D02*
Y109163D01*
X73898Y98469D02*
X74685D01*
X74291Y98075D02*
Y98863D01*
X71382Y108769D02*
X72170D01*
X71776Y108375D02*
Y109163D01*
X68778Y116304D02*
X69565D01*
X69172Y115910D02*
Y116697D01*
X66220Y113744D02*
X67007D01*
X66614Y113351D02*
Y114138D01*
X63582Y108769D02*
X64370D01*
X63976Y108375D02*
Y109163D01*
X63582Y106069D02*
X64370D01*
X63976Y105675D02*
Y106463D01*
X66382Y103469D02*
X67170D01*
X66776Y103075D02*
Y103863D01*
X63482Y103469D02*
X64270D01*
X63876Y103075D02*
Y103863D01*
X10469Y116949D02*
X12043D01*
X11256Y116162D02*
Y117736D01*
X109185Y121369D02*
X110367D01*
X109776Y120778D02*
Y121959D01*
X108254Y123928D02*
X109435D01*
X108844Y123338D02*
Y124519D01*
X103785Y124069D02*
X104967D01*
X104376Y123478D02*
Y124660D01*
X110012Y125679D02*
X111193D01*
X110602Y125088D02*
Y126269D01*
X79232Y77046D02*
X80020D01*
X79626Y76653D02*
Y77440D01*
X83957Y66945D02*
X84745D01*
X84351Y66551D02*
Y67339D01*
X80807Y66945D02*
X81595D01*
X81201Y66551D02*
Y67339D01*
X52460Y54346D02*
X53248D01*
X52854Y53952D02*
Y54740D01*
X55609Y54346D02*
X56397D01*
X56003Y53952D02*
Y54740D01*
X58882Y132969D02*
X59670D01*
X59276Y132575D02*
Y133363D01*
X58622Y147769D02*
X59803D01*
X59213Y147178D02*
Y148360D01*
X58685Y135469D02*
X59866D01*
X59276Y134878D02*
Y136059D01*
X58590Y159769D02*
X59771D01*
X59181Y159178D02*
Y160360D01*
X54646Y143169D02*
X55827D01*
X55236Y142578D02*
Y143760D01*
X98682Y70069D02*
X99470D01*
X99076Y69675D02*
Y70463D01*
X80807Y48047D02*
X81595D01*
X81201Y47653D02*
Y48441D01*
X74507Y48047D02*
X75295D01*
X74901Y47653D02*
Y48441D01*
X77657Y48047D02*
X78445D01*
X78051Y47653D02*
Y48441D01*
X46182Y47669D02*
X46970D01*
X46576Y47275D02*
Y48063D01*
X46182Y51197D02*
X46970D01*
X46576Y50803D02*
Y51591D01*
X49282Y47969D02*
X50070D01*
X49676Y47575D02*
Y48363D01*
X52460Y51197D02*
X53248D01*
X52854Y50803D02*
Y51591D01*
X52460Y48047D02*
X53248D01*
X52854Y47653D02*
Y48441D01*
X49282Y51197D02*
X50070D01*
X49676Y50803D02*
Y51591D01*
X68282Y76369D02*
X69070D01*
X68676Y75975D02*
Y76763D01*
X65059Y70094D02*
X65847D01*
X65453Y69700D02*
Y70488D01*
X65059Y76394D02*
X65847D01*
X65453Y76000D02*
Y76788D01*
X61909Y76394D02*
X62697D01*
X62303Y76000D02*
Y76788D01*
X87282Y73269D02*
X88070D01*
X87676Y72875D02*
Y73663D01*
X133000Y157500D02*
X134000D01*
X133500Y157000D02*
Y158000D01*
X122000Y157500D02*
X123000D01*
X122500Y157000D02*
Y158000D01*
X122000Y168500D02*
X123000D01*
X122500Y168000D02*
Y169000D01*
X133000Y168500D02*
X134000D01*
X133500Y168000D02*
Y169000D01*
X127500Y155000D02*
X128500D01*
X128000Y154500D02*
Y155500D01*
X119500Y163000D02*
X120500D01*
X120000Y162500D02*
Y163500D01*
X135500Y163000D02*
X136500D01*
X136000Y162500D02*
Y163500D01*
X127500Y171000D02*
X128500D01*
X128000Y170500D02*
Y171500D01*
X17000Y157500D02*
X18000D01*
X17500Y157000D02*
Y158000D01*
X6000Y157500D02*
X7000D01*
X6500Y157000D02*
Y158000D01*
X6000Y168500D02*
X7000D01*
X6500Y168000D02*
Y169000D01*
X17000Y168500D02*
X18000D01*
X17500Y168000D02*
Y169000D01*
X11500Y155000D02*
X12500D01*
X12000Y154500D02*
Y155500D01*
X3500Y163000D02*
X4500D01*
X4000Y162500D02*
Y163500D01*
X19500Y163000D02*
X20500D01*
X20000Y162500D02*
Y163500D01*
X11500Y171000D02*
X12500D01*
X12000Y170500D02*
Y171500D01*
X58759Y73244D02*
X59547D01*
X59153Y72850D02*
Y73638D01*
X61909Y73244D02*
X62697D01*
X62303Y72850D02*
Y73638D01*
X58760Y70094D02*
X59548D01*
X59154Y69700D02*
Y70488D01*
X58759Y76394D02*
X59547D01*
X59153Y76000D02*
Y76788D01*
X55610Y70095D02*
X56398D01*
X56004Y69701D02*
Y70489D01*
X47985Y131569D02*
X49167D01*
X48576Y130978D02*
Y132159D01*
X26685Y125669D02*
X27867D01*
X27276Y125078D02*
Y126260D01*
X14886Y32269D02*
X16067D01*
X15476Y31678D02*
Y32860D01*
X18686Y32312D02*
X19867D01*
X19276Y31722D02*
Y32903D01*
X19586Y44569D02*
X20767D01*
X20176Y43978D02*
Y45160D01*
X16785Y46969D02*
X17967D01*
X17376Y46378D02*
Y47560D01*
X30685Y48969D02*
X31867D01*
X31276Y48378D02*
Y49560D01*
X30585Y45369D02*
X31767D01*
X31176Y44778D02*
Y45960D01*
X11385Y16769D02*
X12566D01*
X11976Y16179D02*
Y17359D01*
X7986Y20969D02*
X9166D01*
X8576Y20379D02*
Y21560D01*
X55985Y113744D02*
X56772D01*
X56379Y113351D02*
Y114138D01*
X68777Y111185D02*
X69564D01*
X69170Y110791D02*
Y111578D01*
X49311Y76394D02*
X50099D01*
X49705Y76000D02*
Y76788D01*
X52460Y76394D02*
X53248D01*
X52854Y76000D02*
Y76788D01*
X55610Y76394D02*
X56398D01*
X56004Y76000D02*
Y76788D01*
X74507Y76394D02*
X75295D01*
X74901Y76000D02*
Y76788D01*
X52460Y73244D02*
X53248D01*
X52854Y72850D02*
Y73638D01*
X93405Y54346D02*
X94193D01*
X93799Y53952D02*
Y54740D01*
X93405Y51197D02*
X94193D01*
X93799Y50803D02*
Y51591D01*
X90255Y51197D02*
X91043D01*
X90649Y50803D02*
Y51591D01*
X71358Y51197D02*
X72146D01*
X71752Y50803D02*
Y51591D01*
X87106Y54346D02*
X87894D01*
X87500Y53952D02*
Y54740D01*
X90255Y54346D02*
X91043D01*
X90649Y53952D02*
Y54740D01*
X83956Y54346D02*
X84744D01*
X84350Y53952D02*
Y54740D01*
X74507Y54346D02*
X75295D01*
X74901Y53952D02*
Y54740D01*
X65058Y54346D02*
X65846D01*
X65452Y53952D02*
Y54740D01*
X58759Y48047D02*
X59547D01*
X59153Y47653D02*
Y48441D01*
X61909Y48047D02*
X62697D01*
X62303Y47653D02*
Y48441D01*
X65058Y48047D02*
X65846D01*
X65452Y47653D02*
Y48441D01*
X71358Y48047D02*
X72146D01*
X71752Y47653D02*
Y48441D01*
X83956Y48047D02*
X84744D01*
X84350Y47653D02*
Y48441D01*
X87106Y48047D02*
X87894D01*
X87500Y47653D02*
Y48441D01*
X90255Y48047D02*
X91043D01*
X90649Y47653D02*
Y48441D01*
X93405Y48047D02*
X94193D01*
X93799Y47653D02*
Y48441D01*
X80807Y51197D02*
X81595D01*
X81201Y50803D02*
Y51591D01*
X83956Y51197D02*
X84744D01*
X84350Y50803D02*
Y51591D01*
X87106Y51197D02*
X87894D01*
X87500Y50803D02*
Y51591D01*
X52460Y66945D02*
X53248D01*
X52854Y66551D02*
Y67339D01*
X49311Y66945D02*
X50099D01*
X49705Y66551D02*
Y67339D01*
X68209Y66945D02*
X68997D01*
X68603Y66551D02*
Y67339D01*
X87106Y66945D02*
X87894D01*
X87500Y66551D02*
Y67339D01*
X90256Y66945D02*
X91044D01*
X90650Y66551D02*
Y67339D01*
X77657Y73244D02*
X78445D01*
X78051Y72850D02*
Y73638D01*
X68208Y70094D02*
X68996D01*
X68602Y69700D02*
Y70488D01*
X55936Y103457D02*
X56723D01*
X56330Y103064D02*
Y103851D01*
X84135Y111186D02*
X84922D01*
X84528Y110792D02*
Y111579D01*
X74508Y66945D02*
X75296D01*
X74902Y66551D02*
Y67339D01*
X61482Y64169D02*
X62270D01*
X61876Y63775D02*
Y64563D01*
X45082Y63169D02*
X45870D01*
X45476Y62775D02*
Y63563D01*
X72986Y17169D02*
X74167D01*
X73576Y16578D02*
Y17760D01*
X76186Y7669D02*
X77367D01*
X76776Y7078D02*
Y8260D01*
X84685Y4169D02*
X85866D01*
X85276Y3579D02*
Y4760D01*
X80686Y7269D02*
X81867D01*
X81276Y6678D02*
Y7860D01*
X45185Y7226D02*
X46367D01*
X45776Y6635D02*
Y7816D01*
X41385Y10069D02*
X42567D01*
X41976Y9478D02*
Y10660D01*
X44285Y42269D02*
X45467D01*
X44876Y41678D02*
Y42860D01*
X51285Y25236D02*
X52466D01*
X51876Y24645D02*
Y25826D01*
X100331Y43343D02*
X101512D01*
X100921Y42752D02*
Y43933D01*
X102890Y43343D02*
X104071D01*
X103481Y42752D02*
Y43933D01*
X120285Y119069D02*
X121467D01*
X120876Y118478D02*
Y119659D01*
X122385Y116869D02*
X123567D01*
X122976Y116278D02*
Y117459D01*
X64528Y147769D02*
X65709D01*
X65118Y147178D02*
Y148360D01*
X64488Y143169D02*
X65669D01*
X65079Y142578D02*
Y143760D01*
X68465Y147769D02*
X69646D01*
X69055Y147178D02*
Y148360D01*
X68425Y143169D02*
X69606D01*
X69016Y142578D02*
Y143760D01*
X84178Y143169D02*
X85359D01*
X84768Y142578D02*
Y143760D01*
X86185Y159769D02*
X87366D01*
X86776Y159178D02*
Y160360D01*
X78285Y159769D02*
X79466D01*
X78876Y159178D02*
Y160360D01*
X66464Y162469D02*
X67645D01*
X67055Y161878D02*
Y163059D01*
X62527Y162469D02*
X63708D01*
X63118Y161878D02*
Y163059D01*
X54653Y162469D02*
X55834D01*
X55244Y161878D02*
Y163059D01*
X39285Y149869D02*
X40467D01*
X39876Y149278D02*
Y150460D01*
X44985Y149869D02*
X46167D01*
X45576Y149278D02*
Y150460D01*
X68781Y126541D02*
X69568D01*
X69174Y126147D02*
Y126934D01*
X80786Y141269D02*
X81967D01*
X81376Y140678D02*
Y141859D01*
X66486Y159769D02*
X67667D01*
X67076Y159178D02*
Y160360D01*
X74385Y162469D02*
X75567D01*
X74976Y161878D02*
Y163059D01*
X70401Y159769D02*
X71582D01*
X70992Y159178D02*
Y160360D01*
X74385Y157769D02*
X75567D01*
X74976Y157178D02*
Y158360D01*
X124685Y113744D02*
X125867D01*
X125276Y113154D02*
Y114335D01*
X76986Y142561D02*
X78167D01*
X77576Y141971D02*
Y143152D01*
X77486Y132969D02*
X78667D01*
X78076Y132378D02*
Y133560D01*
X70401Y162469D02*
X71582D01*
X70992Y161878D02*
Y163059D01*
X106285Y100969D02*
X107467D01*
X106876Y100378D02*
Y101560D01*
X114085Y60869D02*
X115267D01*
X114676Y60278D02*
Y61460D01*
X110985Y71469D02*
X112167D01*
X111576Y70878D02*
Y72060D01*
X33546Y128909D02*
X34727D01*
X34137Y128318D02*
Y129499D01*
X36800Y132169D02*
X37981D01*
X37391Y131578D02*
Y132759D01*
X30624Y106769D02*
X31805D01*
X31214Y106178D02*
Y107360D01*
X30624Y103507D02*
X31805D01*
X31214Y102917D02*
Y104098D01*
X24686Y62769D02*
X25867D01*
X25276Y62178D02*
Y63360D01*
X29685Y62769D02*
X30867D01*
X30276Y62178D02*
Y63360D01*
X25185Y51669D02*
X26367D01*
X25776Y51078D02*
Y52260D01*
X131985Y107646D02*
X133167D01*
X132576Y107055D02*
Y108237D01*
X32185Y145169D02*
X33367D01*
X32776Y144578D02*
Y145759D01*
X31205Y132669D02*
X32386D01*
X31796Y132078D02*
Y133259D01*
X132423Y116307D02*
X133605D01*
X133014Y115717D02*
Y116898D01*
X132285Y124769D02*
X133467D01*
X132876Y124178D02*
Y125359D01*
X128885Y124769D02*
X130067D01*
X129476Y124178D02*
Y125359D01*
X117285Y127969D02*
X118467D01*
X117876Y127378D02*
Y128560D01*
X113985Y127969D02*
X115167D01*
X114576Y127378D02*
Y128560D01*
X80282Y132369D02*
X81070D01*
X80676Y131975D02*
Y132763D01*
X110785Y88269D02*
X111967D01*
X111376Y87678D02*
Y88860D01*
X134185Y89469D02*
X135367D01*
X134776Y88878D02*
Y90060D01*
X131285Y84969D02*
X132467D01*
X131876Y84378D02*
Y85560D01*
X128685Y96969D02*
X129867D01*
X129276Y96378D02*
Y97560D01*
X115732Y97569D02*
X116913D01*
X116323Y96978D02*
Y98160D01*
X110685Y78769D02*
X111867D01*
X111276Y78178D02*
Y79360D01*
X107785Y84869D02*
X108967D01*
X108376Y84278D02*
Y85460D01*
X72378Y143169D02*
X73559D01*
X72969Y142578D02*
Y143760D01*
X54085Y137569D02*
X55266D01*
X54676Y136978D02*
Y138160D01*
X119485Y91969D02*
X120667D01*
X120076Y91378D02*
Y92560D01*
X121985Y91069D02*
X123167D01*
X122576Y90478D02*
Y91660D01*
X84486Y161469D02*
X85667D01*
X85076Y160878D02*
Y162059D01*
X72386Y140169D02*
X73567D01*
X72976Y139578D02*
Y140760D01*
X31885Y113969D02*
X33067D01*
X32476Y113378D02*
Y114559D01*
X107985Y91669D02*
X109167D01*
X108576Y91078D02*
Y92260D01*
X83956Y79169D02*
X84744D01*
X84350Y78775D02*
Y79563D01*
X61909Y51197D02*
X62697D01*
X62303Y50803D02*
Y51591D01*
X46161Y54346D02*
X46949D01*
X46555Y53952D02*
Y54740D01*
X49310Y54346D02*
X50098D01*
X49704Y53952D02*
Y54740D01*
X58759Y51197D02*
X59547D01*
X59153Y50803D02*
Y51591D01*
X36785Y54269D02*
X37967D01*
X37376Y53678D02*
Y54860D01*
X40885Y90469D02*
X42067D01*
X41476Y89878D02*
Y91060D01*
X40885Y93269D02*
X42067D01*
X41476Y92678D02*
Y93860D01*
X15385Y88669D02*
X16567D01*
X15976Y88078D02*
Y89260D01*
X15385Y99169D02*
X16567D01*
X15976Y98578D02*
Y99760D01*
X15385Y95869D02*
X16567D01*
X15976Y95278D02*
Y96460D01*
X15586Y105069D02*
X16767D01*
X16176Y104478D02*
Y105659D01*
X60551Y145803D02*
X61732D01*
X61142Y145213D02*
Y146394D01*
X35885Y140769D02*
X37067D01*
X36476Y140178D02*
Y141359D01*
X25486Y117869D02*
X26667D01*
X26076Y117278D02*
Y118459D01*
X22585Y104969D02*
X23767D01*
X23176Y104378D02*
Y105560D01*
X22585Y108969D02*
X23767D01*
X23176Y108378D02*
Y109560D01*
X19685Y111869D02*
X20867D01*
X20276Y111278D02*
Y112460D01*
X34449Y170905D02*
X35630D01*
X35039Y170315D02*
Y171496D01*
X104785Y171069D02*
X105967D01*
X105376Y170478D02*
Y171660D01*
X114885Y139569D02*
X116067D01*
X115476Y138978D02*
Y140159D01*
X112785Y139569D02*
X113967D01*
X113376Y138978D02*
Y140159D01*
X110685Y139569D02*
X111867D01*
X111276Y138978D02*
Y140159D01*
X78086Y28769D02*
X79267D01*
X78676Y28178D02*
Y29360D01*
X81186Y28769D02*
X82367D01*
X81776Y28178D02*
Y29360D01*
X84285Y28769D02*
X85466D01*
X84876Y28178D02*
Y29360D01*
X87111Y42269D02*
X88292D01*
X87702Y41678D02*
Y42860D01*
X101686Y31669D02*
X102867D01*
X102276Y31078D02*
Y32260D01*
X85786Y17769D02*
X86967D01*
X86376Y17178D02*
Y18360D01*
X85786Y14769D02*
X86967D01*
X86376Y14178D02*
Y15360D01*
X90486Y20869D02*
X91667D01*
X91076Y20279D02*
Y21460D01*
X121165Y20149D02*
X122346D01*
X121756Y19558D02*
Y20739D01*
X115485Y11469D02*
X116667D01*
X116076Y10878D02*
Y12060D01*
X118685Y11469D02*
X119867D01*
X119276Y10878D02*
Y12060D01*
X96986Y10969D02*
X98167D01*
X97576Y10378D02*
Y11560D01*
X102385Y10969D02*
X103567D01*
X102976Y10378D02*
Y11560D01*
X106585Y10969D02*
X107767D01*
X107176Y10378D02*
Y11560D01*
X111885Y10969D02*
X113067D01*
X112476Y10378D02*
Y11560D01*
X93085Y12069D02*
X94266D01*
X93676Y11478D02*
Y12660D01*
X90086Y12069D02*
X91267D01*
X90676Y11478D02*
Y12660D01*
X128919Y129535D02*
X130101D01*
X129510Y128945D02*
Y130125D01*
X99182Y74869D02*
X99970D01*
X99576Y74475D02*
Y75263D01*
X29685Y59569D02*
X30867D01*
X30276Y58978D02*
Y60160D01*
X107785Y87869D02*
X108967D01*
X108376Y87278D02*
Y88460D01*
X71357Y54347D02*
X72145D01*
X71751Y53953D02*
Y54741D01*
X80807Y54346D02*
X81595D01*
X81201Y53952D02*
Y54740D01*
X74482Y63869D02*
X75270D01*
X74876Y63475D02*
Y64263D01*
X21589Y122269D02*
X23163D01*
X22376Y121482D02*
Y123056D01*
X18589Y115669D02*
X20163D01*
X19376Y114882D02*
Y116456D01*
X18889Y135069D02*
X20463D01*
X19676Y134282D02*
Y135856D01*
X13989Y130869D02*
X15563D01*
X14776Y130082D02*
Y131656D01*
X4389Y86969D02*
X5963D01*
X5176Y86182D02*
Y87756D01*
X14489Y83369D02*
X16063D01*
X15276Y82582D02*
Y84156D01*
X14889Y60869D02*
X16463D01*
X15676Y60082D02*
Y61656D01*
X13189Y40869D02*
X14763D01*
X13976Y40082D02*
Y41656D01*
X13489Y50669D02*
X15063D01*
X14276Y49882D02*
Y51456D01*
X17989Y20869D02*
X19563D01*
X18776Y20082D02*
Y21656D01*
X34989Y11669D02*
X36563D01*
X35776Y10882D02*
Y12456D01*
X38989Y23169D02*
X40563D01*
X39776Y22382D02*
Y23956D01*
X38289Y5269D02*
X39863D01*
X39076Y4482D02*
Y6056D01*
X12789Y5169D02*
X14363D01*
X13576Y4382D02*
Y5956D01*
X62789Y7769D02*
X64363D01*
X63576Y6982D02*
Y8556D01*
X53589Y7869D02*
X55163D01*
X54376Y7082D02*
Y8656D01*
X81389Y20369D02*
X82963D01*
X82176Y19582D02*
Y21156D01*
X88389Y31869D02*
X89963D01*
X89176Y31082D02*
Y32656D01*
X127189Y11069D02*
X128763D01*
X127976Y10282D02*
Y11856D01*
X125189Y21369D02*
X126763D01*
X125976Y20582D02*
Y22156D01*
X124189Y30469D02*
X125763D01*
X124976Y29682D02*
Y31256D01*
X112189Y30769D02*
X113763D01*
X112976Y29982D02*
Y31556D01*
X112789Y50769D02*
X114363D01*
X113576Y49982D02*
Y51556D01*
X120789Y71269D02*
X122363D01*
X121576Y70482D02*
Y72056D01*
X129989Y81469D02*
X131563D01*
X130776Y80682D02*
Y82256D01*
X130889Y91669D02*
X132463D01*
X131676Y90882D02*
Y92456D01*
X88689Y135769D02*
X90263D01*
X89476Y134982D02*
Y136556D01*
X103889Y154269D02*
X105463D01*
X104676Y153482D02*
Y155056D01*
X92989Y169669D02*
X94563D01*
X93776Y168882D02*
Y170456D01*
X85989Y140769D02*
X87563D01*
X86776Y139982D02*
Y141556D01*
X29989Y53869D02*
X31563D01*
X30776Y53082D02*
Y54656D01*
X76389Y14869D02*
X77963D01*
X77176Y14082D02*
Y15656D01*
X88389Y25069D02*
X89963D01*
X89176Y24282D02*
Y25856D01*
X122589Y3732D02*
X124163D01*
X123376Y2945D02*
Y4519D01*
X135689Y41069D02*
X137263D01*
X136476Y40282D02*
Y41856D01*
X136089Y30969D02*
X137663D01*
X136876Y30182D02*
Y31756D01*
X59185Y143169D02*
X60366D01*
X59776Y142578D02*
Y143760D01*
X45182Y79469D02*
X45970D01*
X45576Y79075D02*
Y79863D01*
X45182Y76869D02*
X45970D01*
X45576Y76475D02*
Y77263D01*
X46161Y66945D02*
X46949D01*
X46555Y66551D02*
Y67339D01*
X49382Y73369D02*
X50170D01*
X49776Y72975D02*
Y73763D01*
X45085Y99069D02*
X46267D01*
X45676Y98478D02*
Y99660D01*
X50582Y93369D02*
X51370D01*
X50976Y92975D02*
Y93763D01*
X109985Y96269D02*
X111167D01*
X110576Y95678D02*
Y96860D01*
X105685Y89669D02*
X106867D01*
X106276Y89078D02*
Y90260D01*
X109385Y65169D02*
X110567D01*
X109976Y64578D02*
Y65760D01*
X77657Y66945D02*
X78445D01*
X78051Y66551D02*
Y67339D01*
X52382Y62869D02*
X53170D01*
X52776Y62475D02*
Y63263D01*
X39085Y117469D02*
X40267D01*
X39676Y116878D02*
Y118060D01*
X47282Y107069D02*
X48070D01*
X47676Y106675D02*
Y107463D01*
X45182Y106669D02*
X45970D01*
X45576Y106275D02*
Y107063D01*
X99186Y108269D02*
X100366D01*
X99776Y107678D02*
Y108860D01*
X42782Y106669D02*
X43570D01*
X43176Y106275D02*
Y107063D01*
X109385Y114869D02*
X110567D01*
X109976Y114278D02*
Y115460D01*
X86694Y108693D02*
X87481D01*
X87088Y108299D02*
Y109086D01*
X99485Y128909D02*
X100666D01*
X100076Y128318D02*
Y129499D01*
X81582Y118869D02*
X82370D01*
X81976Y118475D02*
Y119263D01*
X81576Y126541D02*
X82363D01*
X81969Y126147D02*
Y126934D01*
X81575Y121494D02*
X82362D01*
X81968Y121100D02*
Y121888D01*
X86694Y123979D02*
X87481D01*
X87088Y123586D02*
Y124373D01*
X94982Y129369D02*
X95770D01*
X95376Y128975D02*
Y129763D01*
X100585Y112669D02*
X101767D01*
X101176Y112078D02*
Y113259D01*
X97685Y114869D02*
X98866D01*
X98276Y114278D02*
Y115460D01*
X76458Y111188D02*
X77245D01*
X76851Y110795D02*
Y111582D01*
X84134Y116304D02*
X84921D01*
X84527Y115910D02*
Y116697D01*
X84201Y118862D02*
X84988D01*
X84594Y118469D02*
Y119256D01*
X86694Y118861D02*
X87481D01*
X87088Y118468D02*
Y119255D01*
X99385Y120069D02*
X100566D01*
X99976Y119478D02*
Y120659D01*
X84134Y121422D02*
X84921D01*
X84527Y121028D02*
Y121815D01*
X81576Y123980D02*
X82363D01*
X81969Y123587D02*
Y124374D01*
X84135Y123980D02*
X84922D01*
X84528Y123587D02*
Y124374D01*
X86694Y121354D02*
X87481D01*
X87088Y120961D02*
Y121748D01*
X33585Y109069D02*
X34767D01*
X34176Y108478D02*
Y109660D01*
X79015Y95831D02*
X79802D01*
X79409Y95437D02*
Y96224D01*
X110385Y74369D02*
X111567D01*
X110976Y73778D02*
Y74960D01*
X104185Y73569D02*
X105367D01*
X104776Y72978D02*
Y74160D01*
X81575Y106067D02*
X82362D01*
X81968Y105673D02*
Y106460D01*
X79016Y98390D02*
X79803D01*
X79409Y97996D02*
Y98783D01*
X89252Y95831D02*
X90039D01*
X89645Y95437D02*
Y96224D01*
X93682Y92469D02*
X94470D01*
X94076Y92075D02*
Y92863D01*
X72682Y87469D02*
X73470D01*
X73076Y87075D02*
Y87863D01*
X76390Y93271D02*
X77177D01*
X76783Y92878D02*
Y93665D01*
X79084Y93271D02*
X79871D01*
X79478Y92878D02*
Y93665D01*
X71273Y95831D02*
X72060D01*
X71666Y95437D02*
Y96224D01*
X73900Y93271D02*
X74687D01*
X74294Y92878D02*
Y93665D01*
X75179Y90182D02*
X75966D01*
X75573Y89788D02*
Y90575D01*
X77738Y90182D02*
X78525D01*
X78132Y89788D02*
Y90575D01*
X84135Y106068D02*
X84922D01*
X84528Y105674D02*
Y106461D01*
X84134Y103507D02*
X84921D01*
X84527Y103114D02*
Y103901D01*
X81576Y101015D02*
X82363D01*
X81969Y100621D02*
Y101408D01*
X66221Y121355D02*
X67008D01*
X66615Y120962D02*
Y121749D01*
X68780Y124069D02*
X69567D01*
X69174Y123675D02*
Y124463D01*
X68782Y121269D02*
X69570D01*
X69176Y120875D02*
Y121663D01*
X73898Y121422D02*
X74685D01*
X74291Y121028D02*
Y121815D01*
X73899Y126540D02*
X74686D01*
X74292Y126146D02*
Y126933D01*
X73882Y124069D02*
X74670D01*
X74276Y123675D02*
Y124463D01*
X66221Y124069D02*
X67008D01*
X66615Y123675D02*
Y124463D01*
X51986Y131569D02*
X53167D01*
X52576Y130978D02*
Y132159D01*
X46785Y125369D02*
X47967D01*
X47376Y124778D02*
Y125960D01*
X48685Y128469D02*
X49867D01*
X49276Y127878D02*
Y129060D01*
X50385Y136069D02*
X51566D01*
X50976Y135478D02*
Y136660D01*
X53786Y134269D02*
X54966D01*
X54376Y133678D02*
Y134860D01*
X46085Y111169D02*
X47267D01*
X46676Y110578D02*
Y111759D01*
X53425Y113744D02*
X54212D01*
X53819Y113351D02*
Y114138D01*
X53425Y123980D02*
X54212D01*
X53819Y123587D02*
Y124374D01*
X53425Y116237D02*
X54212D01*
X53819Y115844D02*
Y116631D01*
X81586Y42269D02*
X82766D01*
X82176Y41678D02*
Y42860D01*
X76390Y95831D02*
X77177D01*
X76783Y95437D02*
Y96224D01*
X73898Y95831D02*
X74685D01*
X74291Y95437D02*
Y96224D01*
X84134Y95831D02*
X84921D01*
X84527Y95437D02*
Y96224D01*
X86527Y93323D02*
X87314D01*
X86921Y92929D02*
Y93717D01*
X89252Y93271D02*
X90039D01*
X89645Y92878D02*
Y93665D01*
X81575Y98390D02*
X82362D01*
X81968Y97996D02*
Y98783D01*
X84134Y98390D02*
X84921D01*
X84527Y97996D02*
Y98783D01*
X84135Y101015D02*
X84922D01*
X84528Y100621D02*
Y101408D01*
X55609Y48047D02*
X56397D01*
X56003Y47653D02*
Y48441D01*
X55582Y51169D02*
X56370D01*
X55976Y50775D02*
Y51563D01*
X109385Y118769D02*
X110567D01*
X109976Y118178D02*
Y119360D01*
X73782Y111169D02*
X74570D01*
X74176Y110775D02*
Y111563D01*
X76482Y98469D02*
X77270D01*
X76876Y98075D02*
Y98863D01*
X71182Y98469D02*
X71970D01*
X71576Y98075D02*
Y98863D01*
X67482Y88469D02*
X68270D01*
X67876Y88075D02*
Y88863D01*
X66222Y93271D02*
X67009D01*
X66615Y92878D02*
Y93665D01*
X76458Y106068D02*
X77245D01*
X76851Y105674D02*
Y106461D01*
X61182Y95869D02*
X61970D01*
X61576Y95475D02*
Y96263D01*
X58478Y95854D02*
X59265D01*
X58871Y95460D02*
Y96248D01*
X61103Y98390D02*
X61890D01*
X61497Y97996D02*
Y98783D01*
X58478Y98439D02*
X59265D01*
X58871Y98045D02*
Y98832D01*
X50670Y98390D02*
X51851D01*
X51261Y97799D02*
Y98980D01*
X58545Y103507D02*
X59332D01*
X58938Y103114D02*
Y103901D01*
X63662Y95831D02*
X64449D01*
X64056Y95437D02*
Y96224D01*
X63682Y88469D02*
X64470D01*
X64076Y88075D02*
Y88863D01*
X66221Y98390D02*
X67008D01*
X66615Y97996D02*
Y98783D01*
X71343Y103507D02*
X72130D01*
X71737Y103114D02*
Y103901D01*
X66222Y106068D02*
X67009D01*
X66615Y105674D02*
Y106461D01*
X66221Y95831D02*
X67008D01*
X66615Y95437D02*
Y96224D01*
X53425Y118862D02*
X54212D01*
X53819Y118469D02*
Y119256D01*
X55985Y121422D02*
X56772D01*
X56379Y121028D02*
Y121815D01*
X57182Y130069D02*
X57970D01*
X57576Y129675D02*
Y130463D01*
X55985Y123980D02*
X56772D01*
X56379Y123587D02*
Y124374D01*
X58479Y123980D02*
X59266D01*
X58872Y123587D02*
Y124374D01*
X55985Y118862D02*
X56772D01*
X56379Y118469D02*
Y119256D01*
X61104Y123980D02*
X61891D01*
X61497Y123587D02*
Y124374D01*
X61104Y121422D02*
X61891D01*
X61497Y121028D02*
Y121815D01*
X61104Y118862D02*
X61891D01*
X61497Y118469D02*
Y119256D01*
X58479Y121422D02*
X59266D01*
X58872Y121028D02*
Y121815D01*
X58544Y108626D02*
X59331D01*
X58938Y108233D02*
Y109020D01*
X55982Y105969D02*
X56770D01*
X56376Y105575D02*
Y106363D01*
X55919Y108626D02*
X56706D01*
X56312Y108233D02*
Y109020D01*
X61103Y93270D02*
X61890D01*
X61497Y92877D02*
Y93664D01*
X48485Y42269D02*
X49667D01*
X49076Y41678D02*
Y42860D01*
X51285Y22869D02*
X52466D01*
X51876Y22278D02*
Y23460D01*
X51185Y30569D02*
X52367D01*
X51776Y29978D02*
Y31160D01*
X51185Y28069D02*
X52367D01*
X51776Y27478D02*
Y28660D01*
X47552Y30669D02*
X48733D01*
X48143Y30078D02*
Y31260D01*
X43985Y30669D02*
X45167D01*
X44576Y30078D02*
Y31260D01*
X96685Y147569D02*
X97867D01*
X97276Y146978D02*
Y148160D01*
X96685Y145369D02*
X97866D01*
X97276Y144778D02*
Y145959D01*
X97445Y141929D02*
X98626D01*
X98036Y141338D02*
Y142519D01*
X112085Y165069D02*
X113267D01*
X112676Y164478D02*
Y165659D01*
X109885Y165069D02*
X111067D01*
X110476Y164478D02*
Y165659D01*
X99474Y154281D02*
X100655D01*
X100064Y153690D02*
Y154871D01*
X103774Y161269D02*
X104955D01*
X104364Y160678D02*
Y161860D01*
X103774Y158369D02*
X104955D01*
X104364Y157778D02*
Y158959D01*
X119485Y136569D02*
X120667D01*
X120076Y135978D02*
Y137160D01*
X119485Y134269D02*
X120667D01*
X120076Y133678D02*
Y134860D01*
X86682Y103569D02*
X87470D01*
X87076Y103175D02*
Y103963D01*
X94186Y116169D02*
X95367D01*
X94776Y115578D02*
Y116760D01*
X23410Y59569D02*
X24590D01*
X24000Y58978D02*
Y60160D01*
X39485Y167169D02*
X40667D01*
X40076Y166578D02*
Y167760D01*
X28285Y165369D02*
X29467D01*
X28876Y164778D02*
Y165960D01*
X23086Y153169D02*
X24267D01*
X23676Y152578D02*
Y153760D01*
X104384Y103769D02*
X105565D01*
X104974Y103178D02*
Y104359D01*
X73876Y113769D02*
X74664D01*
X74270Y113375D02*
Y114163D01*
X76459Y113744D02*
X77246D01*
X76853Y113351D02*
Y114138D01*
M02*
