G04 Layer_Color=255*
%FSLAX25Y25*%
%MOIN*%
G70*
G01*
G75*
%ADD12C,0.04000*%
%ADD17R,0.02500X0.03000*%
%ADD18R,0.03000X0.02500*%
%ADD21R,0.02000X0.02000*%
%ADD34R,0.04800X0.03200*%
%ADD71C,0.17717*%
%ADD72C,0.06600*%
%ADD73P,0.06494X8X22.5*%
%ADD74C,0.02400*%
%ADD75C,0.05600*%
%ADD76C,0.21000*%
%ADD93R,0.03937X0.04724*%
%ADD94R,0.05315X0.07480*%
%ADD95R,0.07087X0.04606*%
%ADD96R,0.04331X0.02953*%
%ADD97R,0.04331X0.03346*%
%ADD98R,0.05315X0.06102*%
%ADD99R,0.02200X0.02000*%
%ADD100R,0.02000X0.02000*%
%ADD101R,0.04000X0.04000*%
%ADD102R,0.02000X0.02200*%
%ADD103R,0.05600X0.06300*%
D12*
X113076Y147669D02*
D03*
X28676Y37969D02*
D03*
D17*
X75876Y137169D02*
D03*
X81376D02*
D03*
D18*
X39876Y140769D02*
D03*
Y146269D02*
D03*
X45676Y140769D02*
D03*
Y146269D02*
D03*
D21*
X81176Y63469D02*
D03*
Y59469D02*
D03*
X90676Y69469D02*
D03*
Y73469D02*
D03*
X42976Y50169D02*
D03*
Y54169D02*
D03*
X71576Y124669D02*
D03*
Y120669D02*
D03*
X34876Y113969D02*
D03*
X34876Y117969D02*
D03*
X52976Y93469D02*
D03*
X52976Y97469D02*
D03*
X77676Y124669D02*
D03*
Y120669D02*
D03*
X64576Y124669D02*
D03*
Y120669D02*
D03*
X48776Y93469D02*
D03*
X48776Y97469D02*
D03*
X69176Y95169D02*
D03*
Y99169D02*
D03*
X61376Y103669D02*
D03*
Y107669D02*
D03*
D34*
X92476Y140426D02*
D03*
X92476Y147569D02*
D03*
D71*
X130000Y142500D02*
D03*
X10000D02*
D03*
D72*
X117974Y5737D02*
D03*
X91982D02*
D03*
D73*
X118500Y76000D02*
D03*
Y66000D02*
D03*
Y56000D02*
D03*
Y46000D02*
D03*
Y36000D02*
D03*
Y26000D02*
D03*
X6500Y76000D02*
D03*
Y66000D02*
D03*
Y56000D02*
D03*
Y46000D02*
D03*
Y36000D02*
D03*
Y26000D02*
D03*
Y16000D02*
D03*
Y6000D02*
D03*
X133500Y76000D02*
D03*
Y66000D02*
D03*
Y56000D02*
D03*
Y46000D02*
D03*
Y36000D02*
D03*
Y26000D02*
D03*
Y16000D02*
D03*
Y6000D02*
D03*
D74*
X90900Y154095D02*
D03*
X49134D02*
D03*
D75*
X31937Y25000D02*
D03*
X24000D02*
D03*
D76*
X12000Y163000D02*
D03*
X128000D02*
D03*
D93*
X112303Y84280D02*
D03*
X97736D02*
D03*
D94*
X93898Y98059D02*
D03*
Y121563D02*
D03*
D95*
X135138Y129535D02*
D03*
D96*
X136516Y124772D02*
D03*
D97*
Y120638D02*
D03*
Y116307D02*
D03*
Y111976D02*
D03*
Y107646D02*
D03*
Y103315D02*
D03*
Y98984D02*
D03*
Y94654D02*
D03*
D98*
X136024Y84968D02*
D03*
D99*
X82076Y70169D02*
D03*
X78176D02*
D03*
D100*
X58276Y116069D02*
D03*
X62276D02*
D03*
X72776Y101169D02*
D03*
X76776D02*
D03*
X75076Y117369D02*
D03*
X79076D02*
D03*
X84376Y113669D02*
D03*
X80376D02*
D03*
X84376Y108624D02*
D03*
X80376D02*
D03*
X86476Y76969D02*
D03*
X82476D02*
D03*
X46876Y70069D02*
D03*
X50876D02*
D03*
D101*
X49876Y88469D02*
D03*
Y82119D02*
D03*
D102*
X29976Y113969D02*
D03*
X29976Y117869D02*
D03*
D103*
X100064Y159869D02*
D03*
X111176D02*
D03*
M02*
