G04 Layer_Color=8421504*
%FSLAX25Y25*%
%MOIN*%
G70*
G01*
G75*
%ADD11R,0.02800X0.04800*%
%ADD12C,0.04000*%
%ADD13R,0.01600X0.05400*%
%ADD14R,0.06300X0.05600*%
%ADD15R,0.07500X0.07500*%
%ADD16R,0.03600X0.03200*%
%ADD17R,0.02500X0.03000*%
%ADD18R,0.03000X0.02500*%
%ADD19R,0.02362X0.01575*%
%ADD20R,0.02362X0.01181*%
%ADD21R,0.02000X0.02000*%
%ADD22R,0.02000X0.03937*%
%ADD23R,0.04000X0.04400*%
%ADD24R,0.04400X0.04000*%
%ADD25R,0.06300X0.05600*%
%ADD26R,0.03937X0.03543*%
%ADD27R,0.01200X0.06300*%
%ADD28R,0.03600X0.07100*%
%ADD29R,0.02992X0.03000*%
%ADD30R,0.03200X0.04800*%
%ADD31O,0.02362X0.05512*%
%ADD32R,0.02362X0.05512*%
%ADD33R,0.04800X0.02200*%
%ADD34R,0.04800X0.03200*%
%ADD35R,0.05600X0.04800*%
%ADD36R,0.03200X0.03600*%
%ADD37R,0.03300X0.02500*%
%ADD38R,0.07900X0.03200*%
%ADD39C,0.01575*%
%ADD40R,0.02362X0.05118*%
%ADD41R,0.18898X0.18898*%
%ADD42C,0.01181*%
%ADD122R,0.00866X0.05118*%
%ADD123R,0.00800X0.05100*%
%ADD124R,0.00900X0.05100*%
%ADD125R,0.00866X0.05100*%
%ADD126R,0.00866X0.05100*%
%ADD127R,0.00800X0.05118*%
%ADD128R,0.00900X0.05118*%
%ADD129R,0.00866X0.05118*%
D11*
X5700Y124406D02*
D03*
X11256D02*
D03*
X5700Y112500D02*
D03*
X11256D02*
D03*
D12*
X23976Y9169D02*
D03*
X28676Y37969D02*
D03*
X113076Y147669D02*
D03*
D13*
X104974Y16269D02*
D03*
X107574D02*
D03*
X102415D02*
D03*
X99856D02*
D03*
X110174D02*
D03*
D14*
X92376D02*
D03*
X117574D02*
D03*
D15*
X100250Y5737D02*
D03*
X109774D02*
D03*
D16*
X93202Y28500D02*
D03*
X84865Y24700D02*
D03*
Y32240D02*
D03*
D17*
X122476Y87769D02*
D03*
X127976D02*
D03*
X31796Y135669D02*
D03*
X26296D02*
D03*
X70776Y17169D02*
D03*
X65276D02*
D03*
X57276D02*
D03*
X51776D02*
D03*
X82202Y39000D02*
D03*
X76702D02*
D03*
D18*
X129076Y112969D02*
D03*
Y118469D02*
D03*
X112676Y106269D02*
D03*
Y100769D02*
D03*
X37776Y157769D02*
D03*
Y163269D02*
D03*
X102276Y54069D02*
D03*
Y48569D02*
D03*
X20476Y57169D02*
D03*
Y51669D02*
D03*
D19*
X8339Y95035D02*
D03*
Y101334D02*
D03*
X12276D02*
D03*
Y95035D02*
D03*
X117544Y123119D02*
D03*
Y116819D02*
D03*
X113608Y116819D02*
D03*
Y123119D02*
D03*
D20*
X8339Y97201D02*
D03*
Y99169D02*
D03*
X12276D02*
D03*
Y97201D02*
D03*
X117544Y120953D02*
D03*
Y118985D02*
D03*
X113608D02*
D03*
Y120953D02*
D03*
D21*
X20276Y104969D02*
D03*
Y108969D02*
D03*
D22*
X98036Y137469D02*
D03*
X94296Y147469D02*
D03*
X101776D02*
D03*
X101776Y137469D02*
D03*
X94296D02*
D03*
D23*
X30776Y129016D02*
D03*
Y122269D02*
D03*
X129276Y107569D02*
D03*
Y100822D02*
D03*
D24*
X37430Y135669D02*
D03*
X44176D02*
D03*
D25*
X46876Y37081D02*
D03*
Y25969D02*
D03*
X121276Y95957D02*
D03*
Y107069D02*
D03*
D26*
X44713Y128909D02*
D03*
X37391Y122767D02*
D03*
Y128909D02*
D03*
X44713Y122767D02*
D03*
D27*
X86800Y152913D02*
D03*
Y167100D02*
D03*
X84800Y152913D02*
D03*
Y167100D02*
D03*
X82800Y152913D02*
D03*
Y167100D02*
D03*
X80900Y152913D02*
D03*
Y167100D02*
D03*
X78900Y152913D02*
D03*
Y167100D02*
D03*
X76900Y152913D02*
D03*
Y167100D02*
D03*
X75000Y152913D02*
D03*
Y167100D02*
D03*
X73000Y152913D02*
D03*
Y167100D02*
D03*
X71000Y152913D02*
D03*
Y167100D02*
D03*
X69016Y152913D02*
D03*
Y167100D02*
D03*
X67047Y152913D02*
D03*
Y167100D02*
D03*
X65079Y152913D02*
D03*
Y167100D02*
D03*
X63110Y152913D02*
D03*
Y167100D02*
D03*
X61142Y152913D02*
D03*
Y167100D02*
D03*
X59173Y152913D02*
D03*
Y167100D02*
D03*
X57205Y152913D02*
D03*
Y167100D02*
D03*
X55236Y152913D02*
D03*
Y167100D02*
D03*
X53268Y152913D02*
D03*
Y167100D02*
D03*
D28*
X93700Y160000D02*
D03*
X46378D02*
D03*
D29*
X93202Y39000D02*
D03*
X87702D02*
D03*
D30*
X117119Y135069D02*
D03*
X109976D02*
D03*
D31*
X98536Y38299D02*
D03*
X106016D02*
D03*
Y27669D02*
D03*
X102276D02*
D03*
Y38299D02*
D03*
D32*
X98536Y27669D02*
D03*
D33*
X72895Y3929D02*
D03*
X72895Y7669D02*
D03*
X72895Y11469D02*
D03*
X62576Y11469D02*
D03*
X62576Y3929D02*
D03*
D34*
X45776Y10026D02*
D03*
Y17169D02*
D03*
X81276Y4126D02*
D03*
Y11269D02*
D03*
D35*
X28500Y170905D02*
D03*
Y159000D02*
D03*
X111500Y159095D02*
D03*
Y171000D02*
D03*
D36*
X28996Y150006D02*
D03*
X32796Y141669D02*
D03*
X25256D02*
D03*
D37*
X78576Y23941D02*
D03*
Y33069D02*
D03*
D38*
X53776Y3732D02*
D03*
Y11669D02*
D03*
D39*
X92224Y74819D02*
D03*
X92224Y71669D02*
D03*
Y68520D02*
D03*
X92224Y55921D02*
D03*
Y52772D02*
D03*
X92224Y49622D02*
D03*
X89075Y74819D02*
D03*
X89075Y71669D02*
D03*
Y68520D02*
D03*
Y55921D02*
D03*
Y52772D02*
D03*
X89075Y49622D02*
D03*
X85925Y74819D02*
D03*
X85925Y71669D02*
D03*
Y68520D02*
D03*
Y55921D02*
D03*
X85925Y52772D02*
D03*
Y49622D02*
D03*
X82776Y74819D02*
D03*
Y71669D02*
D03*
X82776Y68520D02*
D03*
X82776Y55921D02*
D03*
X82776Y52772D02*
D03*
X82776Y49622D02*
D03*
X79626Y74819D02*
D03*
Y71669D02*
D03*
Y68520D02*
D03*
Y55921D02*
D03*
Y52772D02*
D03*
Y49622D02*
D03*
X76476Y74819D02*
D03*
Y71669D02*
D03*
X76476Y68520D02*
D03*
Y55921D02*
D03*
Y52772D02*
D03*
X76476Y49622D02*
D03*
X73327Y74819D02*
D03*
X73327Y71669D02*
D03*
X73327Y68520D02*
D03*
X73327Y55921D02*
D03*
Y52772D02*
D03*
Y49622D02*
D03*
X70177Y74819D02*
D03*
X70177Y71669D02*
D03*
X70177Y68520D02*
D03*
X70177Y55921D02*
D03*
X70177Y52772D02*
D03*
Y49622D02*
D03*
X67028Y74819D02*
D03*
X67028Y71669D02*
D03*
Y68520D02*
D03*
X67028Y55921D02*
D03*
X67028Y52772D02*
D03*
X67028Y49622D02*
D03*
X63878Y74819D02*
D03*
X63878Y71669D02*
D03*
Y68520D02*
D03*
Y55921D02*
D03*
Y52772D02*
D03*
X63878Y49622D02*
D03*
X60728Y74819D02*
D03*
X60728Y71669D02*
D03*
X60728Y68520D02*
D03*
X60728Y55921D02*
D03*
X60728Y52772D02*
D03*
X60728Y49622D02*
D03*
X57579Y74819D02*
D03*
X57579Y71669D02*
D03*
Y68520D02*
D03*
X57579Y55921D02*
D03*
X57579Y52772D02*
D03*
X57579Y49622D02*
D03*
X54429Y74819D02*
D03*
X54429Y71669D02*
D03*
Y68520D02*
D03*
X54429Y55921D02*
D03*
X54429Y52772D02*
D03*
Y49622D02*
D03*
X51280Y74819D02*
D03*
X51280Y71669D02*
D03*
Y68520D02*
D03*
X51280Y55921D02*
D03*
Y52772D02*
D03*
X51280Y49622D02*
D03*
X48130Y74819D02*
D03*
X48130Y71669D02*
D03*
X48130Y68520D02*
D03*
Y55921D02*
D03*
Y52772D02*
D03*
Y49622D02*
D03*
D40*
X30296Y97829D02*
D03*
X35335Y97829D02*
D03*
X20216D02*
D03*
X25256Y97829D02*
D03*
Y67909D02*
D03*
X30296D02*
D03*
X35335Y67908D02*
D03*
X20217D02*
D03*
D41*
X27776Y82869D02*
D03*
D42*
X88367Y91992D02*
D03*
X85808D02*
D03*
X83249D02*
D03*
X80690D02*
D03*
X78131D02*
D03*
X75572D02*
D03*
X73012D02*
D03*
X70453D02*
D03*
X67894D02*
D03*
X65335D02*
D03*
X62776D02*
D03*
X60217D02*
D03*
X57658D02*
D03*
X55099D02*
D03*
X52540D02*
D03*
X88367Y94551D02*
D03*
X85808D02*
D03*
X83249D02*
D03*
X80690D02*
D03*
X78131D02*
D03*
X75572D02*
D03*
X73013D02*
D03*
X70454D02*
D03*
X67895D02*
D03*
X65336D02*
D03*
X62776D02*
D03*
X60217D02*
D03*
X57658D02*
D03*
X55099D02*
D03*
X52540D02*
D03*
X88367Y97110D02*
D03*
X85808D02*
D03*
X83249D02*
D03*
X80690D02*
D03*
X78131D02*
D03*
X75572D02*
D03*
X73012D02*
D03*
X70453D02*
D03*
X67894D02*
D03*
X65335D02*
D03*
X62776D02*
D03*
X60217D02*
D03*
X57658D02*
D03*
X55099D02*
D03*
X52540D02*
D03*
X88367Y99669D02*
D03*
X85808D02*
D03*
X83249D02*
D03*
X80690D02*
D03*
X78131D02*
D03*
X75572D02*
D03*
X73012D02*
D03*
X70453D02*
D03*
X67894D02*
D03*
X65335D02*
D03*
X62776D02*
D03*
X60217D02*
D03*
X57658D02*
D03*
X55099D02*
D03*
X52540D02*
D03*
X88367Y102228D02*
D03*
X85808D02*
D03*
X83249D02*
D03*
X80690D02*
D03*
X60217D02*
D03*
X57658D02*
D03*
X55099D02*
D03*
X52540D02*
D03*
X88367Y104787D02*
D03*
X85808D02*
D03*
X83249D02*
D03*
X80690D02*
D03*
X75572D02*
D03*
X73013D02*
D03*
X70454D02*
D03*
X67894D02*
D03*
X65335D02*
D03*
X60217D02*
D03*
X57658D02*
D03*
X55099D02*
D03*
X52540D02*
D03*
X88367Y107347D02*
D03*
X85808D02*
D03*
X83249D02*
D03*
X80690D02*
D03*
X75572D02*
D03*
X73012D02*
D03*
X70453D02*
D03*
X67894D02*
D03*
X65335D02*
D03*
X60217D02*
D03*
X57658D02*
D03*
X55099D02*
D03*
X52540D02*
D03*
X88367Y109906D02*
D03*
X85808D02*
D03*
X83249D02*
D03*
X80690D02*
D03*
X75572D02*
D03*
X73012D02*
D03*
X70453D02*
D03*
X67894D02*
D03*
X65335D02*
D03*
X60217D02*
D03*
X57658D02*
D03*
X55099D02*
D03*
X52540D02*
D03*
X88367Y112465D02*
D03*
X85808D02*
D03*
X83249D02*
D03*
X80690D02*
D03*
X75572D02*
D03*
X73012D02*
D03*
X70453D02*
D03*
X67894D02*
D03*
X65335D02*
D03*
X60217D02*
D03*
X57658D02*
D03*
X55099D02*
D03*
X52540D02*
D03*
X88367Y115024D02*
D03*
X85808D02*
D03*
X83249D02*
D03*
X80690D02*
D03*
X75572D02*
D03*
X73013D02*
D03*
X70454D02*
D03*
X67895D02*
D03*
X65336D02*
D03*
X60217D02*
D03*
X57658D02*
D03*
X55099D02*
D03*
X52540D02*
D03*
X88367Y117583D02*
D03*
X85808D02*
D03*
X83249D02*
D03*
X80690D02*
D03*
X60217D02*
D03*
X57658D02*
D03*
X55099D02*
D03*
X52540D02*
D03*
X88367Y120142D02*
D03*
X85808D02*
D03*
X83249D02*
D03*
X80690D02*
D03*
X78131D02*
D03*
X75572D02*
D03*
X73012D02*
D03*
X70453D02*
D03*
X67894D02*
D03*
X65335D02*
D03*
X62776D02*
D03*
X60217D02*
D03*
X57658D02*
D03*
X55099D02*
D03*
X52540D02*
D03*
X88367Y122701D02*
D03*
X85808D02*
D03*
X83249D02*
D03*
X80690D02*
D03*
X78131D02*
D03*
X75572D02*
D03*
X73013D02*
D03*
X70454D02*
D03*
X67894D02*
D03*
X65335D02*
D03*
X62776D02*
D03*
X60217D02*
D03*
X57658D02*
D03*
X55099D02*
D03*
X52540D02*
D03*
X88367Y125260D02*
D03*
X85808D02*
D03*
X83249D02*
D03*
X80690D02*
D03*
X78131D02*
D03*
X75572D02*
D03*
X73013D02*
D03*
X70454D02*
D03*
X67895D02*
D03*
X65336D02*
D03*
X62777D02*
D03*
X60218D02*
D03*
X57659D02*
D03*
X55100D02*
D03*
X52540D02*
D03*
X88367Y127819D02*
D03*
X85808D02*
D03*
X83249D02*
D03*
X80690D02*
D03*
X78131D02*
D03*
X75572D02*
D03*
X73012D02*
D03*
X70453D02*
D03*
X67894D02*
D03*
X65335D02*
D03*
X62776D02*
D03*
X60217D02*
D03*
X57658D02*
D03*
X55099D02*
D03*
X52540D02*
D03*
D122*
X57213Y152691D02*
D03*
X67056D02*
D03*
D123*
X86800Y167350D02*
D03*
X80900D02*
D03*
X78900D02*
D03*
X76900D02*
D03*
X73000D02*
D03*
D124*
X84850D02*
D03*
X82850D02*
D03*
X74950D02*
D03*
X71050D02*
D03*
D125*
X68985D02*
D03*
X65087D02*
D03*
X63119D02*
D03*
X61150D02*
D03*
X59182D02*
D03*
X55245D02*
D03*
X53276D02*
D03*
D126*
X67056D02*
D03*
X57213D02*
D03*
D127*
X86800Y152691D02*
D03*
X80900D02*
D03*
X78900D02*
D03*
X73000D02*
D03*
D128*
X84850D02*
D03*
X82850D02*
D03*
X76950D02*
D03*
X74950D02*
D03*
X71050D02*
D03*
D129*
X69024D02*
D03*
X65087D02*
D03*
X63119D02*
D03*
X61150D02*
D03*
X59182D02*
D03*
X53276D02*
D03*
X55245D02*
D03*
M02*
