G04 Layer_Color=16711935*
%FSLAX25Y25*%
%MOIN*%
G70*
G01*
G75*
%ADD92C,0.06000*%
%ADD131C,0.12000*%
%ADD136R,0.02900X0.03400*%
%ADD137R,0.03400X0.02900*%
%ADD140R,0.02400X0.02400*%
%ADD153R,0.05200X0.03600*%
%ADD162C,0.18117*%
%ADD163C,0.07000*%
%ADD164P,0.06927X8X22.5*%
%ADD165C,0.02800*%
%ADD166C,0.21400*%
%ADD167R,0.04337X0.05124*%
%ADD168R,0.05715X0.07880*%
%ADD169R,0.07487X0.05006*%
%ADD170R,0.04731X0.03353*%
%ADD171R,0.04731X0.03746*%
%ADD172R,0.05715X0.06502*%
%ADD173R,0.02600X0.02400*%
%ADD174R,0.02400X0.02400*%
%ADD175R,0.04400X0.04400*%
%ADD176R,0.02400X0.02600*%
%ADD177R,0.06000X0.06700*%
D92*
X31937Y25000D02*
D03*
X24000D02*
D03*
D131*
X113076Y147669D02*
D03*
X28676Y37969D02*
D03*
D136*
X75876Y137169D02*
D03*
X81376D02*
D03*
D137*
X39876Y140769D02*
D03*
Y146269D02*
D03*
X45676Y140769D02*
D03*
Y146269D02*
D03*
D140*
X81176Y63469D02*
D03*
Y59469D02*
D03*
X90676Y69469D02*
D03*
Y73469D02*
D03*
X42976Y50169D02*
D03*
Y54169D02*
D03*
X71576Y124669D02*
D03*
Y120669D02*
D03*
X34876Y113969D02*
D03*
X34876Y117969D02*
D03*
X52976Y93469D02*
D03*
X52976Y97469D02*
D03*
X77676Y124669D02*
D03*
Y120669D02*
D03*
X64576Y124669D02*
D03*
Y120669D02*
D03*
X48776Y93469D02*
D03*
X48776Y97469D02*
D03*
X69176Y95169D02*
D03*
Y99169D02*
D03*
X61376Y103669D02*
D03*
Y107669D02*
D03*
D153*
X92476Y140426D02*
D03*
X92476Y147569D02*
D03*
D162*
X130000Y142500D02*
D03*
X10000D02*
D03*
D163*
X117974Y5737D02*
D03*
X91982D02*
D03*
D164*
X118500Y76000D02*
D03*
Y66000D02*
D03*
Y56000D02*
D03*
Y46000D02*
D03*
Y36000D02*
D03*
Y26000D02*
D03*
X6500Y76000D02*
D03*
Y66000D02*
D03*
Y56000D02*
D03*
Y46000D02*
D03*
Y36000D02*
D03*
Y26000D02*
D03*
Y16000D02*
D03*
Y6000D02*
D03*
X133500Y76000D02*
D03*
Y66000D02*
D03*
Y56000D02*
D03*
Y46000D02*
D03*
Y36000D02*
D03*
Y26000D02*
D03*
Y16000D02*
D03*
Y6000D02*
D03*
D165*
X90900Y154095D02*
D03*
X49134D02*
D03*
D166*
X12000Y163000D02*
D03*
X128000D02*
D03*
D167*
X112303Y84280D02*
D03*
X97736D02*
D03*
D168*
X93898Y98059D02*
D03*
Y121563D02*
D03*
D169*
X135138Y129535D02*
D03*
D170*
X136516Y124772D02*
D03*
D171*
Y120638D02*
D03*
Y116307D02*
D03*
Y111976D02*
D03*
Y107646D02*
D03*
Y103315D02*
D03*
Y98984D02*
D03*
Y94654D02*
D03*
D172*
X136024Y84968D02*
D03*
D173*
X82076Y70169D02*
D03*
X78176D02*
D03*
D174*
X58276Y116069D02*
D03*
X62276D02*
D03*
X72776Y101169D02*
D03*
X76776D02*
D03*
X75076Y117369D02*
D03*
X79076D02*
D03*
X84376Y113669D02*
D03*
X80376D02*
D03*
X84376Y108624D02*
D03*
X80376D02*
D03*
X86476Y76969D02*
D03*
X82476D02*
D03*
X46876Y70069D02*
D03*
X50876D02*
D03*
D175*
X49876Y88469D02*
D03*
Y82119D02*
D03*
D176*
X29976Y113969D02*
D03*
X29976Y117869D02*
D03*
D177*
X100064Y159869D02*
D03*
X111176D02*
D03*
M02*
