G04 Layer_Physical_Order=3*
G04 Layer_Color=36540*
%FSLAX25Y25*%
%MOIN*%
G70*
G01*
G75*
%ADD44C,0.00500*%
%ADD46C,0.01000*%
%ADD48C,0.01969*%
%ADD52C,0.00350*%
%ADD73P,0.06494X8X22.5*%
%ADD75C,0.05600*%
%ADD77C,0.01575*%
%ADD78C,0.02362*%
%ADD79C,0.01969*%
%ADD80C,0.01800*%
%ADD91R,0.00623X0.01536*%
%ADD92C,0.06000*%
G36*
X53103Y-10719D02*
X53156D01*
X53280Y-10732D01*
X53418Y-10752D01*
X53562Y-10785D01*
X53720Y-10824D01*
X53871Y-10877D01*
X53877D01*
X53890Y-10883D01*
X53910Y-10890D01*
X53936Y-10903D01*
X54009Y-10942D01*
X54100Y-10988D01*
X54199Y-11054D01*
X54304Y-11133D01*
X54402Y-11218D01*
X54494Y-11323D01*
X54507Y-11336D01*
X54533Y-11375D01*
X54573Y-11434D01*
X54625Y-11520D01*
X54678Y-11625D01*
X54737Y-11756D01*
X54796Y-11900D01*
X54842Y-12064D01*
X54297Y-12208D01*
Y-12202D01*
X54291Y-12195D01*
X54284Y-12176D01*
X54277Y-12149D01*
X54258Y-12090D01*
X54232Y-12012D01*
X54192Y-11920D01*
X54146Y-11834D01*
X54100Y-11743D01*
X54041Y-11664D01*
X54035Y-11657D01*
X54015Y-11631D01*
X53976Y-11598D01*
X53930Y-11552D01*
X53871Y-11500D01*
X53792Y-11447D01*
X53707Y-11395D01*
X53608Y-11349D01*
X53595Y-11343D01*
X53562Y-11329D01*
X53503Y-11310D01*
X53425Y-11283D01*
X53333Y-11264D01*
X53228Y-11244D01*
X53110Y-11231D01*
X52985Y-11224D01*
X52913D01*
X52880Y-11231D01*
X52841D01*
X52742Y-11238D01*
X52631Y-11257D01*
X52506Y-11277D01*
X52388Y-11310D01*
X52270Y-11356D01*
X52257Y-11362D01*
X52218Y-11375D01*
X52165Y-11408D01*
X52100Y-11441D01*
X52021Y-11493D01*
X51935Y-11546D01*
X51857Y-11611D01*
X51785Y-11684D01*
X51778Y-11690D01*
X51752Y-11716D01*
X51719Y-11762D01*
X51680Y-11815D01*
X51634Y-11880D01*
X51588Y-11959D01*
X51542Y-12044D01*
X51496Y-12136D01*
Y-12143D01*
X51489Y-12156D01*
X51483Y-12176D01*
X51470Y-12208D01*
X51457Y-12248D01*
X51443Y-12294D01*
X51424Y-12346D01*
X51411Y-12405D01*
X51378Y-12543D01*
X51352Y-12700D01*
X51332Y-12864D01*
X51325Y-13048D01*
Y-13055D01*
Y-13074D01*
Y-13107D01*
X51332Y-13147D01*
Y-13199D01*
X51339Y-13265D01*
X51345Y-13330D01*
X51352Y-13402D01*
X51378Y-13566D01*
X51411Y-13737D01*
X51463Y-13907D01*
X51529Y-14072D01*
Y-14078D01*
X51542Y-14091D01*
X51548Y-14111D01*
X51568Y-14137D01*
X51614Y-14209D01*
X51686Y-14301D01*
X51771Y-14400D01*
X51876Y-14498D01*
X52001Y-14590D01*
X52139Y-14675D01*
X52145D01*
X52159Y-14682D01*
X52178Y-14695D01*
X52211Y-14708D01*
X52244Y-14721D01*
X52290Y-14734D01*
X52395Y-14773D01*
X52526Y-14806D01*
X52670Y-14839D01*
X52828Y-14865D01*
X52992Y-14872D01*
X53057D01*
X53097Y-14865D01*
X53136D01*
X53234Y-14852D01*
X53352Y-14839D01*
X53477Y-14813D01*
X53615Y-14773D01*
X53753Y-14728D01*
X53759D01*
X53772Y-14721D01*
X53785Y-14714D01*
X53812Y-14701D01*
X53884Y-14668D01*
X53963Y-14629D01*
X54054Y-14583D01*
X54153Y-14531D01*
X54245Y-14472D01*
X54323Y-14406D01*
Y-13553D01*
X52985D01*
Y-13015D01*
X54914D01*
Y-14701D01*
X54907Y-14708D01*
X54894Y-14714D01*
X54868Y-14734D01*
X54835Y-14760D01*
X54796Y-14786D01*
X54750Y-14819D01*
X54691Y-14859D01*
X54632Y-14898D01*
X54494Y-14983D01*
X54337Y-15075D01*
X54172Y-15160D01*
X53995Y-15233D01*
X53989D01*
X53976Y-15239D01*
X53949Y-15246D01*
X53917Y-15259D01*
X53871Y-15272D01*
X53818Y-15292D01*
X53759Y-15305D01*
X53700Y-15318D01*
X53556Y-15351D01*
X53392Y-15383D01*
X53215Y-15403D01*
X53031Y-15410D01*
X52965D01*
X52920Y-15403D01*
X52860D01*
X52788Y-15397D01*
X52710Y-15383D01*
X52624Y-15377D01*
X52434Y-15338D01*
X52231Y-15292D01*
X52021Y-15220D01*
X51916Y-15180D01*
X51811Y-15128D01*
X51804Y-15121D01*
X51785Y-15114D01*
X51758Y-15095D01*
X51719Y-15075D01*
X51673Y-15042D01*
X51627Y-15010D01*
X51503Y-14918D01*
X51371Y-14800D01*
X51234Y-14655D01*
X51102Y-14491D01*
X50984Y-14301D01*
Y-14295D01*
X50971Y-14275D01*
X50958Y-14249D01*
X50938Y-14203D01*
X50919Y-14157D01*
X50899Y-14091D01*
X50873Y-14026D01*
X50847Y-13947D01*
X50820Y-13862D01*
X50794Y-13763D01*
X50774Y-13665D01*
X50755Y-13560D01*
X50722Y-13330D01*
X50709Y-13088D01*
Y-13081D01*
Y-13055D01*
Y-13022D01*
X50715Y-12976D01*
Y-12917D01*
X50722Y-12845D01*
X50735Y-12773D01*
X50742Y-12687D01*
X50761Y-12596D01*
X50774Y-12497D01*
X50827Y-12287D01*
X50893Y-12071D01*
X50984Y-11854D01*
X50991Y-11848D01*
X50997Y-11828D01*
X51011Y-11802D01*
X51037Y-11762D01*
X51063Y-11710D01*
X51096Y-11657D01*
X51188Y-11533D01*
X51299Y-11388D01*
X51437Y-11251D01*
X51594Y-11113D01*
X51686Y-11054D01*
X51778Y-10995D01*
X51785Y-10988D01*
X51804Y-10982D01*
X51831Y-10969D01*
X51870Y-10949D01*
X51922Y-10929D01*
X51981Y-10903D01*
X52047Y-10877D01*
X52126Y-10851D01*
X52211Y-10824D01*
X52303Y-10805D01*
X52401Y-10778D01*
X52506Y-10759D01*
X52736Y-10726D01*
X52854Y-10713D01*
X53064D01*
X53103Y-10719D01*
D02*
G37*
G36*
X60660Y-10778D02*
X60746Y-10791D01*
X60851Y-10811D01*
X60969Y-10844D01*
X61087Y-10883D01*
X61205Y-10936D01*
X61211D01*
X61218Y-10942D01*
X61257Y-10962D01*
X61316Y-11001D01*
X61382Y-11047D01*
X61461Y-11113D01*
X61539Y-11185D01*
X61618Y-11270D01*
X61684Y-11369D01*
X61690Y-11382D01*
X61710Y-11415D01*
X61736Y-11474D01*
X61769Y-11546D01*
X61802Y-11631D01*
X61828Y-11730D01*
X61848Y-11841D01*
X61854Y-11953D01*
Y-11966D01*
Y-12005D01*
X61848Y-12058D01*
X61835Y-12130D01*
X61815Y-12215D01*
X61782Y-12307D01*
X61743Y-12399D01*
X61690Y-12490D01*
X61684Y-12504D01*
X61664Y-12530D01*
X61625Y-12576D01*
X61572Y-12628D01*
X61507Y-12687D01*
X61428Y-12753D01*
X61336Y-12812D01*
X61225Y-12871D01*
X61231D01*
X61244Y-12878D01*
X61264Y-12884D01*
X61290Y-12891D01*
X61362Y-12917D01*
X61454Y-12956D01*
X61559Y-13009D01*
X61664Y-13074D01*
X61762Y-13160D01*
X61854Y-13258D01*
X61861Y-13271D01*
X61887Y-13310D01*
X61926Y-13376D01*
X61966Y-13461D01*
X62005Y-13566D01*
X62045Y-13691D01*
X62071Y-13835D01*
X62077Y-13993D01*
Y-13999D01*
Y-14019D01*
Y-14052D01*
X62071Y-14091D01*
X62064Y-14144D01*
X62051Y-14203D01*
X62038Y-14268D01*
X62025Y-14340D01*
X61972Y-14498D01*
X61933Y-14583D01*
X61894Y-14662D01*
X61841Y-14747D01*
X61782Y-14832D01*
X61717Y-14918D01*
X61638Y-14996D01*
X61631Y-15003D01*
X61618Y-15016D01*
X61592Y-15036D01*
X61559Y-15062D01*
X61520Y-15095D01*
X61467Y-15128D01*
X61408Y-15167D01*
X61336Y-15200D01*
X61264Y-15239D01*
X61179Y-15279D01*
X61093Y-15311D01*
X60995Y-15344D01*
X60890Y-15370D01*
X60778Y-15390D01*
X60667Y-15403D01*
X60542Y-15410D01*
X60483D01*
X60444Y-15403D01*
X60391Y-15397D01*
X60332Y-15390D01*
X60267Y-15377D01*
X60195Y-15364D01*
X60037Y-15324D01*
X59873Y-15259D01*
X59788Y-15220D01*
X59709Y-15174D01*
X59630Y-15114D01*
X59552Y-15055D01*
X59545Y-15049D01*
X59532Y-15036D01*
X59512Y-15016D01*
X59493Y-14990D01*
X59460Y-14957D01*
X59427Y-14911D01*
X59388Y-14865D01*
X59348Y-14806D01*
X59309Y-14741D01*
X59270Y-14675D01*
X59197Y-14518D01*
X59138Y-14334D01*
X59119Y-14235D01*
X59106Y-14130D01*
X59663Y-14058D01*
Y-14065D01*
X59670Y-14078D01*
X59676Y-14104D01*
X59683Y-14137D01*
X59689Y-14176D01*
X59703Y-14222D01*
X59735Y-14321D01*
X59781Y-14439D01*
X59840Y-14550D01*
X59906Y-14655D01*
X59985Y-14747D01*
X59998Y-14754D01*
X60024Y-14780D01*
X60076Y-14813D01*
X60142Y-14846D01*
X60221Y-14885D01*
X60319Y-14918D01*
X60431Y-14944D01*
X60549Y-14951D01*
X60588D01*
X60614Y-14944D01*
X60687Y-14937D01*
X60778Y-14918D01*
X60883Y-14885D01*
X60995Y-14839D01*
X61106Y-14773D01*
X61211Y-14682D01*
X61225Y-14668D01*
X61257Y-14629D01*
X61297Y-14570D01*
X61349Y-14491D01*
X61402Y-14393D01*
X61441Y-14281D01*
X61474Y-14150D01*
X61487Y-14006D01*
Y-13999D01*
Y-13986D01*
Y-13966D01*
X61480Y-13940D01*
X61474Y-13868D01*
X61454Y-13783D01*
X61428Y-13678D01*
X61382Y-13573D01*
X61316Y-13468D01*
X61231Y-13370D01*
X61218Y-13356D01*
X61185Y-13330D01*
X61133Y-13291D01*
X61061Y-13245D01*
X60969Y-13199D01*
X60857Y-13160D01*
X60733Y-13133D01*
X60595Y-13120D01*
X60536D01*
X60490Y-13127D01*
X60431Y-13133D01*
X60365Y-13147D01*
X60286Y-13160D01*
X60201Y-13179D01*
X60267Y-12687D01*
X60299D01*
X60326Y-12694D01*
X60411D01*
X60483Y-12681D01*
X60568Y-12668D01*
X60667Y-12648D01*
X60778Y-12615D01*
X60883Y-12569D01*
X60995Y-12510D01*
X61001D01*
X61008Y-12504D01*
X61041Y-12477D01*
X61087Y-12432D01*
X61139Y-12372D01*
X61192Y-12287D01*
X61238Y-12189D01*
X61270Y-12077D01*
X61283Y-12012D01*
Y-11940D01*
Y-11933D01*
Y-11926D01*
Y-11887D01*
X61270Y-11834D01*
X61257Y-11762D01*
X61231Y-11684D01*
X61198Y-11598D01*
X61146Y-11513D01*
X61074Y-11434D01*
X61067Y-11428D01*
X61034Y-11402D01*
X60988Y-11369D01*
X60929Y-11329D01*
X60851Y-11297D01*
X60759Y-11264D01*
X60654Y-11238D01*
X60536Y-11231D01*
X60483D01*
X60424Y-11244D01*
X60345Y-11257D01*
X60260Y-11283D01*
X60175Y-11316D01*
X60083Y-11369D01*
X59998Y-11434D01*
X59991Y-11441D01*
X59965Y-11474D01*
X59926Y-11520D01*
X59880Y-11585D01*
X59834Y-11671D01*
X59788Y-11776D01*
X59749Y-11900D01*
X59722Y-12044D01*
X59165Y-11946D01*
Y-11940D01*
X59171Y-11920D01*
X59178Y-11894D01*
X59184Y-11854D01*
X59197Y-11808D01*
X59217Y-11756D01*
X59257Y-11631D01*
X59322Y-11487D01*
X59401Y-11343D01*
X59499Y-11205D01*
X59624Y-11080D01*
X59630Y-11074D01*
X59644Y-11067D01*
X59663Y-11054D01*
X59689Y-11034D01*
X59722Y-11008D01*
X59768Y-10982D01*
X59814Y-10955D01*
X59873Y-10923D01*
X60004Y-10870D01*
X60155Y-10818D01*
X60332Y-10785D01*
X60424Y-10772D01*
X60588D01*
X60660Y-10778D01*
D02*
G37*
G36*
X126611Y173296D02*
X125969Y173211D01*
X124653Y172859D01*
X123395Y172338D01*
X122216Y171657D01*
X121135Y170828D01*
X120172Y169865D01*
X119343Y168784D01*
X118662Y167605D01*
X118141Y166347D01*
X117789Y165031D01*
X117611Y163681D01*
Y162319D01*
X117789Y160969D01*
X118141Y159653D01*
X118662Y158395D01*
X119343Y157216D01*
X120172Y156135D01*
X121135Y155172D01*
X122216Y154343D01*
X123395Y153662D01*
X124653Y153141D01*
X125969Y152789D01*
X127319Y152611D01*
X128681D01*
X130031Y152789D01*
X131347Y153141D01*
X132605Y153662D01*
X133784Y154343D01*
X134865Y155172D01*
X135828Y156135D01*
X136657Y157216D01*
X137338Y158395D01*
X137859Y159653D01*
X138211Y160969D01*
X138296Y161611D01*
X138796Y161578D01*
Y1204D01*
X119532D01*
X119433Y1704D01*
X120135Y1995D01*
X121030Y2682D01*
X121717Y3577D01*
X122148Y4619D01*
X122296Y5737D01*
X122148Y6856D01*
X121717Y7898D01*
X121030Y8793D01*
X120135Y9480D01*
X119093Y9911D01*
X117974Y10059D01*
X116856Y9911D01*
X115814Y9480D01*
X114919Y8793D01*
X114232Y7898D01*
X113801Y6856D01*
X113653Y5737D01*
X113801Y4619D01*
X114232Y3577D01*
X114919Y2682D01*
X115814Y1995D01*
X116516Y1704D01*
X116417Y1204D01*
X93540D01*
X93440Y1704D01*
X94143Y1995D01*
X95038Y2682D01*
X95725Y3577D01*
X96156Y4619D01*
X96303Y5737D01*
X96156Y6856D01*
X95725Y7898D01*
X95038Y8793D01*
X94143Y9480D01*
X93101Y9911D01*
X91982Y10059D01*
X90864Y9911D01*
X89822Y9480D01*
X88927Y8793D01*
X88240Y7898D01*
X87808Y6856D01*
X87661Y5737D01*
X87808Y4619D01*
X88240Y3577D01*
X88927Y2682D01*
X89822Y1995D01*
X90524Y1704D01*
X90425Y1204D01*
X1204D01*
Y161578D01*
X1704Y161611D01*
X1789Y160969D01*
X2141Y159653D01*
X2662Y158395D01*
X3343Y157216D01*
X4172Y156135D01*
X5135Y155172D01*
X6216Y154343D01*
X7395Y153662D01*
X8653Y153141D01*
X9969Y152789D01*
X11319Y152611D01*
X12681D01*
X14031Y152789D01*
X15347Y153141D01*
X16605Y153662D01*
X17784Y154343D01*
X18865Y155172D01*
X19828Y156135D01*
X20657Y157216D01*
X21338Y158395D01*
X21859Y159653D01*
X22211Y160969D01*
X22389Y162319D01*
Y163681D01*
X22211Y165031D01*
X21859Y166347D01*
X21338Y167605D01*
X20657Y168784D01*
X19828Y169865D01*
X18865Y170828D01*
X17784Y171657D01*
X16605Y172338D01*
X15347Y172859D01*
X14031Y173211D01*
X13389Y173296D01*
X13422Y173796D01*
X126578D01*
X126611Y173296D01*
D02*
G37*
G36*
X46563Y-10719D02*
X46609D01*
X46733Y-10732D01*
X46871Y-10752D01*
X47016Y-10785D01*
X47173Y-10824D01*
X47317Y-10877D01*
X47324D01*
X47337Y-10883D01*
X47357Y-10896D01*
X47383Y-10910D01*
X47449Y-10942D01*
X47534Y-11001D01*
X47632Y-11067D01*
X47731Y-11152D01*
X47822Y-11251D01*
X47908Y-11362D01*
Y-11369D01*
X47914Y-11375D01*
X47927Y-11395D01*
X47940Y-11415D01*
X47973Y-11480D01*
X48013Y-11566D01*
X48059Y-11671D01*
X48091Y-11795D01*
X48124Y-11926D01*
X48137Y-12071D01*
X47560Y-12117D01*
Y-12110D01*
Y-12097D01*
X47553Y-12077D01*
X47547Y-12044D01*
X47527Y-11972D01*
X47501Y-11874D01*
X47462Y-11769D01*
X47403Y-11664D01*
X47330Y-11566D01*
X47239Y-11474D01*
X47225Y-11467D01*
X47193Y-11441D01*
X47127Y-11402D01*
X47042Y-11362D01*
X46930Y-11323D01*
X46799Y-11283D01*
X46635Y-11257D01*
X46451Y-11251D01*
X46360D01*
X46320Y-11257D01*
X46268Y-11264D01*
X46150Y-11277D01*
X46018Y-11303D01*
X45887Y-11336D01*
X45763Y-11388D01*
X45710Y-11421D01*
X45658Y-11454D01*
X45645Y-11461D01*
X45618Y-11487D01*
X45579Y-11533D01*
X45540Y-11585D01*
X45494Y-11657D01*
X45454Y-11736D01*
X45428Y-11828D01*
X45415Y-11933D01*
Y-11946D01*
Y-11972D01*
X45421Y-12018D01*
X45435Y-12071D01*
X45454Y-12136D01*
X45487Y-12202D01*
X45526Y-12268D01*
X45585Y-12333D01*
X45592Y-12340D01*
X45625Y-12359D01*
X45651Y-12379D01*
X45677Y-12392D01*
X45717Y-12412D01*
X45763Y-12438D01*
X45822Y-12458D01*
X45887Y-12484D01*
X45959Y-12510D01*
X46045Y-12543D01*
X46137Y-12569D01*
X46241Y-12602D01*
X46360Y-12628D01*
X46491Y-12661D01*
X46497D01*
X46523Y-12668D01*
X46563Y-12674D01*
X46609Y-12687D01*
X46668Y-12700D01*
X46740Y-12720D01*
X46812Y-12740D01*
X46891Y-12760D01*
X47061Y-12805D01*
X47225Y-12851D01*
X47304Y-12878D01*
X47376Y-12904D01*
X47442Y-12923D01*
X47494Y-12950D01*
X47501D01*
X47514Y-12956D01*
X47534Y-12969D01*
X47560Y-12982D01*
X47632Y-13022D01*
X47717Y-13074D01*
X47816Y-13147D01*
X47914Y-13225D01*
X48006Y-13317D01*
X48085Y-13416D01*
X48091Y-13429D01*
X48118Y-13461D01*
X48144Y-13520D01*
X48183Y-13599D01*
X48216Y-13691D01*
X48249Y-13803D01*
X48268Y-13927D01*
X48275Y-14058D01*
Y-14065D01*
Y-14072D01*
Y-14091D01*
Y-14117D01*
X48262Y-14190D01*
X48249Y-14281D01*
X48223Y-14386D01*
X48190Y-14498D01*
X48137Y-14616D01*
X48065Y-14741D01*
Y-14747D01*
X48059Y-14754D01*
X48026Y-14793D01*
X47980Y-14852D01*
X47914Y-14918D01*
X47829Y-14996D01*
X47724Y-15082D01*
X47606Y-15160D01*
X47468Y-15233D01*
X47462D01*
X47449Y-15239D01*
X47429Y-15246D01*
X47403Y-15259D01*
X47363Y-15272D01*
X47317Y-15292D01*
X47212Y-15318D01*
X47088Y-15351D01*
X46937Y-15383D01*
X46773Y-15403D01*
X46596Y-15410D01*
X46491D01*
X46438Y-15403D01*
X46379D01*
X46314Y-15397D01*
X46235Y-15390D01*
X46071Y-15364D01*
X45900Y-15338D01*
X45730Y-15292D01*
X45566Y-15233D01*
X45559D01*
X45546Y-15226D01*
X45526Y-15213D01*
X45500Y-15200D01*
X45421Y-15160D01*
X45330Y-15101D01*
X45225Y-15023D01*
X45113Y-14931D01*
X45008Y-14819D01*
X44910Y-14695D01*
Y-14688D01*
X44897Y-14675D01*
X44890Y-14655D01*
X44870Y-14629D01*
X44857Y-14596D01*
X44838Y-14557D01*
X44792Y-14458D01*
X44746Y-14334D01*
X44706Y-14196D01*
X44680Y-14039D01*
X44667Y-13875D01*
X45231Y-13822D01*
Y-13829D01*
Y-13835D01*
X45238Y-13855D01*
Y-13881D01*
X45251Y-13940D01*
X45271Y-14026D01*
X45297Y-14111D01*
X45323Y-14209D01*
X45369Y-14301D01*
X45415Y-14386D01*
X45421Y-14393D01*
X45441Y-14419D01*
X45474Y-14465D01*
X45526Y-14511D01*
X45592Y-14570D01*
X45664Y-14629D01*
X45763Y-14688D01*
X45867Y-14741D01*
X45874D01*
X45881Y-14747D01*
X45900Y-14754D01*
X45920Y-14760D01*
X45986Y-14780D01*
X46071Y-14806D01*
X46176Y-14832D01*
X46294Y-14852D01*
X46425Y-14865D01*
X46569Y-14872D01*
X46628D01*
X46694Y-14865D01*
X46773Y-14859D01*
X46865Y-14846D01*
X46970Y-14832D01*
X47075Y-14806D01*
X47173Y-14773D01*
X47186Y-14767D01*
X47219Y-14754D01*
X47265Y-14728D01*
X47324Y-14701D01*
X47383Y-14655D01*
X47449Y-14609D01*
X47514Y-14557D01*
X47567Y-14491D01*
X47573Y-14485D01*
X47586Y-14458D01*
X47606Y-14426D01*
X47632Y-14373D01*
X47658Y-14321D01*
X47678Y-14255D01*
X47691Y-14183D01*
X47698Y-14104D01*
Y-14098D01*
Y-14065D01*
X47691Y-14026D01*
X47685Y-13973D01*
X47665Y-13921D01*
X47645Y-13855D01*
X47613Y-13789D01*
X47567Y-13730D01*
X47560Y-13724D01*
X47540Y-13704D01*
X47514Y-13678D01*
X47468Y-13638D01*
X47416Y-13599D01*
X47344Y-13553D01*
X47258Y-13507D01*
X47160Y-13468D01*
X47153Y-13461D01*
X47120Y-13455D01*
X47068Y-13435D01*
X47035Y-13429D01*
X46989Y-13416D01*
X46943Y-13396D01*
X46884Y-13383D01*
X46819Y-13363D01*
X46740Y-13343D01*
X46661Y-13324D01*
X46569Y-13297D01*
X46464Y-13271D01*
X46353Y-13245D01*
X46346D01*
X46327Y-13238D01*
X46294Y-13232D01*
X46255Y-13219D01*
X46202Y-13206D01*
X46143Y-13192D01*
X46012Y-13153D01*
X45867Y-13107D01*
X45717Y-13061D01*
X45585Y-13015D01*
X45526Y-12989D01*
X45474Y-12963D01*
X45467D01*
X45461Y-12956D01*
X45421Y-12930D01*
X45362Y-12897D01*
X45297Y-12845D01*
X45218Y-12786D01*
X45139Y-12714D01*
X45061Y-12628D01*
X44995Y-12536D01*
X44989Y-12523D01*
X44969Y-12490D01*
X44943Y-12438D01*
X44916Y-12372D01*
X44890Y-12287D01*
X44864Y-12189D01*
X44844Y-12084D01*
X44838Y-11972D01*
Y-11966D01*
Y-11959D01*
Y-11940D01*
Y-11913D01*
X44851Y-11848D01*
X44864Y-11762D01*
X44883Y-11664D01*
X44916Y-11552D01*
X44962Y-11441D01*
X45028Y-11329D01*
Y-11323D01*
X45034Y-11316D01*
X45067Y-11277D01*
X45113Y-11224D01*
X45172Y-11159D01*
X45251Y-11087D01*
X45349Y-11008D01*
X45467Y-10936D01*
X45599Y-10870D01*
X45605D01*
X45618Y-10864D01*
X45638Y-10857D01*
X45664Y-10844D01*
X45697Y-10831D01*
X45743Y-10818D01*
X45841Y-10791D01*
X45966Y-10765D01*
X46110Y-10739D01*
X46261Y-10719D01*
X46432Y-10713D01*
X46517D01*
X46563Y-10719D01*
D02*
G37*
G36*
X49804Y-15331D02*
X49200D01*
Y-10791D01*
X49804D01*
Y-15331D01*
D02*
G37*
G36*
X57183Y-10778D02*
X57269Y-10791D01*
X57367Y-10811D01*
X57472Y-10837D01*
X57584Y-10870D01*
X57689Y-10923D01*
X57695D01*
X57702Y-10929D01*
X57735Y-10949D01*
X57787Y-10982D01*
X57853Y-11028D01*
X57925Y-11093D01*
X58003Y-11165D01*
X58076Y-11251D01*
X58148Y-11349D01*
X58154Y-11362D01*
X58181Y-11395D01*
X58207Y-11454D01*
X58253Y-11539D01*
X58292Y-11638D01*
X58345Y-11749D01*
X58391Y-11880D01*
X58430Y-12025D01*
Y-12031D01*
X58437Y-12044D01*
X58443Y-12064D01*
X58450Y-12097D01*
X58456Y-12136D01*
X58463Y-12182D01*
X58476Y-12241D01*
X58482Y-12307D01*
X58495Y-12379D01*
X58502Y-12458D01*
X58509Y-12550D01*
X58522Y-12641D01*
X58528Y-12746D01*
Y-12851D01*
X58535Y-12969D01*
Y-13094D01*
Y-13101D01*
Y-13127D01*
Y-13173D01*
Y-13225D01*
X58528Y-13297D01*
Y-13376D01*
X58522Y-13461D01*
X58515Y-13553D01*
X58495Y-13763D01*
X58463Y-13980D01*
X58423Y-14190D01*
X58397Y-14288D01*
X58364Y-14386D01*
Y-14393D01*
X58358Y-14406D01*
X58345Y-14432D01*
X58332Y-14465D01*
X58318Y-14511D01*
X58292Y-14557D01*
X58240Y-14668D01*
X58174Y-14786D01*
X58089Y-14918D01*
X57990Y-15036D01*
X57872Y-15147D01*
X57866D01*
X57859Y-15160D01*
X57840Y-15174D01*
X57813Y-15187D01*
X57780Y-15206D01*
X57748Y-15233D01*
X57649Y-15279D01*
X57531Y-15324D01*
X57393Y-15370D01*
X57229Y-15397D01*
X57052Y-15410D01*
X56987D01*
X56941Y-15403D01*
X56888Y-15397D01*
X56823Y-15383D01*
X56751Y-15370D01*
X56672Y-15351D01*
X56593Y-15324D01*
X56508Y-15298D01*
X56423Y-15259D01*
X56337Y-15213D01*
X56252Y-15160D01*
X56167Y-15095D01*
X56088Y-15023D01*
X56016Y-14944D01*
X56009Y-14937D01*
X55996Y-14918D01*
X55976Y-14885D01*
X55944Y-14832D01*
X55911Y-14773D01*
X55878Y-14695D01*
X55832Y-14603D01*
X55793Y-14498D01*
X55753Y-14380D01*
X55714Y-14242D01*
X55675Y-14091D01*
X55642Y-13921D01*
X55609Y-13737D01*
X55589Y-13540D01*
X55576Y-13324D01*
X55570Y-13094D01*
Y-13088D01*
Y-13061D01*
Y-13015D01*
Y-12963D01*
X55576Y-12891D01*
Y-12812D01*
X55583Y-12727D01*
X55589Y-12628D01*
X55609Y-12425D01*
X55642Y-12208D01*
X55681Y-11992D01*
X55708Y-11894D01*
X55734Y-11795D01*
Y-11789D01*
X55740Y-11776D01*
X55753Y-11749D01*
X55767Y-11716D01*
X55780Y-11671D01*
X55806Y-11625D01*
X55858Y-11513D01*
X55924Y-11395D01*
X56009Y-11270D01*
X56108Y-11146D01*
X56226Y-11041D01*
X56232D01*
X56239Y-11028D01*
X56259Y-11015D01*
X56285Y-11001D01*
X56318Y-10975D01*
X56357Y-10955D01*
X56455Y-10903D01*
X56573Y-10857D01*
X56711Y-10811D01*
X56875Y-10785D01*
X57052Y-10772D01*
X57111D01*
X57183Y-10778D01*
D02*
G37*
%LPC*%
G36*
X120492Y39984D02*
X116508D01*
X114516Y37992D01*
Y34008D01*
X116508Y32016D01*
X120492D01*
X122484Y34008D01*
Y37992D01*
X120492Y39984D01*
D02*
G37*
G36*
X49276Y130476D02*
X48508Y130323D01*
X47857Y129888D01*
X47422Y129237D01*
X47269Y128469D01*
X47422Y127701D01*
X47857Y127050D01*
X48508Y126615D01*
X49276Y126462D01*
X50044Y126615D01*
X50695Y127050D01*
X51130Y127701D01*
X51283Y128469D01*
X51130Y129237D01*
X50695Y129888D01*
X50044Y130323D01*
X49276Y130476D01*
D02*
G37*
G36*
X130000Y149423D02*
X128649Y149290D01*
X127351Y148896D01*
X126154Y148256D01*
X125105Y147395D01*
X124244Y146346D01*
X123604Y145149D01*
X123210Y143851D01*
X123077Y142500D01*
X123210Y141149D01*
X123604Y139851D01*
X124244Y138654D01*
X125105Y137605D01*
X126154Y136744D01*
X127351Y136104D01*
X128649Y135710D01*
X130000Y135577D01*
X131351Y135710D01*
X132649Y136104D01*
X133846Y136744D01*
X134895Y137605D01*
X135756Y138654D01*
X136396Y139851D01*
X136790Y141149D01*
X136923Y142500D01*
X136790Y143851D01*
X136396Y145149D01*
X135756Y146346D01*
X134895Y147395D01*
X133846Y148256D01*
X132649Y148896D01*
X131351Y149290D01*
X130000Y149423D01*
D02*
G37*
G36*
X120876Y121076D02*
X120108Y120923D01*
X119457Y120488D01*
X119022Y119837D01*
X118869Y119069D01*
X119022Y118301D01*
X119457Y117650D01*
X120108Y117215D01*
X120876Y117062D01*
X121026Y116582D01*
X121122Y116101D01*
X121557Y115450D01*
X122208Y115015D01*
X122976Y114862D01*
X123066Y114880D01*
X123239Y114701D01*
X123407Y114438D01*
X123269Y113744D01*
X123422Y112976D01*
X123857Y112325D01*
X124508Y111890D01*
X125276Y111737D01*
X126044Y111890D01*
X126695Y112325D01*
X127130Y112976D01*
X127283Y113744D01*
X127130Y114513D01*
X126695Y115164D01*
X126044Y115599D01*
X125276Y115752D01*
X125186Y115734D01*
X125013Y115913D01*
X124845Y116176D01*
X124983Y116869D01*
X124830Y117637D01*
X124395Y118288D01*
X123744Y118723D01*
X122976Y118876D01*
X122826Y119356D01*
X122730Y119837D01*
X122295Y120488D01*
X121644Y120923D01*
X120876Y121076D01*
D02*
G37*
G36*
X135492Y39984D02*
X131508D01*
X129516Y37992D01*
Y34008D01*
X131508Y32016D01*
X135492D01*
X137484Y34008D01*
Y37992D01*
X135492Y39984D01*
D02*
G37*
G36*
X118000Y30000D02*
X116500D01*
X114500Y28000D01*
Y26500D01*
X118000D01*
Y30000D01*
D02*
G37*
G36*
X32437Y28767D02*
Y25500D01*
X35704D01*
X35639Y25992D01*
X35256Y26916D01*
X34647Y27710D01*
X33853Y28319D01*
X32929Y28702D01*
X32437Y28767D01*
D02*
G37*
G36*
X120500Y30000D02*
X119000D01*
Y26500D01*
X122500D01*
Y28000D01*
X120500Y30000D01*
D02*
G37*
G36*
X16176Y107076D02*
X15408Y106923D01*
X14757Y106488D01*
X14322Y105837D01*
X14169Y105069D01*
X14322Y104301D01*
X14757Y103650D01*
X15408Y103215D01*
X16176Y103062D01*
X16944Y103215D01*
X17595Y103650D01*
X18030Y104301D01*
X18183Y105069D01*
X18030Y105837D01*
X17595Y106488D01*
X16944Y106923D01*
X16176Y107076D01*
D02*
G37*
G36*
X10000Y149423D02*
X8649Y149290D01*
X7351Y148896D01*
X6154Y148256D01*
X5105Y147395D01*
X4244Y146346D01*
X3604Y145149D01*
X3210Y143851D01*
X3077Y142500D01*
X3210Y141149D01*
X3604Y139851D01*
X4244Y138654D01*
X5105Y137605D01*
X6154Y136744D01*
X7351Y136104D01*
X8649Y135710D01*
X10000Y135577D01*
X11351Y135710D01*
X12649Y136104D01*
X13846Y136744D01*
X14895Y137605D01*
X15756Y138654D01*
X16396Y139851D01*
X16790Y141149D01*
X16923Y142500D01*
X16790Y143851D01*
X16396Y145149D01*
X15756Y146346D01*
X14895Y147395D01*
X13846Y148256D01*
X12649Y148896D01*
X11351Y149290D01*
X10000Y149423D01*
D02*
G37*
G36*
X120492Y49984D02*
X116508D01*
X114516Y47992D01*
Y44008D01*
X116508Y42016D01*
X120492D01*
X122484Y44008D01*
Y47992D01*
X120492Y49984D01*
D02*
G37*
G36*
X11256Y119157D02*
X10411Y118989D01*
X9695Y118510D01*
X9216Y117794D01*
X9048Y116949D01*
X9216Y116104D01*
X9695Y115388D01*
X10411Y114909D01*
X11256Y114741D01*
X12101Y114909D01*
X12817Y115388D01*
X13296Y116104D01*
X13464Y116949D01*
X13296Y117794D01*
X12817Y118510D01*
X12101Y118989D01*
X11256Y119157D01*
D02*
G37*
G36*
X135492Y69984D02*
X131508D01*
X129516Y67992D01*
Y64008D01*
X131508Y62016D01*
X135492D01*
X137484Y64008D01*
Y67992D01*
X135492Y69984D01*
D02*
G37*
G36*
X31214Y108776D02*
X30446Y108623D01*
X29795Y108188D01*
X29360Y107537D01*
X29207Y106769D01*
X29360Y106001D01*
X29713Y105473D01*
X29763Y105138D01*
X29713Y104804D01*
X29360Y104276D01*
X29207Y103507D01*
X29360Y102739D01*
X29795Y102088D01*
X30446Y101653D01*
X30456Y101651D01*
Y89229D01*
X24886Y83659D01*
X24613Y83251D01*
X24518Y82769D01*
Y64625D01*
X24508Y64623D01*
X23857Y64188D01*
X23422Y63537D01*
X23269Y62769D01*
X23422Y62001D01*
X23857Y61350D01*
X24508Y60915D01*
X25276Y60762D01*
X30276D01*
X31044Y60915D01*
X31695Y61350D01*
X32130Y62001D01*
X32283Y62769D01*
X32130Y63537D01*
X31695Y64188D01*
X31044Y64623D01*
X30936Y64645D01*
X30874Y64669D01*
X30592Y64792D01*
X30552Y64812D01*
X30455Y64869D01*
X29334Y65990D01*
Y81548D01*
X34566Y86779D01*
X34839Y87187D01*
X34934Y87669D01*
Y104807D01*
X34839Y105289D01*
X34566Y105697D01*
X33319Y106944D01*
X33284Y106998D01*
X33274Y107015D01*
X33112Y107374D01*
X33090Y107429D01*
X33069Y107537D01*
X32634Y108188D01*
X31983Y108623D01*
X31214Y108776D01*
D02*
G37*
G36*
X135492Y79984D02*
X131508D01*
X129516Y77992D01*
Y74008D01*
X131508Y72016D01*
X135492D01*
X137484Y74008D01*
Y77992D01*
X135492Y79984D01*
D02*
G37*
G36*
X26076Y119876D02*
X25308Y119723D01*
X24657Y119288D01*
X24222Y118637D01*
X24069Y117869D01*
X24222Y117101D01*
X24657Y116450D01*
X25308Y116015D01*
X26076Y115862D01*
X26844Y116015D01*
X27495Y116450D01*
X27930Y117101D01*
X28083Y117869D01*
X27930Y118637D01*
X27495Y119288D01*
X26844Y119723D01*
X26076Y119876D01*
D02*
G37*
G36*
X32476Y115976D02*
X31708Y115823D01*
X31057Y115388D01*
X30622Y114737D01*
X30469Y113969D01*
X30622Y113201D01*
X31057Y112550D01*
X31708Y112115D01*
X32476Y111962D01*
X33244Y112115D01*
X33895Y112550D01*
X34330Y113201D01*
X34483Y113969D01*
X34330Y114737D01*
X33895Y115388D01*
X33244Y115823D01*
X32476Y115976D01*
D02*
G37*
G36*
X135492Y49984D02*
X131508D01*
X129516Y47992D01*
Y44008D01*
X131508Y42016D01*
X135492D01*
X137484Y44008D01*
Y47992D01*
X135492Y49984D01*
D02*
G37*
G36*
X23176Y106976D02*
X22408Y106823D01*
X21757Y106388D01*
X21322Y105737D01*
X21169Y104969D01*
X21322Y104201D01*
X21757Y103550D01*
X22408Y103115D01*
X23176Y102962D01*
X23944Y103115D01*
X24595Y103550D01*
X25030Y104201D01*
X25183Y104969D01*
X25030Y105737D01*
X24595Y106388D01*
X23944Y106823D01*
X23176Y106976D01*
D02*
G37*
G36*
X15976Y101176D02*
X15208Y101023D01*
X14557Y100588D01*
X14122Y99937D01*
X13969Y99169D01*
X14122Y98401D01*
X14557Y97750D01*
Y97288D01*
X14122Y96637D01*
X13969Y95869D01*
X14122Y95101D01*
X14557Y94450D01*
X15208Y94015D01*
X15976Y93862D01*
X16744Y94015D01*
X17395Y94450D01*
X17830Y95101D01*
X17983Y95869D01*
X17830Y96637D01*
X17395Y97288D01*
Y97750D01*
X17830Y98401D01*
X17983Y99169D01*
X17830Y99937D01*
X17395Y100588D01*
X16744Y101023D01*
X15976Y101176D01*
D02*
G37*
G36*
X25776Y53676D02*
X25008Y53523D01*
X24357Y53088D01*
X23922Y52437D01*
X23769Y51669D01*
X23922Y50901D01*
X24357Y50250D01*
X25008Y49815D01*
X25776Y49662D01*
X26544Y49815D01*
X27195Y50250D01*
X27630Y50901D01*
X27783Y51669D01*
X27630Y52437D01*
X27195Y53088D01*
X26544Y53523D01*
X25776Y53676D01*
D02*
G37*
G36*
X59181Y161776D02*
X58413Y161623D01*
X57762Y161188D01*
X57326Y160537D01*
X57174Y159769D01*
X57326Y159001D01*
X57762Y158350D01*
X58413Y157915D01*
X59181Y157762D01*
X59949Y157915D01*
X60600Y158350D01*
X61035Y159001D01*
X61188Y159769D01*
X61035Y160537D01*
X60600Y161188D01*
X59949Y161623D01*
X59181Y161776D01*
D02*
G37*
G36*
X137500Y5500D02*
X134000D01*
Y2000D01*
X135500D01*
X137500Y4000D01*
Y5500D01*
D02*
G37*
G36*
X39876Y151876D02*
X39108Y151723D01*
X38457Y151288D01*
X38022Y150637D01*
X37869Y149869D01*
X38022Y149101D01*
X38457Y148450D01*
X39108Y148015D01*
X39876Y147862D01*
X40644Y148015D01*
X41295Y148450D01*
X41730Y149101D01*
X41883Y149869D01*
X41730Y150637D01*
X41295Y151288D01*
X40644Y151723D01*
X39876Y151876D01*
D02*
G37*
G36*
X133000Y10000D02*
X131500D01*
X129500Y8000D01*
Y6500D01*
X133000D01*
Y10000D01*
D02*
G37*
G36*
X8492Y9984D02*
X4508D01*
X2516Y7992D01*
Y4008D01*
X4508Y2016D01*
X8492D01*
X10484Y4008D01*
Y7992D01*
X8492Y9984D01*
D02*
G37*
G36*
X133000Y5500D02*
X129500D01*
Y4000D01*
X131500Y2000D01*
X133000D01*
Y5500D01*
D02*
G37*
G36*
X112676Y167076D02*
X111908Y166923D01*
X111576Y166701D01*
X111244Y166923D01*
X110476Y167076D01*
X109708Y166923D01*
X109057Y166488D01*
X108622Y165837D01*
X108469Y165069D01*
X108622Y164301D01*
X109057Y163650D01*
X109708Y163215D01*
X110476Y163062D01*
X111244Y163215D01*
X111576Y163436D01*
X111908Y163215D01*
X112676Y163062D01*
X113444Y163215D01*
X114095Y163650D01*
X114530Y164301D01*
X114683Y165069D01*
X114530Y165837D01*
X114095Y166488D01*
X113444Y166923D01*
X112676Y167076D01*
D02*
G37*
G36*
X105376Y173076D02*
X104608Y172923D01*
X103957Y172488D01*
X103522Y171837D01*
X103402Y171235D01*
X100849Y168682D01*
X50603D01*
X47310Y171976D01*
X46819Y172304D01*
X46240Y172419D01*
X46239Y172419D01*
X36318D01*
X35808Y172760D01*
X35039Y172913D01*
X34271Y172760D01*
X33620Y172325D01*
X33185Y171674D01*
X33032Y170905D01*
X33185Y170137D01*
X33620Y169486D01*
X34271Y169051D01*
X35039Y168898D01*
X35808Y169051D01*
X36318Y169392D01*
X45613D01*
X48906Y166099D01*
X48906Y166099D01*
X49397Y165771D01*
X49976Y165656D01*
X101476D01*
X101476Y165656D01*
X102055Y165771D01*
X102546Y166099D01*
X105542Y169095D01*
X106144Y169215D01*
X106795Y169650D01*
X107230Y170301D01*
X107383Y171069D01*
X107230Y171837D01*
X106795Y172488D01*
X106144Y172923D01*
X105376Y173076D01*
D02*
G37*
G36*
X74976Y164476D02*
X74208Y164323D01*
X73557Y163888D01*
X73272Y163462D01*
X72695D01*
X72411Y163888D01*
X71760Y164323D01*
X70992Y164476D01*
X70224Y164323D01*
X69573Y163888D01*
X69324Y163516D01*
X68723D01*
X68474Y163888D01*
X67823Y164323D01*
X67055Y164476D01*
X66287Y164323D01*
X65636Y163888D01*
X65387Y163516D01*
X64786D01*
X64537Y163888D01*
X63886Y164323D01*
X63118Y164476D01*
X62350Y164323D01*
X61699Y163888D01*
X61263Y163237D01*
X61111Y162469D01*
X61263Y161701D01*
X61699Y161050D01*
X62350Y160615D01*
X63118Y160462D01*
X63208Y160480D01*
X63263Y160476D01*
X63308Y160470D01*
X63340Y160464D01*
X63344Y160463D01*
X63618Y160189D01*
Y157690D01*
X62155Y156227D01*
X54276D01*
X53794Y156132D01*
X53386Y155859D01*
X51829Y154302D01*
X51287Y154467D01*
X51191Y154947D01*
X50709Y155669D01*
X49986Y156152D01*
X49134Y156322D01*
X48282Y156152D01*
X47559Y155669D01*
X47076Y154947D01*
X46907Y154095D01*
X47076Y153242D01*
X47559Y152520D01*
X48282Y152037D01*
X48762Y151942D01*
X48926Y151399D01*
X48186Y150659D01*
X47993Y150370D01*
X47503Y150411D01*
X47473Y150423D01*
X47430Y150637D01*
X46995Y151288D01*
X46344Y151723D01*
X45576Y151876D01*
X44808Y151723D01*
X44157Y151288D01*
X43722Y150637D01*
X43569Y149869D01*
X43722Y149101D01*
X44157Y148450D01*
X44808Y148015D01*
X45576Y147862D01*
X46344Y148015D01*
X46995Y148450D01*
X47318Y148932D01*
X47818Y148781D01*
Y137969D01*
X47913Y137487D01*
X48186Y137079D01*
X48970Y136295D01*
X48971Y136291D01*
X48978Y136259D01*
X48983Y136215D01*
X48987Y136159D01*
X48969Y136069D01*
X49026Y135780D01*
Y133751D01*
X49294D01*
X50719Y132326D01*
X50569Y131569D01*
X50722Y130801D01*
X51157Y130150D01*
X51808Y129715D01*
X52576Y129562D01*
X55870D01*
X55907Y129378D01*
X56299Y128792D01*
X56885Y128400D01*
X57576Y128263D01*
X62273D01*
X65278Y125258D01*
X64946Y124760D01*
X64808Y124069D01*
X64864Y123791D01*
X64533Y123570D01*
X61623Y120659D01*
X61568Y120655D01*
X61497Y120669D01*
X60988Y120568D01*
X60611Y120911D01*
X60587Y120959D01*
X60679Y121422D01*
X60587Y121884D01*
X60611Y121932D01*
X60988Y122275D01*
X61497Y122174D01*
X62189Y122312D01*
X62775Y122703D01*
X63166Y123289D01*
X63304Y123980D01*
X63166Y124672D01*
X62775Y125258D01*
X62189Y125649D01*
X61497Y125787D01*
X60806Y125649D01*
X60220Y125258D01*
X60150D01*
X59564Y125649D01*
X58872Y125787D01*
X58181Y125649D01*
X57625Y125278D01*
X57070Y125649D01*
X56379Y125787D01*
X55687Y125649D01*
X55101Y125258D01*
X54684Y125533D01*
X54510Y125649D01*
X53819Y125787D01*
X53127Y125649D01*
X52541Y125258D01*
X52150Y124672D01*
X52012Y123980D01*
X52150Y123289D01*
X52541Y122703D01*
X53127Y122312D01*
X53819Y122174D01*
X54253Y122260D01*
X54659Y121855D01*
X54572Y121422D01*
X54659Y120987D01*
X54253Y120582D01*
X53819Y120669D01*
X53127Y120531D01*
X52541Y120140D01*
X52201Y119631D01*
X51661Y119464D01*
X50566Y120559D01*
X50158Y120832D01*
X49676Y120927D01*
X48276D01*
X47794Y120832D01*
X47386Y120559D01*
X46786Y119959D01*
X46634Y119732D01*
X46134Y119883D01*
Y121469D01*
X46039Y121951D01*
X45766Y122359D01*
X45066Y123059D01*
X44658Y123332D01*
X44176Y123427D01*
X42976D01*
X42494Y123332D01*
X42086Y123059D01*
X41467Y122440D01*
X41194Y122031D01*
X41098Y121550D01*
Y118071D01*
X40436Y117409D01*
X40163Y117001D01*
X40068Y116519D01*
Y115519D01*
X40163Y115037D01*
X40287Y114852D01*
X40020Y114352D01*
X39646D01*
X39164Y114256D01*
X38756Y113983D01*
X38386Y113613D01*
X38113Y113205D01*
X38017Y112723D01*
Y111613D01*
X38113Y111132D01*
X38386Y110723D01*
X38756Y110353D01*
X39164Y110080D01*
X39281Y110057D01*
X39513Y109504D01*
X39418Y109023D01*
Y97069D01*
X39513Y96587D01*
X39786Y96179D01*
X40428Y95538D01*
X40364Y94894D01*
X40057Y94688D01*
X39622Y94037D01*
X39469Y93269D01*
X39622Y92501D01*
X40044Y91869D01*
X39622Y91237D01*
X39469Y90469D01*
X39622Y89701D01*
X40057Y89050D01*
X40664Y88644D01*
X40744Y88522D01*
X40862Y88134D01*
X39486Y86759D01*
X39213Y86351D01*
X39118Y85869D01*
Y78469D01*
X39213Y77987D01*
X39486Y77579D01*
X40376Y76689D01*
X40185Y76227D01*
X38276D01*
X37794Y76132D01*
X37386Y75859D01*
X37086Y75559D01*
X36813Y75151D01*
X36718Y74669D01*
Y73469D01*
X36813Y72987D01*
X37086Y72579D01*
X37386Y72279D01*
X37794Y72006D01*
X38017Y71962D01*
X38091Y71902D01*
X38345Y71496D01*
X38359Y71411D01*
X38310Y71161D01*
Y65577D01*
X38405Y65095D01*
X38678Y64687D01*
X39686Y63679D01*
X40094Y63406D01*
X40576Y63311D01*
X43618D01*
Y57369D01*
Y52876D01*
X43713Y52394D01*
X43986Y51986D01*
X44771Y51202D01*
X44770Y51197D01*
X44907Y50506D01*
X45299Y49920D01*
X45577Y49734D01*
Y49132D01*
X45299Y48946D01*
X44907Y48360D01*
X44770Y47669D01*
X44907Y46978D01*
X45208Y46527D01*
X45012Y46027D01*
X41497D01*
X38634Y48890D01*
Y52691D01*
X38636Y52694D01*
X38655Y52721D01*
X38682Y52757D01*
X38719Y52799D01*
X38795Y52850D01*
X39230Y53501D01*
X39383Y54269D01*
X39230Y55037D01*
X38795Y55688D01*
X38144Y56123D01*
X37376Y56276D01*
X36608Y56123D01*
X35957Y55688D01*
X35522Y55037D01*
X35369Y54269D01*
X35522Y53501D01*
X35957Y52850D01*
X36033Y52799D01*
X36070Y52757D01*
X36097Y52721D01*
X36116Y52694D01*
X36118Y52691D01*
Y48369D01*
X36213Y47887D01*
X36486Y47479D01*
X40086Y43879D01*
X40494Y43606D01*
X40976Y43511D01*
X91285D01*
X91476Y43049D01*
X89855Y41427D01*
X31450D01*
X22734Y50143D01*
Y61024D01*
X22639Y61506D01*
X22366Y61914D01*
X10378Y73902D01*
X10484Y74008D01*
Y77992D01*
X8492Y79984D01*
X4508D01*
X2516Y77992D01*
Y74008D01*
X4508Y72016D01*
X8492D01*
X8598Y72122D01*
X17976Y62744D01*
Y58569D01*
X15711D01*
X10378Y63902D01*
X10484Y64008D01*
Y67992D01*
X8492Y69984D01*
X4508D01*
X2516Y67992D01*
Y64008D01*
X4508Y62016D01*
Y59984D01*
X2516Y57992D01*
Y54008D01*
X4508Y52016D01*
X8492D01*
X10484Y54008D01*
Y54742D01*
X11324D01*
X21876Y44189D01*
Y42769D01*
X20356D01*
X16235Y46890D01*
X15827Y47163D01*
X15345Y47258D01*
X10484D01*
Y47992D01*
X8492Y49984D01*
X4508D01*
X2516Y47992D01*
Y44008D01*
X4508Y42016D01*
X8492D01*
X10484Y44008D01*
Y44742D01*
X14824D01*
X17376Y42189D01*
Y37258D01*
X10484D01*
Y37992D01*
X8492Y39984D01*
X4508D01*
X2516Y37992D01*
Y34008D01*
X4508Y32016D01*
X8492D01*
X10484Y34008D01*
Y34742D01*
X20224D01*
X20586Y34379D01*
X20690Y34310D01*
X21065Y34008D01*
Y31538D01*
X18096Y28569D01*
X17376D01*
X16199Y27258D01*
X10484D01*
Y27992D01*
X8492Y29984D01*
X4508D01*
X2516Y27992D01*
Y24008D01*
X4508Y22016D01*
X8492D01*
X10484Y24008D01*
Y24742D01*
X17307D01*
X17691Y24818D01*
X20207D01*
X20313Y24012D01*
X20695Y23092D01*
X21301Y22301D01*
X22092Y21695D01*
X23012Y21313D01*
X24000Y21183D01*
X24088Y21195D01*
X24234Y21191D01*
X24419Y21172D01*
X24592Y21141D01*
X24757Y21097D01*
X24914Y21042D01*
X25065Y20973D01*
X25211Y20891D01*
X25355Y20794D01*
X25416Y20746D01*
X30212Y15950D01*
X30863Y15515D01*
X31631Y15362D01*
X60476D01*
X61244Y15515D01*
X61895Y15950D01*
X72707Y26762D01*
X78676D01*
X78694Y26765D01*
X81758D01*
X81776Y26762D01*
X81794Y26765D01*
X84858D01*
X84876Y26762D01*
X99145D01*
X111326Y14581D01*
X111977Y14146D01*
X112745Y13993D01*
X129110D01*
X129325Y13978D01*
X129580Y13944D01*
X131508Y12016D01*
X135492D01*
X137484Y14008D01*
Y17992D01*
X135492Y19984D01*
X131508D01*
X129583Y18060D01*
X129055Y18007D01*
X113576D01*
X101395Y30188D01*
X100744Y30623D01*
X99976Y30776D01*
X84876D01*
X84858Y30773D01*
X81794D01*
X81776Y30776D01*
X81758Y30773D01*
X78776D01*
X78735Y30764D01*
X78676Y30776D01*
X71876D01*
X71108Y30623D01*
X70457Y30188D01*
X59645Y19376D01*
X32462D01*
X31060Y20778D01*
X31294Y21252D01*
X31437Y21233D01*
Y25000D01*
Y28767D01*
X30945Y28702D01*
X30021Y28319D01*
X29227Y27710D01*
X28618Y26916D01*
X28235Y25992D01*
X28213Y25824D01*
X27708D01*
X27687Y25988D01*
X27305Y26908D01*
X26699Y27699D01*
X25908Y28306D01*
X24988Y28687D01*
X24176Y28794D01*
Y31089D01*
X25797Y32711D01*
X43188D01*
X43340Y32211D01*
X43157Y32088D01*
X42722Y31437D01*
X42569Y30669D01*
X42722Y29901D01*
X43157Y29250D01*
X43808Y28815D01*
X44576Y28662D01*
X45344Y28815D01*
X45995Y29250D01*
X46109Y29421D01*
X46609D01*
X46723Y29250D01*
X47375Y28815D01*
X48143Y28662D01*
X48911Y28815D01*
X49321Y29089D01*
X49912Y28992D01*
X49957Y28958D01*
X49977Y28921D01*
X49922Y28837D01*
X49769Y28069D01*
X49922Y27301D01*
X50357Y26650D01*
X50424Y26605D01*
X50022Y26004D01*
X49869Y25236D01*
X50022Y24468D01*
X50299Y24052D01*
X50022Y23637D01*
X49869Y22869D01*
X50022Y22101D01*
X50457Y21450D01*
X51108Y21015D01*
X51876Y20862D01*
X52644Y21015D01*
X53295Y21450D01*
X53730Y22101D01*
X53883Y22869D01*
X53730Y23637D01*
X53453Y24052D01*
X53730Y24468D01*
X53883Y25236D01*
X53730Y26004D01*
X53295Y26655D01*
X53228Y26700D01*
X53630Y27301D01*
X53783Y28069D01*
X53630Y28837D01*
X53308Y29319D01*
X53630Y29801D01*
X53783Y30569D01*
X53630Y31337D01*
X53195Y31988D01*
X52862Y32211D01*
X53014Y32711D01*
X105876D01*
X106358Y32806D01*
X106766Y33079D01*
X112466Y38779D01*
X112739Y39187D01*
X112834Y39669D01*
Y53569D01*
X114376D01*
X115037Y53486D01*
X116508Y52016D01*
X120492D01*
X122345Y53869D01*
X129655D01*
X131508Y52016D01*
X135492D01*
X137484Y54008D01*
Y57992D01*
X135492Y59984D01*
X131508D01*
X131402Y59878D01*
X127834Y63445D01*
Y95069D01*
X127739Y95551D01*
X127466Y95959D01*
X110858Y112566D01*
X110968Y113164D01*
X111395Y113450D01*
X111830Y114101D01*
X111983Y114869D01*
X111965Y114959D01*
X111969Y115015D01*
X111975Y115059D01*
X111981Y115091D01*
X111982Y115095D01*
X120397Y123511D01*
X127898D01*
X127901Y123509D01*
X127928Y123490D01*
X127964Y123463D01*
X128006Y123426D01*
X128057Y123350D01*
X128708Y122915D01*
X129476Y122762D01*
X130244Y122915D01*
X130868Y123331D01*
X131008Y123396D01*
X131344D01*
X131484Y123331D01*
X132108Y122915D01*
X132876Y122762D01*
X133644Y122915D01*
X134295Y123350D01*
X134730Y124001D01*
X134883Y124769D01*
X134730Y125537D01*
X134295Y126188D01*
X133644Y126623D01*
X132876Y126776D01*
X132786Y126758D01*
X132730Y126762D01*
X132686Y126768D01*
X132654Y126774D01*
X132650Y126775D01*
X131566Y127859D01*
X131158Y128132D01*
X130676Y128227D01*
X119876D01*
X119833Y128219D01*
X119730Y128737D01*
X119295Y129388D01*
X118644Y129823D01*
X117876Y129976D01*
X117108Y129823D01*
X116457Y129388D01*
X115995D01*
X115344Y129823D01*
X114576Y129976D01*
X107349D01*
X97276Y140049D01*
Y143362D01*
X98044Y143515D01*
X98695Y143950D01*
X99130Y144601D01*
X99283Y145369D01*
X99180Y145889D01*
Y147048D01*
X99283Y147569D01*
Y154069D01*
X99130Y154837D01*
X98695Y155488D01*
X92995Y161188D01*
X92344Y161623D01*
X91576Y161776D01*
X87488D01*
X86735Y162529D01*
X86495Y162888D01*
X85844Y163323D01*
X85076Y163476D01*
X84308Y163323D01*
X83657Y162888D01*
X83510Y162669D01*
X76943D01*
X76830Y163237D01*
X76395Y163888D01*
X75744Y164323D01*
X74976Y164476D01*
D02*
G37*
G36*
X55244D02*
X54476Y164323D01*
X53825Y163888D01*
X53389Y163237D01*
X53237Y162469D01*
X53389Y161701D01*
X53825Y161050D01*
X54476Y160615D01*
X55244Y160462D01*
X56012Y160615D01*
X56663Y161050D01*
X57098Y161701D01*
X57251Y162469D01*
X57098Y163237D01*
X56663Y163888D01*
X56012Y164323D01*
X55244Y164476D01*
D02*
G37*
G36*
X118000Y25500D02*
X114500D01*
Y24000D01*
X116500Y22000D01*
X118000D01*
Y25500D01*
D02*
G37*
G36*
X115476Y141576D02*
X114708Y141423D01*
X114426Y141235D01*
X114144Y141423D01*
X113376Y141576D01*
X112608Y141423D01*
X112326Y141235D01*
X112044Y141423D01*
X111276Y141576D01*
X110508Y141423D01*
X109857Y140988D01*
X109422Y140337D01*
X109269Y139569D01*
X109422Y138801D01*
X109857Y138150D01*
X110508Y137715D01*
X111276Y137562D01*
X112044Y137715D01*
X112326Y137903D01*
X112608Y137715D01*
X113376Y137562D01*
X114144Y137715D01*
X114426Y137903D01*
X114708Y137715D01*
X115476Y137562D01*
X116244Y137715D01*
X116895Y138150D01*
X117330Y138801D01*
X117483Y139569D01*
X117330Y140337D01*
X116895Y140988D01*
X116244Y141423D01*
X115476Y141576D01*
D02*
G37*
G36*
X135492Y29984D02*
X131508D01*
X129516Y27992D01*
Y24008D01*
X131508Y22016D01*
X135492D01*
X137484Y24008D01*
Y27992D01*
X135492Y29984D01*
D02*
G37*
G36*
X122500Y25500D02*
X119000D01*
Y22000D01*
X120500D01*
X122500Y24000D01*
Y25500D01*
D02*
G37*
G36*
X36476Y142776D02*
X35708Y142623D01*
X35057Y142188D01*
X34622Y141537D01*
X34469Y140769D01*
X34622Y140001D01*
X35057Y139350D01*
X35708Y138915D01*
X36476Y138762D01*
X37244Y138915D01*
X37895Y139350D01*
X38330Y140001D01*
X38483Y140769D01*
X38330Y141537D01*
X37895Y142188D01*
X37244Y142623D01*
X36476Y142776D01*
D02*
G37*
G36*
X8492Y19984D02*
X4508D01*
X2516Y17992D01*
Y14008D01*
X4508Y12016D01*
X8492D01*
X10484Y14008D01*
Y17992D01*
X8492Y19984D01*
D02*
G37*
G36*
X15976Y90676D02*
X15208Y90523D01*
X14557Y90088D01*
X14122Y89437D01*
X13969Y88669D01*
X14122Y87901D01*
X14557Y87250D01*
X15208Y86815D01*
X15976Y86662D01*
X16744Y86815D01*
X17395Y87250D01*
X17830Y87901D01*
X17983Y88669D01*
X17830Y89437D01*
X17395Y90088D01*
X16744Y90523D01*
X15976Y90676D01*
D02*
G37*
G36*
X135500Y10000D02*
X134000D01*
Y6500D01*
X137500D01*
Y8000D01*
X135500Y10000D01*
D02*
G37*
G36*
X132576Y109653D02*
X131808Y109500D01*
X131157Y109065D01*
X130722Y108414D01*
X130569Y107646D01*
X130722Y106878D01*
X131157Y106227D01*
X131808Y105792D01*
X132576Y105639D01*
X133344Y105792D01*
X133995Y106227D01*
X134430Y106878D01*
X134583Y107646D01*
X134430Y108414D01*
X133995Y109065D01*
X133344Y109500D01*
X132576Y109653D01*
D02*
G37*
G36*
X35704Y24500D02*
X32437D01*
Y21233D01*
X32929Y21298D01*
X33853Y21681D01*
X34647Y22290D01*
X35256Y23084D01*
X35639Y24008D01*
X35704Y24500D01*
D02*
G37*
%LPD*%
G36*
X26026Y63997D02*
X26028Y63926D01*
X26043Y63769D01*
X26056Y63683D01*
X26118Y63398D01*
X26177Y63184D01*
X26213Y63070D01*
X25040Y63724D01*
X25132Y63752D01*
X25215Y63786D01*
X25288Y63828D01*
X25351Y63876D01*
X25404Y63931D01*
X25448Y63994D01*
X25482Y64063D01*
X25506Y64139D01*
X25521Y64222D01*
X25526Y64311D01*
X26026Y63997D01*
D02*
G37*
G36*
X29785Y64118D02*
X29843Y64072D01*
X29910Y64026D01*
X30070Y63932D01*
X30163Y63885D01*
X30493Y63740D01*
X30620Y63691D01*
X29361Y63132D01*
X29395Y63230D01*
X29420Y63325D01*
X29433Y63416D01*
X29437Y63503D01*
X29430Y63587D01*
X29412Y63667D01*
X29385Y63744D01*
X29347Y63817D01*
X29298Y63886D01*
X29239Y63952D01*
X29735Y64163D01*
X29785Y64118D01*
D02*
G37*
G36*
X32116Y103092D02*
X31994Y102593D01*
X31981Y102508D01*
X31966Y102351D01*
X31964Y102280D01*
X31464Y101965D01*
X31460Y102055D01*
X31445Y102138D01*
X31421Y102214D01*
X31387Y102283D01*
X31343Y102345D01*
X31289Y102400D01*
X31226Y102449D01*
X31153Y102490D01*
X31071Y102524D01*
X30978Y102552D01*
X32151Y103206D01*
X32116Y103092D01*
D02*
G37*
G36*
X32186Y106986D02*
X32378Y106563D01*
X32425Y106479D01*
X32517Y106336D01*
X32563Y106278D01*
X32609Y106228D01*
X32397Y105733D01*
X32332Y105791D01*
X32262Y105840D01*
X32189Y105878D01*
X32113Y105905D01*
X32032Y105923D01*
X31949Y105930D01*
X31861Y105926D01*
X31770Y105913D01*
X31675Y105888D01*
X31577Y105854D01*
X32136Y107113D01*
X32186Y106986D01*
D02*
G37*
G36*
X105366Y170085D02*
X105312Y170081D01*
X105255Y170070D01*
X105196Y170051D01*
X105135Y170024D01*
X105070Y169990D01*
X105004Y169947D01*
X104935Y169897D01*
X104863Y169838D01*
X104712Y169698D01*
X104005Y170405D01*
X104079Y170482D01*
X104204Y170628D01*
X104254Y170697D01*
X104297Y170763D01*
X104331Y170828D01*
X104358Y170889D01*
X104377Y170948D01*
X104388Y171005D01*
X104392Y171059D01*
X105366Y170085D01*
D02*
G37*
G36*
X35783Y171559D02*
X35831Y171526D01*
X35886Y171498D01*
X35949Y171474D01*
X36019Y171453D01*
X36096Y171436D01*
X36180Y171423D01*
X36272Y171413D01*
X36478Y171405D01*
Y170405D01*
X36371Y170404D01*
X36180Y170388D01*
X36096Y170375D01*
X36019Y170358D01*
X35949Y170337D01*
X35886Y170313D01*
X35831Y170285D01*
X35783Y170252D01*
X35742Y170217D01*
Y171595D01*
X35783Y171559D01*
D02*
G37*
G36*
X59776Y70588D02*
X59837Y70537D01*
X59899Y70492D01*
X59963Y70452D01*
X60028Y70419D01*
X60094Y70392D01*
X60162Y70371D01*
X60231Y70356D01*
X60302Y70347D01*
X60373Y70344D01*
Y69844D01*
X60302Y69841D01*
X60231Y69832D01*
X60162Y69817D01*
X60094Y69796D01*
X60028Y69769D01*
X59963Y69736D01*
X59899Y69696D01*
X59837Y69651D01*
X59776Y69600D01*
X59716Y69543D01*
Y70645D01*
X59776Y70588D01*
D02*
G37*
G36*
X58591Y72693D02*
X58531Y72750D01*
X58470Y72801D01*
X58408Y72847D01*
X58344Y72886D01*
X58279Y72919D01*
X58213Y72946D01*
X58145Y72967D01*
X58076Y72982D01*
X58005Y72991D01*
X57934Y72994D01*
Y73494D01*
X58005Y73497D01*
X58076Y73506D01*
X58145Y73521D01*
X58213Y73542D01*
X58279Y73569D01*
X58344Y73602D01*
X58408Y73642D01*
X58470Y73687D01*
X58531Y73738D01*
X58591Y73795D01*
Y72693D01*
D02*
G37*
G36*
X69224Y70588D02*
X69285Y70537D01*
X69347Y70492D01*
X69411Y70452D01*
X69476Y70419D01*
X69542Y70392D01*
X69610Y70371D01*
X69679Y70356D01*
X69749Y70347D01*
X69821Y70344D01*
Y69844D01*
X69749Y69841D01*
X69679Y69832D01*
X69610Y69817D01*
X69542Y69796D01*
X69476Y69769D01*
X69411Y69736D01*
X69347Y69696D01*
X69285Y69651D01*
X69224Y69600D01*
X69164Y69543D01*
Y70645D01*
X69224Y70588D01*
D02*
G37*
G36*
X112279Y70766D02*
X112153Y70572D01*
X112102Y70479D01*
X112059Y70388D01*
X112023Y70300D01*
X111996Y70214D01*
X111976Y70131D01*
X111964Y70051D01*
X111960Y69972D01*
X111460Y69901D01*
X111456Y69986D01*
X111441Y70069D01*
X111418Y70151D01*
X111385Y70231D01*
X111343Y70310D01*
X111291Y70386D01*
X111230Y70462D01*
X111159Y70536D01*
X111079Y70608D01*
X110989Y70679D01*
X112354Y70867D01*
X112279Y70766D01*
D02*
G37*
G36*
X57043Y70780D02*
X56994Y70727D01*
X56951Y70671D01*
X56913Y70612D01*
X56880Y70549D01*
X56852Y70483D01*
X56830Y70414D01*
X56812Y70341D01*
X56800Y70265D01*
X56793Y70186D01*
X56791Y70103D01*
X56012Y70882D01*
X56095Y70884D01*
X56174Y70891D01*
X56250Y70903D01*
X56323Y70921D01*
X56392Y70943D01*
X56458Y70971D01*
X56521Y71004D01*
X56580Y71042D01*
X56637Y71085D01*
X56689Y71134D01*
X57043Y70780D01*
D02*
G37*
G36*
X110966Y73385D02*
X110846Y73383D01*
X110733Y73375D01*
X110627Y73362D01*
X110527Y73342D01*
X110433Y73317D01*
X110346Y73286D01*
X110265Y73249D01*
X110191Y73205D01*
X110123Y73156D01*
X110062Y73102D01*
X109708Y73455D01*
X109763Y73516D01*
X109812Y73584D01*
X109856Y73658D01*
X109893Y73739D01*
X109924Y73826D01*
X109949Y73919D01*
X109969Y74020D01*
X109982Y74126D01*
X109990Y74239D01*
X109992Y74359D01*
X110966Y73385D01*
D02*
G37*
G36*
X45926Y80647D02*
X45929Y80577D01*
X45937Y80507D01*
X45950Y80438D01*
X45969Y80368D01*
X45993Y80299D01*
X46022Y80230D01*
X46057Y80162D01*
X46098Y80093D01*
X46143Y80025D01*
X46194Y79957D01*
X45101Y80097D01*
X45162Y80147D01*
X45218Y80200D01*
X45267Y80256D01*
X45309Y80314D01*
X45345Y80374D01*
X45374Y80437D01*
X45397Y80503D01*
X45413Y80571D01*
X45423Y80641D01*
X45426Y80714D01*
X45926Y80647D01*
D02*
G37*
G36*
X118753Y79391D02*
X118760Y79304D01*
X118772Y79227D01*
X118790Y79160D01*
X118813Y79104D01*
X118840Y79058D01*
X118872Y79022D01*
X118910Y78996D01*
X118953Y78981D01*
X119000Y78976D01*
X118000D01*
X118047Y78981D01*
X118090Y78996D01*
X118128Y79022D01*
X118160Y79058D01*
X118187Y79104D01*
X118210Y79160D01*
X118228Y79227D01*
X118240Y79304D01*
X118247Y79391D01*
X118250Y79488D01*
X118750D01*
X118753Y79391D01*
D02*
G37*
G36*
X111266Y77785D02*
X111146Y77783D01*
X111033Y77775D01*
X110927Y77762D01*
X110827Y77742D01*
X110733Y77717D01*
X110646Y77686D01*
X110565Y77649D01*
X110491Y77605D01*
X110423Y77556D01*
X110362Y77501D01*
X110009Y77855D01*
X110063Y77916D01*
X110112Y77984D01*
X110156Y78058D01*
X110193Y78139D01*
X110224Y78226D01*
X110249Y78320D01*
X110269Y78420D01*
X110282Y78526D01*
X110290Y78640D01*
X110292Y78759D01*
X111266Y77785D01*
D02*
G37*
G36*
X71258Y86246D02*
X71334Y86245D01*
X71754Y86244D01*
Y85894D01*
X71253Y85892D01*
Y86246D01*
X71258Y86246D01*
D02*
G37*
G36*
X109362Y84740D02*
X109370Y84626D01*
X109383Y84520D01*
X109403Y84420D01*
X109428Y84326D01*
X109459Y84239D01*
X109496Y84158D01*
X109540Y84084D01*
X109589Y84016D01*
X109643Y83955D01*
X109290Y83601D01*
X109229Y83656D01*
X109161Y83705D01*
X109087Y83749D01*
X109006Y83786D01*
X108919Y83817D01*
X108826Y83842D01*
X108725Y83862D01*
X108619Y83875D01*
X108505Y83883D01*
X108386Y83885D01*
X109360Y84859D01*
X109362Y84740D01*
D02*
G37*
G36*
X95653Y80946D02*
X95299D01*
X95300Y80951D01*
X95300Y81027D01*
X95301Y81447D01*
X95651D01*
X95653Y80946D01*
D02*
G37*
G36*
X68929Y77516D02*
X68938Y77446D01*
X68953Y77377D01*
X68974Y77310D01*
X69001Y77243D01*
X69034Y77178D01*
X69074Y77114D01*
X69119Y77052D01*
X69170Y76991D01*
X69227Y76931D01*
X68125D01*
X68182Y76991D01*
X68233Y77052D01*
X68278Y77114D01*
X68318Y77178D01*
X68351Y77243D01*
X68378Y77310D01*
X68399Y77377D01*
X68414Y77446D01*
X68423Y77516D01*
X68426Y77588D01*
X68926D01*
X68929Y77516D01*
D02*
G37*
G36*
X100070Y74247D02*
X100019Y74186D01*
X99974Y74124D01*
X99934Y74060D01*
X99901Y73995D01*
X99874Y73928D01*
X99853Y73861D01*
X99838Y73792D01*
X99829Y73722D01*
X99826Y73650D01*
X99326D01*
X99323Y73722D01*
X99314Y73792D01*
X99299Y73861D01*
X99278Y73928D01*
X99251Y73995D01*
X99218Y74060D01*
X99178Y74124D01*
X99133Y74186D01*
X99082Y74247D01*
X99025Y74307D01*
X100127D01*
X100070Y74247D01*
D02*
G37*
G36*
X53893Y73929D02*
X53844Y73877D01*
X53801Y73820D01*
X53763Y73761D01*
X53730Y73698D01*
X53702Y73632D01*
X53680Y73563D01*
X53662Y73490D01*
X53650Y73414D01*
X53643Y73335D01*
X53641Y73252D01*
X52862Y74031D01*
X52945Y74033D01*
X53024Y74040D01*
X53100Y74052D01*
X53173Y74070D01*
X53242Y74092D01*
X53308Y74120D01*
X53371Y74153D01*
X53430Y74191D01*
X53487Y74234D01*
X53539Y74283D01*
X53893Y73929D01*
D02*
G37*
G36*
X9056Y74084D02*
X9037Y74043D01*
X9029Y73998D01*
X9031Y73950D01*
X9044Y73898D01*
X9068Y73842D01*
X9103Y73783D01*
X9148Y73720D01*
X9204Y73653D01*
X9271Y73582D01*
X8918Y73229D01*
X8847Y73296D01*
X8780Y73352D01*
X8717Y73397D01*
X8658Y73432D01*
X8602Y73456D01*
X8550Y73469D01*
X8502Y73471D01*
X8457Y73463D01*
X8416Y73444D01*
X8379Y73414D01*
X9086Y74121D01*
X9056Y74084D01*
D02*
G37*
G36*
X50744Y77079D02*
X50695Y77026D01*
X50652Y76970D01*
X50614Y76911D01*
X50581Y76848D01*
X50553Y76782D01*
X50531Y76713D01*
X50513Y76640D01*
X50501Y76564D01*
X50494Y76485D01*
X50492Y76402D01*
X49713Y77181D01*
X49796Y77183D01*
X49875Y77190D01*
X49951Y77202D01*
X50024Y77220D01*
X50093Y77242D01*
X50159Y77270D01*
X50222Y77303D01*
X50281Y77341D01*
X50337Y77384D01*
X50390Y77433D01*
X50744Y77079D01*
D02*
G37*
G36*
X45014Y76318D02*
X44954Y76375D01*
X44893Y76426D01*
X44831Y76471D01*
X44767Y76511D01*
X44702Y76544D01*
X44635Y76571D01*
X44568Y76592D01*
X44499Y76607D01*
X44429Y76616D01*
X44357Y76619D01*
Y77119D01*
X44429Y77122D01*
X44499Y77131D01*
X44568Y77146D01*
X44635Y77167D01*
X44702Y77194D01*
X44767Y77227D01*
X44831Y77267D01*
X44893Y77312D01*
X44954Y77363D01*
X45014Y77420D01*
Y76318D01*
D02*
G37*
G36*
X105030Y75029D02*
X105044Y74947D01*
X105066Y74864D01*
X105096Y74781D01*
X105136Y74697D01*
X105184Y74613D01*
X105241Y74528D01*
X105307Y74443D01*
X105382Y74358D01*
X105465Y74272D01*
X104087D01*
X104170Y74358D01*
X104245Y74443D01*
X104311Y74528D01*
X104368Y74613D01*
X104416Y74697D01*
X104456Y74781D01*
X104487Y74864D01*
X104508Y74947D01*
X104522Y75029D01*
X104526Y75112D01*
X105026D01*
X105030Y75029D01*
D02*
G37*
G36*
X123718Y94148D02*
Y69169D01*
X121307D01*
X120492Y69984D01*
Y72016D01*
X122484Y74008D01*
Y77992D01*
X120492Y79984D01*
X119758D01*
Y89669D01*
X119663Y90151D01*
X119390Y90559D01*
X118034Y91914D01*
Y93348D01*
X119390Y94703D01*
X119663Y95111D01*
X119758Y95593D01*
Y97454D01*
X120220Y97645D01*
X123718Y94148D01*
D02*
G37*
G36*
X53893Y51882D02*
X53844Y51829D01*
X53801Y51773D01*
X53763Y51714D01*
X53730Y51651D01*
X53702Y51585D01*
X53680Y51516D01*
X53662Y51443D01*
X53650Y51367D01*
X53643Y51288D01*
X53641Y51205D01*
X52862Y51984D01*
X52945Y51986D01*
X53024Y51993D01*
X53100Y52005D01*
X53173Y52022D01*
X53242Y52045D01*
X53308Y52073D01*
X53371Y52106D01*
X53430Y52144D01*
X53487Y52187D01*
X53539Y52236D01*
X53893Y51882D01*
D02*
G37*
G36*
X45930Y52180D02*
X45986Y52137D01*
X46046Y52099D01*
X46108Y52066D01*
X46174Y52039D01*
X46244Y52017D01*
X46316Y52001D01*
X46392Y51990D01*
X46471Y51984D01*
X46553Y51984D01*
X45789Y51190D01*
X45785Y51273D01*
X45777Y51353D01*
X45764Y51429D01*
X45746Y51502D01*
X45722Y51571D01*
X45694Y51637D01*
X45660Y51700D01*
X45622Y51759D01*
X45579Y51815D01*
X45530Y51868D01*
X45877Y52229D01*
X45930Y52180D01*
D02*
G37*
G36*
X47615Y48354D02*
X47566Y48302D01*
X47523Y48245D01*
X47485Y48186D01*
X47452Y48123D01*
X47424Y48057D01*
X47402Y47988D01*
X47384Y47915D01*
X47372Y47839D01*
X47365Y47760D01*
X47363Y47677D01*
X46584Y48456D01*
X46667Y48458D01*
X46746Y48465D01*
X46822Y48477D01*
X46895Y48495D01*
X46964Y48517D01*
X47030Y48545D01*
X47093Y48578D01*
X47152Y48616D01*
X47208Y48659D01*
X47261Y48708D01*
X47615Y48354D01*
D02*
G37*
G36*
X9493Y56453D02*
X9508Y56410D01*
X9533Y56372D01*
X9568Y56340D01*
X9613Y56313D01*
X9668Y56290D01*
X9733Y56273D01*
X9808Y56260D01*
X9893Y56252D01*
X9988Y56250D01*
Y55750D01*
X9893Y55747D01*
X9808Y55740D01*
X9733Y55727D01*
X9668Y55710D01*
X9613Y55687D01*
X9568Y55660D01*
X9533Y55628D01*
X9508Y55590D01*
X9493Y55547D01*
X9488Y55500D01*
Y56500D01*
X9493Y56453D01*
D02*
G37*
G36*
X53107Y55493D02*
X53116Y55423D01*
X53131Y55354D01*
X53152Y55286D01*
X53179Y55220D01*
X53212Y55155D01*
X53252Y55091D01*
X53297Y55029D01*
X53348Y54968D01*
X53405Y54908D01*
X52303D01*
X52360Y54968D01*
X52411Y55029D01*
X52456Y55091D01*
X52496Y55155D01*
X52529Y55220D01*
X52556Y55286D01*
X52577Y55354D01*
X52592Y55423D01*
X52601Y55493D01*
X52604Y55565D01*
X53104D01*
X53107Y55493D01*
D02*
G37*
G36*
X37982Y53480D02*
X37907Y53395D01*
X37841Y53310D01*
X37784Y53225D01*
X37736Y53141D01*
X37696Y53057D01*
X37666Y52974D01*
X37644Y52891D01*
X37630Y52809D01*
X37626Y52727D01*
X37126D01*
X37122Y52809D01*
X37108Y52891D01*
X37086Y52974D01*
X37056Y53057D01*
X37016Y53141D01*
X36968Y53225D01*
X36911Y53310D01*
X36845Y53395D01*
X36770Y53480D01*
X36687Y53566D01*
X38065D01*
X37982Y53480D01*
D02*
G37*
G36*
X9493Y26452D02*
X9508Y26410D01*
X9533Y26373D01*
X9568Y26340D01*
X9613Y26313D01*
X9668Y26290D01*
X9733Y26272D01*
X9808Y26260D01*
X9893Y26252D01*
X9988Y26250D01*
Y25750D01*
X9893Y25747D01*
X9808Y25740D01*
X9733Y25727D01*
X9668Y25710D01*
X9613Y25688D01*
X9568Y25660D01*
X9533Y25627D01*
X9508Y25590D01*
X9493Y25548D01*
X9488Y25500D01*
Y26500D01*
X9493Y26452D01*
D02*
G37*
G36*
X26807Y24703D02*
X26833Y24442D01*
X26878Y24190D01*
X26943Y23945D01*
X27027Y23709D01*
X27131Y23482D01*
X27253Y23263D01*
X27395Y23052D01*
X27557Y22849D01*
X27738Y22655D01*
X26346Y21262D01*
X26151Y21443D01*
X25948Y21604D01*
X25737Y21746D01*
X25518Y21869D01*
X25291Y21973D01*
X25055Y22057D01*
X24810Y22121D01*
X24558Y22167D01*
X24297Y22193D01*
X24028Y22200D01*
X26800Y24972D01*
X26807Y24703D01*
D02*
G37*
G36*
X130995Y14040D02*
X130971Y14225D01*
X130897Y14391D01*
X130774Y14538D01*
X130603Y14664D01*
X130382Y14772D01*
X130112Y14860D01*
X129794Y14928D01*
X129426Y14977D01*
X129009Y15006D01*
X128543Y15016D01*
Y16984D01*
X129009Y16994D01*
X129794Y17072D01*
X130112Y17140D01*
X130382Y17228D01*
X130603Y17335D01*
X130774Y17462D01*
X130897Y17609D01*
X130971Y17775D01*
X130995Y17960D01*
Y14040D01*
D02*
G37*
G36*
X9493Y46453D02*
X9508Y46410D01*
X9533Y46373D01*
X9568Y46340D01*
X9613Y46312D01*
X9668Y46290D01*
X9733Y46273D01*
X9808Y46260D01*
X9893Y46253D01*
X9988Y46250D01*
Y45750D01*
X9893Y45748D01*
X9808Y45740D01*
X9733Y45728D01*
X9668Y45710D01*
X9613Y45687D01*
X9568Y45660D01*
X9533Y45627D01*
X9508Y45590D01*
X9493Y45548D01*
X9488Y45500D01*
Y46500D01*
X9493Y46453D01*
D02*
G37*
G36*
Y36452D02*
X9508Y36410D01*
X9533Y36373D01*
X9568Y36340D01*
X9613Y36312D01*
X9668Y36290D01*
X9733Y36272D01*
X9808Y36260D01*
X9893Y36252D01*
X9988Y36250D01*
Y35750D01*
X9893Y35748D01*
X9808Y35740D01*
X9733Y35728D01*
X9668Y35710D01*
X9613Y35688D01*
X9568Y35660D01*
X9533Y35627D01*
X9508Y35590D01*
X9493Y35548D01*
X9488Y35500D01*
Y36500D01*
X9493Y36452D01*
D02*
G37*
G36*
X88976Y28969D02*
X87776Y27769D01*
X78676D01*
Y29669D01*
X78776Y29769D01*
X88276D01*
X88976Y28969D01*
D02*
G37*
G36*
X131153Y58704D02*
X131220Y58648D01*
X131283Y58603D01*
X131342Y58568D01*
X131398Y58544D01*
X131450Y58531D01*
X131498Y58529D01*
X131543Y58537D01*
X131584Y58556D01*
X131621Y58586D01*
X130914Y57879D01*
X130944Y57916D01*
X130963Y57957D01*
X130972Y58002D01*
X130969Y58050D01*
X130956Y58102D01*
X130932Y58158D01*
X130897Y58217D01*
X130852Y58280D01*
X130796Y58347D01*
X130729Y58418D01*
X131082Y58771D01*
X131153Y58704D01*
D02*
G37*
G36*
X87753Y68093D02*
X87762Y68022D01*
X87777Y67953D01*
X87798Y67886D01*
X87825Y67819D01*
X87858Y67754D01*
X87898Y67690D01*
X87943Y67628D01*
X87994Y67567D01*
X88051Y67507D01*
X86949D01*
X87006Y67567D01*
X87057Y67628D01*
X87102Y67690D01*
X87142Y67754D01*
X87175Y67819D01*
X87202Y67886D01*
X87223Y67953D01*
X87238Y68022D01*
X87247Y68093D01*
X87250Y68164D01*
X87750D01*
X87753Y68093D01*
D02*
G37*
G36*
X52846Y66158D02*
X52763Y66156D01*
X52684Y66149D01*
X52608Y66137D01*
X52535Y66119D01*
X52466Y66097D01*
X52400Y66069D01*
X52337Y66036D01*
X52278Y65998D01*
X52222Y65955D01*
X52169Y65906D01*
X51815Y66260D01*
X51864Y66313D01*
X51907Y66369D01*
X51945Y66428D01*
X51978Y66491D01*
X52006Y66557D01*
X52028Y66626D01*
X52046Y66699D01*
X52058Y66775D01*
X52065Y66855D01*
X52067Y66937D01*
X52846Y66158D01*
D02*
G37*
G36*
X110582Y64380D02*
X110507Y64295D01*
X110441Y64210D01*
X110384Y64125D01*
X110336Y64041D01*
X110296Y63957D01*
X110266Y63874D01*
X110244Y63791D01*
X110230Y63709D01*
X110226Y63626D01*
X109726D01*
X109722Y63709D01*
X109708Y63791D01*
X109687Y63874D01*
X109656Y63957D01*
X109616Y64041D01*
X109568Y64125D01*
X109511Y64210D01*
X109445Y64295D01*
X109370Y64380D01*
X109287Y64466D01*
X110665D01*
X110582Y64380D01*
D02*
G37*
G36*
X99068Y69282D02*
X98985Y69280D01*
X98906Y69273D01*
X98830Y69261D01*
X98757Y69243D01*
X98688Y69221D01*
X98622Y69193D01*
X98559Y69160D01*
X98500Y69122D01*
X98444Y69079D01*
X98391Y69030D01*
X98037Y69384D01*
X98086Y69437D01*
X98129Y69493D01*
X98167Y69552D01*
X98200Y69615D01*
X98228Y69681D01*
X98250Y69750D01*
X98268Y69823D01*
X98280Y69899D01*
X98287Y69978D01*
X98289Y70061D01*
X99068Y69282D01*
D02*
G37*
G36*
X116153Y68704D02*
X116220Y68648D01*
X116283Y68603D01*
X116342Y68568D01*
X116398Y68544D01*
X116450Y68531D01*
X116498Y68528D01*
X116543Y68537D01*
X116584Y68556D01*
X116621Y68586D01*
X115914Y67879D01*
X115944Y67916D01*
X115963Y67957D01*
X115972Y68002D01*
X115969Y68050D01*
X115956Y68102D01*
X115932Y68158D01*
X115897Y68217D01*
X115852Y68280D01*
X115796Y68347D01*
X115729Y68418D01*
X116082Y68771D01*
X116153Y68704D01*
D02*
G37*
G36*
X75155Y68093D02*
X75164Y68022D01*
X75179Y67953D01*
X75200Y67886D01*
X75227Y67819D01*
X75260Y67754D01*
X75300Y67690D01*
X75345Y67628D01*
X75396Y67567D01*
X75453Y67507D01*
X74351D01*
X74408Y67567D01*
X74459Y67628D01*
X74504Y67690D01*
X74544Y67754D01*
X74577Y67819D01*
X74604Y67886D01*
X74625Y67953D01*
X74640Y68022D01*
X74649Y68093D01*
X74652Y68164D01*
X75152D01*
X75155Y68093D01*
D02*
G37*
G36*
X113823Y62082D02*
X113891Y62033D01*
X113965Y61989D01*
X114046Y61952D01*
X114133Y61921D01*
X114226Y61896D01*
X114327Y61876D01*
X114433Y61863D01*
X114547Y61855D01*
X114666Y61853D01*
X113692Y60879D01*
X113690Y60998D01*
X113682Y61112D01*
X113669Y61218D01*
X113649Y61318D01*
X113624Y61412D01*
X113593Y61499D01*
X113556Y61580D01*
X113512Y61654D01*
X113463Y61722D01*
X113409Y61783D01*
X113762Y62137D01*
X113823Y62082D01*
D02*
G37*
G36*
X121271Y58418D02*
X121204Y58347D01*
X121148Y58280D01*
X121103Y58217D01*
X121068Y58158D01*
X121044Y58102D01*
X121031Y58050D01*
X121028Y58002D01*
X121037Y57957D01*
X121056Y57916D01*
X121086Y57879D01*
X120379Y58586D01*
X120416Y58556D01*
X120457Y58537D01*
X120502Y58529D01*
X120550Y58531D01*
X120602Y58544D01*
X120658Y58568D01*
X120717Y58603D01*
X120780Y58648D01*
X120847Y58704D01*
X120918Y58771D01*
X121271Y58418D01*
D02*
G37*
G36*
X61314Y63618D02*
X61254Y63675D01*
X61193Y63726D01*
X61131Y63771D01*
X61067Y63811D01*
X61002Y63844D01*
X60935Y63871D01*
X60868Y63892D01*
X60799Y63907D01*
X60729Y63916D01*
X60657Y63919D01*
Y64419D01*
X60729Y64422D01*
X60799Y64431D01*
X60868Y64446D01*
X60935Y64467D01*
X61002Y64494D01*
X61067Y64527D01*
X61131Y64567D01*
X61193Y64612D01*
X61254Y64663D01*
X61314Y64720D01*
Y63618D01*
D02*
G37*
G36*
X9056Y64084D02*
X9037Y64043D01*
X9029Y63998D01*
X9031Y63950D01*
X9044Y63898D01*
X9068Y63842D01*
X9103Y63783D01*
X9148Y63720D01*
X9204Y63653D01*
X9271Y63582D01*
X8918Y63229D01*
X8847Y63296D01*
X8780Y63352D01*
X8717Y63397D01*
X8658Y63432D01*
X8602Y63456D01*
X8550Y63469D01*
X8502Y63472D01*
X8457Y63463D01*
X8416Y63444D01*
X8379Y63414D01*
X9086Y64121D01*
X9056Y64084D01*
D02*
G37*
G36*
X108366Y86885D02*
X108247Y86883D01*
X108133Y86875D01*
X108027Y86862D01*
X107926Y86842D01*
X107833Y86817D01*
X107746Y86786D01*
X107665Y86749D01*
X107591Y86705D01*
X107523Y86656D01*
X107462Y86602D01*
X107108Y86955D01*
X107163Y87016D01*
X107212Y87084D01*
X107256Y87158D01*
X107293Y87239D01*
X107324Y87326D01*
X107349Y87419D01*
X107369Y87520D01*
X107382Y87626D01*
X107390Y87739D01*
X107392Y87859D01*
X108366Y86885D01*
D02*
G37*
G36*
X132023Y125982D02*
X132091Y125933D01*
X132165Y125889D01*
X132246Y125852D01*
X132333Y125821D01*
X132427Y125796D01*
X132527Y125776D01*
X132633Y125763D01*
X132747Y125755D01*
X132866Y125753D01*
X131892Y124779D01*
X131890Y124899D01*
X131882Y125012D01*
X131869Y125118D01*
X131849Y125218D01*
X131824Y125312D01*
X131793Y125399D01*
X131756Y125480D01*
X131712Y125554D01*
X131663Y125622D01*
X131608Y125683D01*
X131962Y126037D01*
X132023Y125982D01*
D02*
G37*
G36*
X82591Y127034D02*
X82652Y126983D01*
X82715Y126938D01*
X82779Y126899D01*
X82844Y126866D01*
X82910Y126839D01*
X82978Y126818D01*
X83047Y126803D01*
X83117Y126794D01*
X83189Y126790D01*
Y126291D01*
X83117Y126287D01*
X83047Y126278D01*
X82978Y126263D01*
X82910Y126242D01*
X82844Y126215D01*
X82779Y126182D01*
X82715Y126143D01*
X82652Y126098D01*
X82591Y126047D01*
X82532Y125989D01*
Y127092D01*
X82591Y127034D01*
D02*
G37*
G36*
X128773Y124080D02*
X128687Y124163D01*
X128602Y124238D01*
X128517Y124304D01*
X128432Y124361D01*
X128348Y124409D01*
X128264Y124449D01*
X128181Y124479D01*
X128098Y124501D01*
X128016Y124515D01*
X127934Y124519D01*
Y125019D01*
X128016Y125023D01*
X128098Y125037D01*
X128181Y125058D01*
X128264Y125089D01*
X128348Y125129D01*
X128432Y125177D01*
X128517Y125234D01*
X128602Y125300D01*
X128687Y125375D01*
X128773Y125458D01*
Y124080D01*
D02*
G37*
G36*
X104630Y125529D02*
X104644Y125447D01*
X104666Y125364D01*
X104696Y125281D01*
X104736Y125197D01*
X104784Y125113D01*
X104841Y125028D01*
X104907Y124943D01*
X104982Y124858D01*
X105065Y124772D01*
X103687D01*
X103770Y124858D01*
X103845Y124943D01*
X103911Y125028D01*
X103968Y125113D01*
X104016Y125197D01*
X104056Y125281D01*
X104086Y125364D01*
X104108Y125447D01*
X104122Y125529D01*
X104126Y125611D01*
X104626D01*
X104630Y125529D01*
D02*
G37*
G36*
X74529Y127692D02*
X74538Y127622D01*
X74554Y127553D01*
X74575Y127485D01*
X74602Y127420D01*
X74636Y127355D01*
X74676Y127293D01*
X74722Y127231D01*
X74774Y127172D01*
X74832Y127113D01*
X73730Y127090D01*
X73786Y127151D01*
X73836Y127214D01*
X73881Y127277D01*
X73919Y127342D01*
X73952Y127407D01*
X73979Y127474D01*
X73999Y127542D01*
X74014Y127611D01*
X74023Y127682D01*
X74026Y127753D01*
X74526Y127764D01*
X74529Y127692D01*
D02*
G37*
G36*
X52756Y133056D02*
X52772Y132981D01*
X52797Y132903D01*
X52833Y132822D01*
X52880Y132738D01*
X52936Y132651D01*
X53003Y132561D01*
X53080Y132467D01*
X53265Y132272D01*
X51887D01*
X51985Y132371D01*
X52149Y132561D01*
X52216Y132651D01*
X52272Y132738D01*
X52319Y132822D01*
X52355Y132903D01*
X52380Y132981D01*
X52396Y133056D01*
X52401Y133128D01*
X52751D01*
X52756Y133056D01*
D02*
G37*
G36*
X58877Y136825D02*
X58934Y136779D01*
X58998Y136731D01*
X59152Y136633D01*
X59338Y136530D01*
X59677Y136368D01*
X58392Y135902D01*
X58433Y135994D01*
X58462Y136083D01*
X58480Y136170D01*
X58487Y136253D01*
X58483Y136334D01*
X58468Y136412D01*
X58442Y136487D01*
X58404Y136559D01*
X58356Y136628D01*
X58297Y136695D01*
X58828Y136870D01*
X58877Y136825D01*
D02*
G37*
G36*
X100682Y128120D02*
X100607Y128035D01*
X100541Y127950D01*
X100484Y127865D01*
X100436Y127781D01*
X100396Y127697D01*
X100365Y127614D01*
X100344Y127531D01*
X100330Y127448D01*
X100326Y127366D01*
X99826D01*
X99822Y127448D01*
X99808Y127531D01*
X99787Y127614D01*
X99756Y127697D01*
X99716Y127781D01*
X99668Y127865D01*
X99611Y127950D01*
X99545Y128035D01*
X99470Y128120D01*
X99387Y128206D01*
X100765D01*
X100682Y128120D01*
D02*
G37*
G36*
X95870Y128747D02*
X95819Y128686D01*
X95774Y128624D01*
X95734Y128560D01*
X95701Y128495D01*
X95674Y128428D01*
X95653Y128361D01*
X95638Y128292D01*
X95629Y128222D01*
X95626Y128150D01*
X95126D01*
X95123Y128222D01*
X95114Y128292D01*
X95099Y128361D01*
X95078Y128428D01*
X95051Y128495D01*
X95018Y128560D01*
X94978Y128624D01*
X94933Y128686D01*
X94882Y128747D01*
X94825Y128807D01*
X95927D01*
X95870Y128747D01*
D02*
G37*
G36*
X110565Y121975D02*
X110650Y121900D01*
X110735Y121834D01*
X110820Y121777D01*
X110904Y121729D01*
X110988Y121689D01*
X111071Y121659D01*
X111154Y121637D01*
X111236Y121623D01*
X111319Y121619D01*
Y121119D01*
X111236Y121115D01*
X111154Y121101D01*
X111071Y121080D01*
X110988Y121049D01*
X110904Y121009D01*
X110820Y120961D01*
X110735Y120904D01*
X110650Y120838D01*
X110565Y120763D01*
X110479Y120680D01*
Y122058D01*
X110565Y121975D01*
D02*
G37*
G36*
X89576Y121719D02*
X89326Y121469D01*
X89323Y121473D01*
X89269Y121527D01*
X88973Y121825D01*
X89220Y122073D01*
X89576Y121719D01*
D02*
G37*
G36*
X84520Y120634D02*
X84417Y120633D01*
X84231Y120617D01*
X84148Y120603D01*
X84070Y120583D01*
X83999Y120560D01*
X83933Y120532D01*
X83874Y120499D01*
X83821Y120462D01*
X83781Y120427D01*
X83531Y120175D01*
X83281Y120425D01*
X83285Y120429D01*
X83339Y120482D01*
X83530Y120671D01*
X83568Y120715D01*
X83605Y120768D01*
X83638Y120827D01*
X83666Y120893D01*
X83689Y120964D01*
X83709Y121042D01*
X83723Y121125D01*
X83733Y121215D01*
X83739Y121311D01*
X83740Y121414D01*
X84520Y120634D01*
D02*
G37*
G36*
X87877Y121264D02*
X87884Y121184D01*
X87896Y121108D01*
X87913Y121036D01*
X87936Y120966D01*
X87963Y120900D01*
X87996Y120837D01*
X88034Y120778D01*
X88078Y120722D01*
X88126Y120669D01*
X87773Y120316D01*
X87720Y120364D01*
X87664Y120407D01*
X87604Y120446D01*
X87542Y120478D01*
X87476Y120506D01*
X87406Y120529D01*
X87334Y120546D01*
X87257Y120558D01*
X87178Y120565D01*
X87095Y120567D01*
X87875Y121346D01*
X87877Y121264D01*
D02*
G37*
G36*
X77864Y122557D02*
X77859Y122558D01*
X77783Y122558D01*
X77363Y122559D01*
Y122909D01*
X77864Y122911D01*
Y122557D01*
D02*
G37*
G36*
X87710Y124474D02*
X87771Y124422D01*
X87833Y124377D01*
X87897Y124338D01*
X87962Y124305D01*
X88028Y124278D01*
X88096Y124257D01*
X88165Y124241D01*
X88235Y124232D01*
X88307Y124230D01*
Y123730D01*
X88235Y123726D01*
X88165Y123717D01*
X88096Y123702D01*
X88028Y123681D01*
X87962Y123654D01*
X87897Y123621D01*
X87833Y123582D01*
X87771Y123537D01*
X87710Y123486D01*
X87650Y123428D01*
Y124531D01*
X87710Y124474D01*
D02*
G37*
G36*
X82970Y124734D02*
X82929Y124687D01*
X82892Y124634D01*
X82859Y124575D01*
X82831Y124510D01*
X82808Y124438D01*
X82788Y124361D01*
X82774Y124277D01*
X82764Y124187D01*
X82758Y124091D01*
X82757Y123988D01*
X81977Y124768D01*
X82080Y124769D01*
X82266Y124785D01*
X82349Y124800D01*
X82427Y124819D01*
X82499Y124842D01*
X82564Y124870D01*
X82623Y124903D01*
X82676Y124940D01*
X82723Y124981D01*
X82970Y124734D01*
D02*
G37*
G36*
X91864Y123132D02*
X91613Y122881D01*
X91610Y122886D01*
X91557Y122940D01*
X91260Y123238D01*
X91507Y123485D01*
X91864Y123132D01*
D02*
G37*
G36*
X85317Y123870D02*
X85333Y123684D01*
X85347Y123600D01*
X85366Y123523D01*
X85390Y123451D01*
X85418Y123386D01*
X85451Y123327D01*
X85488Y123274D01*
X85529Y123227D01*
X85282Y122980D01*
X85235Y123021D01*
X85182Y123058D01*
X85123Y123091D01*
X85057Y123119D01*
X84986Y123143D01*
X84908Y123161D01*
X84825Y123176D01*
X84735Y123186D01*
X84639Y123192D01*
X84536Y123193D01*
X85316Y123973D01*
X85317Y123870D01*
D02*
G37*
G36*
X71597Y158980D02*
X71523Y158895D01*
X71457Y158810D01*
X71400Y158725D01*
X71351Y158641D01*
X71312Y158557D01*
X71281Y158474D01*
X71259Y158391D01*
X71246Y158309D01*
X71242Y158227D01*
X70742D01*
X70737Y158309D01*
X70724Y158391D01*
X70702Y158474D01*
X70671Y158557D01*
X70632Y158641D01*
X70584Y158725D01*
X70527Y158810D01*
X70461Y158895D01*
X70386Y158980D01*
X70303Y159066D01*
X71681D01*
X71597Y158980D01*
D02*
G37*
G36*
X79482D02*
X79407Y158895D01*
X79341Y158810D01*
X79284Y158725D01*
X79236Y158641D01*
X79196Y158557D01*
X79166Y158474D01*
X79144Y158391D01*
X79130Y158309D01*
X79126Y158227D01*
X78626D01*
X78622Y158309D01*
X78608Y158391D01*
X78587Y158474D01*
X78556Y158557D01*
X78516Y158641D01*
X78468Y158725D01*
X78411Y158810D01*
X78345Y158895D01*
X78270Y158980D01*
X78187Y159066D01*
X79565D01*
X79482Y158980D01*
D02*
G37*
G36*
X66104Y147640D02*
X66112Y147526D01*
X66126Y147420D01*
X66145Y147319D01*
X66171Y147226D01*
X66202Y147139D01*
X66239Y147058D01*
X66282Y146984D01*
X66331Y146916D01*
X66386Y146855D01*
X66032Y146502D01*
X65971Y146556D01*
X65904Y146605D01*
X65829Y146649D01*
X65749Y146686D01*
X65662Y146717D01*
X65568Y146742D01*
X65468Y146762D01*
X65361Y146775D01*
X65248Y146783D01*
X65128Y146785D01*
X66103Y147759D01*
X66104Y147640D01*
D02*
G37*
G36*
X67682Y158980D02*
X67607Y158895D01*
X67541Y158810D01*
X67484Y158725D01*
X67436Y158641D01*
X67396Y158557D01*
X67365Y158474D01*
X67344Y158391D01*
X67330Y158309D01*
X67326Y158227D01*
X66826D01*
X66822Y158309D01*
X66808Y158391D01*
X66786Y158474D01*
X66756Y158557D01*
X66716Y158641D01*
X66668Y158725D01*
X66611Y158810D01*
X66545Y158895D01*
X66470Y158980D01*
X66387Y159066D01*
X67765D01*
X67682Y158980D01*
D02*
G37*
G36*
X87576Y160269D02*
X87076Y159769D01*
Y158969D01*
X86276D01*
X84176Y161069D01*
X85076Y161969D01*
X85876D01*
X87576Y160269D01*
D02*
G37*
G36*
X64104Y162339D02*
X64111Y162226D01*
X64125Y162120D01*
X64144Y162020D01*
X64170Y161926D01*
X64201Y161839D01*
X64238Y161758D01*
X64281Y161684D01*
X64330Y161616D01*
X64385Y161555D01*
X64032Y161202D01*
X63971Y161256D01*
X63903Y161305D01*
X63829Y161349D01*
X63748Y161386D01*
X63661Y161417D01*
X63567Y161442D01*
X63467Y161462D01*
X63360Y161475D01*
X63247Y161483D01*
X63128Y161485D01*
X64102Y162459D01*
X64104Y162339D01*
D02*
G37*
G36*
X68041D02*
X68048Y162226D01*
X68062Y162120D01*
X68081Y162020D01*
X68107Y161926D01*
X68138Y161839D01*
X68175Y161758D01*
X68218Y161684D01*
X68267Y161616D01*
X68322Y161555D01*
X67969Y161202D01*
X67908Y161256D01*
X67840Y161305D01*
X67766Y161349D01*
X67685Y161386D01*
X67598Y161417D01*
X67504Y161442D01*
X67404Y161462D01*
X67297Y161475D01*
X67184Y161483D01*
X67065Y161485D01*
X68039Y162459D01*
X68041Y162339D01*
D02*
G37*
G36*
X50529Y139665D02*
X50583Y139611D01*
X50880Y139313D01*
X50632Y139066D01*
X50276Y139419D01*
X50526Y139669D01*
X50529Y139665D01*
D02*
G37*
G36*
X78562Y142432D02*
X78570Y142319D01*
X78583Y142212D01*
X78603Y142112D01*
X78628Y142018D01*
X78659Y141931D01*
X78696Y141850D01*
X78740Y141776D01*
X78789Y141709D01*
X78843Y141648D01*
X78490Y141294D01*
X78429Y141349D01*
X78361Y141398D01*
X78287Y141441D01*
X78206Y141478D01*
X78119Y141509D01*
X78026Y141535D01*
X77925Y141554D01*
X77819Y141568D01*
X77706Y141576D01*
X77586Y141577D01*
X78560Y142552D01*
X78562Y142432D01*
D02*
G37*
G36*
X50123Y137282D02*
X50191Y137232D01*
X50265Y137189D01*
X50346Y137152D01*
X50433Y137121D01*
X50526Y137096D01*
X50627Y137076D01*
X50733Y137063D01*
X50846Y137055D01*
X50966Y137053D01*
X49992Y136079D01*
X49990Y136198D01*
X49982Y136312D01*
X49969Y136418D01*
X49949Y136519D01*
X49924Y136612D01*
X49893Y136699D01*
X49856Y136780D01*
X49812Y136854D01*
X49763Y136922D01*
X49709Y136983D01*
X50062Y137337D01*
X50123Y137282D01*
D02*
G37*
G36*
X53559Y138547D02*
X53628Y138498D01*
X53701Y138460D01*
X53778Y138433D01*
X53858Y138415D01*
X53942Y138408D01*
X54029Y138412D01*
X54120Y138425D01*
X54215Y138450D01*
X54313Y138484D01*
X53754Y137225D01*
X53705Y137352D01*
X53513Y137775D01*
X53466Y137859D01*
X53373Y138002D01*
X53327Y138060D01*
X53282Y138110D01*
X53493Y138605D01*
X53559Y138547D01*
D02*
G37*
G36*
X60618Y142642D02*
X60589Y142553D01*
X60571Y142467D01*
X60564Y142383D01*
X60567Y142303D01*
X60583Y142225D01*
X60609Y142150D01*
X60646Y142078D01*
X60694Y142008D01*
X60754Y141942D01*
X60221Y141768D01*
X60172Y141813D01*
X60116Y141859D01*
X59978Y141955D01*
X59897Y142005D01*
X59607Y142161D01*
X59374Y142271D01*
X60659Y142734D01*
X60618Y142642D01*
D02*
G37*
G36*
X98176Y147569D02*
Y145469D01*
X96576D01*
X96476Y145369D01*
X96376Y145469D01*
Y147669D01*
X98076D01*
X98176Y147569D01*
D02*
G37*
G36*
X59203Y146785D02*
X59083Y146783D01*
X58970Y146775D01*
X58864Y146762D01*
X58763Y146742D01*
X58670Y146717D01*
X58583Y146686D01*
X58502Y146649D01*
X58428Y146605D01*
X58360Y146556D01*
X58299Y146502D01*
X57946Y146855D01*
X58000Y146916D01*
X58049Y146984D01*
X58093Y147058D01*
X58130Y147139D01*
X58161Y147226D01*
X58186Y147319D01*
X58206Y147420D01*
X58219Y147526D01*
X58227Y147640D01*
X58229Y147759D01*
X59203Y146785D01*
D02*
G37*
G36*
X56222Y143040D02*
X56230Y142926D01*
X56243Y142820D01*
X56263Y142719D01*
X56288Y142626D01*
X56319Y142539D01*
X56357Y142458D01*
X56400Y142384D01*
X56449Y142316D01*
X56504Y142255D01*
X56150Y141902D01*
X56089Y141956D01*
X56021Y142005D01*
X55947Y142049D01*
X55867Y142086D01*
X55779Y142117D01*
X55686Y142142D01*
X55586Y142162D01*
X55479Y142175D01*
X55366Y142183D01*
X55246Y142185D01*
X56220Y143159D01*
X56222Y143040D01*
D02*
G37*
G36*
X70283Y144083D02*
X70228Y144022D01*
X70179Y143954D01*
X70136Y143880D01*
X70099Y143799D01*
X70068Y143712D01*
X70042Y143619D01*
X70023Y143518D01*
X70009Y143412D01*
X70002Y143298D01*
X70000Y143179D01*
X69026Y144153D01*
X69145Y144155D01*
X69258Y144163D01*
X69365Y144176D01*
X69465Y144196D01*
X69559Y144221D01*
X69646Y144252D01*
X69727Y144289D01*
X69801Y144333D01*
X69869Y144382D01*
X69930Y144437D01*
X70283Y144083D01*
D02*
G37*
G36*
X78703Y99349D02*
X78756Y99312D01*
X78815Y99279D01*
X78881Y99251D01*
X78952Y99227D01*
X79030Y99208D01*
X79113Y99194D01*
X79203Y99184D01*
X79299Y99178D01*
X79402Y99177D01*
X78622Y98397D01*
X78621Y98500D01*
X78605Y98686D01*
X78591Y98769D01*
X78571Y98847D01*
X78548Y98918D01*
X78520Y98984D01*
X78487Y99043D01*
X78450Y99096D01*
X78409Y99143D01*
X78656Y99390D01*
X78703Y99349D01*
D02*
G37*
G36*
X62622Y99977D02*
X62633Y99965D01*
X62972Y99620D01*
X62725Y99373D01*
X62363Y99726D01*
X62619Y99982D01*
X62622Y99977D01*
D02*
G37*
G36*
X84520Y97602D02*
X84417Y97601D01*
X84231Y97585D01*
X84148Y97571D01*
X84070Y97551D01*
X83999Y97528D01*
X83933Y97500D01*
X83874Y97467D01*
X83821Y97430D01*
X83774Y97389D01*
X83527Y97636D01*
X83568Y97683D01*
X83605Y97736D01*
X83638Y97795D01*
X83666Y97860D01*
X83689Y97932D01*
X83709Y98010D01*
X83723Y98093D01*
X83733Y98183D01*
X83739Y98279D01*
X83740Y98382D01*
X84520Y97602D01*
D02*
G37*
G36*
X67403Y98279D02*
X67419Y98093D01*
X67434Y98010D01*
X67453Y97932D01*
X67476Y97860D01*
X67504Y97795D01*
X67537Y97736D01*
X67574Y97683D01*
X67615Y97636D01*
X67368Y97389D01*
X67321Y97430D01*
X67268Y97467D01*
X67209Y97500D01*
X67143Y97528D01*
X67072Y97551D01*
X66994Y97571D01*
X66911Y97585D01*
X66821Y97595D01*
X66725Y97601D01*
X66622Y97602D01*
X67402Y98382D01*
X67403Y98279D01*
D02*
G37*
G36*
X85311Y100879D02*
X85314Y100800D01*
X85323Y100725D01*
X85337Y100653D01*
X85357Y100584D01*
X85383Y100519D01*
X85415Y100456D01*
X85452Y100396D01*
X85495Y100340D01*
X85544Y100286D01*
X85168Y99955D01*
X85116Y100003D01*
X85061Y100047D01*
X85001Y100085D01*
X84939Y100120D01*
X84873Y100149D01*
X84803Y100174D01*
X84730Y100195D01*
X84653Y100210D01*
X84573Y100222D01*
X84490Y100228D01*
X85314Y100960D01*
X85311Y100879D01*
D02*
G37*
G36*
X85316Y103397D02*
X85332Y103211D01*
X85347Y103128D01*
X85365Y103050D01*
X85389Y102979D01*
X85417Y102913D01*
X85450Y102854D01*
X85487Y102801D01*
X85528Y102754D01*
X85281Y102507D01*
X85234Y102548D01*
X85181Y102585D01*
X85122Y102618D01*
X85057Y102646D01*
X84985Y102670D01*
X84907Y102689D01*
X84824Y102703D01*
X84734Y102713D01*
X84638Y102719D01*
X84535Y102720D01*
X85315Y103500D01*
X85316Y103397D01*
D02*
G37*
G36*
X82148Y102192D02*
X82160Y102129D01*
X82178Y102064D01*
X82205Y101998D01*
X82239Y101931D01*
X82280Y101862D01*
X82329Y101793D01*
X82385Y101722D01*
X82449Y101650D01*
X82521Y101577D01*
X81418D01*
X81490Y101650D01*
X81610Y101793D01*
X81659Y101862D01*
X81700Y101931D01*
X81734Y101998D01*
X81761Y102064D01*
X81779Y102129D01*
X81791Y102192D01*
X81795Y102255D01*
X82144D01*
X82148Y102192D01*
D02*
G37*
G36*
X68453Y101946D02*
X68099D01*
X68099Y101951D01*
X68100Y102027D01*
X68101Y102447D01*
X68451D01*
X68453Y101946D01*
D02*
G37*
G36*
X51679Y91225D02*
X51326Y90869D01*
X51076Y91119D01*
X51080Y91123D01*
X51134Y91176D01*
X51432Y91473D01*
X51679Y91225D01*
D02*
G37*
G36*
X94570Y91847D02*
X94519Y91786D01*
X94474Y91724D01*
X94434Y91660D01*
X94401Y91595D01*
X94374Y91528D01*
X94353Y91461D01*
X94338Y91392D01*
X94329Y91322D01*
X94326Y91250D01*
X93826D01*
X93823Y91322D01*
X93814Y91392D01*
X93799Y91461D01*
X93778Y91528D01*
X93751Y91595D01*
X93718Y91660D01*
X93678Y91724D01*
X93633Y91786D01*
X93582Y91847D01*
X93525Y91907D01*
X94627D01*
X94570Y91847D01*
D02*
G37*
G36*
X106266Y88685D02*
X106147Y88683D01*
X106033Y88675D01*
X105927Y88662D01*
X105826Y88642D01*
X105733Y88617D01*
X105646Y88586D01*
X105565Y88549D01*
X105491Y88505D01*
X105423Y88456D01*
X105362Y88402D01*
X105008Y88755D01*
X105063Y88816D01*
X105112Y88884D01*
X105156Y88958D01*
X105193Y89039D01*
X105224Y89126D01*
X105249Y89219D01*
X105269Y89320D01*
X105282Y89426D01*
X105290Y89539D01*
X105292Y89659D01*
X106266Y88685D01*
D02*
G37*
G36*
X70458Y89046D02*
X70534Y89045D01*
X70955Y89044D01*
Y88694D01*
X70453Y88692D01*
Y89046D01*
X70458Y89046D01*
D02*
G37*
G36*
X83353Y91846D02*
X82999D01*
X82999Y91851D01*
X83000Y91927D01*
X83001Y92348D01*
X83351D01*
X83353Y91846D01*
D02*
G37*
G36*
X95653Y97587D02*
X95652Y97511D01*
X95651Y97091D01*
X95301D01*
X95299Y97592D01*
X95653D01*
X95653Y97587D01*
D02*
G37*
G36*
X82448Y97754D02*
X82328Y97611D01*
X82279Y97542D01*
X82237Y97473D01*
X82204Y97406D01*
X82177Y97340D01*
X82158Y97275D01*
X82147Y97212D01*
X82143Y97149D01*
X81793D01*
X81790Y97212D01*
X81778Y97275D01*
X81760Y97340D01*
X81733Y97406D01*
X81699Y97473D01*
X81658Y97542D01*
X81609Y97611D01*
X81553Y97682D01*
X81489Y97754D01*
X81417Y97827D01*
X82520D01*
X82448Y97754D01*
D02*
G37*
G36*
X92580Y92825D02*
X92226Y92469D01*
X91976Y92719D01*
X91980Y92722D01*
X92034Y92776D01*
X92332Y93072D01*
X92580Y92825D01*
D02*
G37*
G36*
X110830Y97729D02*
X110844Y97647D01*
X110865Y97564D01*
X110896Y97481D01*
X110936Y97397D01*
X110984Y97313D01*
X111041Y97228D01*
X111107Y97143D01*
X111182Y97058D01*
X111265Y96972D01*
X109887D01*
X109970Y97058D01*
X110045Y97143D01*
X110111Y97228D01*
X110168Y97313D01*
X110216Y97397D01*
X110256Y97481D01*
X110286Y97564D01*
X110308Y97647D01*
X110322Y97729D01*
X110326Y97812D01*
X110826D01*
X110830Y97729D01*
D02*
G37*
G36*
X87581Y118239D02*
X87530Y118178D01*
X87485Y118116D01*
X87446Y118052D01*
X87413Y117987D01*
X87386Y117921D01*
X87365Y117853D01*
X87350Y117784D01*
X87340Y117714D01*
X87337Y117642D01*
X86838D01*
X86835Y117714D01*
X86826Y117784D01*
X86810Y117853D01*
X86789Y117921D01*
X86762Y117987D01*
X86729Y118052D01*
X86690Y118116D01*
X86645Y118178D01*
X86594Y118239D01*
X86536Y118299D01*
X87639D01*
X87581Y118239D01*
D02*
G37*
G36*
X84586Y118075D02*
X84484Y118074D01*
X84298Y118058D01*
X84214Y118043D01*
X84137Y118024D01*
X84065Y118001D01*
X84000Y117973D01*
X83941Y117940D01*
X83888Y117903D01*
X83841Y117862D01*
X83594Y118109D01*
X83635Y118156D01*
X83672Y118209D01*
X83705Y118268D01*
X83733Y118333D01*
X83756Y118405D01*
X83775Y118482D01*
X83790Y118566D01*
X83800Y118656D01*
X83806Y118752D01*
X83807Y118855D01*
X84586Y118075D01*
D02*
G37*
G36*
X98530Y116329D02*
X98544Y116247D01*
X98566Y116164D01*
X98596Y116081D01*
X98636Y115997D01*
X98684Y115913D01*
X98741Y115828D01*
X98807Y115743D01*
X98882Y115658D01*
X98965Y115572D01*
X97587D01*
X97670Y115658D01*
X97745Y115743D01*
X97811Y115828D01*
X97868Y115913D01*
X97916Y115997D01*
X97956Y116081D01*
X97987Y116164D01*
X98008Y116247D01*
X98022Y116329D01*
X98026Y116411D01*
X98526D01*
X98530Y116329D01*
D02*
G37*
G36*
X53139Y117726D02*
X53215Y117726D01*
X53635Y117725D01*
Y117375D01*
X53133Y117373D01*
Y117727D01*
X53139Y117726D01*
D02*
G37*
G36*
X81414Y118318D02*
X81354Y118375D01*
X81293Y118426D01*
X81231Y118471D01*
X81167Y118511D01*
X81102Y118544D01*
X81036Y118571D01*
X80968Y118592D01*
X80899Y118607D01*
X80828Y118616D01*
X80757Y118619D01*
Y119119D01*
X80828Y119122D01*
X80899Y119131D01*
X80968Y119146D01*
X81036Y119167D01*
X81102Y119194D01*
X81167Y119227D01*
X81231Y119267D01*
X81293Y119312D01*
X81354Y119363D01*
X81414Y119420D01*
Y118318D01*
D02*
G37*
G36*
X62498Y119616D02*
X62457Y119569D01*
X62420Y119516D01*
X62387Y119457D01*
X62359Y119392D01*
X62336Y119320D01*
X62317Y119242D01*
X62302Y119159D01*
X62292Y119069D01*
X62286Y118973D01*
X62285Y118870D01*
X61505Y119650D01*
X61608Y119651D01*
X61794Y119667D01*
X61877Y119681D01*
X61955Y119701D01*
X62027Y119724D01*
X62092Y119752D01*
X62151Y119785D01*
X62204Y119822D01*
X62251Y119863D01*
X62498Y119616D01*
D02*
G37*
G36*
X88753Y119684D02*
X88752Y119608D01*
X88751Y119187D01*
X88401D01*
X88399Y119689D01*
X88753D01*
X88753Y119684D01*
D02*
G37*
G36*
X109091Y119961D02*
X109159Y119912D01*
X109234Y119869D01*
X109314Y119833D01*
X109401Y119804D01*
X109494Y119781D01*
X109593Y119764D01*
X109699Y119753D01*
X109811Y119749D01*
X109929Y119752D01*
X108992Y118742D01*
X108986Y118863D01*
X108958Y119085D01*
X108935Y119186D01*
X108908Y119280D01*
X108875Y119367D01*
X108837Y119448D01*
X108793Y119522D01*
X108744Y119589D01*
X108690Y119649D01*
X109029Y120017D01*
X109091Y119961D01*
D02*
G37*
G36*
X100962Y119939D02*
X100970Y119826D01*
X100983Y119720D01*
X101003Y119620D01*
X101028Y119526D01*
X101059Y119439D01*
X101096Y119358D01*
X101139Y119284D01*
X101189Y119216D01*
X101243Y119155D01*
X100890Y118801D01*
X100829Y118856D01*
X100761Y118905D01*
X100687Y118949D01*
X100606Y118986D01*
X100519Y119017D01*
X100426Y119042D01*
X100325Y119062D01*
X100219Y119075D01*
X100106Y119083D01*
X99986Y119085D01*
X100960Y120059D01*
X100962Y119939D01*
D02*
G37*
G36*
X100770Y108276D02*
X100820Y108050D01*
X100850Y107948D01*
X100884Y107853D01*
X100922Y107765D01*
X100963Y107685D01*
X101008Y107613D01*
X101057Y107547D01*
X101109Y107490D01*
X100809Y107083D01*
X100745Y107140D01*
X100676Y107188D01*
X100602Y107229D01*
X100522Y107263D01*
X100436Y107288D01*
X100346Y107305D01*
X100249Y107315D01*
X100147Y107317D01*
X100040Y107310D01*
X99927Y107296D01*
X100751Y108401D01*
X100770Y108276D01*
D02*
G37*
G36*
X87865Y103459D02*
X87880Y103273D01*
X87895Y103189D01*
X87914Y103111D01*
X87938Y103040D01*
X87966Y102975D01*
X87998Y102916D01*
X88035Y102863D01*
X88077Y102816D01*
X87829Y102568D01*
X87782Y102610D01*
X87729Y102647D01*
X87670Y102679D01*
X87605Y102707D01*
X87534Y102731D01*
X87456Y102750D01*
X87372Y102765D01*
X87282Y102775D01*
X87186Y102780D01*
X87084Y102782D01*
X87863Y103561D01*
X87865Y103459D01*
D02*
G37*
G36*
X55623Y104417D02*
X55676Y104380D01*
X55735Y104347D01*
X55800Y104319D01*
X55872Y104296D01*
X55950Y104277D01*
X56033Y104262D01*
X56123Y104252D01*
X56219Y104246D01*
X56322Y104245D01*
X55542Y103465D01*
X55541Y103568D01*
X55525Y103754D01*
X55511Y103838D01*
X55492Y103915D01*
X55468Y103987D01*
X55440Y104052D01*
X55407Y104111D01*
X55370Y104164D01*
X55329Y104211D01*
X55576Y104458D01*
X55623Y104417D01*
D02*
G37*
G36*
X52671Y107458D02*
X52746Y107457D01*
X53167Y107457D01*
Y107107D01*
X52665Y107105D01*
Y107458D01*
X52671Y107458D01*
D02*
G37*
G36*
X111243Y115783D02*
X111189Y115722D01*
X111140Y115654D01*
X111096Y115580D01*
X111059Y115499D01*
X111028Y115412D01*
X111003Y115319D01*
X110983Y115218D01*
X110970Y115112D01*
X110962Y114998D01*
X110960Y114879D01*
X109986Y115853D01*
X110106Y115855D01*
X110219Y115863D01*
X110325Y115876D01*
X110425Y115896D01*
X110519Y115921D01*
X110606Y115952D01*
X110687Y115989D01*
X110761Y116033D01*
X110829Y116082D01*
X110890Y116137D01*
X111243Y115783D01*
D02*
G37*
G36*
X88753Y115346D02*
X88399D01*
X88399Y115351D01*
X88400Y115427D01*
X88401Y115848D01*
X88751D01*
X88753Y115346D01*
D02*
G37*
G36*
X72532Y115879D02*
X72940Y115606D01*
X73422Y115511D01*
X78054D01*
X78194Y115395D01*
Y111014D01*
X77694Y110750D01*
X77528Y110861D01*
X77076Y110951D01*
X75676D01*
X75224Y110861D01*
X74840Y110605D01*
X74440Y110205D01*
X74184Y109821D01*
X74094Y109369D01*
Y108564D01*
X63432D01*
X62980Y108474D01*
X62596Y108217D01*
X61828Y107448D01*
X61571Y107065D01*
X61481Y106613D01*
Y106002D01*
X59014D01*
X58958Y106059D01*
Y106769D01*
X58947Y106822D01*
X59629Y106958D01*
X60215Y107349D01*
X60606Y107935D01*
X60744Y108626D01*
X60606Y109318D01*
X60365Y109679D01*
X60561Y110228D01*
X60736Y110263D01*
X61145Y110536D01*
X62060Y111451D01*
X62333Y111860D01*
X62429Y112341D01*
Y112734D01*
X62860Y113131D01*
X63061Y113171D01*
X63469Y113444D01*
X64385Y114360D01*
X64657Y114768D01*
X64753Y115250D01*
Y115752D01*
X65711Y116711D01*
X71701D01*
X72532Y115879D01*
D02*
G37*
G36*
X101430Y114129D02*
X101444Y114047D01*
X101465Y113964D01*
X101496Y113881D01*
X101536Y113797D01*
X101584Y113713D01*
X101641Y113628D01*
X101707Y113543D01*
X101782Y113458D01*
X101865Y113372D01*
X100487D01*
X100570Y113458D01*
X100645Y113543D01*
X100711Y113628D01*
X100768Y113713D01*
X100816Y113797D01*
X100856Y113881D01*
X100886Y113964D01*
X100908Y114047D01*
X100922Y114129D01*
X100926Y114211D01*
X101426D01*
X101430Y114129D01*
D02*
G37*
%LPC*%
G36*
X57046Y-11231D02*
X57006D01*
X56980Y-11238D01*
X56908Y-11251D01*
X56823Y-11270D01*
X56724Y-11310D01*
X56619Y-11369D01*
X56567Y-11408D01*
X56514Y-11447D01*
X56468Y-11500D01*
X56423Y-11559D01*
Y-11566D01*
X56409Y-11579D01*
X56396Y-11605D01*
X56377Y-11638D01*
X56357Y-11690D01*
X56331Y-11749D01*
X56311Y-11821D01*
X56285Y-11907D01*
X56259Y-12005D01*
X56232Y-12117D01*
X56206Y-12241D01*
X56186Y-12379D01*
X56167Y-12536D01*
X56154Y-12707D01*
X56147Y-12891D01*
X56141Y-13094D01*
Y-13107D01*
Y-13140D01*
Y-13199D01*
X56147Y-13278D01*
Y-13363D01*
X56154Y-13468D01*
X56160Y-13579D01*
X56173Y-13698D01*
X56206Y-13953D01*
X56226Y-14078D01*
X56252Y-14196D01*
X56278Y-14308D01*
X56318Y-14413D01*
X56357Y-14504D01*
X56403Y-14583D01*
Y-14590D01*
X56416Y-14596D01*
X56449Y-14642D01*
X56508Y-14701D01*
X56580Y-14767D01*
X56678Y-14832D01*
X56790Y-14891D01*
X56915Y-14937D01*
X56980Y-14944D01*
X57052Y-14951D01*
X57092D01*
X57118Y-14944D01*
X57183Y-14931D01*
X57275Y-14905D01*
X57374Y-14859D01*
X57485Y-14793D01*
X57538Y-14754D01*
X57590Y-14701D01*
X57643Y-14649D01*
X57695Y-14583D01*
Y-14577D01*
X57708Y-14563D01*
X57721Y-14544D01*
X57735Y-14511D01*
X57761Y-14465D01*
X57780Y-14406D01*
X57807Y-14340D01*
X57833Y-14262D01*
X57853Y-14163D01*
X57879Y-14058D01*
X57905Y-13934D01*
X57925Y-13803D01*
X57938Y-13645D01*
X57951Y-13481D01*
X57964Y-13297D01*
Y-13094D01*
Y-13088D01*
Y-13081D01*
Y-13048D01*
Y-12989D01*
X57958Y-12910D01*
Y-12825D01*
X57951Y-12720D01*
X57945Y-12609D01*
X57931Y-12484D01*
X57899Y-12235D01*
X57879Y-12110D01*
X57853Y-11992D01*
X57826Y-11880D01*
X57787Y-11776D01*
X57748Y-11684D01*
X57702Y-11605D01*
Y-11598D01*
X57689Y-11592D01*
X57675Y-11572D01*
X57656Y-11546D01*
X57597Y-11487D01*
X57525Y-11415D01*
X57426Y-11349D01*
X57315Y-11290D01*
X57256Y-11264D01*
X57190Y-11244D01*
X57118Y-11238D01*
X57046Y-11231D01*
D02*
G37*
%LPD*%
D44*
X28076Y65469D02*
X30776Y62769D01*
X44876Y52876D02*
X46576Y51176D01*
X45676Y79469D02*
Y88324D01*
X100076Y125769D02*
X106776Y119069D01*
Y112869D02*
Y119069D01*
Y112869D02*
X124976Y94669D01*
X97876Y126555D02*
X105476Y118955D01*
Y112369D02*
Y118955D01*
Y112369D02*
X118500Y99345D01*
X95376Y127569D02*
X104276Y118669D01*
Y111569D02*
Y118669D01*
Y111569D02*
X114310Y101535D01*
X99976Y120069D02*
X103076Y116969D01*
Y110769D02*
Y116969D01*
Y110769D02*
X113310Y100535D01*
X106110Y121168D02*
X107876Y119402D01*
Y113769D02*
Y119402D01*
Y113769D02*
X126576Y95069D01*
X106110Y121168D02*
Y127535D01*
X107110Y121582D02*
X109923Y118769D01*
X107110Y121582D02*
Y128435D01*
X78876Y156669D02*
X107110Y128435D01*
X114276Y121369D02*
X119876Y126969D01*
X86376Y147269D02*
X106110Y127535D01*
X109923Y118769D02*
X109976D01*
X109776Y121369D02*
X114276D01*
X104376Y124069D02*
Y125669D01*
X85276Y146169D02*
X103478Y127967D01*
X104376Y125669D02*
Y127069D01*
X70576Y85569D02*
X71076Y86069D01*
X70576Y85069D02*
Y85569D01*
Y85069D02*
X70976Y84669D01*
X84476D01*
X78089Y77982D02*
X78976Y78869D01*
X80376D01*
X52854Y54346D02*
Y55769D01*
X57176Y145732D02*
X59213Y147769D01*
X59276Y135469D02*
Y136069D01*
X55236Y143169D02*
X64136Y134269D01*
X97476Y68469D02*
X99076Y70069D01*
X100576Y69395D02*
X100613Y69432D01*
Y70706D01*
X83176Y91669D02*
X84576Y90269D01*
Y91969D02*
Y93169D01*
X91976Y91069D02*
Y92469D01*
X77876Y83269D02*
X79076D01*
X79476Y82869D01*
Y81669D02*
Y82869D01*
Y81669D02*
X79876Y81269D01*
X80976D01*
X81276Y81569D01*
Y82969D01*
X81576Y83269D01*
X84876Y83569D02*
Y84269D01*
X84476Y84669D02*
X84876Y84269D01*
X46576Y51069D02*
Y51176D01*
X68102Y78569D02*
X68676Y77995D01*
Y76369D02*
Y77995D01*
X70276Y83269D02*
X71476D01*
X72076Y82669D01*
Y81669D02*
Y82669D01*
Y81669D02*
X72476Y81269D01*
X73576D01*
X73776Y81469D01*
Y82769D01*
X74276Y83269D01*
X75276D01*
X75776Y82769D01*
Y81569D02*
Y82769D01*
Y81569D02*
X75976Y81369D01*
X77376D01*
X77576Y81569D01*
Y82969D01*
X77876Y83269D01*
X68602Y85195D02*
X69776Y86369D01*
X57176Y78569D02*
X68102D01*
X42476Y104369D02*
Y104569D01*
Y98569D02*
Y100169D01*
Y101316D01*
X42753Y101594D01*
X47591D01*
X47869Y101872D01*
Y103166D01*
X47591Y103444D02*
X47869Y103166D01*
X42753Y103444D02*
X47591D01*
X42476Y103721D02*
X42753Y103444D01*
X42476Y103721D02*
Y104369D01*
X57276Y87569D02*
Y88569D01*
Y82969D02*
Y84423D01*
X57646Y84793D01*
X66831D01*
X67201Y85163D01*
Y86274D01*
X66831Y86644D02*
X67201Y86274D01*
X57646Y86644D02*
X66831D01*
X57276Y87014D02*
X57646Y86644D01*
X57276Y87014D02*
Y87569D01*
X85376Y68369D02*
X85476D01*
X85254D02*
X85376D01*
X84241D02*
X85254D01*
X83903Y68707D02*
X84241Y68369D01*
X83903Y68707D02*
Y70137D01*
X83565Y70475D02*
X83903Y70137D01*
X82890Y70475D02*
X83565D01*
X82553Y70137D02*
X82890Y70475D01*
X82553Y68707D02*
Y70137D01*
X82215Y68369D02*
X82553Y68707D01*
X81540Y68369D02*
X82215D01*
X81202Y68707D02*
X81540Y68369D01*
X81202Y68707D02*
Y70137D01*
X80865Y70475D02*
X81202Y70137D01*
X80190Y70475D02*
X80865D01*
X79852Y70137D02*
X80190Y70475D01*
X91976Y81869D02*
Y82169D01*
Y87835D01*
X92434Y88293D01*
X93082Y88941D01*
Y89496D01*
X92434Y90144D02*
X93082Y89496D01*
X91976Y90602D02*
X92434Y90144D01*
X91976Y90602D02*
Y91069D01*
X45776Y88424D02*
X46146Y88794D01*
X47670D01*
X48040Y89164D01*
Y90274D01*
X47670Y90644D02*
X48040Y90274D01*
X45776Y90644D02*
X47670D01*
X45557D02*
X45776D01*
X45187Y91014D02*
X45557Y90644D01*
X45187Y91014D02*
Y92124D01*
X45557Y92494D01*
X45776D01*
X47670D01*
X48040Y92864D01*
Y93974D01*
X47670Y94344D02*
X48040Y93974D01*
X46146Y94344D02*
X47670D01*
X45776Y94714D02*
X46146Y94344D01*
X45776Y94714D02*
Y95269D01*
X42476Y98569D02*
X45776Y95269D01*
X86556Y111793D02*
X88171D01*
X86151Y112198D02*
X86556Y111793D01*
X86151Y112198D02*
Y112738D01*
X86556Y113143D01*
X88171D01*
X88576Y113549D01*
Y114494D01*
Y115169D01*
X57451Y73244D02*
X59153D01*
X63101Y70094D02*
X64976Y71969D01*
X59154Y70094D02*
X61276D01*
X61876Y69494D01*
X130676Y126969D02*
X132876Y124769D01*
X119876Y126969D02*
X130676D01*
X64976Y73469D02*
X70120D01*
X69576Y74769D02*
X70776Y75969D01*
X70120Y73469D02*
X72176Y75525D01*
X58976Y64169D02*
X61876D01*
X57176Y142669D02*
Y145732D01*
X74276Y126569D02*
Y129269D01*
X51876Y139869D02*
Y148669D01*
X55076Y151869D01*
X66976D01*
X50276Y139669D02*
Y148869D01*
X54976Y153569D01*
X65476D01*
X49076Y137969D02*
Y149769D01*
X54276Y154969D01*
X62676D01*
X63118Y162469D02*
X64876Y160711D01*
X67076Y155169D02*
Y159769D01*
X65476Y153569D02*
X67076Y155169D01*
X62676Y154969D02*
X64876Y157169D01*
Y160711D01*
X66976Y151869D02*
X69174Y154067D01*
X70992Y153785D02*
Y159769D01*
X67476Y150269D02*
X70992Y153785D01*
X56376Y150269D02*
X67476D01*
X69016Y143169D02*
X72016Y146169D01*
X77576Y142561D02*
X81368Y138769D01*
X57176Y142669D02*
X64276Y135569D01*
X64136Y134269D02*
X69276D01*
X74276Y129269D01*
X126576Y62924D02*
X133500Y56000D01*
X126576Y62924D02*
Y95069D01*
X69174Y154067D02*
Y160350D01*
X67055Y162469D02*
X69174Y160350D01*
X78876Y156669D02*
Y159769D01*
X65118Y147769D02*
X67019Y145869D01*
X69776D01*
X71176Y147269D01*
X86376D01*
X81368Y138769D02*
X90276D01*
X114276Y70224D02*
X118500Y66000D01*
X113276Y62269D02*
X114676Y60869D01*
X6500Y36000D02*
X20745D01*
X6500Y46000D02*
X15345D01*
X6500Y56000D02*
X11845D01*
X20276Y49125D02*
Y52224D01*
X6500Y66000D02*
X20276Y52224D01*
X6500Y76000D02*
X21476Y61024D01*
Y49622D02*
Y61024D01*
X25776Y82769D02*
X31714Y88708D01*
Y106769D02*
X33676Y104807D01*
Y87669D02*
Y104807D01*
X28076Y82069D02*
X33676Y87669D01*
X28076Y65469D02*
Y82069D01*
X107976Y39569D02*
Y66369D01*
X106576Y52669D02*
Y66869D01*
X119876Y124769D02*
X129476D01*
X51876Y139869D02*
X54176Y137569D01*
X54676D01*
X78776Y123469D02*
Y127069D01*
X80076Y128369D01*
X99976Y108269D02*
X102967Y105278D01*
X91276Y76569D02*
X95476Y80769D01*
X89776Y77769D02*
X94076Y82069D01*
X91776Y37869D02*
X106576Y52669D01*
X104976Y36569D02*
X107976Y39569D01*
X91176Y39069D02*
X105476Y53369D01*
Y67325D01*
X90376Y40169D02*
X104276Y54069D01*
Y67822D01*
X40976Y44769D02*
X92976D01*
X102967Y54760D01*
X87500Y66945D02*
Y70693D01*
X89776Y72969D01*
Y77769D01*
X89076Y65269D02*
Y70145D01*
X91276Y72345D01*
Y76569D01*
X88476Y59969D02*
X93976Y65469D01*
Y75682D01*
X95076Y64769D02*
Y74694D01*
X93976Y75682D02*
X97596Y79302D01*
X95076Y74694D02*
X98656Y78274D01*
X81476Y109269D02*
X83976D01*
X48476Y60969D02*
X53376D01*
X87976Y61169D02*
X92776Y65969D01*
Y76382D01*
X96536Y80142D01*
X52354Y56269D02*
X52854Y55769D01*
X50478Y64569D02*
X52854Y66945D01*
X78041Y122734D02*
X78776Y123469D01*
X96276Y64169D02*
Y74194D01*
X99716Y77634D01*
X93676Y56369D02*
X94176Y55869D01*
X89576Y57469D02*
X96276Y64169D01*
X89576Y56769D02*
Y57469D01*
Y56769D02*
X89976Y56369D01*
X94176Y55869D02*
X95076D01*
X97476Y63169D02*
Y68469D01*
X95076Y55869D02*
X96376Y57169D01*
Y62069D01*
X97476Y63169D01*
X93676Y56369D02*
Y56969D01*
X89976Y56369D02*
X90816D01*
X93316Y58869D01*
X93676Y56969D02*
X94476Y57769D01*
X93316Y58869D02*
X93876D01*
X94476Y58269D01*
Y57769D02*
Y58269D01*
X48876Y96369D02*
X49576Y95669D01*
X47089Y78582D02*
X49576Y81069D01*
X39568Y65577D02*
X40576Y64569D01*
X37976Y73469D02*
X38276Y73169D01*
X39568Y65577D02*
Y71161D01*
X37976Y73469D02*
Y74669D01*
X38276Y74969D01*
X46276D01*
X39568Y71161D02*
X39976Y71569D01*
X41776D01*
X38276Y73169D02*
X41776D01*
Y71569D02*
X42076Y71869D01*
Y72869D01*
X41776Y73169D02*
X42076Y72869D01*
X51076Y80269D02*
Y90869D01*
X48392Y77585D02*
X51076Y80269D01*
X46676Y73469D02*
X48392Y75185D01*
X44476Y73469D02*
X46676D01*
X44076Y73069D02*
X44476Y73469D01*
X44076Y68769D02*
Y73069D01*
X48176Y71969D02*
X48576Y71569D01*
X44076Y68769D02*
X44476Y68369D01*
X45676D02*
X46176Y68869D01*
X44476Y68369D02*
X45676D01*
X46176Y68869D02*
Y71569D01*
X46576Y71969D01*
X48176D01*
X48576Y68869D02*
Y71569D01*
X50676Y71369D02*
X51038Y71731D01*
X52514D01*
X52876Y71369D01*
X60276Y101369D02*
X60576Y101669D01*
Y103469D01*
X60876Y103769D01*
X62076D01*
X62376Y103469D01*
X52854Y73244D02*
X54576Y74966D01*
X73698Y80169D02*
X81376D01*
X72176Y78647D02*
X73698Y80169D01*
X72176Y75525D02*
Y78647D01*
X61876Y68569D02*
Y69494D01*
X61376Y68069D02*
X61876Y68569D01*
X58676Y68069D02*
X61376D01*
X58176Y67569D02*
X58676Y68069D01*
X54676Y72269D02*
Y73469D01*
Y72269D02*
X54976Y71969D01*
X56176D01*
X57451Y73244D01*
X69676Y82669D02*
X70276Y83269D01*
X69676Y81869D02*
Y82669D01*
Y81869D02*
X70776Y80769D01*
Y80002D02*
Y80769D01*
X69676Y78902D02*
X70776Y80002D01*
X69676Y78169D02*
Y78902D01*
Y78169D02*
X70776Y77069D01*
Y75969D02*
Y77069D01*
X84676Y74369D02*
Y76569D01*
X63101Y69187D02*
X63819Y68469D01*
X63101Y69187D02*
Y70094D01*
X64976Y71969D02*
X70976D01*
X71876Y72869D01*
X74176D01*
X74776Y73469D01*
X82376Y74269D02*
X82776Y74669D01*
X54576Y78869D02*
X56876Y81169D01*
X62776Y82769D02*
X63276Y82269D01*
X56876Y81169D02*
X62776D01*
X63276Y81669D01*
Y82269D01*
X57276Y88569D02*
X57576Y88869D01*
X61476D01*
X57276Y83069D02*
X57576Y82769D01*
X62776D01*
X64676Y83169D02*
X65076Y83569D01*
X56876Y78869D02*
X57176Y78569D01*
X65076Y83569D02*
X67776D01*
X68602Y84395D01*
Y85195D01*
X68202Y81869D02*
X68602Y81469D01*
X64676Y82169D02*
Y83169D01*
Y82169D02*
X64976Y81869D01*
X68202D01*
X68376Y80069D02*
X68602Y80295D01*
Y81469D01*
X56876Y78869D02*
Y79569D01*
X57376Y80069D01*
X68376D01*
X81976Y71669D02*
X84676Y74369D01*
X68602Y70094D02*
X71401D01*
X72976Y71669D01*
X81976D01*
X85476Y68369D02*
X86376Y69269D01*
Y70669D01*
X85876Y71169D02*
X86376Y70669D01*
X84676Y71169D02*
X85876D01*
X84376Y71469D02*
X84676Y71169D01*
X84376Y71469D02*
Y72369D01*
X85776Y73769D01*
Y75669D01*
X59776Y142566D02*
X65273Y137069D01*
X59776Y142566D02*
Y143169D01*
X53552Y141793D02*
Y147445D01*
Y141793D02*
X59276Y136069D01*
X53552Y147445D02*
X56376Y150269D01*
X63819Y68469D02*
X67953D01*
X67966Y68482D01*
X62940Y74782D02*
X62952Y74769D01*
X69576D01*
X55989Y74782D02*
X62940D01*
X54676Y73469D02*
X55989Y74782D01*
X54576Y74966D02*
Y78869D01*
X47089Y77731D02*
Y78582D01*
X45676Y88324D02*
X45776Y88424D01*
X48392Y75185D02*
Y75532D01*
X48168Y75757D02*
X48392Y75532D01*
X48168Y75757D02*
Y77031D01*
X48392Y77256D01*
Y77585D01*
X46276Y74969D02*
X47168Y75861D01*
Y77445D01*
X47089Y77731D02*
X47271Y77548D01*
X47168Y77445D02*
X47271Y77548D01*
Y77548D01*
X48576Y68869D02*
X48963Y68482D01*
X50289D01*
X40576Y64569D02*
X50478D01*
X49576Y81069D02*
Y95669D01*
X105876Y33969D02*
X111576Y39669D01*
X109976Y39769D02*
Y65169D01*
X111576Y39669D02*
Y64316D01*
X111710Y64451D01*
X111576Y71469D02*
X111710Y71335D01*
Y64451D02*
Y71335D01*
X105476Y35269D02*
X109976Y39769D01*
X54739Y62332D02*
X86139D01*
X89076Y65269D01*
X48876Y96369D02*
Y103669D01*
X99776Y108269D02*
X99976D01*
X64276Y135569D02*
X84176D01*
X65273Y137069D02*
X84462D01*
X109976Y114869D02*
X119876Y124769D01*
X90276Y138769D02*
X97876Y131169D01*
X88171Y111793D02*
X88576Y111388D01*
X25776Y62769D02*
Y82769D01*
X31714Y88708D02*
Y103507D01*
X97576Y106969D02*
Y109069D01*
Y106969D02*
X100776Y103769D01*
X80576Y110169D02*
X81476Y109269D01*
X82520Y120182D02*
X82526Y120175D01*
X83281D01*
X87088Y123979D02*
X88665D01*
X81969Y126541D02*
X89904D01*
X80576Y110169D02*
Y112869D01*
X81476Y113769D01*
X84476D01*
X87088Y116381D01*
X80076Y128369D02*
X89676D01*
X97776Y110869D02*
X100576D01*
X101176Y112669D02*
Y116169D01*
X98276Y114869D02*
Y117069D01*
X96510Y112135D02*
X97776Y110869D01*
X92976Y113669D02*
X97576Y109069D01*
X87088Y116381D02*
Y118861D01*
X98242Y119103D02*
X101176Y116169D01*
X98242Y119103D02*
Y120787D01*
X98276Y120822D01*
Y123255D01*
X96976Y118369D02*
X98276Y117069D01*
X96976Y118369D02*
Y122769D01*
X95776Y118155D02*
Y122269D01*
Y118155D02*
X96510Y117420D01*
Y112135D02*
Y117420D01*
X100076Y125769D02*
Y128909D01*
X97876Y126555D02*
Y131169D01*
X95376Y127569D02*
Y129369D01*
X84462Y137069D02*
X98276Y123255D01*
X84176Y135569D02*
X96976Y122769D01*
X89676Y128369D02*
X95776Y122269D01*
X92976Y113669D02*
Y123469D01*
X89904Y126541D02*
X92976Y123469D01*
X87088Y121354D02*
X88576Y119866D01*
X88665Y123979D02*
X90763Y121882D01*
X91863Y113182D02*
X96276Y108769D01*
Y106669D02*
Y108769D01*
Y106669D02*
X99716Y103229D01*
X91863Y113182D02*
Y122882D01*
X99716Y77634D02*
Y103229D01*
X95176Y105969D02*
X98656Y102489D01*
X95176Y105969D02*
Y108069D01*
X90763Y112482D02*
X95176Y108069D01*
X90763Y112482D02*
Y121882D01*
X89576Y111869D02*
X93876Y107569D01*
Y105569D02*
Y107569D01*
Y105569D02*
X97596Y101849D01*
X89576Y111869D02*
Y121469D01*
X92576Y104669D02*
X96536Y100709D01*
X88576Y110269D02*
Y111388D01*
Y110269D02*
X92576Y106269D01*
Y104669D02*
Y106269D01*
X41976Y76869D02*
X45576D01*
X40376Y78469D02*
X41976Y76869D01*
X40376Y78469D02*
Y85869D01*
X43676Y89169D01*
Y94069D01*
X40676Y97069D02*
X43676Y94069D01*
X45101Y114944D02*
X45376Y114669D01*
Y113493D02*
Y114669D01*
X44976Y113093D02*
X45376Y113493D01*
X39276Y112723D02*
X39646Y113093D01*
X39276Y111613D02*
Y112723D01*
Y111613D02*
X39646Y111243D01*
X41046Y109393D02*
X44538D01*
X40676Y109023D02*
X41046Y109393D01*
X39646Y113093D02*
X44976D01*
X40676Y97069D02*
Y109023D01*
X39646Y111243D02*
X44538D01*
X41326Y115519D02*
X41901Y114944D01*
X41326Y115519D02*
Y116519D01*
X42357Y117550D01*
X41901Y114944D02*
X45101D01*
X47076Y116669D02*
X47676Y117269D01*
X42357Y117550D02*
Y121550D01*
X42976Y122169D01*
X44176D01*
X44876Y121469D01*
Y117169D02*
Y121469D01*
Y117169D02*
X45376Y116669D01*
X47076D01*
X100576Y68594D02*
Y69269D01*
Y67514D02*
Y68594D01*
X100306Y67243D02*
X100576Y67514D01*
X98921Y67243D02*
X100306D01*
X98651Y66973D02*
X98921Y67243D01*
X98651Y66163D02*
Y66973D01*
Y66163D02*
X98921Y65893D01*
X100306D01*
X100576Y65623D01*
Y64813D02*
Y65623D01*
X100306Y64543D02*
X100576Y64813D01*
X98921Y64543D02*
X100306D01*
X98651Y64273D02*
X98921Y64543D01*
X98651Y63462D02*
Y64273D01*
Y63462D02*
X98921Y63192D01*
X100306D01*
X100576Y62922D01*
Y62112D02*
Y62922D01*
X100306Y61842D02*
X100576Y62112D01*
X98921Y61842D02*
X100306D01*
X98651Y61572D02*
X98921Y61842D01*
X98651Y60761D02*
Y61572D01*
Y60761D02*
X98921Y60492D01*
X100306D01*
X100576Y60221D01*
Y59411D02*
Y60221D01*
X100306Y59141D02*
X100576Y59411D01*
X98921Y59141D02*
X100306D01*
X98651Y58871D02*
X98921Y59141D01*
X98651Y58061D02*
Y58871D01*
Y58061D02*
X98921Y57791D01*
X100306D01*
X100576Y57521D01*
Y69269D02*
Y69395D01*
X57776Y90469D02*
X60776D01*
X57276Y90969D02*
X57776Y90469D01*
X55422Y82111D02*
X56076Y82765D01*
X54978Y81667D02*
X55422Y82111D01*
X49705Y76394D02*
X54978Y81667D01*
X56076Y99644D02*
Y100569D01*
Y98163D02*
Y99644D01*
X55706Y97793D02*
X56076Y98163D01*
X54445Y97793D02*
X55706D01*
X54075Y97423D02*
X54445Y97793D01*
X54075Y96313D02*
Y97423D01*
Y96313D02*
X54445Y95943D01*
X55706D01*
X56076Y95573D01*
Y94463D02*
Y95573D01*
X55706Y94093D02*
X56076Y94463D01*
X53846Y94093D02*
X55706D01*
X53476Y93723D02*
X53846Y94093D01*
X53476Y92612D02*
Y93723D01*
Y92612D02*
X53846Y92242D01*
X55706D01*
X56076Y91872D01*
Y90762D02*
Y91872D01*
X55706Y90392D02*
X56076Y90762D01*
X53021Y90392D02*
X55706D01*
X52651Y90022D02*
X53021Y90392D01*
X52651Y88911D02*
Y90022D01*
Y88911D02*
X53021Y88542D01*
X55706D01*
X56076Y88171D01*
Y87061D02*
Y88171D01*
X55706Y86691D02*
X56076Y87061D01*
X53021Y86691D02*
X55706D01*
X52651Y86321D02*
X53021Y86691D01*
X52651Y85211D02*
Y86321D01*
Y85211D02*
X53021Y84841D01*
X55706D01*
X56076Y84471D01*
Y82990D02*
Y84471D01*
Y82765D02*
Y82990D01*
Y100569D02*
X56876Y101369D01*
X60276D01*
X57276Y99469D02*
X57783Y99976D01*
X62369D01*
X62579Y114334D02*
X63495Y115250D01*
X62187Y114334D02*
X62579D01*
X61314Y115207D02*
X62187Y114334D01*
X60149Y116372D02*
X61314Y115207D01*
X59756Y116372D02*
X60149D01*
X58841Y115456D02*
X59756Y116372D01*
X58841Y115064D02*
Y115456D01*
Y115064D02*
X60006Y113899D01*
X61171Y112734D01*
Y112341D02*
Y112734D01*
X60255Y111426D02*
X61171Y112341D01*
X59862Y111426D02*
X60255D01*
X58894Y112394D02*
X59862Y111426D01*
X58501Y112394D02*
X58894D01*
X58426Y112319D02*
X58501Y112394D01*
X44538Y109393D02*
X44908Y109763D01*
X80154Y118869D02*
X81976D01*
X78054Y116769D02*
X80154Y118869D01*
X84676Y76569D02*
X90676Y82569D01*
X88076Y91169D02*
X89676Y89569D01*
Y83169D02*
Y89569D01*
X90676Y82569D02*
Y89983D01*
X88257Y92402D02*
X90676Y89983D01*
X88257Y92402D02*
Y92485D01*
X81576Y83269D02*
X84576D01*
X84876Y83569D01*
X81376Y80169D02*
X83076Y81869D01*
X85476D01*
X85976Y82369D01*
X87276Y80769D02*
X89676Y83169D01*
X82776Y74669D02*
Y79769D01*
X83776Y80769D01*
X87276D01*
X74776Y73469D02*
Y74345D01*
X73364Y75757D02*
Y77931D01*
X74076Y78644D02*
Y78669D01*
X74276Y78869D01*
X75776D01*
X73364Y75757D02*
X74776Y74345D01*
X73364Y77931D02*
X74076Y78644D01*
X75776Y78869D02*
X76438Y78207D01*
Y75314D02*
X76783Y74969D01*
X76438Y75314D02*
Y78207D01*
X77714Y74907D02*
X78089Y75282D01*
Y77982D01*
X76783Y74907D02*
X77714D01*
X80376Y78869D02*
X81176Y78069D01*
Y74669D02*
Y78069D01*
Y74669D02*
X81576Y74269D01*
X82376D01*
X56004Y70095D02*
X57578Y71669D01*
X63176D01*
X64976Y73469D01*
X50289Y68482D02*
X50676Y68869D01*
Y71369D01*
X52876Y68982D02*
Y71369D01*
Y68982D02*
X53376Y68482D01*
X54663D01*
X58976Y64169D01*
X44876Y52876D02*
Y57369D01*
X48476Y60969D01*
X100776Y76369D02*
Y103769D01*
Y76369D02*
X101776Y75369D01*
X99576Y71743D02*
X100613Y70706D01*
X99576Y71743D02*
Y74869D01*
X113276Y62269D02*
Y70716D01*
X113310Y70751D01*
X114276Y70224D02*
Y70302D01*
X114310Y70337D01*
Y101535D01*
X113310Y70751D02*
Y100535D01*
X108376Y84869D02*
X109976Y83269D01*
Y79922D02*
Y83269D01*
X107976Y66369D02*
X109842Y68235D01*
Y73235D01*
X110976Y74369D01*
X106576Y66869D02*
X108793Y69086D01*
Y76286D01*
X111276Y78769D01*
X105476Y67325D02*
X107676Y69525D01*
Y77622D01*
X109976Y79922D01*
X104276Y67822D02*
X106576Y70122D01*
Y86069D01*
X108376Y87869D01*
X102967Y54760D02*
Y105278D01*
X104476Y73269D02*
X104776Y73569D01*
Y88169D02*
X106276Y89669D01*
X104776Y73569D02*
Y88169D01*
X98656Y78274D02*
Y102489D01*
X97596Y79302D02*
Y101849D01*
X96536Y80142D02*
Y100709D01*
X94076Y82069D02*
Y92469D01*
X84528Y100949D02*
X86576Y98901D01*
X118500Y95593D02*
Y99345D01*
X116776Y93869D02*
X118500Y95593D01*
X116776Y91393D02*
Y93869D01*
Y91393D02*
X118500Y89669D01*
Y76000D02*
Y89669D01*
X124976Y62476D02*
Y94669D01*
X118500Y56000D02*
X124976Y62476D01*
X49076Y137969D02*
X50976Y136069D01*
X47676Y117269D02*
Y119069D01*
X48276Y119669D01*
X51795Y117550D02*
X52957D01*
X44908Y109763D02*
Y110873D01*
X44538Y111243D02*
X44908Y110873D01*
X63495Y115250D02*
Y116288D01*
X63757Y116550D01*
X63771D01*
X65190Y117969D01*
X57276Y90969D02*
Y91869D01*
X47576Y56569D02*
X47876Y56269D01*
X52354D01*
X47576Y56569D02*
Y57869D01*
X47976Y58269D01*
X53176D01*
X54276Y57169D01*
X55976D01*
X56676Y57869D01*
Y60169D01*
X57676Y61169D01*
X87976D01*
X37376Y48369D02*
Y54269D01*
Y48369D02*
X40976Y44769D01*
X46576Y47669D02*
X48491Y49584D01*
X63176Y54869D02*
X63576Y54469D01*
X58976Y55369D02*
X59476Y54869D01*
X63176D01*
X58976Y55369D02*
Y56869D01*
X59576Y57469D01*
X70276D01*
X72776Y59969D01*
X88476D01*
X53376Y60969D02*
X54739Y62332D01*
X72222Y117969D02*
X73422Y116769D01*
X65190Y117969D02*
X72222D01*
X73422Y116769D02*
X78054D01*
X100576Y56669D02*
Y57521D01*
X99276Y54946D02*
Y55369D01*
X100576Y56669D01*
X101776Y55369D02*
Y75369D01*
X99276Y54946D02*
X99953Y54269D01*
X100676D01*
X101776Y55369D01*
X66676Y67069D02*
X66976Y66769D01*
X68976Y65144D02*
X69401Y65569D01*
X62356Y65969D02*
X63556Y64769D01*
X64376D01*
X64876Y65269D01*
X58176Y66469D02*
Y67569D01*
Y66469D02*
X58676Y65969D01*
X62356D01*
X64876Y65269D02*
Y66845D01*
X65100Y67069D01*
X66676D01*
X66976Y63869D02*
Y66769D01*
Y63869D02*
X67376Y63469D01*
X68676D01*
X68976Y63769D01*
Y65144D01*
X70576Y63869D02*
X70976Y63469D01*
X72476D01*
X72776Y63769D01*
X69401Y65569D02*
X70176D01*
X70576Y65169D01*
Y63869D02*
Y65169D01*
X67966Y68482D02*
X71863D01*
X72776Y67569D01*
Y63769D02*
Y67569D01*
X57276Y91869D02*
X57676Y92269D01*
X59376D02*
X59929Y92822D01*
X57676Y92269D02*
X59376D01*
X57276Y94669D02*
Y99469D01*
Y94669D02*
X57629Y94316D01*
X59929Y92822D02*
Y93664D01*
X59276Y94316D02*
X59929Y93664D01*
X57629Y94316D02*
X59276D01*
X64814Y49584D02*
X73899Y58669D01*
X79776D01*
X80376Y58069D01*
Y56569D02*
Y58069D01*
Y56569D02*
X81062Y55883D01*
X82390D01*
X82976Y56469D01*
Y57969D01*
X88976Y58669D02*
X95076Y64769D01*
X82976Y57969D02*
X83676Y58669D01*
X88976D01*
X85376Y91169D02*
X88076D01*
X84576Y91969D02*
X85376Y91169D01*
X85976Y82369D02*
Y88869D01*
X86276Y89169D01*
X86988D01*
X87276Y88880D01*
Y83369D02*
Y88880D01*
Y83369D02*
X87676Y82969D01*
X88062D01*
X88576Y83483D01*
Y89169D01*
X87476Y90269D02*
X88576Y89169D01*
X84576Y90269D02*
X87476D01*
X84576Y93169D02*
X86576Y95169D01*
Y98901D01*
X83976Y109269D02*
X95476Y97769D01*
X74902Y70095D02*
X75376Y70569D01*
X74902Y66945D02*
Y70095D01*
X75376Y70569D02*
X77576D01*
X78051Y70094D01*
Y68994D02*
Y70094D01*
Y68994D02*
X78376Y68669D01*
X79576D01*
X79852Y68945D01*
Y70137D01*
X86376Y76269D02*
X87776D01*
X88476Y76969D01*
Y78369D01*
X85776Y75669D02*
X86376Y76269D01*
X88476Y78369D02*
X91976Y81869D01*
X48491Y49584D02*
X64814D01*
X52854Y51197D02*
X54466Y52809D01*
X63116D01*
X63576Y53269D01*
Y54469D01*
X103478Y127967D02*
X104376Y127069D01*
X72016Y146169D02*
X85276D01*
X69776Y86369D02*
Y88369D01*
X70276Y88869D01*
X67676Y90169D02*
X68176Y90669D01*
Y91369D01*
X67676Y91869D02*
X68176Y91369D01*
X61476Y88869D02*
X63676Y91069D01*
X64376D01*
X65276Y90169D01*
X67676D01*
X62376Y101596D02*
Y103469D01*
X60776Y90469D02*
X63118Y92811D01*
Y94011D01*
X63476Y94369D01*
X64776D01*
X62376Y101596D02*
X62603Y101369D01*
X48876Y103669D02*
X52489Y107282D01*
X62603Y101369D02*
X67876D01*
X68276Y101769D01*
X65876Y91869D02*
X67676D01*
X65118Y92627D02*
X65876Y91869D01*
X65118Y92627D02*
Y94026D01*
X64776Y94369D02*
X65118Y94026D01*
X42476Y104569D02*
X42976Y105069D01*
X47876D01*
X49276Y106469D01*
Y115022D02*
Y115669D01*
Y115022D02*
X49553Y114744D01*
X50787D01*
X51065Y114467D01*
Y113172D02*
Y114467D01*
X50787Y112894D02*
X51065Y113172D01*
X49276Y112894D02*
X50787D01*
X48667D02*
X49276D01*
X48389Y112617D02*
X48667Y112894D01*
X48389Y111321D02*
Y112617D01*
Y111321D02*
X48667Y111044D01*
X49276D01*
X50787D01*
X51065Y110766D01*
Y109471D02*
Y110766D01*
X50787Y109194D02*
X51065Y109471D01*
X49553Y109194D02*
X50787D01*
X49276Y108916D02*
X49553Y109194D01*
X49276Y107469D02*
Y108916D01*
Y106469D02*
Y107469D01*
Y115669D02*
X49776Y116169D01*
X51576D01*
X52076Y115669D01*
Y112069D02*
Y115669D01*
Y112069D02*
X52776Y111369D01*
X57476D01*
X58426Y112319D01*
X48276Y119669D02*
X49676D01*
X51795Y117550D01*
X21476Y49622D02*
X30929Y40169D01*
X90376D01*
X20276Y49125D02*
X30332Y39069D01*
X91176D01*
X11845Y56000D02*
X29976Y37869D01*
X91776D01*
X15345Y46000D02*
X24776Y36569D01*
X104976D01*
X20745Y36000D02*
X21476Y35269D01*
X105476D01*
X6500Y26000D02*
X17307D01*
X25276Y33969D01*
X105876D01*
X100576Y110869D02*
X110576Y100869D01*
Y96269D02*
Y100869D01*
D46*
X101476Y167169D02*
X105376Y171069D01*
X49976Y167169D02*
X101476D01*
X46240Y170905D02*
X49976Y167169D01*
X35039Y170905D02*
X46240D01*
D48*
X84876Y28769D02*
X99976D01*
X112745Y16000D01*
X133500D01*
X24000Y25000D02*
X31631Y17369D01*
X71876Y28769D02*
X78676D01*
X31631Y17369D02*
X60476D01*
X71876Y28769D01*
X97276Y147569D02*
Y154069D01*
X91576Y159769D02*
X97276Y154069D01*
X86776Y159769D02*
X91576D01*
D52*
X74776Y88544D02*
X75101Y88869D01*
X77176Y91669D02*
X78096Y92589D01*
X71076Y86069D02*
X84576D01*
X84876Y86369D01*
Y87069D01*
X84476Y87469D02*
X84876Y87069D01*
X75002Y87469D02*
X84476D01*
X80676Y95242D02*
X81968Y96534D01*
X80676Y94269D02*
Y95242D01*
X71376Y91953D02*
Y92769D01*
X71092Y91669D02*
X71376Y91953D01*
X74776Y87695D02*
X75002Y87469D01*
X82976Y88869D02*
X83376Y89269D01*
Y89869D01*
X82776Y90469D02*
X83376Y89869D01*
X80776Y90469D02*
X82776D01*
X80276Y90969D02*
X80776Y90469D01*
X80276Y90969D02*
Y91877D01*
X80668Y92269D01*
X81976D01*
X81176Y93769D02*
X81968D01*
X80676Y94269D02*
X81176Y93769D01*
X91276Y95269D02*
X91676Y94869D01*
X92899D02*
X93299Y94469D01*
Y93792D02*
Y94469D01*
X91976Y92469D02*
X93299Y93792D01*
X74776Y87695D02*
Y88544D01*
X70076Y94769D02*
Y95631D01*
X69638Y96069D02*
X70076Y95631D01*
X68515Y96069D02*
X69638D01*
X68676Y93169D02*
X70976D01*
X71376Y92769D01*
X50276Y139669D02*
X52576Y137369D01*
X52489Y107282D02*
X57263D01*
X57776Y106769D01*
Y105569D02*
Y106769D01*
X54918Y104869D02*
X56330Y103457D01*
X51576Y95169D02*
X52476Y94269D01*
X51076Y90869D02*
X52476Y92269D01*
X83176Y91669D02*
Y97038D01*
X91676Y94869D02*
X92899D01*
X57776Y105569D02*
X58525Y104820D01*
X52476Y92269D02*
Y94269D01*
X51576Y95169D02*
Y95969D01*
X53076Y97469D01*
Y99169D01*
X80890Y117483D02*
X83215D01*
X84594Y118862D01*
X88576Y115169D02*
Y119866D01*
X83281Y120175D02*
X84527Y121422D01*
X81969Y123980D02*
X83458Y125469D01*
X84528Y123980D02*
X85842Y122667D01*
X83458Y125469D02*
X89276D01*
X91863Y122882D01*
X85842Y122667D02*
X88378D01*
X89576Y121469D01*
X58525Y104820D02*
X62127D01*
X62663Y105356D01*
Y106613D01*
X63432Y107382D01*
X62369Y99976D02*
X62876Y99469D01*
X78276Y119269D02*
X79189Y120182D01*
X82520D01*
X81576Y104469D02*
X81969Y104076D01*
X77830Y99969D02*
X79409Y98390D01*
X91676Y99369D02*
X92176D01*
X94276Y97269D01*
Y96469D02*
Y97269D01*
X93876Y96069D02*
X94276Y96469D01*
X91576Y96069D02*
X93876D01*
X91276Y95769D02*
X91576Y96069D01*
X91276Y95269D02*
Y95769D01*
X95476Y80769D02*
Y97769D01*
X88276Y92569D02*
Y94669D01*
X90776Y97169D02*
X91276Y97669D01*
Y98969D01*
X91676Y99369D01*
X70276Y88869D02*
X73276D01*
X73676Y89269D01*
Y89969D01*
X73276Y90369D02*
X73676Y89969D01*
X72576Y92469D02*
Y93969D01*
Y92469D02*
X73376Y91669D01*
X77176D01*
X75101Y88869D02*
X82976D01*
X81976Y92269D02*
X82276Y92569D01*
Y93462D01*
X81968Y93769D02*
X82276Y93462D01*
X81969Y101015D02*
Y104076D01*
X89776Y97669D02*
X90276Y97169D01*
X90776D01*
X87702Y95243D02*
X88276Y94669D01*
X65369Y122734D02*
X78041D01*
X52576Y131569D02*
Y137369D01*
X64976Y119269D02*
X78276D01*
X72076Y94469D02*
X72576Y93969D01*
X70076Y94769D02*
X70376Y94469D01*
X72076D01*
X79376Y115969D02*
X80890Y117483D01*
X74876Y107382D02*
X75276Y107782D01*
Y109369D01*
X75676Y109769D01*
X77076D01*
X77394Y109451D01*
X81968Y96534D02*
Y98390D01*
X80276Y104469D02*
X81576D01*
X79876Y104069D02*
X80276Y104469D01*
X79876Y101769D02*
Y104069D01*
X79476Y101369D02*
X79876Y101769D01*
X83176Y97038D02*
X84527Y98390D01*
X84527Y103507D02*
X87702Y100333D01*
Y95243D02*
Y100333D01*
X89776Y97669D02*
Y100869D01*
X84528Y100949D02*
Y101015D01*
X87112Y103533D02*
X89776Y100869D01*
X68076Y95631D02*
X68515Y96069D01*
X75776Y101369D02*
X79476D01*
X75276Y101869D02*
X75776Y101369D01*
X67976Y99969D02*
X68476Y99469D01*
X70876Y99969D02*
X77830D01*
X69776Y90369D02*
X73276D01*
X69376Y90769D02*
X69776Y90369D01*
X69376Y90769D02*
Y91369D01*
X69676Y91669D01*
X71092D01*
X77394Y107864D02*
Y109451D01*
Y107864D02*
X77876Y107382D01*
X78912D01*
X79376Y107846D01*
Y115969D01*
X62876Y97569D02*
Y99469D01*
X65276Y97469D02*
Y99369D01*
X64950Y97143D02*
X65276Y97469D01*
X63302Y97143D02*
X64950D01*
X62876Y97569D02*
X63302Y97143D01*
X73576Y106169D02*
X74876D01*
X75276Y105769D01*
Y101869D02*
Y105769D01*
X68676Y106169D02*
X69976D01*
X68476Y98669D02*
Y99469D01*
Y98669D02*
X68876Y98269D01*
X69943D01*
X70263Y98590D01*
Y99356D01*
X70876Y99969D01*
X66615Y98390D02*
X67861Y97143D01*
X50776Y101469D02*
X53076Y99169D01*
X50776Y101469D02*
Y102969D01*
X69976Y106169D02*
X70376Y105769D01*
Y101769D02*
Y105769D01*
Y101769D02*
X70776Y101369D01*
X72776D01*
X73176Y101769D01*
Y105769D01*
X73576Y106169D01*
X65276Y99369D02*
X65876Y99969D01*
X67976D01*
X68276Y101769D02*
Y105769D01*
X68676Y106169D01*
X50776Y102969D02*
X52676Y104869D01*
X54918D01*
X63432Y107382D02*
X74876D01*
X68076Y93769D02*
X68676Y93169D01*
X68076Y93769D02*
Y95631D01*
X77327Y97143D02*
X78096Y96374D01*
X67861Y97143D02*
X77327D01*
X78096Y92589D02*
Y96374D01*
X63257Y117550D02*
X64976Y119269D01*
X52957Y117550D02*
X63257D01*
X61497Y118862D02*
X65369Y122734D01*
D73*
X118500Y76000D02*
D03*
Y66000D02*
D03*
Y56000D02*
D03*
Y26000D02*
D03*
X6500Y76000D02*
D03*
Y66000D02*
D03*
Y56000D02*
D03*
Y46000D02*
D03*
Y36000D02*
D03*
Y26000D02*
D03*
X133500Y56000D02*
D03*
Y16000D02*
D03*
Y6000D02*
D03*
D75*
X31937Y25000D02*
D03*
X24000D02*
D03*
D77*
X69173Y113744D02*
D03*
X63976Y113769D02*
D03*
X69148Y108769D02*
D03*
X66676D02*
D03*
X71776D02*
D03*
X69172Y116304D02*
D03*
X66614Y113744D02*
D03*
X63976Y108769D02*
D03*
X52854Y54346D02*
D03*
X99076Y70069D02*
D03*
X46576Y47669D02*
D03*
Y51197D02*
D03*
X52854D02*
D03*
X68676Y76369D02*
D03*
X59153Y73244D02*
D03*
X59154Y70094D02*
D03*
X56004Y70095D02*
D03*
X69170Y111185D02*
D03*
X49705Y76394D02*
D03*
X52854Y73244D02*
D03*
Y66945D02*
D03*
X87500Y66945D02*
D03*
X68602Y70094D02*
D03*
X56330Y103457D02*
D03*
X74902Y66945D02*
D03*
X61876Y64169D02*
D03*
X99576Y74869D02*
D03*
X45576Y79469D02*
D03*
Y76869D02*
D03*
X81976Y118869D02*
D03*
X81969Y126541D02*
D03*
X87088Y123979D02*
D03*
X95376Y129369D02*
D03*
X76851Y111188D02*
D03*
X84594Y118862D02*
D03*
X87088Y118861D02*
D03*
X84527Y121422D02*
D03*
X81969Y123980D02*
D03*
X84528Y123980D02*
D03*
X87088Y121354D02*
D03*
X79409Y98390D02*
D03*
X94076Y92469D02*
D03*
X84527Y103507D02*
D03*
X81969Y101015D02*
D03*
X74292Y126540D02*
D03*
X81968Y98390D02*
D03*
X84527Y98390D02*
D03*
X84528Y101015D02*
D03*
X74176Y111169D02*
D03*
X66615Y98390D02*
D03*
X61497Y121422D02*
D03*
Y118862D02*
D03*
X87076Y103569D02*
D03*
X74270Y113769D02*
D03*
X76853Y113744D02*
D03*
D78*
X22376Y122269D02*
D03*
X19376Y115669D02*
D03*
X19676Y135069D02*
D03*
X14776Y130869D02*
D03*
X5176Y86969D02*
D03*
X15276Y83369D02*
D03*
X15676Y60869D02*
D03*
X13976Y40869D02*
D03*
X14276Y50669D02*
D03*
X18776Y20869D02*
D03*
X35776Y11669D02*
D03*
X39776Y23169D02*
D03*
X39076Y5269D02*
D03*
X13576Y5169D02*
D03*
X63576Y7769D02*
D03*
X54376Y7869D02*
D03*
X82176Y20369D02*
D03*
X89176Y31869D02*
D03*
X127976Y11069D02*
D03*
X125976Y21369D02*
D03*
X124976Y30469D02*
D03*
X112976Y30769D02*
D03*
X113576Y50769D02*
D03*
X121576Y71269D02*
D03*
X130776Y81469D02*
D03*
X131676Y91669D02*
D03*
X104676Y154269D02*
D03*
X93776Y169669D02*
D03*
X30776Y53869D02*
D03*
X77176Y14869D02*
D03*
X89176Y25069D02*
D03*
X123376Y3732D02*
D03*
X136476Y41069D02*
D03*
X136876Y30969D02*
D03*
D79*
X109776Y121369D02*
D03*
X104376Y124069D02*
D03*
X59213Y147769D02*
D03*
X59276Y135469D02*
D03*
X55236Y143169D02*
D03*
X48576Y131569D02*
D03*
X27276Y125669D02*
D03*
X15476Y32269D02*
D03*
X19276Y32312D02*
D03*
X20176Y44569D02*
D03*
X17376Y46969D02*
D03*
X31276Y48969D02*
D03*
X31176Y45369D02*
D03*
X11976Y16769D02*
D03*
X8576Y20969D02*
D03*
X73576Y17169D02*
D03*
X76776Y7669D02*
D03*
X85276Y4169D02*
D03*
X81276Y7269D02*
D03*
X45776Y7226D02*
D03*
X41976Y10069D02*
D03*
X44876Y42269D02*
D03*
X65118Y147769D02*
D03*
X69016Y143169D02*
D03*
X86776Y159769D02*
D03*
X78876D02*
D03*
X67055Y162469D02*
D03*
X63118D02*
D03*
X67076Y159769D02*
D03*
X70992D02*
D03*
X77576Y142561D02*
D03*
X114676Y60869D02*
D03*
X111576Y71469D02*
D03*
X34137Y128909D02*
D03*
X37391Y132169D02*
D03*
X31214Y106769D02*
D03*
Y103507D02*
D03*
X25276Y62769D02*
D03*
X30276D02*
D03*
X32776Y145169D02*
D03*
X31796Y132669D02*
D03*
X133014Y116307D02*
D03*
X132876Y124769D02*
D03*
X129476D02*
D03*
X134776Y89469D02*
D03*
X131876Y84969D02*
D03*
X129276Y96969D02*
D03*
X111276Y78769D02*
D03*
X108376Y84869D02*
D03*
X54676Y137569D02*
D03*
X120076Y91969D02*
D03*
X122576Y91069D02*
D03*
X85076Y161469D02*
D03*
X37376Y54269D02*
D03*
X23176Y108969D02*
D03*
X20276Y111869D02*
D03*
X35039Y170905D02*
D03*
X105376Y171069D02*
D03*
X78676Y28769D02*
D03*
X81776D02*
D03*
X84876D02*
D03*
X87702Y42269D02*
D03*
X102276Y31669D02*
D03*
X86376Y17769D02*
D03*
Y14769D02*
D03*
X91076Y20869D02*
D03*
X121756Y20149D02*
D03*
X116076Y11469D02*
D03*
X119276D02*
D03*
X97576Y10969D02*
D03*
X102976D02*
D03*
X107176D02*
D03*
X112476D02*
D03*
X93676Y12069D02*
D03*
X90676D02*
D03*
X129510Y129535D02*
D03*
X30276Y59569D02*
D03*
X108376Y87869D02*
D03*
X59776Y143169D02*
D03*
X110576Y96269D02*
D03*
X106276Y89669D02*
D03*
X109976Y65169D02*
D03*
X39676Y117469D02*
D03*
X99776Y108269D02*
D03*
X109976Y114869D02*
D03*
X100076Y128909D02*
D03*
X101176Y112669D02*
D03*
X98276Y114869D02*
D03*
X99976Y120069D02*
D03*
X34176Y109069D02*
D03*
X110976Y74369D02*
D03*
X104776Y73569D02*
D03*
X52576Y131569D02*
D03*
X47376Y125369D02*
D03*
X50976Y136069D02*
D03*
X82176Y42269D02*
D03*
X109976Y118769D02*
D03*
X49076Y42269D02*
D03*
X97276Y147569D02*
D03*
X97276Y145369D02*
D03*
X98036Y141929D02*
D03*
X100064Y154281D02*
D03*
X104364Y161269D02*
D03*
Y158369D02*
D03*
X120076Y136569D02*
D03*
Y134269D02*
D03*
X24000Y59569D02*
D03*
X40076Y167169D02*
D03*
X28876Y165369D02*
D03*
X23676Y153169D02*
D03*
D80*
X133500Y157500D02*
D03*
X122500D02*
D03*
Y168500D02*
D03*
X133500D02*
D03*
X128000Y155000D02*
D03*
X120000Y163000D02*
D03*
X136000D02*
D03*
X128000Y171000D02*
D03*
X17500Y157500D02*
D03*
X6500D02*
D03*
Y168500D02*
D03*
X17500D02*
D03*
X12000Y155000D02*
D03*
X4000Y163000D02*
D03*
X20000D02*
D03*
X12000Y171000D02*
D03*
D91*
X32442Y62769D02*
D03*
D92*
X12000Y163000D02*
D03*
X128000D02*
D03*
M02*
