G04 Layer_Physical_Order=5*
G04 Layer_Color=8388736*
%FSLAX25Y25*%
%MOIN*%
G70*
G01*
G75*
%ADD78C,0.02362*%
%ADD81C,0.04000*%
%ADD82C,0.13386*%
%ADD83C,0.05975*%
%ADD84C,0.05575*%
%ADD85C,0.03975*%
%ADD86C,0.04775*%
%ADD87C,0.12599*%
%ADD88C,0.03150*%
%ADD89C,0.02756*%
%ADD90C,0.02575*%
G36*
X103643Y-10798D02*
X103702D01*
X103840Y-10805D01*
X103984Y-10824D01*
X104142Y-10844D01*
X104286Y-10877D01*
X104358Y-10896D01*
X104417Y-10916D01*
X104424D01*
X104431Y-10923D01*
X104470Y-10942D01*
X104529Y-10969D01*
X104601Y-11015D01*
X104680Y-11074D01*
X104765Y-11152D01*
X104844Y-11244D01*
X104923Y-11349D01*
Y-11356D01*
X104929Y-11362D01*
X104955Y-11402D01*
X104982Y-11467D01*
X105021Y-11552D01*
X105054Y-11651D01*
X105087Y-11769D01*
X105106Y-11894D01*
X105113Y-12031D01*
Y-12038D01*
Y-12051D01*
Y-12077D01*
X105106Y-12110D01*
Y-12156D01*
X105100Y-12202D01*
X105073Y-12313D01*
X105034Y-12445D01*
X104982Y-12582D01*
X104903Y-12720D01*
X104850Y-12786D01*
X104798Y-12851D01*
X104791Y-12858D01*
X104785Y-12864D01*
X104765Y-12884D01*
X104739Y-12904D01*
X104706Y-12930D01*
X104667Y-12956D01*
X104614Y-12989D01*
X104562Y-13028D01*
X104496Y-13061D01*
X104424Y-13094D01*
X104345Y-13133D01*
X104260Y-13166D01*
X104162Y-13192D01*
X104063Y-13225D01*
X103952Y-13245D01*
X103834Y-13265D01*
X103847Y-13271D01*
X103873Y-13284D01*
X103912Y-13310D01*
X103965Y-13337D01*
X104083Y-13409D01*
X104142Y-13455D01*
X104194Y-13494D01*
X104208Y-13507D01*
X104240Y-13540D01*
X104293Y-13593D01*
X104358Y-13658D01*
X104431Y-13750D01*
X104516Y-13848D01*
X104601Y-13966D01*
X104693Y-14098D01*
X105474Y-15331D01*
X104726D01*
X104129Y-14386D01*
Y-14380D01*
X104116Y-14367D01*
X104103Y-14347D01*
X104083Y-14321D01*
X104037Y-14249D01*
X103978Y-14157D01*
X103906Y-14058D01*
X103834Y-13953D01*
X103761Y-13855D01*
X103696Y-13763D01*
X103689Y-13757D01*
X103670Y-13730D01*
X103637Y-13691D01*
X103591Y-13645D01*
X103492Y-13547D01*
X103440Y-13501D01*
X103387Y-13461D01*
X103381Y-13455D01*
X103368Y-13448D01*
X103342Y-13435D01*
X103302Y-13416D01*
X103263Y-13396D01*
X103217Y-13376D01*
X103112Y-13343D01*
X103105D01*
X103092Y-13337D01*
X103066D01*
X103033Y-13330D01*
X102987Y-13324D01*
X102935D01*
X102863Y-13317D01*
X102089D01*
Y-15331D01*
X101485D01*
Y-10791D01*
X103591D01*
X103643Y-10798D01*
D02*
G37*
G36*
X93220D02*
X93331Y-10805D01*
X93449Y-10811D01*
X93561Y-10824D01*
X93659Y-10837D01*
X93672D01*
X93718Y-10851D01*
X93777Y-10864D01*
X93856Y-10883D01*
X93941Y-10916D01*
X94033Y-10955D01*
X94131Y-11001D01*
X94217Y-11054D01*
X94230Y-11060D01*
X94256Y-11080D01*
X94295Y-11119D01*
X94348Y-11165D01*
X94407Y-11224D01*
X94466Y-11303D01*
X94532Y-11388D01*
X94584Y-11487D01*
X94591Y-11500D01*
X94604Y-11533D01*
X94630Y-11592D01*
X94656Y-11671D01*
X94676Y-11762D01*
X94702Y-11867D01*
X94715Y-11985D01*
X94722Y-12110D01*
Y-12117D01*
Y-12136D01*
Y-12162D01*
X94715Y-12208D01*
X94709Y-12254D01*
X94702Y-12313D01*
X94689Y-12379D01*
X94676Y-12451D01*
X94630Y-12602D01*
X94604Y-12681D01*
X94564Y-12766D01*
X94518Y-12851D01*
X94472Y-12930D01*
X94413Y-13009D01*
X94348Y-13088D01*
X94341Y-13094D01*
X94328Y-13107D01*
X94309Y-13127D01*
X94276Y-13147D01*
X94236Y-13179D01*
X94184Y-13212D01*
X94118Y-13251D01*
X94046Y-13284D01*
X93961Y-13324D01*
X93862Y-13363D01*
X93757Y-13396D01*
X93633Y-13422D01*
X93502Y-13448D01*
X93357Y-13468D01*
X93193Y-13481D01*
X93023Y-13488D01*
X91862D01*
Y-15331D01*
X91258D01*
Y-10791D01*
X93121D01*
X93220Y-10798D01*
D02*
G37*
G36*
X107442Y-10778D02*
X107527Y-10791D01*
X107625Y-10811D01*
X107730Y-10837D01*
X107842Y-10870D01*
X107947Y-10923D01*
X107953D01*
X107960Y-10929D01*
X107993Y-10949D01*
X108045Y-10982D01*
X108111Y-11028D01*
X108183Y-11093D01*
X108262Y-11165D01*
X108334Y-11251D01*
X108406Y-11349D01*
X108413Y-11362D01*
X108439Y-11395D01*
X108465Y-11454D01*
X108511Y-11539D01*
X108550Y-11638D01*
X108603Y-11749D01*
X108649Y-11880D01*
X108688Y-12025D01*
Y-12031D01*
X108695Y-12044D01*
X108701Y-12064D01*
X108708Y-12097D01*
X108714Y-12136D01*
X108721Y-12182D01*
X108734Y-12241D01*
X108740Y-12307D01*
X108754Y-12379D01*
X108760Y-12458D01*
X108767Y-12550D01*
X108780Y-12641D01*
X108786Y-12746D01*
Y-12851D01*
X108793Y-12969D01*
Y-13094D01*
Y-13101D01*
Y-13127D01*
Y-13173D01*
Y-13225D01*
X108786Y-13297D01*
Y-13376D01*
X108780Y-13461D01*
X108773Y-13553D01*
X108754Y-13763D01*
X108721Y-13980D01*
X108681Y-14190D01*
X108655Y-14288D01*
X108622Y-14386D01*
Y-14393D01*
X108616Y-14406D01*
X108603Y-14432D01*
X108590Y-14465D01*
X108577Y-14511D01*
X108550Y-14557D01*
X108498Y-14668D01*
X108432Y-14786D01*
X108347Y-14918D01*
X108248Y-15036D01*
X108130Y-15147D01*
X108124D01*
X108117Y-15160D01*
X108098Y-15174D01*
X108071Y-15187D01*
X108039Y-15206D01*
X108006Y-15233D01*
X107907Y-15279D01*
X107789Y-15324D01*
X107651Y-15370D01*
X107487Y-15397D01*
X107310Y-15410D01*
X107245D01*
X107199Y-15403D01*
X107146Y-15397D01*
X107081Y-15383D01*
X107009Y-15370D01*
X106930Y-15351D01*
X106851Y-15324D01*
X106766Y-15298D01*
X106681Y-15259D01*
X106595Y-15213D01*
X106510Y-15160D01*
X106425Y-15095D01*
X106346Y-15023D01*
X106274Y-14944D01*
X106267Y-14937D01*
X106254Y-14918D01*
X106235Y-14885D01*
X106202Y-14832D01*
X106169Y-14773D01*
X106136Y-14695D01*
X106090Y-14603D01*
X106051Y-14498D01*
X106011Y-14380D01*
X105972Y-14242D01*
X105933Y-14091D01*
X105900Y-13921D01*
X105867Y-13737D01*
X105848Y-13540D01*
X105834Y-13324D01*
X105828Y-13094D01*
Y-13088D01*
Y-13061D01*
Y-13015D01*
Y-12963D01*
X105834Y-12891D01*
Y-12812D01*
X105841Y-12727D01*
X105848Y-12628D01*
X105867Y-12425D01*
X105900Y-12208D01*
X105939Y-11992D01*
X105966Y-11894D01*
X105992Y-11795D01*
Y-11789D01*
X105998Y-11776D01*
X106011Y-11749D01*
X106025Y-11716D01*
X106038Y-11671D01*
X106064Y-11625D01*
X106116Y-11513D01*
X106182Y-11395D01*
X106267Y-11270D01*
X106366Y-11146D01*
X106484Y-11041D01*
X106490D01*
X106497Y-11028D01*
X106517Y-11015D01*
X106543Y-11001D01*
X106576Y-10975D01*
X106615Y-10955D01*
X106713Y-10903D01*
X106832Y-10857D01*
X106969Y-10811D01*
X107133Y-10785D01*
X107310Y-10772D01*
X107369D01*
X107442Y-10778D01*
D02*
G37*
G36*
X112152Y-11382D02*
X110335D01*
X110092Y-12609D01*
X110098Y-12602D01*
X110111Y-12596D01*
X110131Y-12582D01*
X110164Y-12563D01*
X110203Y-12543D01*
X110249Y-12517D01*
X110354Y-12464D01*
X110485Y-12412D01*
X110630Y-12366D01*
X110787Y-12333D01*
X110866Y-12320D01*
X111010D01*
X111050Y-12326D01*
X111102Y-12333D01*
X111161Y-12340D01*
X111227Y-12353D01*
X111299Y-12372D01*
X111456Y-12418D01*
X111542Y-12451D01*
X111627Y-12497D01*
X111712Y-12543D01*
X111797Y-12596D01*
X111876Y-12661D01*
X111955Y-12733D01*
X111961Y-12740D01*
X111975Y-12753D01*
X111994Y-12773D01*
X112021Y-12805D01*
X112053Y-12851D01*
X112086Y-12897D01*
X112125Y-12956D01*
X112165Y-13022D01*
X112198Y-13094D01*
X112237Y-13173D01*
X112270Y-13265D01*
X112303Y-13356D01*
X112329Y-13455D01*
X112348Y-13566D01*
X112362Y-13678D01*
X112368Y-13796D01*
Y-13803D01*
Y-13822D01*
Y-13855D01*
X112362Y-13901D01*
X112355Y-13953D01*
X112348Y-14012D01*
X112335Y-14085D01*
X112322Y-14157D01*
X112283Y-14327D01*
X112217Y-14504D01*
X112178Y-14596D01*
X112125Y-14682D01*
X112073Y-14773D01*
X112007Y-14859D01*
X112001Y-14865D01*
X111988Y-14885D01*
X111961Y-14911D01*
X111929Y-14944D01*
X111883Y-14983D01*
X111830Y-15036D01*
X111765Y-15082D01*
X111693Y-15134D01*
X111614Y-15187D01*
X111522Y-15233D01*
X111424Y-15279D01*
X111319Y-15324D01*
X111207Y-15357D01*
X111082Y-15383D01*
X110951Y-15403D01*
X110813Y-15410D01*
X110754D01*
X110708Y-15403D01*
X110656Y-15397D01*
X110597Y-15390D01*
X110525Y-15383D01*
X110453Y-15364D01*
X110289Y-15324D01*
X110125Y-15265D01*
X110039Y-15226D01*
X109954Y-15180D01*
X109875Y-15128D01*
X109797Y-15069D01*
X109790Y-15062D01*
X109777Y-15055D01*
X109764Y-15029D01*
X109738Y-15003D01*
X109705Y-14970D01*
X109672Y-14931D01*
X109633Y-14878D01*
X109600Y-14819D01*
X109561Y-14760D01*
X109521Y-14688D01*
X109449Y-14531D01*
X109390Y-14347D01*
X109370Y-14249D01*
X109357Y-14144D01*
X109941Y-14098D01*
Y-14104D01*
Y-14117D01*
X109948Y-14137D01*
X109954Y-14170D01*
X109974Y-14242D01*
X110000Y-14340D01*
X110039Y-14439D01*
X110092Y-14550D01*
X110157Y-14649D01*
X110236Y-14741D01*
X110249Y-14747D01*
X110275Y-14773D01*
X110328Y-14806D01*
X110400Y-14846D01*
X110479Y-14885D01*
X110577Y-14918D01*
X110689Y-14944D01*
X110813Y-14951D01*
X110853D01*
X110879Y-14944D01*
X110958Y-14937D01*
X111050Y-14911D01*
X111161Y-14878D01*
X111273Y-14826D01*
X111391Y-14747D01*
X111443Y-14701D01*
X111496Y-14649D01*
X111502Y-14642D01*
X111509Y-14636D01*
X111522Y-14616D01*
X111542Y-14596D01*
X111588Y-14524D01*
X111640Y-14432D01*
X111686Y-14321D01*
X111732Y-14183D01*
X111765Y-14019D01*
X111778Y-13934D01*
Y-13842D01*
Y-13835D01*
Y-13822D01*
Y-13796D01*
X111771Y-13763D01*
Y-13724D01*
X111765Y-13678D01*
X111745Y-13573D01*
X111712Y-13448D01*
X111666Y-13324D01*
X111601Y-13206D01*
X111509Y-13094D01*
Y-13088D01*
X111496Y-13081D01*
X111463Y-13048D01*
X111404Y-13002D01*
X111325Y-12950D01*
X111220Y-12904D01*
X111102Y-12858D01*
X110964Y-12825D01*
X110886Y-12812D01*
X110761D01*
X110708Y-12819D01*
X110643Y-12825D01*
X110564Y-12845D01*
X110485Y-12864D01*
X110400Y-12897D01*
X110315Y-12937D01*
X110308Y-12943D01*
X110282Y-12956D01*
X110243Y-12989D01*
X110190Y-13022D01*
X110138Y-13068D01*
X110085Y-13127D01*
X110026Y-13186D01*
X109980Y-13258D01*
X109456Y-13186D01*
X109895Y-10851D01*
X112152D01*
Y-11382D01*
D02*
G37*
G36*
X99668Y-15331D02*
X99078D01*
X98126Y-11874D01*
Y-11867D01*
X98120Y-11854D01*
X98113Y-11834D01*
X98107Y-11802D01*
X98087Y-11730D01*
X98067Y-11644D01*
X98041Y-11552D01*
X98015Y-11467D01*
X97995Y-11395D01*
X97989Y-11362D01*
X97982Y-11343D01*
Y-11349D01*
X97975Y-11356D01*
X97969Y-11395D01*
X97956Y-11454D01*
X97936Y-11526D01*
X97917Y-11605D01*
X97890Y-11697D01*
X97871Y-11789D01*
X97844Y-11874D01*
X96887Y-15331D01*
X96257D01*
X95069Y-10791D01*
X95693D01*
X96368Y-13770D01*
Y-13776D01*
X96375Y-13789D01*
X96381Y-13816D01*
X96388Y-13848D01*
X96395Y-13894D01*
X96408Y-13940D01*
X96421Y-13999D01*
X96434Y-14065D01*
X96467Y-14203D01*
X96500Y-14360D01*
X96532Y-14531D01*
X96565Y-14701D01*
Y-14695D01*
X96572Y-14668D01*
X96585Y-14636D01*
X96591Y-14583D01*
X96605Y-14531D01*
X96624Y-14465D01*
X96657Y-14321D01*
X96696Y-14176D01*
X96709Y-14104D01*
X96729Y-14039D01*
X96742Y-13980D01*
X96755Y-13927D01*
X96768Y-13888D01*
X96775Y-13862D01*
X97634Y-10791D01*
X98363D01*
X99005Y-13094D01*
Y-13101D01*
X99019Y-13133D01*
X99032Y-13179D01*
X99045Y-13238D01*
X99064Y-13317D01*
X99091Y-13402D01*
X99117Y-13501D01*
X99143Y-13612D01*
X99176Y-13737D01*
X99202Y-13862D01*
X99261Y-14130D01*
X99320Y-14413D01*
X99366Y-14701D01*
Y-14695D01*
X99373Y-14682D01*
Y-14655D01*
X99386Y-14623D01*
X99392Y-14583D01*
X99406Y-14537D01*
X99412Y-14478D01*
X99432Y-14413D01*
X99465Y-14268D01*
X99504Y-14098D01*
X99543Y-13914D01*
X99596Y-13711D01*
X100304Y-10791D01*
X100914D01*
X99668Y-15331D01*
D02*
G37*
%LPC*%
G36*
X103519Y-11297D02*
X102089D01*
Y-12799D01*
X103440D01*
X103519Y-12792D01*
X103611Y-12786D01*
X103716Y-12779D01*
X103821Y-12766D01*
X103925Y-12746D01*
X104017Y-12720D01*
X104030Y-12714D01*
X104057Y-12700D01*
X104096Y-12681D01*
X104148Y-12654D01*
X104208Y-12615D01*
X104267Y-12569D01*
X104326Y-12510D01*
X104372Y-12445D01*
X104378Y-12438D01*
X104391Y-12412D01*
X104411Y-12372D01*
X104437Y-12320D01*
X104457Y-12261D01*
X104476Y-12195D01*
X104490Y-12117D01*
X104496Y-12038D01*
Y-12031D01*
Y-12025D01*
X104490Y-11985D01*
X104483Y-11926D01*
X104470Y-11848D01*
X104437Y-11769D01*
X104398Y-11677D01*
X104339Y-11592D01*
X104260Y-11507D01*
X104247Y-11500D01*
X104214Y-11474D01*
X104162Y-11441D01*
X104076Y-11402D01*
X103978Y-11362D01*
X103847Y-11329D01*
X103696Y-11303D01*
X103519Y-11297D01*
D02*
G37*
G36*
X93160Y-11329D02*
X91862D01*
Y-12950D01*
X93082D01*
X93128Y-12943D01*
X93174D01*
X93226Y-12937D01*
X93351Y-12923D01*
X93489Y-12897D01*
X93626Y-12858D01*
X93751Y-12805D01*
X93810Y-12773D01*
X93856Y-12733D01*
X93869Y-12720D01*
X93895Y-12694D01*
X93935Y-12641D01*
X93980Y-12576D01*
X94026Y-12490D01*
X94066Y-12386D01*
X94092Y-12268D01*
X94105Y-12130D01*
Y-12123D01*
Y-12117D01*
Y-12084D01*
X94099Y-12025D01*
X94085Y-11959D01*
X94072Y-11887D01*
X94046Y-11802D01*
X94007Y-11723D01*
X93961Y-11644D01*
X93954Y-11638D01*
X93935Y-11611D01*
X93902Y-11579D01*
X93862Y-11533D01*
X93803Y-11487D01*
X93738Y-11447D01*
X93666Y-11408D01*
X93580Y-11375D01*
X93574D01*
X93547Y-11369D01*
X93508Y-11362D01*
X93456Y-11349D01*
X93377Y-11343D01*
X93279Y-11336D01*
X93160Y-11329D01*
D02*
G37*
G36*
X107304Y-11231D02*
X107264D01*
X107238Y-11238D01*
X107166Y-11251D01*
X107081Y-11270D01*
X106982Y-11310D01*
X106877Y-11369D01*
X106825Y-11408D01*
X106772Y-11447D01*
X106727Y-11500D01*
X106681Y-11559D01*
Y-11566D01*
X106667Y-11579D01*
X106654Y-11605D01*
X106635Y-11638D01*
X106615Y-11690D01*
X106589Y-11749D01*
X106569Y-11821D01*
X106543Y-11907D01*
X106517Y-12005D01*
X106490Y-12117D01*
X106464Y-12241D01*
X106445Y-12379D01*
X106425Y-12536D01*
X106412Y-12707D01*
X106405Y-12891D01*
X106399Y-13094D01*
Y-13107D01*
Y-13140D01*
Y-13199D01*
X106405Y-13278D01*
Y-13363D01*
X106412Y-13468D01*
X106418Y-13579D01*
X106431Y-13698D01*
X106464Y-13953D01*
X106484Y-14078D01*
X106510Y-14196D01*
X106536Y-14308D01*
X106576Y-14413D01*
X106615Y-14504D01*
X106661Y-14583D01*
Y-14590D01*
X106674Y-14596D01*
X106707Y-14642D01*
X106766Y-14701D01*
X106838Y-14767D01*
X106937Y-14832D01*
X107048Y-14891D01*
X107173Y-14937D01*
X107238Y-14944D01*
X107310Y-14951D01*
X107350D01*
X107376Y-14944D01*
X107442Y-14931D01*
X107533Y-14905D01*
X107632Y-14859D01*
X107743Y-14793D01*
X107796Y-14754D01*
X107848Y-14701D01*
X107901Y-14649D01*
X107953Y-14583D01*
Y-14577D01*
X107966Y-14563D01*
X107980Y-14544D01*
X107993Y-14511D01*
X108019Y-14465D01*
X108039Y-14406D01*
X108065Y-14340D01*
X108091Y-14262D01*
X108111Y-14163D01*
X108137Y-14058D01*
X108163Y-13934D01*
X108183Y-13803D01*
X108196Y-13645D01*
X108209Y-13481D01*
X108222Y-13297D01*
Y-13094D01*
Y-13088D01*
Y-13081D01*
Y-13048D01*
Y-12989D01*
X108216Y-12910D01*
Y-12825D01*
X108209Y-12720D01*
X108203Y-12609D01*
X108189Y-12484D01*
X108157Y-12235D01*
X108137Y-12110D01*
X108111Y-11992D01*
X108084Y-11880D01*
X108045Y-11776D01*
X108006Y-11684D01*
X107960Y-11605D01*
Y-11598D01*
X107947Y-11592D01*
X107934Y-11572D01*
X107914Y-11546D01*
X107855Y-11487D01*
X107783Y-11415D01*
X107684Y-11349D01*
X107573Y-11290D01*
X107514Y-11264D01*
X107448Y-11244D01*
X107376Y-11238D01*
X107304Y-11231D01*
D02*
G37*
%LPD*%
D78*
X81969Y111186D02*
D03*
X71736Y106067D02*
D03*
X76853Y103508D02*
D03*
X69173Y113744D02*
D03*
X63976Y113769D02*
D03*
X69148Y108769D02*
D03*
X66676D02*
D03*
X74291Y98469D02*
D03*
X71776Y108769D02*
D03*
X69172Y116304D02*
D03*
X66614Y113744D02*
D03*
X63976Y108769D02*
D03*
Y106069D02*
D03*
X66776Y103469D02*
D03*
X63876D02*
D03*
X79626Y77046D02*
D03*
X84351Y66945D02*
D03*
X52854Y54346D02*
D03*
X56003Y54346D02*
D03*
X59276Y132969D02*
D03*
X99076Y70069D02*
D03*
X74901Y48047D02*
D03*
X78051D02*
D03*
X46576Y47669D02*
D03*
Y51197D02*
D03*
X49676Y47969D02*
D03*
X52854Y51197D02*
D03*
X52854Y48047D02*
D03*
X68676Y76369D02*
D03*
X65453Y70094D02*
D03*
X65453Y76394D02*
D03*
X87676Y73269D02*
D03*
X59153Y73244D02*
D03*
X62303Y73244D02*
D03*
X59154Y70094D02*
D03*
X59153Y76394D02*
D03*
X56004Y70095D02*
D03*
X69170Y111185D02*
D03*
X49705Y76394D02*
D03*
X74901Y76394D02*
D03*
X52854Y73244D02*
D03*
X93799Y54346D02*
D03*
X93799Y51197D02*
D03*
X71752Y51197D02*
D03*
X87500Y54346D02*
D03*
X90649Y54346D02*
D03*
X84350Y54346D02*
D03*
X74901Y54346D02*
D03*
X65452D02*
D03*
X62303Y48047D02*
D03*
X65452D02*
D03*
X71752D02*
D03*
X84350Y48047D02*
D03*
X87500Y48047D02*
D03*
X90649D02*
D03*
X93799Y48047D02*
D03*
X81201Y51197D02*
D03*
X84350Y51197D02*
D03*
X87500D02*
D03*
X52854Y66945D02*
D03*
X68603Y66945D02*
D03*
X87500D02*
D03*
X78051Y73244D02*
D03*
X68602Y70094D02*
D03*
X56330Y103457D02*
D03*
X74902Y66945D02*
D03*
X61876Y64169D02*
D03*
X45476Y63169D02*
D03*
X69174Y126541D02*
D03*
X80676Y132369D02*
D03*
X62303Y51197D02*
D03*
X46555Y54346D02*
D03*
X49704D02*
D03*
X59153Y51197D02*
D03*
X99576Y74869D02*
D03*
X71751Y54347D02*
D03*
X81201Y54346D02*
D03*
X74876Y63869D02*
D03*
X45576Y79469D02*
D03*
Y76869D02*
D03*
X49776Y73369D02*
D03*
X50976Y93369D02*
D03*
X78051Y66945D02*
D03*
X52776Y62869D02*
D03*
X47676Y107069D02*
D03*
X45576Y106669D02*
D03*
X43176D02*
D03*
X87088Y108693D02*
D03*
X81976Y118869D02*
D03*
X81969Y126541D02*
D03*
X81968Y121494D02*
D03*
X87088Y123979D02*
D03*
X95376Y129369D02*
D03*
X76851Y111188D02*
D03*
X84527Y116304D02*
D03*
X84594Y118862D02*
D03*
X87088Y118861D02*
D03*
X84527Y121422D02*
D03*
X81969Y123980D02*
D03*
X84528Y123980D02*
D03*
X87088Y121354D02*
D03*
X79409Y95831D02*
D03*
X81968Y106067D02*
D03*
X79409Y98390D02*
D03*
X89645Y95831D02*
D03*
X94076Y92469D02*
D03*
X73076Y87469D02*
D03*
X76783Y93271D02*
D03*
X79478D02*
D03*
X74294Y93271D02*
D03*
X75573Y90182D02*
D03*
X78132Y90182D02*
D03*
X84527Y103507D02*
D03*
X81969Y101015D02*
D03*
X66615Y121355D02*
D03*
X69176Y121269D02*
D03*
X74291Y121422D02*
D03*
X74292Y126540D02*
D03*
X53819Y113744D02*
D03*
Y123980D02*
D03*
X53819Y116237D02*
D03*
X84527Y95831D02*
D03*
X86921Y93323D02*
D03*
X89645Y93271D02*
D03*
X81968Y98390D02*
D03*
X84527Y98390D02*
D03*
X84528Y101015D02*
D03*
X56003Y48047D02*
D03*
X55976Y51169D02*
D03*
X74176Y111169D02*
D03*
X76876Y98469D02*
D03*
X71576D02*
D03*
X67876Y88469D02*
D03*
X66615Y93271D02*
D03*
X76851Y106068D02*
D03*
X61576Y95869D02*
D03*
X58871Y95854D02*
D03*
X61497Y98390D02*
D03*
X58871Y98439D02*
D03*
X64056Y95831D02*
D03*
X64076Y88469D02*
D03*
X66615Y98390D02*
D03*
X71737Y103507D02*
D03*
X66615Y106068D02*
D03*
X66615Y95831D02*
D03*
X53819Y118862D02*
D03*
X56379Y121422D02*
D03*
X57576Y130069D02*
D03*
X56379Y123980D02*
D03*
X58872Y123980D02*
D03*
X56379Y118862D02*
D03*
X61497Y121422D02*
D03*
Y118862D02*
D03*
X58872Y121422D02*
D03*
X58938Y108626D02*
D03*
X56376Y105969D02*
D03*
X56312Y108626D02*
D03*
X61497Y93270D02*
D03*
X87076Y103569D02*
D03*
X74270Y113769D02*
D03*
X76853Y113744D02*
D03*
D81*
X0Y175000D02*
X140000D01*
Y0D02*
Y175000D01*
X0Y0D02*
X140000D01*
X0D02*
Y175000D01*
D82*
X130000Y142500D02*
D03*
X10000D02*
D03*
D83*
X117974Y5737D02*
D03*
X91982D02*
D03*
D84*
X118500Y76000D02*
D03*
Y66000D02*
D03*
Y56000D02*
D03*
Y46000D02*
D03*
Y26000D02*
D03*
X6500Y76000D02*
D03*
Y66000D02*
D03*
Y56000D02*
D03*
Y46000D02*
D03*
Y36000D02*
D03*
Y26000D02*
D03*
Y16000D02*
D03*
X133500Y76000D02*
D03*
Y66000D02*
D03*
Y56000D02*
D03*
Y46000D02*
D03*
Y36000D02*
D03*
Y26000D02*
D03*
Y16000D02*
D03*
Y6000D02*
D03*
D85*
X90900Y154095D02*
D03*
X49134D02*
D03*
D86*
X31937Y25000D02*
D03*
X24000D02*
D03*
D87*
X12000Y163000D02*
D03*
X128000D02*
D03*
D88*
X22376Y122269D02*
D03*
X19376Y115669D02*
D03*
X19676Y135069D02*
D03*
X14776Y130869D02*
D03*
X5176Y86969D02*
D03*
X15276Y83369D02*
D03*
X15676Y60869D02*
D03*
X13976Y40869D02*
D03*
X14276Y50669D02*
D03*
X18776Y20869D02*
D03*
X35776Y11669D02*
D03*
X39776Y23169D02*
D03*
X39076Y5269D02*
D03*
X13576Y5169D02*
D03*
X63576Y7769D02*
D03*
X54376Y7869D02*
D03*
X82176Y20369D02*
D03*
X89176Y31869D02*
D03*
X127976Y11069D02*
D03*
X125976Y21369D02*
D03*
X124976Y30469D02*
D03*
X112976Y30769D02*
D03*
X113576Y50769D02*
D03*
X121576Y71269D02*
D03*
X130776Y81469D02*
D03*
X131676Y91669D02*
D03*
X89476Y135769D02*
D03*
X104676Y154269D02*
D03*
X93776Y169669D02*
D03*
X86776Y140769D02*
D03*
X30776Y53869D02*
D03*
X77176Y14869D02*
D03*
X89176Y25069D02*
D03*
X123376Y3732D02*
D03*
X136476Y41069D02*
D03*
X136876Y30969D02*
D03*
D89*
X109776Y121369D02*
D03*
X108844Y123928D02*
D03*
X104376Y124069D02*
D03*
X110602Y125679D02*
D03*
X59213Y147769D02*
D03*
X59276Y135469D02*
D03*
X59181Y159769D02*
D03*
X55236Y143169D02*
D03*
X48576Y131569D02*
D03*
X27276Y125669D02*
D03*
X15476Y32269D02*
D03*
X19276Y32312D02*
D03*
X20176Y44569D02*
D03*
X17376Y46969D02*
D03*
X31276Y48969D02*
D03*
X31176Y45369D02*
D03*
X11976Y16769D02*
D03*
X8576Y20969D02*
D03*
X73576Y17169D02*
D03*
X76776Y7669D02*
D03*
X85276Y4169D02*
D03*
X81276Y7269D02*
D03*
X45776Y7226D02*
D03*
X41976Y10069D02*
D03*
X44876Y42269D02*
D03*
X100921Y43343D02*
D03*
X103481D02*
D03*
X120876Y119069D02*
D03*
X122976Y116869D02*
D03*
X65118Y147769D02*
D03*
X65079Y143169D02*
D03*
X69055Y147769D02*
D03*
X69016Y143169D02*
D03*
X84768D02*
D03*
X86776Y159769D02*
D03*
X78876D02*
D03*
X67055Y162469D02*
D03*
X63118D02*
D03*
X55244D02*
D03*
X39876Y149869D02*
D03*
X45576D02*
D03*
X67076Y159769D02*
D03*
X74976Y162469D02*
D03*
X70992Y159769D02*
D03*
X74976Y157769D02*
D03*
X125276Y113744D02*
D03*
X77576Y142561D02*
D03*
X78076Y132969D02*
D03*
X70992Y162469D02*
D03*
X106876Y100969D02*
D03*
X114676Y60869D02*
D03*
X111576Y71469D02*
D03*
X34137Y128909D02*
D03*
X37391Y132169D02*
D03*
X31214Y106769D02*
D03*
Y103507D02*
D03*
X25276Y62769D02*
D03*
X30276D02*
D03*
X32776Y145169D02*
D03*
X31796Y132669D02*
D03*
X133014Y116307D02*
D03*
X132876Y124769D02*
D03*
X129476D02*
D03*
X117876Y127969D02*
D03*
X114576D02*
D03*
X111376Y88269D02*
D03*
X134776Y89469D02*
D03*
X131876Y84969D02*
D03*
X129276Y96969D02*
D03*
X116323Y97569D02*
D03*
X111276Y78769D02*
D03*
X108376Y84869D02*
D03*
X72969Y143169D02*
D03*
X54676Y137569D02*
D03*
X120076Y91969D02*
D03*
X122576Y91069D02*
D03*
X85076Y161469D02*
D03*
X72976Y140169D02*
D03*
X32476Y113969D02*
D03*
X108576Y91669D02*
D03*
X37376Y54269D02*
D03*
X41476Y90469D02*
D03*
Y93269D02*
D03*
X15976Y88669D02*
D03*
Y99169D02*
D03*
Y95869D02*
D03*
X16176Y105069D02*
D03*
X61142Y145803D02*
D03*
X23176Y108969D02*
D03*
X20276Y111869D02*
D03*
X35039Y170905D02*
D03*
X105376Y171069D02*
D03*
X78676Y28769D02*
D03*
X81776D02*
D03*
X84876D02*
D03*
X87702Y42269D02*
D03*
X102276Y31669D02*
D03*
X86376Y17769D02*
D03*
Y14769D02*
D03*
X91076Y20869D02*
D03*
X121756Y20149D02*
D03*
X116076Y11469D02*
D03*
X119276D02*
D03*
X97576Y10969D02*
D03*
X102976D02*
D03*
X107176D02*
D03*
X112476D02*
D03*
X93676Y12069D02*
D03*
X90676D02*
D03*
X129510Y129535D02*
D03*
X30276Y59569D02*
D03*
X108376Y87869D02*
D03*
X59776Y143169D02*
D03*
X45676Y99069D02*
D03*
X110576Y96269D02*
D03*
X106276Y89669D02*
D03*
X109976Y65169D02*
D03*
X39676Y117469D02*
D03*
X99776Y108269D02*
D03*
X109976Y114869D02*
D03*
X100076Y128909D02*
D03*
X101176Y112669D02*
D03*
X98276Y114869D02*
D03*
X99976Y120069D02*
D03*
X34176Y109069D02*
D03*
X110976Y74369D02*
D03*
X104776Y73569D02*
D03*
X52576Y131569D02*
D03*
X47376Y125369D02*
D03*
X50976Y136069D02*
D03*
X54376Y134269D02*
D03*
X46676Y111169D02*
D03*
X82176Y42269D02*
D03*
X109976Y118769D02*
D03*
X51261Y98390D02*
D03*
X49076Y42269D02*
D03*
X97276Y147569D02*
D03*
X97276Y145369D02*
D03*
X98036Y141929D02*
D03*
X100064Y154281D02*
D03*
X104364Y161269D02*
D03*
Y158369D02*
D03*
X120076Y136569D02*
D03*
Y134269D02*
D03*
X94776Y116169D02*
D03*
X24000Y59569D02*
D03*
X40076Y167169D02*
D03*
X28876Y165369D02*
D03*
X23676Y153169D02*
D03*
X104974Y103769D02*
D03*
D90*
X133500Y157500D02*
D03*
X122500D02*
D03*
Y168500D02*
D03*
X133500D02*
D03*
X128000Y155000D02*
D03*
X120000Y163000D02*
D03*
X136000D02*
D03*
X128000Y171000D02*
D03*
X17500Y157500D02*
D03*
X6500D02*
D03*
Y168500D02*
D03*
X17500D02*
D03*
X12000Y155000D02*
D03*
X4000Y163000D02*
D03*
X20000D02*
D03*
X12000Y171000D02*
D03*
M02*
