G04 Layer_Physical_Order=6*
G04 Layer_Color=16711680*
%FSLAX25Y25*%
%MOIN*%
G70*
G01*
G75*
%ADD10C,0.00787*%
%ADD12C,0.04000*%
%ADD17R,0.02500X0.03000*%
%ADD18R,0.03000X0.02500*%
%ADD21R,0.02000X0.02000*%
%ADD34R,0.04800X0.03200*%
%ADD43C,0.01500*%
%ADD44C,0.00500*%
%ADD45C,0.02000*%
%ADD46C,0.01000*%
%ADD47C,0.00800*%
%ADD48C,0.01969*%
%ADD50C,0.00602*%
%ADD51C,0.00462*%
%ADD52C,0.00350*%
%ADD53C,0.00600*%
%ADD71C,0.17717*%
%ADD72C,0.06600*%
%ADD73P,0.06494X8X22.5*%
%ADD74C,0.02400*%
%ADD75C,0.05600*%
%ADD76C,0.21000*%
%ADD77C,0.01575*%
%ADD78C,0.02362*%
%ADD79C,0.01969*%
%ADD80C,0.01800*%
%ADD93R,0.03937X0.04724*%
%ADD94R,0.05315X0.07480*%
%ADD95R,0.07087X0.04606*%
%ADD96R,0.04331X0.02953*%
%ADD97R,0.04331X0.03346*%
%ADD98R,0.05315X0.06102*%
%ADD99R,0.02200X0.02000*%
%ADD100R,0.02000X0.02000*%
%ADD101R,0.04000X0.04000*%
%ADD102R,0.02000X0.02200*%
%ADD103R,0.05600X0.06300*%
%ADD104C,0.00591*%
%ADD105C,0.00400*%
%ADD106R,0.03433X0.01210*%
%ADD107R,0.00873X0.01500*%
%ADD108R,0.02117X0.00893*%
%ADD109R,0.03900X0.01600*%
%ADD110R,0.04700X0.06200*%
%ADD111R,0.14500X0.11900*%
G36*
X66607Y95043D02*
X66524Y95041D01*
X66445Y95034D01*
X66369Y95022D01*
X66296Y95005D01*
X66226Y94982D01*
X66160Y94955D01*
X66098Y94922D01*
X66038Y94884D01*
X65982Y94840D01*
X65929Y94792D01*
X65576Y95145D01*
X65624Y95198D01*
X65668Y95254D01*
X65706Y95314D01*
X65739Y95376D01*
X65766Y95442D01*
X65789Y95512D01*
X65806Y95585D01*
X65818Y95661D01*
X65825Y95740D01*
X65827Y95823D01*
X66607Y95043D01*
D02*
G37*
G36*
X89638Y95043D02*
X89535Y95042D01*
X89349Y95026D01*
X89266Y95012D01*
X89188Y94992D01*
X89117Y94969D01*
X89051Y94941D01*
X88992Y94908D01*
X88939Y94871D01*
X88892Y94830D01*
X88645Y95077D01*
X88686Y95124D01*
X88723Y95177D01*
X88756Y95236D01*
X88784Y95302D01*
X88807Y95373D01*
X88827Y95451D01*
X88841Y95534D01*
X88851Y95624D01*
X88857Y95720D01*
X88858Y95823D01*
X89638Y95043D01*
D02*
G37*
G36*
X72458Y95826D02*
X72469Y95780D01*
X72486Y95733D01*
X72509Y95683D01*
X72538Y95632D01*
X72573Y95579D01*
X72614Y95524D01*
X72714Y95407D01*
X72773Y95346D01*
X72255Y94751D01*
X72194Y94810D01*
X72077Y94908D01*
X72021Y94947D01*
X71967Y94979D01*
X71914Y95006D01*
X71863Y95025D01*
X71814Y95038D01*
X71767Y95045D01*
X71721Y95045D01*
X72453Y95869D01*
X72458Y95826D01*
D02*
G37*
G36*
X75081Y95778D02*
X75090Y95731D01*
X75106Y95682D01*
X75127Y95632D01*
X75155Y95580D01*
X75188Y95526D01*
X75229Y95470D01*
X75275Y95413D01*
X75386Y95293D01*
X74829Y94736D01*
X74768Y94795D01*
X74652Y94893D01*
X74596Y94934D01*
X74542Y94967D01*
X74490Y94995D01*
X74440Y95016D01*
X74391Y95032D01*
X74344Y95041D01*
X74299Y95043D01*
X75079Y95823D01*
X75081Y95778D01*
D02*
G37*
G36*
X75386Y96368D02*
X75327Y96307D01*
X75229Y96191D01*
X75188Y96135D01*
X75155Y96081D01*
X75127Y96029D01*
X75106Y95979D01*
X75090Y95930D01*
X75081Y95883D01*
X75079Y95838D01*
X74291Y95831D01*
X74284Y95043D01*
X74239Y95041D01*
X74192Y95032D01*
X74143Y95016D01*
X74093Y94995D01*
X74041Y94967D01*
X73987Y94934D01*
X73931Y94893D01*
X73815Y94795D01*
X73754Y94736D01*
X73197Y95293D01*
X73308Y95413D01*
X73355Y95470D01*
X73395Y95526D01*
X73428Y95580D01*
X73456Y95632D01*
X73477Y95682D01*
X73493Y95731D01*
X73501Y95778D01*
X73504Y95823D01*
X74291Y95831D01*
X74299Y96618D01*
X74344Y96621D01*
X74391Y96629D01*
X74440Y96645D01*
X74490Y96666D01*
X74542Y96694D01*
X74596Y96727D01*
X74652Y96767D01*
X74709Y96814D01*
X74829Y96925D01*
X75386Y96368D01*
D02*
G37*
G36*
X76361Y96879D02*
X76477Y96779D01*
X76533Y96738D01*
X76586Y96702D01*
X76637Y96673D01*
X76687Y96650D01*
X76734Y96633D01*
X76779Y96622D01*
X76823Y96617D01*
X75998Y95886D01*
X75998Y95932D01*
X75991Y95979D01*
X75978Y96028D01*
X75959Y96079D01*
X75932Y96132D01*
X75900Y96186D01*
X75861Y96242D01*
X75815Y96299D01*
X75704Y96420D01*
X76300Y96938D01*
X76361Y96879D01*
D02*
G37*
G36*
X73754Y99486D02*
X73871Y99389D01*
X73927Y99350D01*
X73981Y99317D01*
X74034Y99291D01*
X74085Y99272D01*
X74134Y99260D01*
X74182Y99253D01*
X74227Y99254D01*
X73506Y98421D01*
X73500Y98464D01*
X73488Y98509D01*
X73471Y98556D01*
X73448Y98605D01*
X73418Y98656D01*
X73383Y98709D01*
X73342Y98765D01*
X73241Y98881D01*
X73182Y98942D01*
X73693Y99545D01*
X73754Y99486D01*
D02*
G37*
G36*
X134362Y98667D02*
X134356Y98724D01*
X134338Y98775D01*
X134308Y98820D01*
X134266Y98859D01*
X134212Y98892D01*
X134146Y98920D01*
X134067Y98941D01*
X133977Y98956D01*
X133875Y98965D01*
X133760Y98968D01*
Y99570D01*
X133875Y99573D01*
X133977Y99582D01*
X134067Y99597D01*
X134146Y99618D01*
X134212Y99646D01*
X134266Y99679D01*
X134308Y99718D01*
X134338Y99763D01*
X134356Y99814D01*
X134362Y99871D01*
Y98667D01*
D02*
G37*
G36*
X60864Y99380D02*
X60920Y99336D01*
X60980Y99298D01*
X61042Y99265D01*
X61108Y99238D01*
X61178Y99215D01*
X61251Y99198D01*
X61327Y99186D01*
X61406Y99179D01*
X61489Y99177D01*
X60709Y98397D01*
X60707Y98480D01*
X60700Y98559D01*
X60688Y98635D01*
X60671Y98708D01*
X60648Y98778D01*
X60621Y98844D01*
X60588Y98906D01*
X60550Y98966D01*
X60506Y99022D01*
X60458Y99075D01*
X60811Y99428D01*
X60864Y99380D01*
D02*
G37*
G36*
X74340Y97683D02*
X74297Y97677D01*
X74252Y97666D01*
X74204Y97649D01*
X74155Y97625D01*
X74104Y97596D01*
X74051Y97561D01*
X73996Y97519D01*
X73880Y97419D01*
X73819Y97360D01*
X73216Y97870D01*
X73274Y97932D01*
X73372Y98049D01*
X73411Y98105D01*
X73443Y98159D01*
X73469Y98211D01*
X73488Y98262D01*
X73501Y98312D01*
X73507Y98359D01*
X73507Y98405D01*
X74340Y97683D01*
D02*
G37*
G36*
X70172Y99893D02*
X70196Y99825D01*
X70236Y99765D01*
X70292Y99713D01*
X70364Y99669D01*
X70452Y99633D01*
X70556Y99605D01*
X70676Y99585D01*
X70812Y99573D01*
X70964Y99569D01*
Y98769D01*
X70812Y98765D01*
X70676Y98753D01*
X70556Y98733D01*
X70452Y98705D01*
X70364Y98669D01*
X70292Y98625D01*
X70236Y98573D01*
X70196Y98513D01*
X70172Y98445D01*
X70164Y98369D01*
Y99969D01*
X70172Y99893D01*
D02*
G37*
G36*
X49671Y92471D02*
X49588Y92441D01*
X49515Y92391D01*
X49452Y92321D01*
X49398Y92231D01*
X49354Y92121D01*
X49320Y91991D01*
X49295Y91841D01*
X49281Y91671D01*
X49276Y91481D01*
X48276D01*
X48271Y91671D01*
X48256Y91841D01*
X48232Y91991D01*
X48198Y92121D01*
X48154Y92231D01*
X48100Y92321D01*
X48037Y92391D01*
X47964Y92441D01*
X47881Y92471D01*
X47788Y92481D01*
X49764D01*
X49671Y92471D01*
D02*
G37*
G36*
X90435Y93181D02*
X90442Y93102D01*
X90454Y93025D01*
X90471Y92953D01*
X90494Y92883D01*
X90521Y92817D01*
X90554Y92755D01*
X90592Y92695D01*
X90636Y92639D01*
X90684Y92586D01*
X90331Y92233D01*
X90278Y92281D01*
X90222Y92325D01*
X90162Y92363D01*
X90100Y92396D01*
X90034Y92423D01*
X89964Y92446D01*
X89891Y92463D01*
X89815Y92475D01*
X89736Y92482D01*
X89653Y92484D01*
X90433Y93264D01*
X90435Y93181D01*
D02*
G37*
G36*
X79729Y91765D02*
X79783Y91711D01*
X80080Y91413D01*
X79832Y91166D01*
X79476Y91519D01*
X79726Y91769D01*
X79729Y91765D01*
D02*
G37*
G36*
X63514Y87918D02*
X63454Y87975D01*
X63393Y88026D01*
X63331Y88071D01*
X63267Y88111D01*
X63202Y88144D01*
X63135Y88171D01*
X63068Y88192D01*
X62999Y88207D01*
X62928Y88216D01*
X62857Y88219D01*
Y88719D01*
X62928Y88722D01*
X62999Y88731D01*
X63068Y88746D01*
X63135Y88767D01*
X63202Y88794D01*
X63267Y88827D01*
X63331Y88867D01*
X63393Y88912D01*
X63454Y88963D01*
X63514Y89020D01*
Y87918D01*
D02*
G37*
G36*
X49281Y91265D02*
X49296Y91094D01*
X49321Y90942D01*
X49356Y90811D01*
X49401Y90700D01*
X49456Y90609D01*
X49521Y90537D01*
X49596Y90487D01*
X49681Y90456D01*
X49776Y90445D01*
X47888Y90457D01*
X47962Y90467D01*
X48028Y90497D01*
X48086Y90547D01*
X48136Y90617D01*
X48179Y90707D01*
X48214Y90817D01*
X48241Y90947D01*
X48261Y91097D01*
X48272Y91267D01*
X48276Y91457D01*
X49276D01*
X49281Y91265D01*
D02*
G37*
G36*
X67405Y93181D02*
X67412Y93102D01*
X67424Y93026D01*
X67441Y92953D01*
X67464Y92883D01*
X67491Y92817D01*
X67524Y92755D01*
X67563Y92695D01*
X67606Y92639D01*
X67654Y92586D01*
X67301Y92233D01*
X67248Y92281D01*
X67192Y92325D01*
X67132Y92363D01*
X67070Y92396D01*
X67004Y92423D01*
X66934Y92446D01*
X66861Y92463D01*
X66785Y92475D01*
X66706Y92482D01*
X66623Y92484D01*
X67403Y93264D01*
X67405Y93181D01*
D02*
G37*
G36*
X70172Y95893D02*
X70196Y95825D01*
X70236Y95765D01*
X70292Y95713D01*
X70364Y95669D01*
X70452Y95633D01*
X70556Y95605D01*
X70676Y95585D01*
X70812Y95573D01*
X70964Y95569D01*
Y94769D01*
X70812Y94765D01*
X70676Y94753D01*
X70556Y94733D01*
X70452Y94705D01*
X70364Y94669D01*
X70292Y94625D01*
X70236Y94573D01*
X70196Y94513D01*
X70172Y94445D01*
X70164Y94369D01*
Y95969D01*
X70172Y95893D01*
D02*
G37*
G36*
X76823Y95044D02*
X76779Y95039D01*
X76734Y95028D01*
X76687Y95011D01*
X76637Y94988D01*
X76586Y94959D01*
X76533Y94924D01*
X76477Y94882D01*
X76361Y94782D01*
X76300Y94723D01*
X75704Y95241D01*
X75763Y95302D01*
X75861Y95419D01*
X75900Y95475D01*
X75932Y95529D01*
X75959Y95582D01*
X75978Y95633D01*
X75991Y95682D01*
X75998Y95729D01*
X75998Y95775D01*
X76823Y95044D01*
D02*
G37*
G36*
X134362Y94052D02*
X134356Y94109D01*
X134338Y94160D01*
X134308Y94205D01*
X134266Y94244D01*
X134212Y94278D01*
X134146Y94305D01*
X134067Y94326D01*
X133977Y94341D01*
X133875Y94350D01*
X133760Y94353D01*
Y94955D01*
X133875Y94958D01*
X133977Y94967D01*
X134067Y94982D01*
X134146Y95003D01*
X134212Y95030D01*
X134266Y95064D01*
X134308Y95103D01*
X134338Y95148D01*
X134356Y95199D01*
X134362Y95256D01*
Y94052D01*
D02*
G37*
G36*
X73731Y92720D02*
X73672Y92778D01*
X73611Y92829D01*
X73548Y92874D01*
X73484Y92913D01*
X73419Y92946D01*
X73353Y92973D01*
X73285Y92994D01*
X73216Y93010D01*
X73146Y93019D01*
X73074Y93022D01*
Y93521D01*
X73146Y93524D01*
X73216Y93534D01*
X73285Y93549D01*
X73353Y93570D01*
X73419Y93597D01*
X73484Y93630D01*
X73548Y93669D01*
X73611Y93714D01*
X73672Y93765D01*
X73731Y93823D01*
Y92720D01*
D02*
G37*
G36*
X86358Y92772D02*
X86299Y92829D01*
X86238Y92880D01*
X86175Y92925D01*
X86112Y92965D01*
X86047Y92998D01*
X85980Y93025D01*
X85913Y93046D01*
X85844Y93061D01*
X85773Y93070D01*
X85702Y93073D01*
Y93573D01*
X85773Y93576D01*
X85844Y93585D01*
X85913Y93600D01*
X85980Y93621D01*
X86047Y93648D01*
X86112Y93681D01*
X86175Y93721D01*
X86238Y93766D01*
X86299Y93817D01*
X86358Y93874D01*
Y92772D01*
D02*
G37*
G36*
X77600Y100185D02*
X77532Y100161D01*
X77472Y100120D01*
X77420Y100063D01*
X77376Y99990D01*
X77340Y99901D01*
X77312Y99795D01*
X77292Y99673D01*
X77280Y99535D01*
X77279Y99511D01*
X77290Y99382D01*
X77300Y99314D01*
X77314Y99252D01*
X77330Y99197D01*
X77350Y99146D01*
X77373Y99102D01*
X77399Y99064D01*
X77427Y99031D01*
X76325D01*
X76354Y99064D01*
X76379Y99102D01*
X76402Y99146D01*
X76422Y99197D01*
X76438Y99252D01*
X76452Y99314D01*
X76462Y99382D01*
X76470Y99455D01*
X76472Y99521D01*
X76472Y99535D01*
X76460Y99673D01*
X76440Y99795D01*
X76412Y99901D01*
X76376Y99990D01*
X76332Y100063D01*
X76280Y100120D01*
X76220Y100161D01*
X76152Y100185D01*
X76076Y100193D01*
X77676D01*
X77600Y100185D01*
D02*
G37*
G36*
X56304Y107839D02*
X56222Y107837D01*
X56142Y107830D01*
X56066Y107818D01*
X55994Y107801D01*
X55924Y107778D01*
X55858Y107751D01*
X55795Y107718D01*
X55736Y107680D01*
X55680Y107636D01*
X55627Y107588D01*
X55273Y107941D01*
X55322Y107994D01*
X55365Y108050D01*
X55404Y108110D01*
X55436Y108172D01*
X55464Y108238D01*
X55487Y108308D01*
X55504Y108380D01*
X55516Y108457D01*
X55523Y108536D01*
X55525Y108619D01*
X56304Y107839D01*
D02*
G37*
G36*
X85050Y110590D02*
X85023Y110550D01*
X84999Y110505D01*
X84979Y110454D01*
X84962Y110398D01*
X84947Y110336D01*
X84936Y110268D01*
X84930Y110207D01*
X84938Y110116D01*
X84958Y109997D01*
X84985Y109895D01*
X85021Y109808D01*
X85064Y109738D01*
X85115Y109682D01*
X85174Y109643D01*
X85241Y109619D01*
X85316Y109611D01*
X83741D01*
X83816Y109619D01*
X83883Y109643D01*
X83942Y109682D01*
X83993Y109738D01*
X84036Y109808D01*
X84072Y109895D01*
X84099Y109997D01*
X84119Y110116D01*
X84126Y110199D01*
X84121Y110268D01*
X84110Y110336D01*
X84095Y110398D01*
X84078Y110454D01*
X84058Y110505D01*
X84034Y110550D01*
X84007Y110590D01*
X83977Y110623D01*
X85080D01*
X85050Y110590D01*
D02*
G37*
G36*
X85089Y107640D02*
X85022Y107615D01*
X84963Y107576D01*
X84911Y107520D01*
X84868Y107448D01*
X84833Y107360D01*
X84805Y107256D01*
X84785Y107136D01*
X84782Y107100D01*
X84787Y107055D01*
X84800Y106989D01*
X84817Y106929D01*
X84838Y106876D01*
X84863Y106829D01*
X84892Y106789D01*
X84924Y106754D01*
X84960Y106726D01*
X83879Y106512D01*
X83899Y106546D01*
X83916Y106585D01*
X83932Y106629D01*
X83945Y106680D01*
X83956Y106737D01*
X83973Y106867D01*
X83978Y106941D01*
X83979Y106975D01*
X83978Y107000D01*
X83966Y107136D01*
X83947Y107256D01*
X83919Y107360D01*
X83884Y107448D01*
X83841Y107520D01*
X83789Y107576D01*
X83730Y107615D01*
X83663Y107640D01*
X83589Y107648D01*
X85163D01*
X85089Y107640D01*
D02*
G37*
G36*
X57308Y106815D02*
X57265Y106766D01*
X57228Y106712D01*
X57197Y106653D01*
X57173Y106588D01*
X57154Y106518D01*
X57142Y106443D01*
X57135Y106363D01*
X57135Y106277D01*
X57142Y106187D01*
X57154Y106091D01*
X56828Y106333D01*
X56626Y106130D01*
X56376Y106380D01*
X56380Y106384D01*
X56434Y106437D01*
X56543Y106546D01*
X56270Y106749D01*
X56377Y106765D01*
X56570Y106806D01*
X56656Y106830D01*
X56807Y106885D01*
X56871Y106916D01*
X56929Y106950D01*
X56980Y106986D01*
X57024Y107025D01*
X57308Y106815D01*
D02*
G37*
G36*
X42614Y106118D02*
X42554Y106175D01*
X42493Y106226D01*
X42431Y106271D01*
X42367Y106311D01*
X42302Y106344D01*
X42235Y106371D01*
X42168Y106392D01*
X42099Y106407D01*
X42029Y106416D01*
X41957Y106419D01*
Y106919D01*
X42029Y106922D01*
X42099Y106931D01*
X42168Y106946D01*
X42235Y106967D01*
X42302Y106994D01*
X42367Y107027D01*
X42431Y107067D01*
X42493Y107112D01*
X42554Y107163D01*
X42614Y107220D01*
Y106118D01*
D02*
G37*
G36*
X47465Y111775D02*
X47550Y111700D01*
X47635Y111634D01*
X47720Y111577D01*
X47804Y111529D01*
X47888Y111489D01*
X47971Y111459D01*
X48054Y111437D01*
X48136Y111423D01*
X48219Y111419D01*
Y110919D01*
X48136Y110915D01*
X48054Y110901D01*
X47971Y110880D01*
X47888Y110849D01*
X47804Y110809D01*
X47720Y110761D01*
X47635Y110704D01*
X47550Y110638D01*
X47465Y110563D01*
X47379Y110480D01*
Y111858D01*
X47465Y111775D01*
D02*
G37*
G36*
X125891Y112965D02*
X125825Y112887D01*
X125767Y112808D01*
X125717Y112727D01*
X125674Y112645D01*
X125639Y112562D01*
X125612Y112478D01*
X125593Y112392D01*
X125581Y112305D01*
X125577Y112217D01*
X124975D01*
X124971Y112305D01*
X124959Y112392D01*
X124940Y112478D01*
X124913Y112562D01*
X124878Y112645D01*
X124835Y112727D01*
X124785Y112808D01*
X124727Y112887D01*
X124661Y112965D01*
X124587Y113042D01*
X125965D01*
X125891Y112965D01*
D02*
G37*
G36*
X33265Y114575D02*
X33350Y114500D01*
X33435Y114434D01*
X33520Y114377D01*
X33604Y114329D01*
X33688Y114289D01*
X33742Y114269D01*
X33772Y114281D01*
X33818Y114309D01*
X33854Y114341D01*
X33880Y114379D01*
X33895Y114421D01*
X33900Y114469D01*
Y114229D01*
X33936Y114223D01*
X34018Y114219D01*
Y113719D01*
X33936Y113715D01*
X33900Y113709D01*
Y113469D01*
X33895Y113516D01*
X33880Y113559D01*
X33854Y113596D01*
X33818Y113629D01*
X33772Y113656D01*
X33742Y113669D01*
X33688Y113649D01*
X33604Y113609D01*
X33520Y113561D01*
X33435Y113504D01*
X33350Y113438D01*
X33265Y113363D01*
X33179Y113280D01*
Y114658D01*
X33265Y114575D01*
D02*
G37*
G36*
X85241Y112685D02*
X85174Y112661D01*
X85115Y112621D01*
X85064Y112565D01*
X85021Y112493D01*
X84985Y112405D01*
X84958Y112301D01*
X84938Y112181D01*
X84934Y112134D01*
X84936Y112103D01*
X84947Y112035D01*
X84962Y111973D01*
X84979Y111917D01*
X84999Y111866D01*
X85023Y111821D01*
X85050Y111782D01*
X85080Y111748D01*
X83977D01*
X84007Y111782D01*
X84034Y111821D01*
X84058Y111866D01*
X84078Y111917D01*
X84095Y111973D01*
X84110Y112035D01*
X84121Y112103D01*
X84123Y112130D01*
X84119Y112181D01*
X84099Y112301D01*
X84072Y112405D01*
X84036Y112493D01*
X83993Y112565D01*
X83942Y112621D01*
X83883Y112661D01*
X83816Y112685D01*
X83741Y112693D01*
X85316D01*
X85241Y112685D01*
D02*
G37*
G36*
X56830Y111165D02*
X56883Y111111D01*
X57179Y110813D01*
X56932Y110565D01*
X56576Y110919D01*
X56826Y111169D01*
X56830Y111165D01*
D02*
G37*
G36*
X134362Y111374D02*
X134356Y111431D01*
X134338Y111482D01*
X134308Y111527D01*
X134266Y111566D01*
X134212Y111600D01*
X134146Y111627D01*
X134067Y111648D01*
X133977Y111663D01*
X133875Y111672D01*
X133760Y111675D01*
Y112277D01*
X133875Y112280D01*
X133977Y112289D01*
X134067Y112304D01*
X134146Y112325D01*
X134212Y112353D01*
X134266Y112386D01*
X134308Y112425D01*
X134338Y112470D01*
X134356Y112521D01*
X134362Y112578D01*
Y111374D01*
D02*
G37*
G36*
X106173Y100280D02*
X106087Y100363D01*
X106002Y100438D01*
X105917Y100504D01*
X105832Y100561D01*
X105748Y100609D01*
X105664Y100649D01*
X105581Y100680D01*
X105498Y100701D01*
X105416Y100715D01*
X105333Y100719D01*
Y101219D01*
X105416Y101223D01*
X105498Y101237D01*
X105581Y101259D01*
X105664Y101289D01*
X105748Y101329D01*
X105832Y101377D01*
X105917Y101434D01*
X106002Y101500D01*
X106087Y101575D01*
X106173Y101658D01*
Y100280D01*
D02*
G37*
G36*
X79729Y101165D02*
X79783Y101111D01*
X80080Y100813D01*
X79832Y100566D01*
X79476Y100919D01*
X79726Y101169D01*
X79729Y101165D01*
D02*
G37*
G36*
X86432Y99525D02*
X86427Y99525D01*
X86351Y99526D01*
X85931Y99527D01*
Y99877D01*
X86432Y99879D01*
Y99525D01*
D02*
G37*
G36*
X46944Y99983D02*
X46889Y99922D01*
X46840Y99854D01*
X46796Y99780D01*
X46759Y99699D01*
X46728Y99612D01*
X46703Y99519D01*
X46683Y99418D01*
X46670Y99312D01*
X46662Y99199D01*
X46660Y99079D01*
X45686Y100053D01*
X45805Y100055D01*
X45919Y100063D01*
X46025Y100076D01*
X46126Y100096D01*
X46219Y100121D01*
X46306Y100152D01*
X46387Y100189D01*
X46461Y100233D01*
X46529Y100282D01*
X46590Y100337D01*
X46944Y99983D01*
D02*
G37*
G36*
X72698Y98798D02*
X72637Y98736D01*
X72490Y98569D01*
X72453Y98518D01*
X72394Y98427D01*
X72385Y98410D01*
X72396Y98380D01*
X72420Y98331D01*
X72449Y98280D01*
X72484Y98226D01*
X72525Y98171D01*
X72626Y98055D01*
X72685Y97994D01*
X72173Y97393D01*
X72112Y97451D01*
X71995Y97549D01*
X71939Y97588D01*
X71884Y97620D01*
X71832Y97646D01*
X71781Y97665D01*
X71732Y97678D01*
X71684Y97684D01*
X71638Y97684D01*
X72277Y98418D01*
X71751Y99237D01*
X71796Y99230D01*
X71843Y99231D01*
X71892Y99239D01*
X71942Y99254D01*
X71995Y99277D01*
X72049Y99306D01*
X72105Y99343D01*
X72162Y99387D01*
X72222Y99438D01*
X72283Y99497D01*
X72698Y98798D01*
D02*
G37*
G36*
X134362Y102713D02*
X134356Y102770D01*
X134338Y102821D01*
X134308Y102866D01*
X134266Y102905D01*
X134212Y102938D01*
X134146Y102966D01*
X134067Y102987D01*
X133977Y103002D01*
X133875Y103011D01*
X133760Y103014D01*
Y103616D01*
X133875Y103619D01*
X133977Y103628D01*
X134067Y103643D01*
X134146Y103664D01*
X134212Y103691D01*
X134266Y103725D01*
X134308Y103764D01*
X134338Y103809D01*
X134356Y103860D01*
X134362Y103917D01*
Y102713D01*
D02*
G37*
G36*
X45568Y105882D02*
X45485Y105880D01*
X45406Y105873D01*
X45330Y105861D01*
X45257Y105843D01*
X45188Y105821D01*
X45122Y105793D01*
X45059Y105760D01*
X45000Y105722D01*
X44943Y105679D01*
X44891Y105630D01*
X44537Y105984D01*
X44586Y106036D01*
X44629Y106093D01*
X44667Y106152D01*
X44700Y106215D01*
X44728Y106281D01*
X44750Y106350D01*
X44768Y106423D01*
X44780Y106499D01*
X44787Y106578D01*
X44789Y106661D01*
X45568Y105882D01*
D02*
G37*
G36*
X134362Y105985D02*
X134345Y106114D01*
X134291Y106229D01*
X134202Y106330D01*
X134077Y106418D01*
X133916Y106493D01*
X133719Y106553D01*
X133487Y106601D01*
X133219Y106635D01*
X132915Y106655D01*
X132576Y106662D01*
Y108630D01*
X132915Y108637D01*
X133487Y108691D01*
X133719Y108739D01*
X133916Y108799D01*
X134077Y108874D01*
X134202Y108962D01*
X134291Y109063D01*
X134345Y109178D01*
X134362Y109307D01*
Y105985D01*
D02*
G37*
G36*
X81823Y105293D02*
X81745Y105304D01*
X81670Y105309D01*
X81597Y105307D01*
X81528Y105298D01*
X81460Y105282D01*
X81396Y105260D01*
X81333Y105230D01*
X81274Y105194D01*
X81217Y105152D01*
X81163Y105102D01*
X80876Y105522D01*
X80923Y105573D01*
X80966Y105627D01*
X81007Y105685D01*
X81043Y105747D01*
X81077Y105813D01*
X81107Y105882D01*
X81133Y105955D01*
X81156Y106032D01*
X81176Y106112D01*
X81192Y106197D01*
X81823Y105293D01*
D02*
G37*
G36*
X85566Y104193D02*
X85518Y104140D01*
X85474Y104084D01*
X85436Y104024D01*
X85403Y103962D01*
X85376Y103896D01*
X85353Y103826D01*
X85336Y103753D01*
X85324Y103677D01*
X85317Y103598D01*
X85315Y103515D01*
X84535Y104295D01*
X84618Y104297D01*
X84697Y104304D01*
X84773Y104316D01*
X84846Y104333D01*
X84916Y104356D01*
X84982Y104383D01*
X85044Y104416D01*
X85104Y104454D01*
X85160Y104498D01*
X85213Y104546D01*
X85566Y104193D01*
D02*
G37*
G36*
X60400Y102720D02*
X60392Y102795D01*
X60368Y102862D01*
X60328Y102921D01*
X60272Y102972D01*
X60200Y103015D01*
X60112Y103051D01*
X60008Y103078D01*
X59888Y103098D01*
X59863Y103100D01*
X59856Y103100D01*
X59788Y103089D01*
X59726Y103074D01*
X59670Y103057D01*
X59619Y103037D01*
X59574Y103013D01*
X59535Y102986D01*
X59501Y102956D01*
Y104059D01*
X59535Y104029D01*
X59574Y104002D01*
X59619Y103978D01*
X59670Y103958D01*
X59726Y103941D01*
X59788Y103926D01*
X59856Y103915D01*
X59862Y103915D01*
X59888Y103917D01*
X60008Y103937D01*
X60112Y103964D01*
X60200Y104000D01*
X60272Y104043D01*
X60328Y104094D01*
X60368Y104153D01*
X60392Y104220D01*
X60400Y104295D01*
Y102720D01*
D02*
G37*
G36*
X59406Y52344D02*
X59415Y52274D01*
X59430Y52205D01*
X59451Y52137D01*
X59478Y52071D01*
X59511Y52006D01*
X59551Y51942D01*
X59596Y51880D01*
X59647Y51819D01*
X59704Y51759D01*
X58602D01*
X58659Y51819D01*
X58710Y51880D01*
X58755Y51942D01*
X58795Y52006D01*
X58828Y52071D01*
X58855Y52137D01*
X58876Y52205D01*
X58891Y52274D01*
X58900Y52344D01*
X58903Y52416D01*
X59403D01*
X59406Y52344D01*
D02*
G37*
G36*
X39886Y57079D02*
X40294Y56806D01*
X40776Y56711D01*
X51933D01*
X52098Y56505D01*
X52109Y56401D01*
X52006Y55910D01*
X51577Y55623D01*
X51185Y55037D01*
X51048Y54346D01*
X51185Y53655D01*
X51573Y53074D01*
X51647Y52956D01*
Y52827D01*
X51439Y52617D01*
X50953Y52474D01*
X50367Y52866D01*
X49676Y53003D01*
X48985Y52866D01*
X48437Y52500D01*
X48282Y52440D01*
X47970D01*
X47815Y52500D01*
X47267Y52866D01*
X46576Y53003D01*
X45885Y52866D01*
X45476Y52593D01*
X44976Y52823D01*
Y53578D01*
X44699Y53559D01*
X44504Y53530D01*
X44339Y53492D01*
X44204Y53447D01*
X44099Y53393D01*
X44024Y53330D01*
X43979Y53260D01*
X43964Y53181D01*
Y53669D01*
X42976D01*
Y54169D01*
D01*
Y53669D01*
X41976D01*
Y54669D01*
X42476D01*
Y56169D01*
X40976D01*
Y53501D01*
X40976Y52169D01*
X40992Y51676D01*
Y48440D01*
X40492Y48233D01*
X36872Y51852D01*
X37119Y52313D01*
X37376Y52262D01*
X38144Y52415D01*
X38795Y52850D01*
X39230Y53501D01*
X39383Y54269D01*
X39230Y55037D01*
X38795Y55688D01*
X38473Y55903D01*
X38466Y55979D01*
X38739Y56387D01*
X38834Y56869D01*
Y57478D01*
X39296Y57669D01*
X39886Y57079D01*
D02*
G37*
G36*
X55380Y52177D02*
X55436Y52134D01*
X55496Y52095D01*
X55558Y52061D01*
X55624Y52032D01*
X55694Y52007D01*
X55767Y51987D01*
X55844Y51972D01*
X55923Y51961D01*
X56007Y51956D01*
X55190Y51216D01*
X55192Y51297D01*
X55189Y51376D01*
X55179Y51451D01*
X55164Y51523D01*
X55144Y51592D01*
X55118Y51658D01*
X55086Y51721D01*
X55048Y51780D01*
X55005Y51837D01*
X54956Y51890D01*
X55328Y52225D01*
X55380Y52177D01*
D02*
G37*
G36*
X93791Y50410D02*
X93708Y50408D01*
X93629Y50401D01*
X93553Y50389D01*
X93480Y50371D01*
X93411Y50349D01*
X93345Y50321D01*
X93282Y50288D01*
X93223Y50250D01*
X93167Y50207D01*
X93114Y50158D01*
X92760Y50512D01*
X92809Y50564D01*
X92852Y50621D01*
X92890Y50680D01*
X92923Y50743D01*
X92951Y50809D01*
X92974Y50878D01*
X92991Y50951D01*
X93003Y51027D01*
X93010Y51106D01*
X93012Y51189D01*
X93791Y50410D01*
D02*
G37*
G36*
X71190Y50646D02*
X71130Y50703D01*
X71069Y50754D01*
X71007Y50799D01*
X70943Y50839D01*
X70878Y50872D01*
X70811Y50899D01*
X70744Y50920D01*
X70675Y50935D01*
X70604Y50944D01*
X70533Y50947D01*
Y51447D01*
X70604Y51450D01*
X70675Y51459D01*
X70744Y51474D01*
X70811Y51495D01*
X70878Y51522D01*
X70943Y51555D01*
X71007Y51595D01*
X71069Y51640D01*
X71130Y51691D01*
X71190Y51748D01*
Y50646D01*
D02*
G37*
G36*
X75395Y53724D02*
X75344Y53663D01*
X75299Y53601D01*
X75259Y53537D01*
X75226Y53472D01*
X75199Y53405D01*
X75178Y53338D01*
X75163Y53269D01*
X75154Y53198D01*
X75151Y53127D01*
X74651D01*
X74648Y53198D01*
X74639Y53269D01*
X74624Y53338D01*
X74603Y53405D01*
X74576Y53472D01*
X74543Y53537D01*
X74503Y53601D01*
X74458Y53663D01*
X74407Y53724D01*
X74350Y53784D01*
X75452D01*
X75395Y53724D01*
D02*
G37*
G36*
X82124Y58466D02*
X82087Y58421D01*
X82055Y58346D01*
X82028Y58241D01*
X82004Y58106D01*
X81985Y57941D01*
X81959Y57521D01*
X81951Y56981D01*
X80451D01*
X80448Y57266D01*
X80385Y58106D01*
X80356Y58241D01*
X80322Y58346D01*
X80283Y58421D01*
X80238Y58466D01*
X80188Y58481D01*
X82164D01*
X82124Y58466D01*
D02*
G37*
G36*
X52697Y62085D02*
X52617Y62091D01*
X52539Y62090D01*
X52465Y62083D01*
X52393Y62070D01*
X52325Y62051D01*
X52259Y62026D01*
X52196Y61995D01*
X52137Y61958D01*
X52080Y61915D01*
X52027Y61866D01*
X51707Y62253D01*
X51754Y62305D01*
X51798Y62360D01*
X51837Y62419D01*
X51872Y62482D01*
X51903Y62548D01*
X51929Y62618D01*
X51951Y62691D01*
X51969Y62768D01*
X51982Y62848D01*
X51991Y62932D01*
X52697Y62085D01*
D02*
G37*
G36*
X87753Y55493D02*
X87762Y55423D01*
X87777Y55354D01*
X87798Y55286D01*
X87825Y55220D01*
X87858Y55155D01*
X87898Y55091D01*
X87943Y55029D01*
X87994Y54968D01*
X88051Y54908D01*
X86949D01*
X87006Y54968D01*
X87057Y55029D01*
X87102Y55091D01*
X87142Y55155D01*
X87175Y55220D01*
X87202Y55286D01*
X87223Y55354D01*
X87238Y55423D01*
X87247Y55493D01*
X87250Y55565D01*
X87750D01*
X87753Y55493D01*
D02*
G37*
G36*
X64820Y55336D02*
X64876Y55293D01*
X64935Y55255D01*
X64998Y55222D01*
X65064Y55194D01*
X65133Y55172D01*
X65206Y55154D01*
X65282Y55142D01*
X65361Y55135D01*
X65444Y55133D01*
X64665Y54354D01*
X64663Y54436D01*
X64656Y54516D01*
X64644Y54592D01*
X64626Y54665D01*
X64604Y54734D01*
X64576Y54800D01*
X64543Y54863D01*
X64505Y54922D01*
X64462Y54978D01*
X64413Y55031D01*
X64767Y55385D01*
X64820Y55336D01*
D02*
G37*
G36*
X56256Y55493D02*
X56265Y55423D01*
X56280Y55354D01*
X56301Y55286D01*
X56328Y55220D01*
X56361Y55155D01*
X56401Y55091D01*
X56446Y55029D01*
X56497Y54968D01*
X56554Y54908D01*
X55452D01*
X55509Y54968D01*
X55560Y55029D01*
X55605Y55091D01*
X55645Y55155D01*
X55678Y55220D01*
X55705Y55286D01*
X55726Y55354D01*
X55741Y55423D01*
X55750Y55493D01*
X55753Y55565D01*
X56253D01*
X56256Y55493D01*
D02*
G37*
G36*
X132427Y-11329D02*
X130931D01*
Y-15331D01*
X130327D01*
Y-11329D01*
X128832D01*
Y-10791D01*
X132427D01*
Y-11329D01*
D02*
G37*
G36*
X141276Y-15331D02*
X139544D01*
X139387Y-15324D01*
X139249Y-15318D01*
X139124Y-15305D01*
X139019Y-15292D01*
X138934Y-15279D01*
X138868Y-15272D01*
X138829Y-15259D01*
X138816D01*
X138705Y-15226D01*
X138613Y-15193D01*
X138527Y-15154D01*
X138455Y-15114D01*
X138396Y-15088D01*
X138350Y-15062D01*
X138324Y-15042D01*
X138317Y-15036D01*
X138245Y-14977D01*
X138180Y-14905D01*
X138127Y-14832D01*
X138075Y-14767D01*
X138035Y-14701D01*
X138009Y-14655D01*
X137989Y-14623D01*
X137983Y-14609D01*
X137937Y-14504D01*
X137904Y-14400D01*
X137878Y-14301D01*
X137865Y-14209D01*
X137852Y-14130D01*
X137845Y-14065D01*
Y-14026D01*
Y-14019D01*
Y-14012D01*
X137852Y-13868D01*
X137878Y-13737D01*
X137917Y-13625D01*
X137957Y-13520D01*
X137996Y-13442D01*
X138035Y-13383D01*
X138062Y-13343D01*
X138068Y-13330D01*
X138160Y-13225D01*
X138258Y-13140D01*
X138370Y-13068D01*
X138468Y-13009D01*
X138560Y-12963D01*
X138639Y-12937D01*
X138665Y-12923D01*
X138685Y-12917D01*
X138698Y-12910D01*
X138705D01*
X138593Y-12845D01*
X138495Y-12779D01*
X138416Y-12707D01*
X138350Y-12641D01*
X138298Y-12589D01*
X138258Y-12536D01*
X138239Y-12510D01*
X138232Y-12497D01*
X138180Y-12399D01*
X138140Y-12307D01*
X138108Y-12215D01*
X138088Y-12130D01*
X138075Y-12058D01*
X138068Y-11998D01*
Y-11966D01*
Y-11953D01*
X138075Y-11841D01*
X138094Y-11730D01*
X138127Y-11631D01*
X138160Y-11539D01*
X138193Y-11461D01*
X138226Y-11408D01*
X138245Y-11369D01*
X138252Y-11356D01*
X138324Y-11257D01*
X138403Y-11165D01*
X138488Y-11093D01*
X138567Y-11034D01*
X138632Y-10988D01*
X138691Y-10955D01*
X138731Y-10936D01*
X138737Y-10929D01*
X138744D01*
X138868Y-10883D01*
X139006Y-10851D01*
X139144Y-10824D01*
X139275Y-10811D01*
X139393Y-10798D01*
X139446D01*
X139492Y-10791D01*
X141276D01*
Y-15331D01*
D02*
G37*
G36*
X128550Y-11329D02*
X127054D01*
Y-15331D01*
X126450D01*
Y-11329D01*
X124955D01*
Y-10791D01*
X128550D01*
Y-11329D01*
D02*
G37*
G36*
X123256Y-10785D02*
X123420Y-10811D01*
X123557Y-10857D01*
X123676Y-10903D01*
X123774Y-10955D01*
X123813Y-10975D01*
X123846Y-11001D01*
X123872Y-11015D01*
X123892Y-11028D01*
X123899Y-11041D01*
X123905D01*
X124023Y-11146D01*
X124122Y-11270D01*
X124207Y-11395D01*
X124273Y-11513D01*
X124325Y-11625D01*
X124351Y-11671D01*
X124364Y-11716D01*
X124377Y-11749D01*
X124391Y-11776D01*
X124397Y-11789D01*
Y-11795D01*
X124423Y-11894D01*
X124450Y-11992D01*
X124489Y-12208D01*
X124522Y-12425D01*
X124541Y-12628D01*
X124548Y-12727D01*
X124555Y-12812D01*
Y-12891D01*
X124561Y-12963D01*
Y-13015D01*
Y-13061D01*
Y-13088D01*
Y-13094D01*
X124555Y-13324D01*
X124541Y-13540D01*
X124522Y-13737D01*
X124489Y-13921D01*
X124456Y-14091D01*
X124417Y-14242D01*
X124377Y-14380D01*
X124338Y-14498D01*
X124299Y-14603D01*
X124253Y-14695D01*
X124220Y-14773D01*
X124187Y-14832D01*
X124154Y-14885D01*
X124135Y-14918D01*
X124122Y-14937D01*
X124115Y-14944D01*
X124043Y-15023D01*
X123964Y-15095D01*
X123879Y-15160D01*
X123794Y-15213D01*
X123708Y-15259D01*
X123623Y-15298D01*
X123538Y-15324D01*
X123459Y-15351D01*
X123380Y-15370D01*
X123308Y-15383D01*
X123243Y-15397D01*
X123190Y-15403D01*
X123144Y-15410D01*
X123079D01*
X122901Y-15397D01*
X122737Y-15370D01*
X122600Y-15324D01*
X122482Y-15279D01*
X122383Y-15233D01*
X122350Y-15206D01*
X122318Y-15187D01*
X122291Y-15174D01*
X122272Y-15160D01*
X122265Y-15147D01*
X122259D01*
X122141Y-15036D01*
X122042Y-14918D01*
X121957Y-14786D01*
X121891Y-14668D01*
X121839Y-14557D01*
X121812Y-14511D01*
X121799Y-14465D01*
X121786Y-14432D01*
X121773Y-14406D01*
X121767Y-14393D01*
Y-14386D01*
X121734Y-14288D01*
X121707Y-14190D01*
X121668Y-13980D01*
X121635Y-13763D01*
X121616Y-13553D01*
X121609Y-13461D01*
X121603Y-13376D01*
Y-13297D01*
X121596Y-13225D01*
Y-13173D01*
Y-13127D01*
Y-13101D01*
Y-13094D01*
Y-12969D01*
X121603Y-12851D01*
Y-12746D01*
X121609Y-12641D01*
X121622Y-12550D01*
X121629Y-12458D01*
X121635Y-12379D01*
X121649Y-12307D01*
X121655Y-12241D01*
X121668Y-12182D01*
X121675Y-12136D01*
X121681Y-12097D01*
X121688Y-12064D01*
X121694Y-12044D01*
X121701Y-12031D01*
Y-12025D01*
X121740Y-11880D01*
X121786Y-11749D01*
X121839Y-11638D01*
X121878Y-11539D01*
X121924Y-11454D01*
X121950Y-11395D01*
X121976Y-11362D01*
X121983Y-11349D01*
X122055Y-11251D01*
X122127Y-11165D01*
X122206Y-11093D01*
X122278Y-11028D01*
X122344Y-10982D01*
X122396Y-10949D01*
X122429Y-10929D01*
X122436Y-10923D01*
X122442D01*
X122547Y-10870D01*
X122659Y-10837D01*
X122764Y-10811D01*
X122862Y-10791D01*
X122947Y-10778D01*
X123020Y-10772D01*
X123079D01*
X123256Y-10785D01*
D02*
G37*
G36*
X135208Y-10719D02*
X135372Y-10739D01*
X135529Y-10772D01*
X135680Y-10811D01*
X135818Y-10864D01*
X135949Y-10916D01*
X136067Y-10975D01*
X136172Y-11034D01*
X136271Y-11093D01*
X136356Y-11152D01*
X136428Y-11205D01*
X136487Y-11257D01*
X136533Y-11297D01*
X136573Y-11329D01*
X136592Y-11349D01*
X136599Y-11356D01*
X136704Y-11480D01*
X136795Y-11611D01*
X136881Y-11756D01*
X136946Y-11900D01*
X137005Y-12051D01*
X137058Y-12195D01*
X137097Y-12340D01*
X137124Y-12477D01*
X137150Y-12609D01*
X137169Y-12733D01*
X137183Y-12845D01*
X137196Y-12937D01*
Y-13015D01*
X137202Y-13074D01*
Y-13114D01*
Y-13120D01*
Y-13127D01*
X137189Y-13350D01*
X137163Y-13553D01*
X137124Y-13750D01*
X137097Y-13835D01*
X137071Y-13921D01*
X137051Y-13993D01*
X137025Y-14058D01*
X137005Y-14117D01*
X136986Y-14170D01*
X136973Y-14209D01*
X136960Y-14235D01*
X136946Y-14255D01*
Y-14262D01*
X136835Y-14452D01*
X136717Y-14616D01*
X136586Y-14760D01*
X136461Y-14878D01*
X136349Y-14977D01*
X136303Y-15016D01*
X136264Y-15042D01*
X136225Y-15069D01*
X136199Y-15088D01*
X136185Y-15095D01*
X136179Y-15101D01*
X136081Y-15154D01*
X135982Y-15200D01*
X135785Y-15279D01*
X135595Y-15331D01*
X135418Y-15370D01*
X135333Y-15383D01*
X135260Y-15390D01*
X135195Y-15403D01*
X135136D01*
X135097Y-15410D01*
X135031D01*
X134814Y-15397D01*
X134611Y-15364D01*
X134421Y-15324D01*
X134335Y-15298D01*
X134257Y-15272D01*
X134185Y-15246D01*
X134119Y-15220D01*
X134067Y-15200D01*
X134021Y-15180D01*
X133981Y-15160D01*
X133949Y-15147D01*
X133935Y-15134D01*
X133929D01*
X133745Y-15016D01*
X133588Y-14885D01*
X133457Y-14747D01*
X133345Y-14616D01*
X133253Y-14491D01*
X133220Y-14445D01*
X133194Y-14400D01*
X133168Y-14360D01*
X133155Y-14334D01*
X133142Y-14314D01*
Y-14308D01*
X133089Y-14203D01*
X133050Y-14098D01*
X132978Y-13888D01*
X132925Y-13678D01*
X132892Y-13488D01*
X132886Y-13402D01*
X132873Y-13324D01*
X132866Y-13251D01*
Y-13192D01*
X132860Y-13140D01*
Y-13107D01*
Y-13081D01*
Y-13074D01*
X132873Y-12825D01*
X132899Y-12596D01*
X132919Y-12490D01*
X132945Y-12386D01*
X132971Y-12294D01*
X132991Y-12208D01*
X133017Y-12130D01*
X133043Y-12058D01*
X133063Y-11998D01*
X133089Y-11946D01*
X133102Y-11907D01*
X133115Y-11880D01*
X133128Y-11861D01*
Y-11854D01*
X133233Y-11664D01*
X133358Y-11493D01*
X133489Y-11349D01*
X133607Y-11231D01*
X133719Y-11139D01*
X133771Y-11100D01*
X133811Y-11067D01*
X133850Y-11047D01*
X133876Y-11028D01*
X133889Y-11021D01*
X133896Y-11015D01*
X133994Y-10962D01*
X134093Y-10916D01*
X134283Y-10837D01*
X134480Y-10785D01*
X134650Y-10752D01*
X134729Y-10739D01*
X134808Y-10726D01*
X134867Y-10719D01*
X134926D01*
X134972Y-10713D01*
X135031D01*
X135208Y-10719D01*
D02*
G37*
G36*
X119556Y-10778D02*
X119681Y-10791D01*
X119799Y-10818D01*
X119910Y-10851D01*
X120009Y-10896D01*
X120107Y-10936D01*
X120192Y-10988D01*
X120271Y-11034D01*
X120336Y-11080D01*
X120402Y-11133D01*
X120455Y-11172D01*
X120494Y-11211D01*
X120527Y-11251D01*
X120553Y-11277D01*
X120566Y-11290D01*
X120573Y-11297D01*
X120658Y-11415D01*
X120730Y-11552D01*
X120796Y-11697D01*
X120855Y-11848D01*
X120901Y-12005D01*
X120940Y-12162D01*
X120973Y-12326D01*
X120999Y-12477D01*
X121019Y-12628D01*
X121032Y-12766D01*
X121045Y-12891D01*
X121052Y-12996D01*
Y-13088D01*
X121058Y-13153D01*
Y-13179D01*
Y-13199D01*
Y-13206D01*
Y-13212D01*
X121052Y-13422D01*
X121038Y-13619D01*
X121019Y-13803D01*
X120986Y-13973D01*
X120953Y-14124D01*
X120920Y-14262D01*
X120881Y-14386D01*
X120835Y-14498D01*
X120796Y-14590D01*
X120756Y-14675D01*
X120723Y-14741D01*
X120684Y-14800D01*
X120658Y-14846D01*
X120638Y-14872D01*
X120625Y-14891D01*
X120619Y-14898D01*
X120533Y-14990D01*
X120441Y-15069D01*
X120350Y-15134D01*
X120258Y-15193D01*
X120159Y-15246D01*
X120068Y-15285D01*
X119976Y-15318D01*
X119884Y-15344D01*
X119805Y-15364D01*
X119726Y-15383D01*
X119661Y-15397D01*
X119602Y-15403D01*
X119549D01*
X119517Y-15410D01*
X119484D01*
X119333Y-15403D01*
X119195Y-15377D01*
X119070Y-15351D01*
X118959Y-15311D01*
X118874Y-15279D01*
X118808Y-15246D01*
X118782Y-15239D01*
X118762Y-15226D01*
X118755Y-15220D01*
X118749D01*
X118637Y-15141D01*
X118533Y-15049D01*
X118447Y-14957D01*
X118375Y-14865D01*
X118316Y-14780D01*
X118277Y-14714D01*
X118263Y-14688D01*
X118250Y-14668D01*
X118244Y-14662D01*
Y-14655D01*
X118178Y-14518D01*
X118132Y-14373D01*
X118099Y-14242D01*
X118080Y-14117D01*
X118060Y-14012D01*
Y-13973D01*
X118054Y-13934D01*
Y-13901D01*
Y-13881D01*
Y-13868D01*
Y-13862D01*
X118060Y-13744D01*
X118073Y-13632D01*
X118093Y-13520D01*
X118113Y-13422D01*
X118145Y-13330D01*
X118178Y-13238D01*
X118211Y-13160D01*
X118250Y-13088D01*
X118290Y-13022D01*
X118323Y-12963D01*
X118355Y-12917D01*
X118388Y-12871D01*
X118408Y-12838D01*
X118428Y-12819D01*
X118441Y-12805D01*
X118447Y-12799D01*
X118519Y-12727D01*
X118598Y-12661D01*
X118683Y-12609D01*
X118762Y-12563D01*
X118841Y-12517D01*
X118920Y-12484D01*
X119070Y-12438D01*
X119136Y-12418D01*
X119202Y-12405D01*
X119254Y-12399D01*
X119307Y-12392D01*
X119346Y-12386D01*
X119398D01*
X119517Y-12392D01*
X119628Y-12412D01*
X119733Y-12432D01*
X119825Y-12458D01*
X119904Y-12490D01*
X119963Y-12510D01*
X120002Y-12530D01*
X120009Y-12536D01*
X120015D01*
X120120Y-12602D01*
X120212Y-12674D01*
X120297Y-12746D01*
X120363Y-12825D01*
X120422Y-12891D01*
X120468Y-12943D01*
X120494Y-12982D01*
X120501Y-12989D01*
Y-12871D01*
X120494Y-12753D01*
X120487Y-12648D01*
X120474Y-12543D01*
X120468Y-12451D01*
X120455Y-12366D01*
X120441Y-12287D01*
X120422Y-12215D01*
X120409Y-12149D01*
X120396Y-12097D01*
X120382Y-12051D01*
X120376Y-12012D01*
X120363Y-11985D01*
X120356Y-11966D01*
X120350Y-11953D01*
Y-11946D01*
X120284Y-11815D01*
X120218Y-11697D01*
X120146Y-11605D01*
X120081Y-11526D01*
X120022Y-11461D01*
X119976Y-11415D01*
X119943Y-11388D01*
X119930Y-11382D01*
X119851Y-11329D01*
X119772Y-11297D01*
X119694Y-11270D01*
X119615Y-11251D01*
X119556Y-11238D01*
X119503Y-11231D01*
X119457D01*
X119339Y-11244D01*
X119228Y-11270D01*
X119136Y-11310D01*
X119051Y-11349D01*
X118985Y-11395D01*
X118939Y-11434D01*
X118913Y-11461D01*
X118900Y-11474D01*
X118854Y-11533D01*
X118808Y-11605D01*
X118769Y-11684D01*
X118742Y-11762D01*
X118716Y-11834D01*
X118696Y-11894D01*
X118690Y-11933D01*
X118683Y-11940D01*
Y-11946D01*
X118126Y-11900D01*
X118165Y-11716D01*
X118224Y-11552D01*
X118290Y-11408D01*
X118362Y-11290D01*
X118434Y-11198D01*
X118460Y-11159D01*
X118493Y-11126D01*
X118513Y-11106D01*
X118533Y-11087D01*
X118539Y-11080D01*
X118546Y-11074D01*
X118611Y-11021D01*
X118683Y-10975D01*
X118828Y-10896D01*
X118972Y-10844D01*
X119110Y-10811D01*
X119234Y-10785D01*
X119287Y-10778D01*
X119333D01*
X119372Y-10772D01*
X119425D01*
X119556Y-10778D01*
D02*
G37*
G36*
X43972Y50106D02*
X43996Y50038D01*
X44036Y49978D01*
X44092Y49926D01*
X44164Y49882D01*
X44252Y49846D01*
X44356Y49818D01*
X44476Y49798D01*
X44612Y49786D01*
X44764Y49782D01*
Y48982D01*
X44612Y48984D01*
X44252Y49014D01*
X44164Y49031D01*
X44092Y49053D01*
X44036Y49079D01*
X43996Y49109D01*
X43972Y49143D01*
X43964Y49181D01*
Y50182D01*
X43972Y50106D01*
D02*
G37*
G36*
X49688Y50410D02*
X49645Y50406D01*
X49600Y50396D01*
X49553Y50380D01*
X49505Y50358D01*
X49453Y50329D01*
X49400Y50295D01*
X49345Y50254D01*
X49229Y50154D01*
X49168Y50095D01*
X48586Y50644D01*
X48645Y50705D01*
X48744Y50822D01*
X48783Y50877D01*
X48817Y50931D01*
X48844Y50982D01*
X48865Y51032D01*
X48879Y51080D01*
X48887Y51126D01*
X48889Y51169D01*
X49688Y50410D01*
D02*
G37*
G36*
X64820Y49037D02*
X64876Y48994D01*
X64935Y48956D01*
X64998Y48923D01*
X65064Y48895D01*
X65133Y48873D01*
X65206Y48855D01*
X65282Y48843D01*
X65361Y48836D01*
X65444Y48834D01*
X64665Y48055D01*
X64663Y48138D01*
X64656Y48217D01*
X64644Y48293D01*
X64626Y48366D01*
X64604Y48435D01*
X64576Y48501D01*
X64543Y48564D01*
X64505Y48623D01*
X64462Y48680D01*
X64413Y48732D01*
X64767Y49086D01*
X64820Y49037D01*
D02*
G37*
G36*
X101939Y44034D02*
X101906Y44000D01*
X101796Y43875D01*
X101785Y43859D01*
X101779Y43845D01*
X101776Y43835D01*
X101777Y43828D01*
X101408Y44198D01*
X101415Y44197D01*
X101425Y44200D01*
X101437Y44206D01*
X101454Y44217D01*
X101473Y44231D01*
X101520Y44271D01*
X101613Y44360D01*
X101939Y44034D01*
D02*
G37*
G36*
X49633Y47183D02*
X49551Y47185D01*
X49472Y47181D01*
X49397Y47171D01*
X49325Y47156D01*
X49256Y47135D01*
X49190Y47109D01*
X49127Y47077D01*
X49068Y47039D01*
X49011Y46996D01*
X48958Y46948D01*
X48621Y47318D01*
X48669Y47370D01*
X48713Y47426D01*
X48752Y47485D01*
X48785Y47548D01*
X48815Y47614D01*
X48839Y47684D01*
X48859Y47757D01*
X48874Y47833D01*
X48884Y47913D01*
X48889Y47997D01*
X49633Y47183D01*
D02*
G37*
G36*
X44914Y62618D02*
X44854Y62675D01*
X44793Y62726D01*
X44731Y62771D01*
X44667Y62811D01*
X44602Y62844D01*
X44535Y62871D01*
X44468Y62892D01*
X44399Y62907D01*
X44329Y62916D01*
X44257Y62919D01*
Y63419D01*
X44329Y63422D01*
X44399Y63431D01*
X44468Y63446D01*
X44535Y63467D01*
X44602Y63494D01*
X44667Y63527D01*
X44731Y63567D01*
X44793Y63612D01*
X44854Y63663D01*
X44914Y63720D01*
Y62618D01*
D02*
G37*
G36*
X85723Y78368D02*
X86012Y78123D01*
X86141Y78034D01*
X86260Y77966D01*
X86368Y77921D01*
X86465Y77897D01*
X86552Y77895D01*
X86628Y77915D01*
X86693Y77957D01*
X85488Y76900D01*
X85537Y76959D01*
X85562Y77030D01*
X85564Y77113D01*
X85542Y77207D01*
X85497Y77315D01*
X85429Y77434D01*
X85337Y77565D01*
X85222Y77708D01*
X84922Y78031D01*
X85562Y78523D01*
X85723Y78368D01*
D02*
G37*
G36*
X53355Y77385D02*
X53379Y77024D01*
X53387Y76993D01*
X53395Y76970D01*
X53405Y76956D01*
X52303D01*
X52312Y76970D01*
X52321Y76993D01*
X52329Y77024D01*
X52336Y77063D01*
X52346Y77167D01*
X52352Y77304D01*
X52354Y77475D01*
X53354D01*
X53355Y77385D01*
D02*
G37*
G36*
X81488Y75981D02*
X81473Y76041D01*
X81428Y76095D01*
X81353Y76142D01*
X81248Y76183D01*
X81113Y76218D01*
X80948Y76246D01*
X80753Y76268D01*
X80273Y76293D01*
X79988Y76296D01*
Y77796D01*
X80273Y77798D01*
X81353Y77875D01*
X81428Y77899D01*
X81473Y77926D01*
X81488Y77957D01*
Y75981D01*
D02*
G37*
G36*
X89688Y72481D02*
X89673Y72488D01*
X89628Y72495D01*
X89553Y72500D01*
X88728Y72518D01*
X88188Y72519D01*
Y74019D01*
X88473Y74023D01*
X88953Y74058D01*
X89148Y74089D01*
X89313Y74129D01*
X89448Y74177D01*
X89553Y74234D01*
X89628Y74299D01*
X89673Y74374D01*
X89688Y74457D01*
Y72481D01*
D02*
G37*
G36*
X60497Y76394D02*
X60634Y75703D01*
X61023Y75121D01*
X61097Y75004D01*
Y74901D01*
X60694Y74472D01*
X60542Y74450D01*
X60426Y74524D01*
X59844Y74913D01*
X59153Y75050D01*
X58462Y74913D01*
X57876Y74521D01*
X57484Y73935D01*
X57347Y73244D01*
X57484Y72553D01*
X57873Y71970D01*
X57948Y71854D01*
Y71751D01*
X57752Y71543D01*
X57281Y71372D01*
X56695Y71764D01*
X56004Y71901D01*
X55313Y71764D01*
X54727Y71372D01*
X54335Y70786D01*
X54198Y70095D01*
X54335Y69404D01*
X54727Y68818D01*
X55313Y68426D01*
X56004Y68289D01*
X56695Y68426D01*
X57281Y68818D01*
X57329Y68889D01*
X57829D01*
X57877Y68817D01*
X58463Y68425D01*
X59154Y68288D01*
X59845Y68425D01*
X60431Y68817D01*
X60823Y69403D01*
X60960Y70094D01*
X60823Y70785D01*
X60434Y71368D01*
X60359Y71484D01*
Y71587D01*
X60810Y72038D01*
X60913D01*
X61030Y71964D01*
X61612Y71575D01*
X62303Y71438D01*
X62657Y71147D01*
Y70731D01*
X62657Y70731D01*
Y66330D01*
X62157Y65919D01*
X61876Y65975D01*
X61185Y65838D01*
X60599Y65446D01*
X60233Y64899D01*
X60129Y64821D01*
X59725Y64699D01*
X58466Y65959D01*
X58058Y66232D01*
X57576Y66327D01*
X54932D01*
X54614Y66714D01*
X54660Y66945D01*
X54523Y67636D01*
X54131Y68222D01*
X53545Y68614D01*
X52876Y68747D01*
Y69569D01*
X50876D01*
Y70569D01*
X52876D01*
Y71442D01*
X53545Y71575D01*
X54131Y71967D01*
X54523Y72553D01*
X54660Y73244D01*
X54523Y73935D01*
X54134Y74517D01*
X54060Y74634D01*
Y74737D01*
X54256Y74946D01*
X54727Y75117D01*
X55313Y74725D01*
X56004Y74588D01*
X56695Y74725D01*
X57281Y75117D01*
X57673Y75703D01*
X57810Y76394D01*
X58070Y76711D01*
X60237D01*
X60497Y76394D01*
D02*
G37*
G36*
X85140Y79118D02*
X85149Y79072D01*
X85164Y79025D01*
X85186Y78976D01*
X85214Y78925D01*
X85248Y78871D01*
X85288Y78816D01*
X85334Y78759D01*
X85447Y78638D01*
X84881Y78073D01*
X84820Y78132D01*
X84703Y78231D01*
X84648Y78271D01*
X84594Y78305D01*
X84543Y78333D01*
X84494Y78355D01*
X84447Y78370D01*
X84401Y78379D01*
X84358Y78382D01*
X85137Y79161D01*
X85140Y79118D01*
D02*
G37*
G36*
X68370Y87847D02*
X68319Y87786D01*
X68274Y87724D01*
X68234Y87660D01*
X68201Y87595D01*
X68174Y87529D01*
X68153Y87461D01*
X68138Y87392D01*
X68129Y87322D01*
X68126Y87250D01*
X67626D01*
X67623Y87322D01*
X67614Y87392D01*
X67599Y87461D01*
X67578Y87529D01*
X67551Y87595D01*
X67518Y87660D01*
X67478Y87724D01*
X67433Y87786D01*
X67382Y87847D01*
X67325Y87907D01*
X68427D01*
X68370Y87847D01*
D02*
G37*
G36*
X74953Y87646D02*
X74599D01*
X74599Y87651D01*
X74600Y87727D01*
X74601Y88147D01*
X74951D01*
X74953Y87646D01*
D02*
G37*
G36*
X97988Y87033D02*
X97996Y86946D01*
X98009Y86869D01*
X98026Y86802D01*
X98049Y86746D01*
X98076Y86700D01*
X98109Y86664D01*
X98146Y86638D01*
X98189Y86623D01*
X98236Y86618D01*
X97236D01*
X97284Y86623D01*
X97326Y86638D01*
X97364Y86664D01*
X97396Y86700D01*
X97423Y86746D01*
X97446Y86802D01*
X97464Y86869D01*
X97476Y86946D01*
X97483Y87033D01*
X97486Y87130D01*
X97986D01*
X97988Y87033D01*
D02*
G37*
G36*
X51797Y81469D02*
X51770Y81378D01*
X51771Y81272D01*
X51800Y81152D01*
X51858Y81018D01*
X51944Y80870D01*
X52058Y80707D01*
X52201Y80529D01*
X52571Y80131D01*
X51864Y79424D01*
X51658Y79624D01*
X51289Y79937D01*
X51126Y80051D01*
X50977Y80137D01*
X50843Y80195D01*
X50723Y80225D01*
X50618Y80226D01*
X50526Y80199D01*
X50450Y80143D01*
X51852Y81546D01*
X51797Y81469D01*
D02*
G37*
G36*
X88460Y85239D02*
X88106D01*
X88107Y85244D01*
X88107Y85320D01*
X88108Y85740D01*
X88458D01*
X88460Y85239D01*
D02*
G37*
G36*
X69097Y66323D02*
X69046Y66262D01*
X69001Y66200D01*
X68961Y66136D01*
X68928Y66071D01*
X68901Y66005D01*
X68880Y65937D01*
X68865Y65868D01*
X68856Y65798D01*
X68853Y65726D01*
X68353D01*
X68350Y65798D01*
X68341Y65868D01*
X68326Y65937D01*
X68305Y66005D01*
X68278Y66071D01*
X68245Y66136D01*
X68205Y66200D01*
X68160Y66262D01*
X68109Y66323D01*
X68052Y66383D01*
X69154D01*
X69097Y66323D01*
D02*
G37*
G36*
X91400Y68485D02*
X91332Y68461D01*
X91272Y68420D01*
X91220Y68363D01*
X91176Y68290D01*
X91140Y68201D01*
X91112Y68095D01*
X91092Y67973D01*
X91085Y67893D01*
X91089Y67841D01*
X91099Y67774D01*
X91112Y67712D01*
X91128Y67655D01*
X91146Y67605D01*
X91168Y67560D01*
X91192Y67522D01*
X91219Y67489D01*
X90118Y67525D01*
X90148Y67557D01*
X90175Y67595D01*
X90198Y67639D01*
X90219Y67689D01*
X90236Y67744D01*
X90251Y67806D01*
X90262Y67873D01*
X90266Y67909D01*
X90260Y67973D01*
X90240Y68095D01*
X90212Y68201D01*
X90176Y68290D01*
X90132Y68363D01*
X90080Y68420D01*
X90020Y68461D01*
X89952Y68485D01*
X89876Y68493D01*
X91476D01*
X91400Y68485D01*
D02*
G37*
G36*
X84845Y66323D02*
X84794Y66262D01*
X84749Y66200D01*
X84709Y66136D01*
X84676Y66071D01*
X84649Y66005D01*
X84628Y65937D01*
X84613Y65868D01*
X84604Y65798D01*
X84601Y65726D01*
X84101D01*
X84098Y65798D01*
X84089Y65868D01*
X84074Y65937D01*
X84053Y66005D01*
X84026Y66071D01*
X83993Y66136D01*
X83953Y66200D01*
X83908Y66262D01*
X83857Y66323D01*
X83800Y66383D01*
X84902D01*
X84845Y66323D01*
D02*
G37*
G36*
X75915Y64554D02*
X75866Y64502D01*
X75823Y64445D01*
X75785Y64386D01*
X75752Y64323D01*
X75724Y64257D01*
X75702Y64188D01*
X75684Y64115D01*
X75672Y64039D01*
X75665Y63960D01*
X75663Y63877D01*
X74884Y64656D01*
X74967Y64658D01*
X75046Y64665D01*
X75122Y64677D01*
X75195Y64695D01*
X75264Y64717D01*
X75330Y64745D01*
X75393Y64778D01*
X75452Y64816D01*
X75508Y64859D01*
X75561Y64908D01*
X75915Y64554D01*
D02*
G37*
G36*
X81928Y65672D02*
X81985Y64832D01*
X82012Y64697D01*
X82043Y64592D01*
X82078Y64517D01*
X82119Y64472D01*
X82164Y64457D01*
X80188D01*
X80233Y64472D01*
X80274Y64517D01*
X80309Y64592D01*
X80340Y64697D01*
X80366Y64832D01*
X80388Y64997D01*
X80417Y65417D01*
X80426Y65957D01*
X81926D01*
X81928Y65672D01*
D02*
G37*
G36*
X46957Y68011D02*
X46969Y67858D01*
X46979Y67790D01*
X46993Y67729D01*
X47009Y67673D01*
X47029Y67623D01*
X47052Y67578D01*
X47077Y67540D01*
X47106Y67507D01*
X46004D01*
X46033Y67540D01*
X46058Y67578D01*
X46081Y67623D01*
X46101Y67673D01*
X46117Y67729D01*
X46131Y67790D01*
X46141Y67858D01*
X46149Y67931D01*
X46155Y68096D01*
X46955D01*
X46957Y68011D01*
D02*
G37*
G36*
X51274Y71693D02*
X51285Y71557D01*
X51305Y71437D01*
X51333Y71333D01*
X51368Y71245D01*
X51411Y71173D01*
X51463Y71117D01*
X51522Y71077D01*
X51589Y71053D01*
X51663Y71045D01*
X50089D01*
X50163Y71053D01*
X50230Y71077D01*
X50289Y71117D01*
X50341Y71173D01*
X50384Y71245D01*
X50419Y71333D01*
X50447Y71437D01*
X50467Y71557D01*
X50478Y71693D01*
X50482Y71844D01*
X51270D01*
X51274Y71693D01*
D02*
G37*
G36*
X50545Y73177D02*
X50547Y73130D01*
X50556Y73080D01*
X50572Y73030D01*
X50595Y72977D01*
X50626Y72923D01*
X50663Y72867D01*
X50707Y72809D01*
X50759Y72750D01*
X50817Y72689D01*
X50144Y72248D01*
X50083Y72308D01*
X49914Y72454D01*
X49863Y72491D01*
X49814Y72522D01*
X49768Y72548D01*
X49725Y72569D01*
X49684Y72584D01*
X49645Y72593D01*
X50550Y73223D01*
X50545Y73177D01*
D02*
G37*
G36*
X77895Y69193D02*
X77853Y69216D01*
X77804Y69225D01*
X77749Y69222D01*
X77688Y69205D01*
X77621Y69175D01*
X77547Y69132D01*
X77467Y69075D01*
X77380Y69006D01*
X77188Y68827D01*
X76735Y69081D01*
X76839Y69189D01*
X77003Y69380D01*
X77062Y69463D01*
X77106Y69538D01*
X77135Y69605D01*
X77149Y69663D01*
X77148Y69713D01*
X77131Y69755D01*
X77100Y69788D01*
X77895Y69193D01*
D02*
G37*
G36*
X83100Y69167D02*
X83042Y69127D01*
X82992Y69059D01*
X82948Y68963D01*
X82911Y68841D01*
X82880Y68691D01*
X82856Y68514D01*
X82829Y68079D01*
X82826Y67820D01*
X81326D01*
X81323Y68079D01*
X81272Y68691D01*
X81242Y68841D01*
X81204Y68963D01*
X81160Y69059D01*
X81110Y69127D01*
X81052Y69167D01*
X80988Y69181D01*
X83164D01*
X83100Y69167D01*
D02*
G37*
G36*
X47279Y69073D02*
X47211Y69049D01*
X47151Y69009D01*
X47099Y68953D01*
X47055Y68881D01*
X47019Y68793D01*
X46991Y68689D01*
X46971Y68569D01*
X46959Y68433D01*
X46955Y68281D01*
X46155D01*
X46152Y68433D01*
X46131Y68689D01*
X46112Y68793D01*
X46088Y68881D01*
X46059Y68953D01*
X46024Y69009D01*
X45984Y69049D01*
X45939Y69073D01*
X45888Y69081D01*
X47355D01*
X47279Y69073D01*
D02*
G37*
G36*
X121181Y120508D02*
X121193Y120421D01*
X121212Y120336D01*
X121239Y120251D01*
X121274Y120168D01*
X121317Y120086D01*
X121367Y120006D01*
X121425Y119927D01*
X121491Y119849D01*
X121565Y119772D01*
X120187D01*
X120261Y119849D01*
X120327Y119927D01*
X120385Y120006D01*
X120435Y120086D01*
X120478Y120168D01*
X120513Y120251D01*
X120540Y120336D01*
X120559Y120421D01*
X120571Y120508D01*
X120575Y120597D01*
X121177D01*
X121181Y120508D01*
D02*
G37*
G36*
X55696Y119833D02*
X55750Y119793D01*
X55810Y119759D01*
X55874Y119729D01*
X55944Y119704D01*
X56019Y119684D01*
X56099Y119668D01*
X56184Y119657D01*
X56275Y119651D01*
X56371Y119650D01*
X55591Y118870D01*
X55590Y118966D01*
X55584Y119057D01*
X55573Y119142D01*
X55557Y119222D01*
X55537Y119297D01*
X55512Y119367D01*
X55482Y119431D01*
X55448Y119491D01*
X55408Y119545D01*
X55365Y119594D01*
X55647Y119877D01*
X55696Y119833D01*
D02*
G37*
G36*
X76688Y123882D02*
X76680Y123956D01*
X76657Y124023D01*
X76617Y124082D01*
X76562Y124134D01*
X76491Y124177D01*
X76405Y124212D01*
X76302Y124240D01*
X76184Y124259D01*
X76050Y124271D01*
X75901Y124275D01*
Y125063D01*
X76050Y125067D01*
X76184Y125078D01*
X76302Y125098D01*
X76405Y125126D01*
X76491Y125161D01*
X76562Y125204D01*
X76617Y125256D01*
X76657Y125315D01*
X76680Y125382D01*
X76688Y125456D01*
Y123882D01*
D02*
G37*
G36*
Y119882D02*
X76680Y119956D01*
X76657Y120023D01*
X76617Y120082D01*
X76562Y120133D01*
X76491Y120177D01*
X76405Y120212D01*
X76302Y120240D01*
X76184Y120259D01*
X76050Y120271D01*
X75901Y120275D01*
Y121063D01*
X76050Y121067D01*
X76184Y121078D01*
X76302Y121098D01*
X76405Y121126D01*
X76491Y121161D01*
X76562Y121204D01*
X76617Y121256D01*
X76657Y121315D01*
X76680Y121382D01*
X76688Y121456D01*
Y119882D01*
D02*
G37*
G36*
X72560Y121382D02*
X72584Y121315D01*
X72624Y121256D01*
X72680Y121204D01*
X72752Y121161D01*
X72840Y121126D01*
X72944Y121098D01*
X73064Y121078D01*
X73199Y121067D01*
X73351Y121063D01*
Y120275D01*
X73199Y120271D01*
X73064Y120259D01*
X72944Y120240D01*
X72840Y120212D01*
X72752Y120177D01*
X72680Y120133D01*
X72624Y120082D01*
X72584Y120023D01*
X72560Y119956D01*
X72552Y119882D01*
Y121456D01*
X72560Y121382D01*
D02*
G37*
G36*
X63588Y123882D02*
X63580Y123956D01*
X63556Y124023D01*
X63517Y124082D01*
X63462Y124134D01*
X63391Y124177D01*
X63305Y124212D01*
X63202Y124240D01*
X63084Y124259D01*
X62950Y124271D01*
X62801Y124275D01*
Y125063D01*
X62950Y125067D01*
X63084Y125078D01*
X63202Y125098D01*
X63305Y125126D01*
X63391Y125161D01*
X63462Y125204D01*
X63517Y125256D01*
X63556Y125315D01*
X63580Y125382D01*
X63588Y125456D01*
Y123882D01*
D02*
G37*
G36*
X121491Y118289D02*
X121425Y118211D01*
X121367Y118132D01*
X121317Y118052D01*
X121274Y117970D01*
X121239Y117887D01*
X121212Y117802D01*
X121193Y117717D01*
X121181Y117630D01*
X121177Y117541D01*
X120575D01*
X120571Y117630D01*
X120559Y117717D01*
X120540Y117802D01*
X120513Y117887D01*
X120478Y117970D01*
X120435Y118052D01*
X120385Y118132D01*
X120327Y118211D01*
X120261Y118289D01*
X120187Y118366D01*
X121565D01*
X121491Y118289D01*
D02*
G37*
G36*
X26838Y118503D02*
X26901Y118454D01*
X26969Y118411D01*
X27041Y118373D01*
X27117Y118341D01*
X27198Y118315D01*
X27283Y118295D01*
X27373Y118281D01*
X27467Y118272D01*
X27566Y118269D01*
Y117469D01*
X27467Y117466D01*
X27373Y117457D01*
X27283Y117443D01*
X27198Y117423D01*
X27117Y117397D01*
X27041Y117365D01*
X26969Y117327D01*
X26901Y117284D01*
X26838Y117235D01*
X26779Y117180D01*
Y118558D01*
X26838Y118503D01*
D02*
G37*
G36*
X123281Y118308D02*
X123293Y118221D01*
X123312Y118136D01*
X123339Y118051D01*
X123374Y117968D01*
X123417Y117886D01*
X123467Y117806D01*
X123525Y117727D01*
X123591Y117649D01*
X123665Y117572D01*
X122287D01*
X122361Y117649D01*
X122427Y117727D01*
X122485Y117806D01*
X122535Y117886D01*
X122578Y117968D01*
X122613Y118051D01*
X122640Y118136D01*
X122659Y118221D01*
X122671Y118308D01*
X122675Y118397D01*
X123277D01*
X123281Y118308D01*
D02*
G37*
G36*
X82010Y140507D02*
X81961Y140444D01*
X81918Y140376D01*
X81880Y140304D01*
X81848Y140228D01*
X81822Y140147D01*
X81802Y140061D01*
X81788Y139972D01*
X81779Y139878D01*
X81776Y139779D01*
X80976D01*
X80973Y139878D01*
X80964Y139972D01*
X80950Y140061D01*
X80930Y140147D01*
X80904Y140228D01*
X80872Y140304D01*
X80834Y140376D01*
X80791Y140444D01*
X80742Y140507D01*
X80687Y140566D01*
X82065D01*
X82010Y140507D01*
D02*
G37*
G36*
X70588Y123943D02*
X70581Y124006D01*
X70559Y124063D01*
X70523Y124112D01*
X70472Y124156D01*
X70407Y124192D01*
X70327Y124222D01*
X70232Y124245D01*
X70123Y124262D01*
X70000Y124272D01*
X69862Y124275D01*
Y125063D01*
X70000Y125066D01*
X70123Y125076D01*
X70232Y125093D01*
X70327Y125116D01*
X70407Y125146D01*
X70472Y125182D01*
X70523Y125225D01*
X70559Y125275D01*
X70581Y125332D01*
X70588Y125395D01*
Y123943D01*
D02*
G37*
G36*
X109829Y124025D02*
X109848Y123970D01*
X109873Y123922D01*
X109903Y123880D01*
X109939Y123845D01*
X109981Y123816D01*
X110028Y123793D01*
X110081Y123777D01*
X110140Y123768D01*
X110204Y123765D01*
X110195Y123303D01*
X110094Y123301D01*
X109907Y123285D01*
X109820Y123271D01*
X109737Y123254D01*
X109658Y123232D01*
X109584Y123207D01*
X109514Y123178D01*
X109449Y123144D01*
X109387Y123107D01*
X109816Y124086D01*
X109829Y124025D01*
D02*
G37*
G36*
X81780Y139303D02*
X81792Y139165D01*
X81812Y139043D01*
X81840Y138937D01*
X81876Y138848D01*
X81920Y138775D01*
X81972Y138718D01*
X82032Y138678D01*
X82100Y138653D01*
X82176Y138645D01*
X80576D01*
X80652Y138653D01*
X80720Y138678D01*
X80780Y138718D01*
X80832Y138775D01*
X80876Y138848D01*
X80912Y138937D01*
X80940Y139043D01*
X80960Y139165D01*
X80972Y139303D01*
X80976Y139457D01*
X81776D01*
X81780Y139303D01*
D02*
G37*
G36*
X130091Y123989D02*
X130025Y123911D01*
X129967Y123832D01*
X129917Y123752D01*
X129874Y123670D01*
X129839Y123587D01*
X129812Y123502D01*
X129793Y123417D01*
X129781Y123330D01*
X129777Y123241D01*
X129175D01*
X129171Y123330D01*
X129159Y123417D01*
X129140Y123502D01*
X129113Y123587D01*
X129078Y123670D01*
X129035Y123752D01*
X128985Y123832D01*
X128927Y123911D01*
X128861Y123989D01*
X128787Y124066D01*
X130165D01*
X130091Y123989D01*
D02*
G37*
G36*
X67266Y124519D02*
X67303Y124489D01*
X67346Y124462D01*
X67395Y124439D01*
X67450Y124419D01*
X67510Y124403D01*
X67577Y124390D01*
X67650Y124381D01*
X67728Y124376D01*
X67813Y124374D01*
X67709Y123587D01*
X67624Y123585D01*
X67403Y123566D01*
X67340Y123555D01*
X67283Y123540D01*
X67232Y123524D01*
X67186Y123504D01*
X67146Y123483D01*
X67111Y123458D01*
X67235Y124554D01*
X67266Y124519D01*
D02*
G37*
G36*
X53256Y123429D02*
X53197Y123486D01*
X53135Y123538D01*
X53073Y123583D01*
X53009Y123622D01*
X52944Y123655D01*
X52878Y123682D01*
X52810Y123703D01*
X52741Y123718D01*
X52671Y123728D01*
X52599Y123731D01*
Y124231D01*
X52671Y124233D01*
X52741Y124242D01*
X52810Y124258D01*
X52878Y124279D01*
X52944Y124306D01*
X53009Y124339D01*
X53073Y124378D01*
X53135Y124423D01*
X53197Y124475D01*
X53256Y124532D01*
Y123429D01*
D02*
G37*
G36*
X68677Y123458D02*
X68642Y123483D01*
X68602Y123504D01*
X68556Y123524D01*
X68505Y123540D01*
X68448Y123555D01*
X68385Y123566D01*
X68243Y123582D01*
X68164Y123585D01*
X68079Y123587D01*
X67975Y124374D01*
X68060Y124376D01*
X68211Y124390D01*
X68278Y124403D01*
X68338Y124419D01*
X68393Y124439D01*
X68442Y124462D01*
X68485Y124489D01*
X68522Y124519D01*
X68553Y124554D01*
X68677Y123458D01*
D02*
G37*
G36*
X134362Y120036D02*
X134356Y120093D01*
X134338Y120144D01*
X134308Y120189D01*
X134266Y120228D01*
X134212Y120262D01*
X134146Y120289D01*
X134067Y120310D01*
X133977Y120325D01*
X133875Y120334D01*
X133760Y120337D01*
Y120939D01*
X133875Y120942D01*
X133977Y120951D01*
X134067Y120966D01*
X134146Y120987D01*
X134212Y121014D01*
X134266Y121048D01*
X134308Y121087D01*
X134338Y121132D01*
X134356Y121183D01*
X134362Y121240D01*
Y120036D01*
D02*
G37*
G36*
X63588Y119882D02*
X63580Y119956D01*
X63556Y120023D01*
X63517Y120082D01*
X63462Y120134D01*
X63391Y120177D01*
X63305Y120212D01*
X63202Y120240D01*
X63084Y120259D01*
X62950Y120271D01*
X62801Y120275D01*
Y121063D01*
X62950Y121067D01*
X63084Y121078D01*
X63202Y121098D01*
X63305Y121126D01*
X63391Y121161D01*
X63462Y121204D01*
X63517Y121256D01*
X63556Y121315D01*
X63580Y121382D01*
X63588Y121456D01*
Y119882D01*
D02*
G37*
G36*
X72560Y125382D02*
X72584Y125315D01*
X72624Y125256D01*
X72680Y125204D01*
X72752Y125161D01*
X72840Y125126D01*
X72944Y125098D01*
X73064Y125078D01*
X73199Y125067D01*
X73351Y125063D01*
Y124275D01*
X73199Y124271D01*
X73064Y124259D01*
X72944Y124240D01*
X72840Y124212D01*
X72752Y124177D01*
X72680Y124134D01*
X72624Y124082D01*
X72584Y124023D01*
X72560Y123956D01*
X72552Y123882D01*
Y125456D01*
X72560Y125382D01*
D02*
G37*
G36*
X81389Y122503D02*
X81447Y122456D01*
X81506Y122414D01*
X81567Y122379D01*
X81629Y122348D01*
X81692Y122324D01*
X81757Y122305D01*
X81823Y122291D01*
X81891Y122284D01*
X81961Y122282D01*
X81181Y121502D01*
X81179Y121571D01*
X81171Y121639D01*
X81158Y121706D01*
X81139Y121771D01*
X81114Y121834D01*
X81084Y121896D01*
X81048Y121957D01*
X81007Y122016D01*
X80960Y122073D01*
X80907Y122130D01*
X81333Y122556D01*
X81389Y122503D01*
D02*
G37*
G36*
X55816Y120870D02*
X55756Y120928D01*
X55695Y120979D01*
X55633Y121024D01*
X55569Y121063D01*
X55504Y121096D01*
X55438Y121123D01*
X55370Y121144D01*
X55301Y121160D01*
X55231Y121168D01*
X55159Y121171D01*
Y121671D01*
X55231Y121675D01*
X55301Y121684D01*
X55370Y121699D01*
X55438Y121720D01*
X55504Y121747D01*
X55569Y121780D01*
X55633Y121819D01*
X55695Y121864D01*
X55756Y121915D01*
X55816Y121973D01*
Y120870D01*
D02*
G37*
G36*
X108576Y166919D02*
X108366Y166779D01*
X108149Y166453D01*
X108072Y166069D01*
Y164003D01*
X107392D01*
Y155735D01*
X108576D01*
Y153398D01*
X107901Y152844D01*
X106991Y151735D01*
X106314Y150470D01*
X105898Y149097D01*
X105757Y147669D01*
X105898Y146241D01*
X106314Y144868D01*
X106991Y143603D01*
X107901Y142494D01*
X109010Y141584D01*
X109514Y141314D01*
X109648Y140676D01*
X109422Y140337D01*
X109269Y139569D01*
X109422Y138801D01*
X109857Y138150D01*
X110508Y137715D01*
X111276Y137562D01*
X112044Y137715D01*
X112326Y137903D01*
X112608Y137715D01*
X113376Y137562D01*
X114144Y137715D01*
X114426Y137903D01*
X114708Y137715D01*
X115476Y137562D01*
X116244Y137715D01*
X116895Y138150D01*
X117273Y138715D01*
X120862D01*
X121776Y137005D01*
X123006Y135506D01*
X124505Y134276D01*
X126215Y133362D01*
X128070Y132800D01*
X130000Y132610D01*
X130224Y132632D01*
X130595Y132296D01*
Y130619D01*
X130633Y130625D01*
X130894Y130695D01*
X131115Y130785D01*
X131297Y130895D01*
X131437Y131025D01*
X131538Y131175D01*
X131598Y131345D01*
X131618Y131535D01*
Y130035D01*
X135138D01*
Y129035D01*
X131618D01*
Y127535D01*
X131598Y127725D01*
X131538Y127895D01*
X131437Y128045D01*
X131297Y128175D01*
X131115Y128285D01*
X130894Y128375D01*
X130633Y128445D01*
X130595Y128451D01*
Y126945D01*
X130095Y126653D01*
X129476Y126776D01*
X129373Y126756D01*
X128987Y127073D01*
Y127269D01*
X128887Y127771D01*
X128603Y128196D01*
X123503Y133296D01*
X123077Y133580D01*
X122576Y133680D01*
X81903D01*
X81367Y134038D01*
X80676Y134175D01*
X80132Y134067D01*
X80016Y134185D01*
X80227Y134685D01*
X83610D01*
Y139653D01*
X83265D01*
X82998Y140153D01*
X83230Y140501D01*
X83383Y141269D01*
X83230Y142037D01*
X82795Y142688D01*
X82144Y143123D01*
X81376Y143276D01*
X80608Y143123D01*
X80055Y142754D01*
X79676Y142836D01*
X79511Y142922D01*
X79430Y143330D01*
X78995Y143981D01*
X78344Y144416D01*
X77576Y144569D01*
X74401D01*
X74388Y144588D01*
X73737Y145023D01*
X72969Y145176D01*
X72200Y145023D01*
X71549Y144588D01*
X71536Y144569D01*
X70448D01*
X70435Y144588D01*
X69784Y145023D01*
X69016Y145176D01*
X68248Y145023D01*
X67597Y144588D01*
X67583Y144569D01*
X66511D01*
X66498Y144588D01*
X65847Y145023D01*
X65079Y145176D01*
X64311Y145023D01*
X63660Y144588D01*
X63225Y143937D01*
X63072Y143169D01*
X63225Y142401D01*
X63660Y141750D01*
X64311Y141315D01*
X65079Y141162D01*
X65169Y141180D01*
X65224Y141176D01*
X65269Y141171D01*
X65301Y141164D01*
X65305Y141163D01*
X70189Y136279D01*
X70597Y136006D01*
X71079Y135911D01*
X73642D01*
Y134685D01*
X76269D01*
X76521Y134185D01*
X76222Y133737D01*
X76069Y132969D01*
X76222Y132201D01*
X76657Y131550D01*
X77308Y131115D01*
X78076Y130962D01*
X78844Y131115D01*
X78945Y131182D01*
X79399Y131092D01*
X79902Y130755D01*
X80066Y130213D01*
X79449Y129596D01*
X79165Y129171D01*
X79065Y128669D01*
Y126653D01*
X76076D01*
X75961Y127231D01*
X75570Y127817D01*
X74984Y128208D01*
X74292Y128346D01*
X73601Y128208D01*
X73015Y127817D01*
X72624Y127231D01*
X72509Y126653D01*
X70958D01*
X70843Y127232D01*
X70452Y127818D01*
X69866Y128209D01*
X69174Y128347D01*
X68483Y128209D01*
X67897Y127818D01*
X67506Y127232D01*
X67368Y126541D01*
X67434Y126211D01*
X67093Y125887D01*
X66598Y126018D01*
X66560Y126357D01*
Y126653D01*
X62592D01*
Y126074D01*
X62186D01*
X61648Y125967D01*
X61328Y125753D01*
X60806Y125649D01*
X60220Y125258D01*
X60150D01*
X59564Y125649D01*
X58872Y125787D01*
X58181Y125649D01*
X57625Y125278D01*
X57070Y125649D01*
X56379Y125787D01*
X56356Y125782D01*
X55380Y126759D01*
X54972Y127032D01*
X54490Y127127D01*
X51476D01*
X51329Y127098D01*
X51028Y127548D01*
X51130Y127701D01*
X51283Y128469D01*
X51130Y129237D01*
X50695Y129888D01*
X50044Y130323D01*
X49276Y130476D01*
X48508Y130323D01*
X47857Y129888D01*
X47422Y129237D01*
X47269Y128469D01*
X47422Y127701D01*
X47857Y127050D01*
X48508Y126615D01*
X49276Y126462D01*
X49658Y126538D01*
X49905Y126077D01*
X37322Y113495D01*
X36860Y113686D01*
Y115475D01*
X36876Y115969D01*
Y115969D01*
X36876Y115969D01*
Y117469D01*
X34876D01*
X32876D01*
X32876D01*
D01*
X31960D01*
Y119953D01*
X27992D01*
Y119280D01*
X27501D01*
X27495Y119288D01*
X26844Y119723D01*
X26076Y119876D01*
X25308Y119723D01*
X24657Y119288D01*
X24222Y118637D01*
X24069Y117869D01*
X24222Y117101D01*
X24657Y116450D01*
X25308Y116015D01*
X26076Y115862D01*
X26844Y116015D01*
X27312Y116327D01*
X27846Y116229D01*
X27917Y116184D01*
X27992Y116053D01*
Y111885D01*
X30505D01*
X30712Y111385D01*
X25404Y106077D01*
X24761Y106140D01*
X24595Y106388D01*
X23944Y106823D01*
X23176Y106976D01*
X22408Y106823D01*
X21757Y106388D01*
X21322Y105737D01*
X21169Y104969D01*
X21322Y104201D01*
X21757Y103550D01*
X22005Y103384D01*
X22068Y102741D01*
X20786Y101459D01*
X20513Y101051D01*
X20418Y100569D01*
Y75269D01*
X20513Y74787D01*
X20786Y74379D01*
X29945Y65220D01*
X29781Y64678D01*
X29508Y64623D01*
X28857Y64188D01*
X28422Y63537D01*
X28269Y62769D01*
X28422Y62001D01*
X28857Y61350D01*
X29508Y60915D01*
X30276Y60762D01*
X31044Y60915D01*
X31418Y61164D01*
X31918Y60897D01*
Y53769D01*
X32013Y53287D01*
X32286Y52879D01*
X39924Y45242D01*
X40332Y44969D01*
X40813Y44873D01*
X47789D01*
X48270Y44969D01*
X48678Y45242D01*
X49612Y46175D01*
X49676Y46163D01*
X50367Y46300D01*
X50953Y46692D01*
X51345Y47278D01*
X51482Y47969D01*
X51345Y48660D01*
X50953Y49246D01*
X50824Y49333D01*
Y49833D01*
X50953Y49920D01*
X51015Y50012D01*
X51515D01*
X51577Y49920D01*
X52163Y49528D01*
X52854Y49391D01*
X53545Y49528D01*
X54131Y49920D01*
X54156Y49956D01*
X54587D01*
X54709Y49885D01*
X55285Y49500D01*
X55976Y49363D01*
X56667Y49500D01*
X57253Y49892D01*
X57724Y49767D01*
X57876Y49324D01*
X57484Y48738D01*
X57347Y48047D01*
X57484Y47356D01*
X57876Y46770D01*
X58462Y46378D01*
X59153Y46241D01*
X59844Y46378D01*
X60430Y46770D01*
X60822Y47356D01*
X60959Y48047D01*
X61399Y48401D01*
X62940D01*
X62987Y48411D01*
X63309D01*
X63650Y48069D01*
X63646Y48047D01*
X63783Y47356D01*
X64175Y46770D01*
X64761Y46378D01*
X65452Y46241D01*
X65731Y46012D01*
Y44756D01*
X65827Y44274D01*
X66100Y43866D01*
X67186Y42779D01*
X67594Y42506D01*
X68076Y42411D01*
X68714D01*
X69195Y42506D01*
X69603Y42779D01*
X69726Y42902D01*
X69849Y42779D01*
X70258Y42506D01*
X70739Y42411D01*
X71414D01*
X71934Y42004D01*
X71940Y41974D01*
X72212Y41566D01*
X72550Y41228D01*
X72958Y40955D01*
X73440Y40860D01*
X74115D01*
X74597Y40955D01*
X75005Y41228D01*
X75128Y41351D01*
X75251Y41228D01*
X75659Y40955D01*
X76141Y40860D01*
X76816D01*
X77298Y40955D01*
X77706Y41228D01*
X78043Y41566D01*
X78316Y41974D01*
X78403Y42411D01*
X80076D01*
X80558Y42506D01*
X80966Y42779D01*
X81466Y43279D01*
X81739Y43687D01*
X81834Y44169D01*
Y45969D01*
X81758Y46352D01*
X81892Y46378D01*
X82478Y46770D01*
X82870Y47356D01*
X83007Y48047D01*
X83462Y48326D01*
X88614D01*
X88843Y48047D01*
X88980Y47356D01*
X89372Y46770D01*
X89840Y46457D01*
X89924Y46077D01*
X89902Y45879D01*
X89686Y45663D01*
X89413Y45255D01*
X89318Y44773D01*
Y43963D01*
X89413Y43481D01*
X89686Y43073D01*
X89742Y43018D01*
X89686Y42962D01*
X89413Y42554D01*
X89318Y42073D01*
Y41262D01*
X89413Y40781D01*
X89686Y40372D01*
X89956Y40102D01*
X90365Y39830D01*
X90846Y39734D01*
X92541D01*
Y38646D01*
X92636Y38164D01*
X92909Y37756D01*
X93286Y37379D01*
X93694Y37106D01*
X94176Y37011D01*
X97176D01*
X97658Y37106D01*
X98066Y37379D01*
X98666Y37979D01*
X98939Y38387D01*
X99034Y38869D01*
Y41723D01*
X99365Y41865D01*
X99534Y41902D01*
X100153Y41488D01*
X100921Y41335D01*
X101690Y41488D01*
X102201Y41830D01*
X102712Y41488D01*
X103481Y41335D01*
X104249Y41488D01*
X104900Y41923D01*
X105335Y42574D01*
X105488Y43343D01*
X105335Y44111D01*
X104900Y44762D01*
X104249Y45197D01*
X103977Y45251D01*
Y71211D01*
X104477Y71621D01*
X104776Y71562D01*
X105544Y71715D01*
X106195Y72150D01*
X106630Y72801D01*
X106783Y73569D01*
X106630Y74337D01*
X106195Y74988D01*
X105544Y75423D01*
X104776Y75576D01*
X104477Y75517D01*
X103977Y75927D01*
Y82862D01*
X108376D01*
X108835Y82953D01*
X109335Y82586D01*
Y80918D01*
X110049D01*
X110201Y80418D01*
X109857Y80188D01*
X109422Y79537D01*
X109269Y78769D01*
X109422Y78001D01*
X109857Y77350D01*
X110508Y76915D01*
X110814Y76854D01*
Y76344D01*
X110208Y76223D01*
X109557Y75788D01*
X109122Y75137D01*
X108969Y74369D01*
X109122Y73601D01*
X109557Y72950D01*
X110000Y72654D01*
X109722Y72237D01*
X109569Y71469D01*
X109722Y70701D01*
X110157Y70050D01*
X110808Y69615D01*
X111576Y69462D01*
X112344Y69615D01*
X112995Y70050D01*
X113430Y70701D01*
X113583Y71469D01*
X113430Y72237D01*
X112995Y72888D01*
X112552Y73184D01*
X112830Y73601D01*
X112983Y74369D01*
X112830Y75137D01*
X112395Y75788D01*
X111744Y76223D01*
X111437Y76284D01*
Y76794D01*
X112044Y76915D01*
X112695Y77350D01*
X113130Y78001D01*
X113283Y78769D01*
X113130Y79537D01*
X112695Y80188D01*
X112351Y80418D01*
X112503Y80918D01*
X115271D01*
Y83780D01*
X112303D01*
Y84280D01*
X111803D01*
Y86623D01*
X110346Y86630D01*
X110400Y86645D01*
X110447Y86690D01*
X110489Y86765D01*
X110525Y86870D01*
X110556Y87005D01*
X110581Y87170D01*
X110615Y87590D01*
X110616Y87642D01*
X110569D01*
X110383Y87869D01*
X110230Y88637D01*
X109795Y89288D01*
X109626Y89402D01*
Y90003D01*
X109995Y90250D01*
X110430Y90901D01*
X110555Y91527D01*
X110583Y91669D01*
X110518Y91997D01*
X110518Y91997D01*
X110518Y91997D01*
Y93589D01*
X111344Y94415D01*
X111995Y94850D01*
X112430Y95501D01*
X112583Y96269D01*
X112430Y97037D01*
X111995Y97688D01*
X111551Y97985D01*
X111435Y98576D01*
X114041Y101182D01*
X114310Y101584D01*
X114404Y102058D01*
X114404Y102058D01*
Y121933D01*
X114310Y122407D01*
X114041Y122809D01*
X114041Y122809D01*
X112250Y124601D01*
X112457Y124910D01*
X112610Y125679D01*
X112457Y126447D01*
X112022Y127098D01*
X111371Y127533D01*
X110602Y127686D01*
X109834Y127533D01*
X109183Y127098D01*
X108748Y126447D01*
X108638Y125894D01*
X108076Y125783D01*
X107425Y125348D01*
X106990Y124697D01*
X106860Y124041D01*
X106383Y124069D01*
X106230Y124837D01*
X105795Y125488D01*
X105144Y125923D01*
X104376Y126076D01*
X103608Y125923D01*
X102957Y125488D01*
X102522Y124837D01*
X102369Y124069D01*
X102522Y123301D01*
X102957Y122650D01*
X103608Y122215D01*
X104376Y122062D01*
X105144Y122215D01*
X105795Y122650D01*
X106230Y123301D01*
X106361Y123957D01*
X106837Y123928D01*
X106990Y123160D01*
X107425Y122509D01*
X107940Y122165D01*
X107922Y122137D01*
X107769Y121369D01*
X107922Y120601D01*
X108357Y119950D01*
X108385Y119931D01*
X108122Y119537D01*
X107969Y118769D01*
X108122Y118001D01*
X108557Y117350D01*
X108901Y117120D01*
Y116518D01*
X108557Y116288D01*
X108122Y115637D01*
X107969Y114869D01*
X108122Y114101D01*
X108557Y113450D01*
X109208Y113015D01*
X109976Y112862D01*
X110464Y112959D01*
X110964Y112606D01*
Y102970D01*
X109322Y101327D01*
X108779Y101492D01*
X108730Y101737D01*
X108295Y102388D01*
X107644Y102823D01*
X106876Y102976D01*
X106108Y102823D01*
X105457Y102388D01*
X105406Y102312D01*
X105364Y102275D01*
X105328Y102248D01*
X105301Y102229D01*
X105298Y102227D01*
X103076D01*
X102594Y102132D01*
X102186Y101859D01*
X98017Y97690D01*
X97556Y97882D01*
Y102799D01*
X96802D01*
X96544Y101787D01*
X94676Y101775D01*
X94819Y101791D01*
X94946Y101837D01*
X95059Y101913D01*
X95156Y102019D01*
X95239Y102155D01*
X95306Y102322D01*
X95359Y102518D01*
X95396Y102744D01*
X95401Y102799D01*
X94398D01*
Y98059D01*
X93398D01*
Y102799D01*
X90834D01*
Y104311D01*
X92476D01*
X92958Y104406D01*
X93366Y104679D01*
X93766Y105079D01*
X94039Y105487D01*
X94134Y105969D01*
Y107269D01*
X94039Y107751D01*
X93766Y108159D01*
X93493Y108432D01*
X93559Y109073D01*
X93766Y109279D01*
X94039Y109687D01*
X94134Y110169D01*
Y111269D01*
X94039Y111751D01*
X93766Y112159D01*
X93266Y112659D01*
X92858Y112932D01*
X92376Y113027D01*
X89676D01*
X89194Y112932D01*
X88786Y112659D01*
X87886Y111759D01*
X87613Y111351D01*
X87528Y110921D01*
X87445Y110748D01*
X87131Y110490D01*
X87088Y110499D01*
X86860Y110454D01*
X86505Y110563D01*
X86264Y110829D01*
X86335Y111186D01*
X86260Y111562D01*
X86360Y111685D01*
X86360D01*
Y115653D01*
X86360D01*
X86235Y115806D01*
X86334Y116304D01*
X86248Y116736D01*
X86654Y117141D01*
X87088Y117055D01*
X87779Y117193D01*
X88365Y117584D01*
X88756Y118170D01*
X88894Y118861D01*
X88756Y119553D01*
X88385Y120108D01*
X88756Y120663D01*
X88894Y121354D01*
X88756Y122046D01*
X88365Y122632D01*
Y122702D01*
X88756Y123288D01*
X88894Y123979D01*
X88756Y124671D01*
X88365Y125257D01*
X87779Y125648D01*
X87088Y125786D01*
X86396Y125648D01*
X85810Y125257D01*
X85394Y125533D01*
X85220Y125649D01*
X84528Y125787D01*
X84095Y125700D01*
X83689Y126106D01*
X83776Y126541D01*
X83638Y127232D01*
X83247Y127818D01*
X82661Y128209D01*
X82507Y128240D01*
X82343Y128782D01*
X83219Y129658D01*
X93332D01*
X93570Y129369D01*
X93707Y128678D01*
X94099Y128092D01*
X94685Y127700D01*
X95376Y127563D01*
X96067Y127700D01*
X96653Y128092D01*
X97045Y128678D01*
X97182Y129369D01*
X97362Y129588D01*
X97797D01*
X98125Y129189D01*
X98069Y128909D01*
X98222Y128141D01*
X98657Y127490D01*
X99308Y127055D01*
X100076Y126902D01*
X100844Y127055D01*
X101495Y127490D01*
X101930Y128141D01*
X102083Y128909D01*
X102011Y129272D01*
X102328Y129658D01*
X112736D01*
X113003Y129158D01*
X112722Y128737D01*
X112569Y127969D01*
X112722Y127201D01*
X113157Y126550D01*
X113808Y126115D01*
X114576Y125962D01*
X114659Y125978D01*
X114676Y125977D01*
X114702Y125973D01*
X114720Y125969D01*
X114724Y125968D01*
X119565Y121126D01*
Y120589D01*
X119564Y120585D01*
X119554Y120570D01*
X119538Y120548D01*
X119527Y120535D01*
X119457Y120488D01*
X119022Y119837D01*
X118869Y119069D01*
X119022Y118301D01*
X119457Y117650D01*
X119527Y117603D01*
X119538Y117590D01*
X119554Y117568D01*
X119564Y117553D01*
X119565Y117549D01*
Y101369D01*
X119665Y100867D01*
X119949Y100442D01*
X126664Y93727D01*
X127090Y93443D01*
X127591Y93343D01*
X133366D01*
Y91997D01*
X138796D01*
Y89019D01*
X136524D01*
Y84968D01*
Y80917D01*
X138796D01*
Y1204D01*
X119532D01*
X119433Y1704D01*
X120135Y1995D01*
X121030Y2682D01*
X121717Y3577D01*
X122148Y4619D01*
X122296Y5737D01*
X122148Y6856D01*
X121717Y7898D01*
X121030Y8793D01*
X120135Y9480D01*
X119093Y9911D01*
X117974Y10059D01*
X116856Y9911D01*
X115814Y9480D01*
X114919Y8793D01*
X114232Y7898D01*
X113801Y6856D01*
X113653Y5737D01*
X113801Y4619D01*
X114232Y3577D01*
X114919Y2682D01*
X115814Y1995D01*
X116516Y1704D01*
X116417Y1204D01*
X93540D01*
X93440Y1704D01*
X94143Y1995D01*
X95038Y2682D01*
X95725Y3577D01*
X96156Y4619D01*
X96303Y5737D01*
X96156Y6856D01*
X95725Y7898D01*
X95038Y8793D01*
X94143Y9480D01*
X93101Y9911D01*
X91982Y10059D01*
X90864Y9911D01*
X89822Y9480D01*
X88927Y8793D01*
X88240Y7898D01*
X87808Y6856D01*
X87661Y5737D01*
X87808Y4619D01*
X88240Y3577D01*
X88927Y2682D01*
X89822Y1995D01*
X90524Y1704D01*
X90425Y1204D01*
X1204D01*
Y132610D01*
X10000D01*
X11930Y132800D01*
X13785Y133362D01*
X15495Y134276D01*
X16994Y135506D01*
X18224Y137005D01*
X19138Y138715D01*
X19700Y140570D01*
X19890Y142500D01*
X19795Y143463D01*
Y154504D01*
X23576Y158285D01*
Y173796D01*
X108576D01*
Y166919D01*
D02*
G37*
G36*
X125581Y115184D02*
X125593Y115097D01*
X125612Y115011D01*
X125639Y114927D01*
X125674Y114844D01*
X125717Y114762D01*
X125767Y114681D01*
X125825Y114602D01*
X125891Y114524D01*
X125965Y114447D01*
X124587D01*
X124661Y114524D01*
X124727Y114602D01*
X124785Y114681D01*
X124835Y114762D01*
X124878Y114844D01*
X124913Y114927D01*
X124940Y115011D01*
X124959Y115097D01*
X124971Y115184D01*
X124975Y115272D01*
X125577D01*
X125581Y115184D01*
D02*
G37*
G36*
X74650Y136669D02*
X74645Y136716D01*
X74629Y136759D01*
X74604Y136796D01*
X74568Y136829D01*
X74522Y136856D01*
X74466Y136879D01*
X74399Y136897D01*
X74322Y136909D01*
X74235Y136916D01*
X74138Y136919D01*
Y137419D01*
X74235Y137422D01*
X74322Y137429D01*
X74399Y137442D01*
X74466Y137459D01*
X74522Y137481D01*
X74568Y137509D01*
X74604Y137541D01*
X74629Y137579D01*
X74645Y137621D01*
X74650Y137669D01*
Y136669D01*
D02*
G37*
G36*
X66065Y143040D02*
X66072Y142926D01*
X66086Y142820D01*
X66105Y142719D01*
X66131Y142626D01*
X66162Y142539D01*
X66199Y142458D01*
X66242Y142384D01*
X66291Y142316D01*
X66346Y142255D01*
X65993Y141902D01*
X65932Y141956D01*
X65864Y142005D01*
X65790Y142049D01*
X65709Y142086D01*
X65622Y142117D01*
X65528Y142142D01*
X65428Y142162D01*
X65321Y142175D01*
X65208Y142183D01*
X65089Y142185D01*
X66063Y143159D01*
X66065Y143040D01*
D02*
G37*
G36*
X118862Y127853D02*
X118871Y127751D01*
X118886Y127654D01*
X118907Y127561D01*
X118935Y127473D01*
X118969Y127390D01*
X119009Y127311D01*
X119056Y127237D01*
X119109Y127167D01*
X119169Y127102D01*
X118743Y126676D01*
X118678Y126735D01*
X118608Y126789D01*
X118534Y126836D01*
X118455Y126876D01*
X118372Y126910D01*
X118284Y126938D01*
X118191Y126959D01*
X118094Y126974D01*
X117992Y126983D01*
X117886Y126985D01*
X118860Y127959D01*
X118862Y127853D01*
D02*
G37*
G36*
X31773Y113280D02*
X31687Y113363D01*
X31602Y113438D01*
X31517Y113504D01*
X31432Y113561D01*
X31348Y113609D01*
X31264Y113649D01*
X31181Y113680D01*
X31163Y113684D01*
X31144Y113679D01*
X31089Y113656D01*
X31044Y113629D01*
X31009Y113596D01*
X30984Y113559D01*
X30969Y113516D01*
X30964Y113469D01*
Y113717D01*
X30933Y113719D01*
Y114219D01*
X30964Y114221D01*
Y114469D01*
X30969Y114421D01*
X30984Y114379D01*
X31009Y114341D01*
X31044Y114309D01*
X31089Y114281D01*
X31144Y114259D01*
X31163Y114254D01*
X31181Y114259D01*
X31264Y114289D01*
X31348Y114329D01*
X31432Y114377D01*
X31517Y114434D01*
X31602Y114500D01*
X31687Y114575D01*
X31773Y114658D01*
Y113280D01*
D02*
G37*
G36*
X68221Y122575D02*
X68482Y122400D01*
X69174Y122263D01*
X69190Y122266D01*
X69576Y121949D01*
Y121169D01*
X70404D01*
X70462Y121204D01*
X70517Y121256D01*
X70556Y121315D01*
X70580Y121382D01*
X70588Y121456D01*
Y121169D01*
X71576D01*
Y120669D01*
X72076D01*
Y118669D01*
X73076D01*
Y117869D01*
X75076D01*
Y117369D01*
X75576D01*
Y115369D01*
X77076D01*
Y115369D01*
X77092Y115385D01*
X78376D01*
Y114169D01*
X80376D01*
Y113669D01*
X80876D01*
Y112693D01*
X81181D01*
X81115Y112689D01*
X81064Y112678D01*
X81028Y112660D01*
X81006Y112635D01*
X80998Y112602D01*
X81006Y112561D01*
X81028Y112514D01*
X81064Y112459D01*
X81115Y112397D01*
X81181Y112327D01*
X80876Y112226D01*
Y111669D01*
X81078D01*
X81061Y111702D01*
X81023Y111762D01*
X80979Y111818D01*
X80931Y111871D01*
X81284Y112224D01*
X81337Y112176D01*
X81393Y112132D01*
X81453Y112094D01*
X81515Y112061D01*
X81581Y112034D01*
X81651Y112011D01*
X81724Y111994D01*
X81800Y111982D01*
X81879Y111975D01*
X81962Y111973D01*
X81762Y111773D01*
X81873Y111669D01*
X82309D01*
X82563Y111520D01*
X82745Y111298D01*
X82722Y111186D01*
X82760Y110994D01*
X82524Y110706D01*
X82324Y110624D01*
X81770D01*
X81753Y110607D01*
X81962Y110398D01*
X81879Y110396D01*
X81800Y110389D01*
X81724Y110377D01*
X81651Y110360D01*
X81581Y110337D01*
X81515Y110310D01*
X81453Y110277D01*
X81393Y110239D01*
X81337Y110195D01*
X81284Y110147D01*
X80931Y110500D01*
X80979Y110553D01*
X81023Y110609D01*
X81032Y110624D01*
X80876D01*
Y110041D01*
X81103Y109965D01*
X81039Y109898D01*
X80989Y109838D01*
X80976Y109818D01*
X81052Y109879D01*
X81364Y110168D01*
X81921Y109611D01*
X81765Y109450D01*
X81520Y109160D01*
X81431Y109032D01*
X81364Y108915D01*
X81319Y108810D01*
X81297Y108715D01*
Y108632D01*
X81319Y108559D01*
X81364Y108498D01*
X80876Y108986D01*
Y108624D01*
X80376D01*
Y108124D01*
X78376D01*
Y106623D01*
X79763D01*
X79888Y106556D01*
X79999Y106071D01*
X78586Y104659D01*
X78313Y104251D01*
X78218Y103769D01*
Y103153D01*
X75270D01*
X74776Y103169D01*
X74776D01*
X74776Y103169D01*
X74273D01*
X73276Y102970D01*
Y101169D01*
X72276D01*
Y102420D01*
X72267Y102411D01*
X72206Y102470D01*
X72089Y102570D01*
X72034Y102610D01*
X71981Y102644D01*
X71930Y102672D01*
X71880Y102693D01*
X71833Y102708D01*
X71788Y102717D01*
X71744Y102720D01*
X72193Y103169D01*
X70776D01*
Y101169D01*
X69676D01*
Y99169D01*
X68676D01*
Y101169D01*
X67176D01*
Y100478D01*
X66790Y100161D01*
X66615Y100196D01*
X65923Y100058D01*
X65337Y99667D01*
X64946Y99081D01*
X64808Y98390D01*
X64894Y97956D01*
X64489Y97551D01*
X64056Y97637D01*
X63622Y97551D01*
X63217Y97956D01*
X63303Y98390D01*
X63165Y99081D01*
X62774Y99667D01*
X62188Y100058D01*
X61497Y100196D01*
X61474Y100191D01*
X60443Y101223D01*
X60634Y101685D01*
X63360D01*
Y105175D01*
X63376Y105669D01*
Y105669D01*
X63376Y105669D01*
Y107169D01*
X62520D01*
X62482Y107148D01*
X62430Y107104D01*
X62393Y107053D01*
X62371Y106996D01*
X62364Y106932D01*
Y107169D01*
X61376D01*
Y107669D01*
X60876D01*
Y109669D01*
X60372D01*
X60215Y109904D01*
X59629Y110295D01*
X58938Y110433D01*
X58752Y110396D01*
X58717Y110572D01*
X58461Y110956D01*
X57684Y111733D01*
X57614Y111838D01*
X57656Y112467D01*
X58047Y113053D01*
X58140Y113519D01*
X58587Y113966D01*
X58633Y114007D01*
X58713Y114069D01*
X58736Y114085D01*
X58771D01*
X58802Y114078D01*
X58842Y114085D01*
X58885D01*
X58916Y114081D01*
X58928Y114085D01*
X59782D01*
X60276Y114069D01*
X60276D01*
X60276Y114069D01*
X61776D01*
Y115104D01*
X61766Y115105D01*
X61673Y115102D01*
X61587Y115081D01*
X61776Y115147D01*
Y116069D01*
X62276D01*
Y116569D01*
X64276D01*
Y118069D01*
X64078D01*
X63762Y118569D01*
X63809Y118669D01*
X64076D01*
Y120669D01*
X64576D01*
Y121169D01*
X66576D01*
Y122231D01*
X66615Y122263D01*
X67306Y122400D01*
X67564Y122573D01*
X67594Y122575D01*
X68213D01*
X68221Y122575D01*
D02*
G37*
G36*
X52104Y118238D02*
X52156Y118162D01*
X52541Y117585D01*
X53127Y117194D01*
X53819Y117056D01*
X54510Y117194D01*
X54684Y117310D01*
X55098Y117583D01*
X55513Y117310D01*
X55687Y117194D01*
X56292Y117073D01*
Y115825D01*
X56285Y115794D01*
X56292Y115754D01*
Y115659D01*
X56202Y115555D01*
X56153Y115506D01*
X55687Y115413D01*
X55101Y115022D01*
X54730Y114466D01*
X54913Y114282D01*
X54854Y114221D01*
X54756Y114105D01*
X54715Y114049D01*
X54682Y113995D01*
X54654Y113943D01*
X54633Y113893D01*
X54617Y113844D01*
X54609Y113797D01*
X54606Y113752D01*
X54579Y113779D01*
X54572Y113744D01*
X54710Y113053D01*
X54794Y112927D01*
X54526Y112427D01*
X48543D01*
X48353Y112650D01*
X48443Y113256D01*
X48601Y113362D01*
X49174Y113935D01*
X49447Y114343D01*
X49542Y114825D01*
Y114903D01*
X49621D01*
X50103Y114999D01*
X50511Y115272D01*
X51084Y115845D01*
X51356Y116253D01*
X51452Y116735D01*
Y117117D01*
X51356Y117598D01*
X51139Y117924D01*
X51355Y118069D01*
X51613Y118326D01*
X52104Y118238D01*
D02*
G37*
G36*
X81289Y132873D02*
X81342Y132830D01*
X81399Y132793D01*
X81458Y132760D01*
X81520Y132733D01*
X81586Y132710D01*
X81654Y132693D01*
X81725Y132680D01*
X81799Y132673D01*
X81876Y132670D01*
Y132068D01*
X81799Y132065D01*
X81725Y132058D01*
X81654Y132045D01*
X81586Y132028D01*
X81520Y132005D01*
X81458Y131978D01*
X81399Y131945D01*
X81342Y131908D01*
X81289Y131865D01*
X81238Y131818D01*
Y132920D01*
X81289Y132873D01*
D02*
G37*
G36*
X77086Y136589D02*
X77082Y136536D01*
X77089Y136477D01*
X77108Y136414D01*
X77139Y136345D01*
X77181Y136272D01*
X77235Y136194D01*
X77301Y136111D01*
X77378Y136024D01*
X77468Y135931D01*
X77364Y135327D01*
X77249Y135439D01*
X77049Y135611D01*
X76964Y135673D01*
X76888Y135718D01*
X76823Y135746D01*
X76767Y135758D01*
X76720Y135753D01*
X76684Y135731D01*
X76657Y135693D01*
X77102Y136638D01*
X77086Y136589D01*
D02*
G37*
G36*
X78330Y134429D02*
X78344Y134347D01*
X78365Y134264D01*
X78396Y134181D01*
X78436Y134097D01*
X78484Y134013D01*
X78541Y133928D01*
X78607Y133843D01*
X78682Y133758D01*
X78765Y133672D01*
X77387D01*
X77470Y133758D01*
X77545Y133843D01*
X77611Y133928D01*
X77668Y134013D01*
X77716Y134097D01*
X77756Y134181D01*
X77786Y134264D01*
X77808Y134347D01*
X77822Y134429D01*
X77826Y134511D01*
X78326D01*
X78330Y134429D01*
D02*
G37*
G36*
X134362Y125172D02*
X134364Y125172D01*
X134367Y124372D01*
X134362Y124372D01*
Y123972D01*
X134354Y124048D01*
X134330Y124116D01*
X134291Y124176D01*
X134234Y124228D01*
X134162Y124272D01*
X134074Y124308D01*
X134005Y124327D01*
X134000Y124326D01*
X133919Y124300D01*
X133842Y124268D01*
X133770Y124230D01*
X133703Y124187D01*
X133640Y124137D01*
X133581Y124082D01*
X133580Y124372D01*
X133563Y124372D01*
Y125172D01*
X133578Y125172D01*
X133577Y125460D01*
X133636Y125405D01*
X133699Y125356D01*
X133767Y125313D01*
X133839Y125276D01*
X133916Y125244D01*
X133997Y125218D01*
X134003Y125217D01*
X134074Y125236D01*
X134162Y125272D01*
X134234Y125316D01*
X134291Y125368D01*
X134330Y125428D01*
X134354Y125496D01*
X134362Y125572D01*
Y125172D01*
D02*
G37*
G36*
X83965Y115752D02*
X83914Y115801D01*
X83859Y115845D01*
X83802Y115883D01*
X83742Y115916D01*
X83680Y115944D01*
X83614Y115967D01*
X83546Y115985D01*
X83475Y115998D01*
X83402Y116006D01*
X83325Y116008D01*
Y116599D01*
X83402Y116601D01*
X83475Y116609D01*
X83546Y116622D01*
X83614Y116640D01*
X83680Y116663D01*
X83742Y116691D01*
X83802Y116724D01*
X83859Y116763D01*
X83914Y116806D01*
X83965Y116855D01*
Y115752D01*
D02*
G37*
G36*
X29000Y117069D02*
X28992Y117145D01*
X28967Y117213D01*
X28927Y117273D01*
X28870Y117325D01*
X28797Y117369D01*
X28708Y117405D01*
X28602Y117433D01*
X28480Y117453D01*
X28342Y117465D01*
X28188Y117469D01*
Y118269D01*
X28342Y118273D01*
X28480Y118285D01*
X28602Y118305D01*
X28708Y118333D01*
X28797Y118369D01*
X28870Y118413D01*
X28927Y118465D01*
X28967Y118525D01*
X28992Y118593D01*
X29000Y118669D01*
Y117069D01*
D02*
G37*
G36*
X55746Y124971D02*
X55802Y124927D01*
X55862Y124889D01*
X55924Y124856D01*
X55990Y124829D01*
X56060Y124806D01*
X56133Y124789D01*
X56209Y124777D01*
X56288Y124770D01*
X56371Y124768D01*
X55591Y123988D01*
X55589Y124071D01*
X55582Y124150D01*
X55570Y124226D01*
X55553Y124299D01*
X55530Y124369D01*
X55503Y124435D01*
X55470Y124497D01*
X55432Y124557D01*
X55388Y124613D01*
X55340Y124666D01*
X55693Y125019D01*
X55746Y124971D01*
D02*
G37*
G36*
X110834Y124496D02*
X110371D01*
X110371Y124722D01*
X110834Y124722D01*
X110834Y124496D01*
D02*
G37*
G36*
X115562Y127853D02*
X115571Y127751D01*
X115586Y127654D01*
X115607Y127561D01*
X115635Y127473D01*
X115669Y127390D01*
X115709Y127311D01*
X115756Y127237D01*
X115810Y127167D01*
X115869Y127102D01*
X115443Y126676D01*
X115378Y126735D01*
X115308Y126789D01*
X115234Y126836D01*
X115155Y126876D01*
X115072Y126910D01*
X114984Y126938D01*
X114891Y126959D01*
X114794Y126974D01*
X114692Y126983D01*
X114586Y126985D01*
X115560Y127959D01*
X115562Y127853D01*
D02*
G37*
G36*
X58829Y115081D02*
X58748Y115106D01*
X58661Y115114D01*
X58567Y115103D01*
X58465Y115074D01*
X58358Y115028D01*
X58243Y114963D01*
X58121Y114880D01*
X57993Y114780D01*
X57857Y114661D01*
X57715Y114524D01*
X57158Y114598D01*
X57473Y114282D01*
X57414Y114221D01*
X57315Y114105D01*
X57275Y114049D01*
X57242Y113995D01*
X57214Y113943D01*
X57193Y113893D01*
X57177Y113844D01*
X57169Y113797D01*
X57166Y113752D01*
X56386Y114532D01*
X56431Y114534D01*
X56478Y114543D01*
X56527Y114559D01*
X56577Y114580D01*
X56629Y114608D01*
X56683Y114641D01*
X56739Y114681D01*
X56796Y114728D01*
X56861Y114788D01*
X56906Y114835D01*
X57177Y115150D01*
X57272Y115284D01*
X57341Y115403D01*
X57384Y115507D01*
X57400Y115595D01*
X57389Y115668D01*
X57352Y115726D01*
X57288Y115768D01*
X58829Y115081D01*
D02*
G37*
G36*
X134362Y114959D02*
X134349Y115072D01*
X134309Y115174D01*
X134241Y115264D01*
X134147Y115341D01*
X134025Y115407D01*
X133877Y115461D01*
X133702Y115503D01*
X133500Y115533D01*
X133270Y115551D01*
X133014Y115557D01*
Y117057D01*
X133270Y117063D01*
X133500Y117081D01*
X133702Y117111D01*
X133877Y117153D01*
X134025Y117207D01*
X134147Y117272D01*
X134241Y117350D01*
X134309Y117440D01*
X134349Y117542D01*
X134362Y117656D01*
Y114959D01*
D02*
G37*
G36*
X123591Y116089D02*
X123525Y116012D01*
X123467Y115932D01*
X123417Y115852D01*
X123374Y115770D01*
X123339Y115687D01*
X123312Y115602D01*
X123293Y115517D01*
X123281Y115430D01*
X123277Y115341D01*
X122675D01*
X122671Y115430D01*
X122659Y115517D01*
X122640Y115602D01*
X122613Y115687D01*
X122578Y115770D01*
X122535Y115852D01*
X122485Y115932D01*
X122427Y116012D01*
X122361Y116089D01*
X122287Y116166D01*
X123665D01*
X123591Y116089D01*
D02*
G37*
%LPC*%
G36*
X44976Y56169D02*
X43476D01*
Y54669D01*
X43964D01*
Y55157D01*
X43979Y55145D01*
X44024Y55135D01*
X44099Y55126D01*
X44339Y55111D01*
X44976Y55103D01*
Y56169D01*
D02*
G37*
G36*
X140673Y-11329D02*
X139597D01*
X139452Y-11343D01*
X139341Y-11349D01*
X139242Y-11362D01*
X139170Y-11375D01*
X139124Y-11382D01*
X139092Y-11395D01*
X139085D01*
X139013Y-11421D01*
X138947Y-11461D01*
X138895Y-11500D01*
X138849Y-11539D01*
X138816Y-11572D01*
X138790Y-11605D01*
X138777Y-11625D01*
X138770Y-11631D01*
X138731Y-11697D01*
X138705Y-11762D01*
X138685Y-11828D01*
X138672Y-11894D01*
X138665Y-11946D01*
X138659Y-11985D01*
Y-12012D01*
Y-12025D01*
X138665Y-12110D01*
X138678Y-12189D01*
X138698Y-12254D01*
X138718Y-12307D01*
X138737Y-12353D01*
X138757Y-12392D01*
X138770Y-12412D01*
X138777Y-12418D01*
X138823Y-12471D01*
X138882Y-12523D01*
X138941Y-12563D01*
X138993Y-12589D01*
X139046Y-12615D01*
X139085Y-12635D01*
X139111Y-12641D01*
X139124Y-12648D01*
X139197Y-12661D01*
X139288Y-12674D01*
X139380Y-12681D01*
X139472Y-12687D01*
X139557Y-12694D01*
X140673D01*
Y-11329D01*
D02*
G37*
G36*
Y-13232D02*
X139479D01*
X139341Y-13245D01*
X139229Y-13258D01*
X139137Y-13271D01*
X139065Y-13284D01*
X139006Y-13297D01*
X138980Y-13304D01*
X138967Y-13310D01*
X138882Y-13343D01*
X138809Y-13383D01*
X138744Y-13429D01*
X138691Y-13475D01*
X138652Y-13514D01*
X138626Y-13547D01*
X138606Y-13573D01*
X138600Y-13579D01*
X138554Y-13652D01*
X138521Y-13724D01*
X138495Y-13796D01*
X138481Y-13862D01*
X138468Y-13921D01*
X138462Y-13973D01*
Y-13999D01*
Y-14012D01*
X138468Y-14091D01*
X138475Y-14170D01*
X138488Y-14235D01*
X138508Y-14288D01*
X138527Y-14334D01*
X138540Y-14373D01*
X138547Y-14393D01*
X138554Y-14400D01*
X138593Y-14458D01*
X138626Y-14511D01*
X138672Y-14550D01*
X138705Y-14590D01*
X138737Y-14616D01*
X138763Y-14636D01*
X138783Y-14649D01*
X138790Y-14655D01*
X138901Y-14708D01*
X139013Y-14747D01*
X139059Y-14760D01*
X139098Y-14767D01*
X139124Y-14773D01*
X139131D01*
X139183Y-14780D01*
X139242Y-14786D01*
X139380Y-14793D01*
X140673D01*
Y-13232D01*
D02*
G37*
G36*
X123125Y-11231D02*
X123085D01*
X123013Y-11238D01*
X122941Y-11244D01*
X122875Y-11264D01*
X122816Y-11290D01*
X122705Y-11349D01*
X122606Y-11415D01*
X122534Y-11487D01*
X122475Y-11546D01*
X122455Y-11572D01*
X122442Y-11592D01*
X122429Y-11598D01*
Y-11605D01*
X122383Y-11684D01*
X122344Y-11776D01*
X122304Y-11880D01*
X122278Y-11992D01*
X122252Y-12110D01*
X122232Y-12235D01*
X122199Y-12484D01*
X122186Y-12609D01*
X122180Y-12720D01*
X122173Y-12825D01*
Y-12910D01*
X122167Y-12989D01*
Y-13048D01*
Y-13081D01*
Y-13088D01*
Y-13094D01*
Y-13297D01*
X122180Y-13481D01*
X122193Y-13645D01*
X122206Y-13803D01*
X122226Y-13934D01*
X122252Y-14058D01*
X122278Y-14163D01*
X122298Y-14262D01*
X122324Y-14340D01*
X122350Y-14406D01*
X122370Y-14465D01*
X122396Y-14511D01*
X122409Y-14544D01*
X122423Y-14563D01*
X122436Y-14577D01*
Y-14583D01*
X122488Y-14649D01*
X122541Y-14701D01*
X122593Y-14754D01*
X122646Y-14793D01*
X122757Y-14859D01*
X122855Y-14905D01*
X122947Y-14931D01*
X123013Y-14944D01*
X123039Y-14951D01*
X123079D01*
X123151Y-14944D01*
X123216Y-14937D01*
X123341Y-14891D01*
X123452Y-14832D01*
X123551Y-14767D01*
X123623Y-14701D01*
X123682Y-14642D01*
X123715Y-14596D01*
X123728Y-14590D01*
Y-14583D01*
X123774Y-14504D01*
X123813Y-14413D01*
X123853Y-14308D01*
X123879Y-14196D01*
X123905Y-14078D01*
X123925Y-13953D01*
X123958Y-13698D01*
X123971Y-13579D01*
X123977Y-13468D01*
X123984Y-13363D01*
Y-13278D01*
X123990Y-13199D01*
Y-13140D01*
Y-13107D01*
Y-13094D01*
X123984Y-12891D01*
X123977Y-12707D01*
X123964Y-12536D01*
X123944Y-12379D01*
X123925Y-12241D01*
X123899Y-12117D01*
X123872Y-12005D01*
X123846Y-11907D01*
X123820Y-11821D01*
X123800Y-11749D01*
X123774Y-11690D01*
X123754Y-11638D01*
X123735Y-11605D01*
X123721Y-11579D01*
X123708Y-11566D01*
Y-11559D01*
X123662Y-11500D01*
X123617Y-11447D01*
X123564Y-11408D01*
X123512Y-11369D01*
X123407Y-11310D01*
X123308Y-11270D01*
X123223Y-11251D01*
X123151Y-11238D01*
X123125Y-11231D01*
D02*
G37*
G36*
X135090D02*
X135031D01*
X134867Y-11238D01*
X134709Y-11264D01*
X134572Y-11303D01*
X134454Y-11343D01*
X134355Y-11388D01*
X134316Y-11408D01*
X134283Y-11421D01*
X134250Y-11441D01*
X134231Y-11447D01*
X134224Y-11461D01*
X134217D01*
X134093Y-11552D01*
X133981Y-11657D01*
X133883Y-11762D01*
X133804Y-11867D01*
X133745Y-11959D01*
X133699Y-12038D01*
X133686Y-12064D01*
X133673Y-12084D01*
X133666Y-12097D01*
Y-12104D01*
X133601Y-12261D01*
X133555Y-12432D01*
X133522Y-12589D01*
X133502Y-12740D01*
X133489Y-12812D01*
X133483Y-12871D01*
Y-12930D01*
X133476Y-12976D01*
Y-13015D01*
Y-13042D01*
Y-13061D01*
Y-13068D01*
X133483Y-13225D01*
X133496Y-13376D01*
X133516Y-13520D01*
X133542Y-13652D01*
X133581Y-13770D01*
X133614Y-13881D01*
X133653Y-13986D01*
X133693Y-14078D01*
X133739Y-14157D01*
X133778Y-14229D01*
X133811Y-14288D01*
X133844Y-14334D01*
X133876Y-14373D01*
X133896Y-14406D01*
X133909Y-14419D01*
X133916Y-14426D01*
X134001Y-14511D01*
X134093Y-14583D01*
X134185Y-14642D01*
X134276Y-14701D01*
X134368Y-14747D01*
X134467Y-14780D01*
X134552Y-14813D01*
X134644Y-14839D01*
X134723Y-14859D01*
X134801Y-14872D01*
X134867Y-14885D01*
X134926Y-14891D01*
X134972D01*
X135005Y-14898D01*
X135037D01*
X135162Y-14891D01*
X135280Y-14878D01*
X135385Y-14852D01*
X135490Y-14826D01*
X135589Y-14786D01*
X135680Y-14747D01*
X135766Y-14708D01*
X135844Y-14662D01*
X135910Y-14616D01*
X135969Y-14577D01*
X136021Y-14537D01*
X136067Y-14498D01*
X136100Y-14472D01*
X136126Y-14445D01*
X136140Y-14432D01*
X136146Y-14426D01*
X136225Y-14334D01*
X136290Y-14235D01*
X136349Y-14130D01*
X136402Y-14026D01*
X136441Y-13914D01*
X136481Y-13809D01*
X136533Y-13599D01*
X136546Y-13507D01*
X136559Y-13416D01*
X136573Y-13337D01*
X136579Y-13271D01*
X136586Y-13212D01*
Y-13166D01*
Y-13140D01*
Y-13133D01*
X136579Y-12950D01*
X136566Y-12779D01*
X136546Y-12615D01*
X136513Y-12471D01*
X136481Y-12340D01*
X136441Y-12222D01*
X136395Y-12110D01*
X136356Y-12018D01*
X136310Y-11933D01*
X136271Y-11861D01*
X136231Y-11802D01*
X136199Y-11756D01*
X136166Y-11716D01*
X136146Y-11690D01*
X136133Y-11677D01*
X136126Y-11671D01*
X136041Y-11592D01*
X135949Y-11526D01*
X135857Y-11467D01*
X135759Y-11415D01*
X135667Y-11375D01*
X135575Y-11336D01*
X135405Y-11283D01*
X135326Y-11270D01*
X135254Y-11257D01*
X135195Y-11244D01*
X135136Y-11238D01*
X135090Y-11231D01*
D02*
G37*
G36*
X119549Y-12878D02*
X119510D01*
X119372Y-12891D01*
X119247Y-12923D01*
X119143Y-12963D01*
X119051Y-13015D01*
X118979Y-13068D01*
X118926Y-13107D01*
X118893Y-13140D01*
X118880Y-13153D01*
X118795Y-13265D01*
X118729Y-13383D01*
X118683Y-13507D01*
X118657Y-13625D01*
X118637Y-13730D01*
X118631Y-13776D01*
Y-13816D01*
X118624Y-13848D01*
Y-13875D01*
Y-13888D01*
Y-13894D01*
X118637Y-14072D01*
X118664Y-14222D01*
X118703Y-14354D01*
X118749Y-14465D01*
X118801Y-14550D01*
X118841Y-14616D01*
X118867Y-14655D01*
X118880Y-14662D01*
Y-14668D01*
X118926Y-14721D01*
X118979Y-14760D01*
X119083Y-14832D01*
X119188Y-14878D01*
X119280Y-14918D01*
X119366Y-14937D01*
X119431Y-14944D01*
X119457Y-14951D01*
X119490D01*
X119582Y-14944D01*
X119667Y-14931D01*
X119746Y-14905D01*
X119812Y-14878D01*
X119871Y-14859D01*
X119917Y-14832D01*
X119943Y-14819D01*
X119956Y-14813D01*
X120035Y-14754D01*
X120100Y-14695D01*
X120159Y-14623D01*
X120205Y-14563D01*
X120245Y-14504D01*
X120271Y-14458D01*
X120291Y-14426D01*
X120297Y-14413D01*
X120336Y-14314D01*
X120363Y-14216D01*
X120389Y-14124D01*
X120402Y-14039D01*
X120409Y-13966D01*
X120415Y-13907D01*
Y-13875D01*
Y-13862D01*
X120402Y-13704D01*
X120376Y-13566D01*
X120330Y-13442D01*
X120284Y-13343D01*
X120238Y-13258D01*
X120192Y-13199D01*
X120166Y-13166D01*
X120153Y-13153D01*
X120048Y-13061D01*
X119943Y-12996D01*
X119831Y-12943D01*
X119733Y-12910D01*
X119641Y-12891D01*
X119576Y-12884D01*
X119549Y-12878D01*
D02*
G37*
G36*
X28676Y45288D02*
X27248Y45147D01*
X25875Y44731D01*
X24610Y44054D01*
X23501Y43144D01*
X22591Y42035D01*
X21914Y40770D01*
X21498Y39397D01*
X21357Y37969D01*
X21498Y36541D01*
X21914Y35168D01*
X22591Y33903D01*
X23501Y32794D01*
X24610Y31884D01*
X25875Y31207D01*
X27248Y30791D01*
X28676Y30650D01*
X30104Y30791D01*
X31477Y31207D01*
X32742Y31884D01*
X33851Y32794D01*
X34761Y33903D01*
X35438Y35168D01*
X35854Y36541D01*
X35995Y37969D01*
X35854Y39397D01*
X35438Y40770D01*
X34761Y42035D01*
X33851Y43144D01*
X32742Y44054D01*
X31477Y44731D01*
X30104Y45147D01*
X28676Y45288D01*
D02*
G37*
G36*
X84876Y30776D02*
X84108Y30623D01*
X83457Y30188D01*
X83195D01*
X82544Y30623D01*
X81776Y30776D01*
X81008Y30623D01*
X80357Y30188D01*
X80095D01*
X79444Y30623D01*
X78676Y30776D01*
X77908Y30623D01*
X77257Y30188D01*
X76822Y29537D01*
X76669Y28769D01*
X76822Y28001D01*
X77257Y27350D01*
X77908Y26915D01*
X78676Y26762D01*
X79444Y26915D01*
X80095Y27350D01*
X80357D01*
X81008Y26915D01*
X81776Y26762D01*
X82544Y26915D01*
X83195Y27350D01*
X83457D01*
X84108Y26915D01*
X84876Y26762D01*
X85644Y26915D01*
X86295Y27350D01*
X86730Y28001D01*
X86883Y28769D01*
X86730Y29537D01*
X86295Y30188D01*
X85644Y30623D01*
X84876Y30776D01*
D02*
G37*
G36*
X99564Y159369D02*
X96264D01*
Y155719D01*
X99289D01*
X99284Y155775D01*
X99247Y156002D01*
X99194Y156199D01*
X99127Y156365D01*
X99044Y156501D01*
X98947Y156607D01*
X98834Y156683D01*
X98707Y156728D01*
X98564Y156743D01*
X99564D01*
Y159369D01*
D02*
G37*
G36*
X90900Y156322D02*
X90048Y156152D01*
X89325Y155669D01*
X88842Y154947D01*
X88673Y154095D01*
X88842Y153242D01*
X89325Y152520D01*
X90048Y152037D01*
X90900Y151867D01*
X91752Y152037D01*
X92475Y152520D01*
X92958Y153242D01*
X93127Y154095D01*
X92958Y154947D01*
X92475Y155669D01*
X91752Y156152D01*
X90900Y156322D01*
D02*
G37*
G36*
X25776Y53676D02*
X25008Y53523D01*
X24357Y53088D01*
X23922Y52437D01*
X23769Y51669D01*
X23922Y50901D01*
X24357Y50250D01*
X25008Y49815D01*
X25776Y49662D01*
X26544Y49815D01*
X27195Y50250D01*
X27630Y50901D01*
X27783Y51669D01*
X27630Y52437D01*
X27195Y53088D01*
X26544Y53523D01*
X25776Y53676D01*
D02*
G37*
G36*
X102840Y159369D02*
X100564D01*
Y156743D01*
X101564D01*
X101422Y156728D01*
X101294Y156683D01*
X101182Y156607D01*
X101084Y156501D01*
X101002Y156365D01*
X100934Y156199D01*
X100882Y156002D01*
X100844Y155775D01*
X100839Y155719D01*
X103864D01*
Y157594D01*
X103808Y157589D01*
X103581Y157552D01*
X103384Y157499D01*
X103218Y157431D01*
X103082Y157349D01*
X102976Y157252D01*
X102901Y157139D01*
X102855Y157011D01*
X102840Y156869D01*
Y159369D01*
D02*
G37*
G36*
X8492Y59984D02*
X4508D01*
X2516Y57992D01*
Y54008D01*
X4508Y52016D01*
X8492D01*
X10484Y54008D01*
Y57992D01*
X8492Y59984D01*
D02*
G37*
G36*
X59213Y149776D02*
X58445Y149623D01*
X57794Y149188D01*
X57359Y148537D01*
X57206Y147769D01*
X57359Y147001D01*
X57794Y146350D01*
X58445Y145915D01*
X59213Y145762D01*
X59981Y145915D01*
X60632Y146350D01*
X61067Y147001D01*
X61220Y147769D01*
X61067Y148537D01*
X60632Y149188D01*
X59981Y149623D01*
X59213Y149776D01*
D02*
G37*
G36*
X135492Y59984D02*
X131508D01*
X129516Y57992D01*
Y54008D01*
X131508Y52016D01*
X135492D01*
X137484Y54008D01*
Y57992D01*
X135492Y59984D01*
D02*
G37*
G36*
X65118Y149776D02*
X64350Y149623D01*
X63699Y149188D01*
X63264Y148537D01*
X63112Y147769D01*
X63264Y147001D01*
X63699Y146350D01*
X64350Y145915D01*
X65118Y145762D01*
X65887Y145915D01*
X66538Y146350D01*
X66973Y147001D01*
X67126Y147769D01*
X66973Y148537D01*
X66538Y149188D01*
X65887Y149623D01*
X65118Y149776D01*
D02*
G37*
G36*
X120492Y39984D02*
X116508D01*
X114516Y37992D01*
Y34008D01*
X116508Y32016D01*
X120492D01*
X122484Y34008D01*
Y37992D01*
X120492Y39984D01*
D02*
G37*
G36*
X135492D02*
X131508D01*
X129516Y37992D01*
Y34008D01*
X131508Y32016D01*
X135492D01*
X137484Y34008D01*
Y37992D01*
X135492Y39984D01*
D02*
G37*
G36*
X48143Y32676D02*
X47375Y32523D01*
X46723Y32088D01*
X46609Y31917D01*
X46109D01*
X45995Y32088D01*
X45344Y32523D01*
X44576Y32676D01*
X43808Y32523D01*
X43157Y32088D01*
X42722Y31437D01*
X42569Y30669D01*
X42722Y29901D01*
X43157Y29250D01*
X43808Y28815D01*
X44576Y28662D01*
X45344Y28815D01*
X45995Y29250D01*
X46109Y29421D01*
X46609D01*
X46723Y29250D01*
X47375Y28815D01*
X48143Y28662D01*
X48911Y28815D01*
X49321Y29089D01*
X49912Y28992D01*
X49957Y28958D01*
X49977Y28921D01*
X49922Y28837D01*
X49769Y28069D01*
X49922Y27301D01*
X50357Y26650D01*
X50424Y26605D01*
X50022Y26004D01*
X49869Y25236D01*
X50022Y24468D01*
X50299Y24052D01*
X50022Y23637D01*
X49869Y22869D01*
X50022Y22101D01*
X50457Y21450D01*
X51108Y21015D01*
X51876Y20862D01*
X52644Y21015D01*
X53295Y21450D01*
X53730Y22101D01*
X53883Y22869D01*
X53730Y23637D01*
X53453Y24052D01*
X53730Y24468D01*
X53883Y25236D01*
X53730Y26004D01*
X53295Y26655D01*
X53228Y26700D01*
X53630Y27301D01*
X53783Y28069D01*
X53630Y28837D01*
X53308Y29319D01*
X53630Y29801D01*
X53783Y30569D01*
X53630Y31337D01*
X53195Y31988D01*
X52544Y32423D01*
X51776Y32576D01*
X51008Y32423D01*
X50357Y31988D01*
X50243Y31817D01*
X49743D01*
X49562Y32088D01*
X48911Y32523D01*
X48143Y32676D01*
D02*
G37*
G36*
X8492Y39984D02*
X4508D01*
X2516Y37992D01*
Y34008D01*
X4508Y32016D01*
X8492D01*
X10484Y34008D01*
Y37992D01*
X8492Y39984D01*
D02*
G37*
G36*
Y49984D02*
X4508D01*
X2516Y47992D01*
Y44008D01*
X4508Y42016D01*
X8492D01*
X10484Y44008D01*
Y47992D01*
X8492Y49984D01*
D02*
G37*
G36*
X85076Y163476D02*
X84308Y163323D01*
X83657Y162888D01*
X83222Y162237D01*
X83069Y161469D01*
X83222Y160701D01*
X83657Y160050D01*
X84308Y159615D01*
X84820Y159513D01*
X84922Y159001D01*
X85357Y158350D01*
X86008Y157915D01*
X86776Y157762D01*
X87544Y157915D01*
X88195Y158350D01*
X88630Y159001D01*
X88783Y159769D01*
X88630Y160537D01*
X88195Y161188D01*
X87544Y161623D01*
X87032Y161725D01*
X86930Y162237D01*
X86495Y162888D01*
X85844Y163323D01*
X85076Y163476D01*
D02*
G37*
G36*
X55244Y164476D02*
X54476Y164323D01*
X53825Y163888D01*
X53389Y163237D01*
X53237Y162469D01*
X53253Y162386D01*
X53252Y162368D01*
X53248Y162341D01*
X53243Y162323D01*
X53242Y162319D01*
X52901Y161978D01*
X47176D01*
X46675Y161879D01*
X46250Y161595D01*
X38950Y154295D01*
X38666Y153870D01*
X38567Y153369D01*
Y151390D01*
X38565Y151387D01*
X38555Y151371D01*
X38539Y151349D01*
X38527Y151335D01*
X38457Y151288D01*
X38022Y150637D01*
X37869Y149869D01*
X38022Y149101D01*
X38126Y148944D01*
X37891Y148503D01*
X37392D01*
Y143080D01*
X37247Y142914D01*
X36892Y142693D01*
X36476Y142776D01*
X35708Y142623D01*
X35057Y142188D01*
X34622Y141537D01*
X34469Y140769D01*
X34622Y140001D01*
X35057Y139350D01*
X35708Y138915D01*
X36476Y138762D01*
X36892Y138845D01*
X37392Y138535D01*
Y138535D01*
X48160D01*
Y144035D01*
Y148503D01*
X47632D01*
X47365Y149003D01*
X47430Y149101D01*
X47583Y149869D01*
X47430Y150637D01*
X47162Y151038D01*
X47120Y151120D01*
X47069Y151185D01*
X47041Y151225D01*
X47019Y151260D01*
X47004Y151289D01*
X46993Y151312D01*
X46986Y151330D01*
X46985Y151333D01*
Y152478D01*
X47485Y152630D01*
X47559Y152520D01*
X48282Y152037D01*
X49134Y151867D01*
X49986Y152037D01*
X50709Y152520D01*
X51191Y153242D01*
X51361Y154095D01*
X51191Y154947D01*
X50709Y155669D01*
X49986Y156152D01*
X49134Y156322D01*
X48988Y156292D01*
X48702Y156746D01*
X48862Y156960D01*
X57681D01*
X58182Y157059D01*
X58607Y157343D01*
X59031Y157768D01*
X59035Y157769D01*
X59053Y157773D01*
X59080Y157777D01*
X59098Y157779D01*
X59181Y157762D01*
X59949Y157915D01*
X60600Y158350D01*
X61035Y159001D01*
X61188Y159769D01*
X61035Y160537D01*
X60600Y161188D01*
X59949Y161623D01*
X59181Y161776D01*
X59153Y161776D01*
Y161776D01*
X57251D01*
Y162469D01*
X57098Y163237D01*
X56663Y163888D01*
X56012Y164323D01*
X55244Y164476D01*
D02*
G37*
G36*
X135492Y49984D02*
X131508D01*
X129516Y47992D01*
Y44008D01*
X131508Y42016D01*
X135492D01*
X137484Y44008D01*
Y47992D01*
X135492Y49984D01*
D02*
G37*
G36*
X103864Y159369D02*
X103115D01*
X103218Y159307D01*
X103384Y159239D01*
X103581Y159186D01*
X103808Y159149D01*
X103864Y159144D01*
Y159369D01*
D02*
G37*
G36*
X99564Y164019D02*
X96264D01*
Y160369D01*
X99564D01*
Y164019D01*
D02*
G37*
G36*
X8492Y9984D02*
X4508D01*
X2516Y7992D01*
Y4008D01*
X4508Y2016D01*
X8492D01*
X10484Y4008D01*
Y7992D01*
X8492Y9984D01*
D02*
G37*
G36*
X137500Y5500D02*
X134000D01*
Y2000D01*
X135500D01*
X137500Y4000D01*
Y5500D01*
D02*
G37*
G36*
X133000D02*
X129500D01*
Y4000D01*
X131500Y2000D01*
X133000D01*
Y5500D01*
D02*
G37*
G36*
X74976Y164476D02*
X74208Y164323D01*
X73557Y163888D01*
X73272Y163462D01*
X72695D01*
X72411Y163888D01*
X71760Y164323D01*
X70992Y164476D01*
X70224Y164323D01*
X69573Y163888D01*
X69324Y163516D01*
X68723D01*
X68474Y163888D01*
X67823Y164323D01*
X67055Y164476D01*
X66287Y164323D01*
X65636Y163888D01*
X65387Y163516D01*
X64786D01*
X64537Y163888D01*
X63886Y164323D01*
X63118Y164476D01*
X62350Y164323D01*
X61699Y163888D01*
X61263Y163237D01*
X61111Y162469D01*
X61263Y161701D01*
X61699Y161050D01*
X62350Y160615D01*
X63118Y160462D01*
X63886Y160615D01*
X64537Y161050D01*
X64780Y161413D01*
X65254Y161408D01*
X65514Y160975D01*
X65222Y160537D01*
X65069Y159769D01*
X65222Y159001D01*
X65657Y158350D01*
X66308Y157915D01*
X67076Y157762D01*
X67844Y157915D01*
X70224D01*
X70992Y157762D01*
X71760Y157915D01*
X72849D01*
X72969Y157769D01*
X73122Y157001D01*
X73557Y156350D01*
X74208Y155915D01*
X74976Y155762D01*
X75744Y155915D01*
X76395Y156350D01*
X76830Y157001D01*
X76983Y157769D01*
X77103Y157915D01*
X78108D01*
X78876Y157762D01*
X79644Y157915D01*
X80295Y158350D01*
X80730Y159001D01*
X80883Y159769D01*
X80730Y160537D01*
X80295Y161188D01*
X79644Y161623D01*
X78876Y161776D01*
X78258Y161653D01*
X78108Y161776D01*
Y161776D01*
X76983D01*
Y162469D01*
X76830Y163237D01*
X76395Y163888D01*
X75744Y164323D01*
X74976Y164476D01*
D02*
G37*
G36*
X35039Y172913D02*
X34271Y172760D01*
X33620Y172325D01*
X33185Y171674D01*
X33032Y170905D01*
X33185Y170137D01*
X33620Y169486D01*
X34271Y169051D01*
X35039Y168898D01*
X35808Y169051D01*
X36459Y169486D01*
X36894Y170137D01*
X37047Y170905D01*
X36894Y171674D01*
X36459Y172325D01*
X35808Y172760D01*
X35039Y172913D01*
D02*
G37*
G36*
X105376Y173076D02*
X104608Y172923D01*
X103957Y172488D01*
X103522Y171837D01*
X103369Y171069D01*
X103522Y170301D01*
X103957Y169650D01*
X104608Y169215D01*
X105376Y169062D01*
X106144Y169215D01*
X106795Y169650D01*
X107230Y170301D01*
X107383Y171069D01*
X107230Y171837D01*
X106795Y172488D01*
X106144Y172923D01*
X105376Y173076D01*
D02*
G37*
G36*
X103864Y164019D02*
X100564D01*
Y160369D01*
X103864D01*
Y164019D01*
D02*
G37*
G36*
X135492Y29984D02*
X131508D01*
X129516Y27992D01*
Y24008D01*
X131508Y22016D01*
X135492D01*
X137484Y24008D01*
Y27992D01*
X135492Y29984D01*
D02*
G37*
G36*
X8492D02*
X4508D01*
X2516Y27992D01*
Y24008D01*
X4508Y22016D01*
X8492D01*
X10484Y24008D01*
Y27992D01*
X8492Y29984D01*
D02*
G37*
G36*
X122500Y25500D02*
X119000D01*
Y22000D01*
X120500D01*
X122500Y24000D01*
Y25500D01*
D02*
G37*
G36*
X120500Y30000D02*
X119000D01*
Y26500D01*
X122500D01*
Y28000D01*
X120500Y30000D01*
D02*
G37*
G36*
X118000D02*
X116500D01*
X114500Y28000D01*
Y26500D01*
X118000D01*
Y30000D01*
D02*
G37*
G36*
X32437Y28767D02*
Y25500D01*
X35704D01*
X35639Y25992D01*
X35256Y26916D01*
X34647Y27710D01*
X33853Y28319D01*
X32929Y28702D01*
X32437Y28767D01*
D02*
G37*
G36*
X118000Y25500D02*
X114500D01*
Y24000D01*
X116500Y22000D01*
X118000D01*
Y25500D01*
D02*
G37*
G36*
X8492Y19984D02*
X4508D01*
X2516Y17992D01*
Y14008D01*
X4508Y12016D01*
X8492D01*
X10484Y14008D01*
Y17992D01*
X8492Y19984D01*
D02*
G37*
G36*
X135500Y10000D02*
X134000D01*
Y6500D01*
X137500D01*
Y8000D01*
X135500Y10000D01*
D02*
G37*
G36*
X133000D02*
X131500D01*
X129500Y8000D01*
Y6500D01*
X133000D01*
Y10000D01*
D02*
G37*
G36*
X24000Y28817D02*
X23012Y28687D01*
X22092Y28306D01*
X21301Y27699D01*
X20695Y26908D01*
X20313Y25988D01*
X20183Y25000D01*
X20313Y24012D01*
X20695Y23092D01*
X21301Y22301D01*
X22092Y21695D01*
X23012Y21313D01*
X24000Y21183D01*
X24988Y21313D01*
X25908Y21695D01*
X26699Y22301D01*
X27305Y23092D01*
X27687Y24012D01*
X27708Y24176D01*
X28213D01*
X28235Y24008D01*
X28618Y23084D01*
X29227Y22290D01*
X30021Y21681D01*
X30945Y21298D01*
X31437Y21233D01*
Y25000D01*
Y28767D01*
X30945Y28702D01*
X30021Y28319D01*
X29227Y27710D01*
X28618Y26916D01*
X28235Y25992D01*
X28213Y25824D01*
X27708D01*
X27687Y25988D01*
X27305Y26908D01*
X26699Y27699D01*
X25908Y28306D01*
X24988Y28687D01*
X24000Y28817D01*
D02*
G37*
G36*
X35704Y24500D02*
X32437D01*
Y21233D01*
X32929Y21298D01*
X33853Y21681D01*
X34647Y22290D01*
X35256Y23084D01*
X35639Y24008D01*
X35704Y24500D01*
D02*
G37*
G36*
X135492Y19984D02*
X131508D01*
X129516Y17992D01*
Y14008D01*
X131508Y12016D01*
X135492D01*
X137484Y14008D01*
Y17992D01*
X135492Y19984D01*
D02*
G37*
G36*
X25276Y64776D02*
X24508Y64623D01*
X23857Y64188D01*
X23422Y63537D01*
X23269Y62769D01*
X23422Y62001D01*
X23857Y61350D01*
X24508Y60915D01*
X25276Y60762D01*
X26044Y60915D01*
X26695Y61350D01*
X27130Y62001D01*
X27283Y62769D01*
X27130Y63537D01*
X26695Y64188D01*
X26044Y64623D01*
X25276Y64776D01*
D02*
G37*
G36*
X99976Y122076D02*
X99208Y121923D01*
X98557Y121488D01*
X98122Y120837D01*
X98055Y120504D01*
X97556Y120554D01*
Y121063D01*
X94398D01*
Y117847D01*
X95842D01*
X95770Y117833D01*
X95705Y117792D01*
X95647Y117723D01*
X95598Y117627D01*
X95556Y117502D01*
X95521Y117351D01*
X95495Y117172D01*
X95476Y116965D01*
X95471Y116823D01*
X96757D01*
X96909Y116323D01*
X96857Y116288D01*
X96422Y115637D01*
X96269Y114869D01*
X96422Y114101D01*
X96857Y113450D01*
X97508Y113015D01*
X98276Y112862D01*
X98715Y112949D01*
X99154Y112679D01*
X99188Y112572D01*
X99322Y111901D01*
X99757Y111250D01*
X100408Y110815D01*
X101176Y110662D01*
X101944Y110815D01*
X102595Y111250D01*
X103030Y111901D01*
X103183Y112669D01*
X103030Y113437D01*
X102595Y114088D01*
X101944Y114523D01*
X101176Y114676D01*
X100737Y114589D01*
X100298Y114859D01*
X100264Y114966D01*
X100130Y115637D01*
X99695Y116288D01*
X99044Y116723D01*
X98276Y116876D01*
X98055Y116832D01*
X97556Y117243D01*
Y119585D01*
X98055Y119634D01*
X98122Y119301D01*
X98557Y118650D01*
X99208Y118215D01*
X99976Y118062D01*
X100744Y118215D01*
X101395Y118650D01*
X101830Y119301D01*
X101983Y120069D01*
X101830Y120837D01*
X101395Y121488D01*
X100744Y121923D01*
X99976Y122076D01*
D02*
G37*
G36*
X93398Y126303D02*
X90241D01*
Y122063D01*
X93398D01*
Y126303D01*
D02*
G37*
G36*
X97556D02*
X94398D01*
Y122063D01*
X97556D01*
Y126303D01*
D02*
G37*
G36*
X36876Y119969D02*
X35376D01*
Y118469D01*
X36876D01*
Y119969D01*
D02*
G37*
G36*
X15976Y101176D02*
X15208Y101023D01*
X14557Y100588D01*
X14122Y99937D01*
X13969Y99169D01*
X14122Y98401D01*
X14557Y97750D01*
Y97288D01*
X14122Y96637D01*
X13969Y95869D01*
X14122Y95101D01*
X14557Y94450D01*
X15208Y94015D01*
X15976Y93862D01*
X16744Y94015D01*
X17395Y94450D01*
X17830Y95101D01*
X17983Y95869D01*
X17830Y96637D01*
X17395Y97288D01*
Y97750D01*
X17830Y98401D01*
X17983Y99169D01*
X17830Y99937D01*
X17395Y100588D01*
X16744Y101023D01*
X15976Y101176D01*
D02*
G37*
G36*
X135524Y84468D02*
X133379D01*
Y83469D01*
X133363Y83612D01*
X133318Y83739D01*
X133244Y83851D01*
X133139Y83949D01*
X133003Y84031D01*
X132838Y84099D01*
X132643Y84152D01*
X132419Y84189D01*
X132367Y84194D01*
Y80917D01*
X135524D01*
Y84468D01*
D02*
G37*
G36*
X59276Y137476D02*
X58508Y137323D01*
X57857Y136888D01*
X57422Y136237D01*
X57269Y135469D01*
X57422Y134701D01*
X57857Y134050D01*
X57864Y134045D01*
X57607Y133660D01*
X57470Y132969D01*
X57593Y132350D01*
X57589Y132250D01*
X57310Y131823D01*
X56885Y131738D01*
X56299Y131346D01*
X55907Y130760D01*
X55770Y130069D01*
X55907Y129378D01*
X56299Y128792D01*
X56885Y128400D01*
X57576Y128263D01*
X58267Y128400D01*
X58853Y128792D01*
X59245Y129378D01*
X59382Y130069D01*
X59259Y130688D01*
X59263Y130788D01*
X59542Y131216D01*
X59967Y131300D01*
X60553Y131692D01*
X60945Y132278D01*
X61082Y132969D01*
X60945Y133660D01*
X60688Y134045D01*
X60695Y134050D01*
X61130Y134701D01*
X61283Y135469D01*
X61130Y136237D01*
X60695Y136888D01*
X60044Y137323D01*
X59276Y137476D01*
D02*
G37*
G36*
X54676Y139576D02*
X53908Y139423D01*
X53257Y138988D01*
X52822Y138337D01*
X52721Y137832D01*
X52186Y137628D01*
X51744Y137923D01*
X50976Y138076D01*
X50208Y137923D01*
X49557Y137488D01*
X49122Y136837D01*
X48969Y136069D01*
X49122Y135301D01*
X49557Y134650D01*
X50208Y134215D01*
X50976Y134062D01*
X51744Y134215D01*
X51889Y134312D01*
X51943Y134307D01*
X52411Y134059D01*
X52509Y133563D01*
X51808Y133423D01*
X51157Y132988D01*
X50722Y132337D01*
X50569Y131569D01*
X50722Y130801D01*
X51157Y130150D01*
X51808Y129715D01*
X52576Y129562D01*
X53344Y129715D01*
X53995Y130150D01*
X54430Y130801D01*
X54583Y131569D01*
X54443Y132275D01*
X55144Y132415D01*
X55795Y132850D01*
X56230Y133501D01*
X56383Y134269D01*
X56230Y135037D01*
X55952Y135453D01*
X56015Y136097D01*
X56095Y136150D01*
X56530Y136801D01*
X56683Y137569D01*
X56530Y138337D01*
X56095Y138988D01*
X55444Y139423D01*
X54676Y139576D01*
D02*
G37*
G36*
X15976Y90676D02*
X15208Y90523D01*
X14557Y90088D01*
X14122Y89437D01*
X13969Y88669D01*
X14122Y87901D01*
X14557Y87250D01*
X15208Y86815D01*
X15976Y86662D01*
X16744Y86815D01*
X17395Y87250D01*
X17830Y87901D01*
X17983Y88669D01*
X17830Y89437D01*
X17395Y90088D01*
X16744Y90523D01*
X15976Y90676D01*
D02*
G37*
G36*
X115271Y87642D02*
X112803D01*
Y86626D01*
X112876Y86618D01*
X112803Y86618D01*
Y84780D01*
X115271D01*
Y87642D01*
D02*
G37*
G36*
X134006Y89019D02*
X132367D01*
Y85744D01*
X132419Y85749D01*
X132643Y85786D01*
X132838Y85839D01*
X133003Y85906D01*
X133139Y85989D01*
X133244Y86086D01*
X133318Y86199D01*
X133363Y86326D01*
X133379Y86469D01*
Y85468D01*
X135524D01*
Y87998D01*
X133379Y88007D01*
X133502Y88022D01*
X133612Y88065D01*
X133709Y88139D01*
X133793Y88241D01*
X133864Y88372D01*
X133922Y88533D01*
X133968Y88723D01*
X134000Y88943D01*
X134006Y89019D01*
D02*
G37*
G36*
X34376Y119969D02*
X32876D01*
Y118469D01*
X34376D01*
Y119969D01*
D02*
G37*
G36*
X11256Y119157D02*
X10411Y118989D01*
X9695Y118510D01*
X9216Y117794D01*
X9048Y116949D01*
X9216Y116104D01*
X9695Y115388D01*
X10411Y114909D01*
X11256Y114741D01*
X12101Y114909D01*
X12817Y115388D01*
X13296Y116104D01*
X13464Y116949D01*
X13296Y117794D01*
X12817Y118510D01*
X12101Y118989D01*
X11256Y119157D01*
D02*
G37*
G36*
X93398Y121063D02*
X90241D01*
Y116823D01*
X93398D01*
Y117495D01*
X93396Y117502D01*
X93354Y117627D01*
X93305Y117723D01*
X93247Y117792D01*
X93182Y117833D01*
X93110Y117847D01*
X93398D01*
Y121063D01*
D02*
G37*
G36*
X16176Y107076D02*
X15408Y106923D01*
X14757Y106488D01*
X14322Y105837D01*
X14169Y105069D01*
X14322Y104301D01*
X14757Y103650D01*
X15408Y103215D01*
X16176Y103062D01*
X16944Y103215D01*
X17595Y103650D01*
X18030Y104301D01*
X18183Y105069D01*
X18030Y105837D01*
X17595Y106488D01*
X16944Y106923D01*
X16176Y107076D01*
D02*
G37*
G36*
X99776Y110276D02*
X99008Y110123D01*
X98357Y109688D01*
X97922Y109037D01*
X97769Y108269D01*
X97922Y107501D01*
X98357Y106850D01*
X99008Y106415D01*
X99776Y106262D01*
X100544Y106415D01*
X101195Y106850D01*
X101630Y107501D01*
X101783Y108269D01*
X101630Y109037D01*
X101195Y109688D01*
X100544Y110123D01*
X99776Y110276D01*
D02*
G37*
G36*
X55236Y145176D02*
X54468Y145023D01*
X53817Y144588D01*
X53382Y143937D01*
X53229Y143169D01*
X53382Y142401D01*
X53817Y141750D01*
X54468Y141315D01*
X55236Y141162D01*
X56004Y141315D01*
X56655Y141750D01*
X57091Y142401D01*
X57243Y143169D01*
X57091Y143937D01*
X56655Y144588D01*
X56004Y145023D01*
X55236Y145176D01*
D02*
G37*
G36*
X59776D02*
X59008Y145023D01*
X58357Y144588D01*
X57922Y143937D01*
X57769Y143169D01*
X57922Y142401D01*
X58357Y141750D01*
X59008Y141315D01*
X59776Y141162D01*
X60544Y141315D01*
X61195Y141750D01*
X61630Y142401D01*
X61783Y143169D01*
X61630Y143937D01*
X61195Y144588D01*
X60544Y145023D01*
X59776Y145176D01*
D02*
G37*
G36*
X91976Y143026D02*
X89076D01*
Y141541D01*
X89353Y141563D01*
X89548Y141598D01*
X89713Y141643D01*
X89848Y141697D01*
X89953Y141761D01*
X90028Y141836D01*
X90073Y141920D01*
X90088Y142014D01*
X90093Y140926D01*
X91976D01*
Y143026D01*
D02*
G37*
G36*
X95876D02*
X92976D01*
Y140926D01*
X95876D01*
Y143026D01*
D02*
G37*
G36*
X109976Y67176D02*
X109208Y67023D01*
X108557Y66588D01*
X108122Y65937D01*
X107969Y65169D01*
X108122Y64401D01*
X108557Y63750D01*
X109208Y63315D01*
X109976Y63162D01*
X110744Y63315D01*
X111395Y63750D01*
X111830Y64401D01*
X111983Y65169D01*
X111830Y65937D01*
X111395Y66588D01*
X110744Y67023D01*
X109976Y67176D01*
D02*
G37*
G36*
X135492Y69984D02*
X131508D01*
X129516Y67992D01*
Y64008D01*
X131508Y62016D01*
X135492D01*
X137484Y64008D01*
Y67992D01*
X135492Y69984D01*
D02*
G37*
G36*
X8492D02*
X4508D01*
X2516Y67992D01*
Y64008D01*
X4508Y62016D01*
X8492D01*
X10484Y64008D01*
Y67992D01*
X8492Y69984D01*
D02*
G37*
G36*
X120492D02*
X116508D01*
X114516Y67992D01*
Y64008D01*
X115252Y63271D01*
X115006Y62810D01*
X114676Y62876D01*
X113908Y62723D01*
X113257Y62288D01*
X112822Y61637D01*
X112669Y60869D01*
X112822Y60101D01*
X113257Y59450D01*
X113908Y59015D01*
X114676Y58862D01*
X114679Y58863D01*
X114925Y58402D01*
X114516Y57992D01*
Y54008D01*
X116508Y52016D01*
X120492D01*
X122484Y54008D01*
Y57992D01*
X120492Y59984D01*
X117008D01*
X116606Y60484D01*
X116683Y60869D01*
X116554Y61516D01*
X116763Y61890D01*
X116879Y62016D01*
X120492D01*
X122484Y64008D01*
Y67992D01*
X120492Y69984D01*
D02*
G37*
G36*
X94864Y150161D02*
X94827Y150153D01*
X89092D01*
Y144985D01*
X94827D01*
X94864Y144977D01*
X94873Y144979D01*
X95359Y144919D01*
X95422Y144601D01*
X95857Y143950D01*
X96508Y143515D01*
X97276Y143362D01*
X98044Y143515D01*
X98695Y143950D01*
X99130Y144601D01*
X99283Y145369D01*
X99279Y145387D01*
Y147551D01*
X99283Y147569D01*
X99279Y147587D01*
Y147669D01*
X99203Y148053D01*
X99180Y148088D01*
X99130Y148337D01*
X98695Y148988D01*
X98044Y149423D01*
X97276Y149576D01*
X96284D01*
X96192Y149579D01*
X95961Y149603D01*
X95860Y149619D01*
Y150153D01*
X94901D01*
X94864Y150161D01*
D02*
G37*
G36*
X120492Y79984D02*
X116508D01*
X114516Y77992D01*
Y74008D01*
X116508Y72016D01*
X120492D01*
X122484Y74008D01*
Y77992D01*
X120492Y79984D01*
D02*
G37*
G36*
X8492D02*
X4508D01*
X2516Y77992D01*
Y74008D01*
X4508Y72016D01*
X8492D01*
X10484Y74008D01*
Y77992D01*
X8492Y79984D01*
D02*
G37*
G36*
X95876Y139926D02*
X92976D01*
Y137826D01*
X95876D01*
Y139926D01*
D02*
G37*
G36*
X135492Y79984D02*
X131508D01*
X129516Y77992D01*
Y74008D01*
X129622Y73902D01*
X125686Y69966D01*
X125413Y69558D01*
X125318Y69076D01*
Y54597D01*
X120598Y49878D01*
X120492Y49984D01*
X116508D01*
X114516Y47992D01*
Y44008D01*
X116508Y42016D01*
X120492D01*
X122484Y44008D01*
Y47992D01*
X122378Y48098D01*
X127466Y53186D01*
X127739Y53594D01*
X127834Y54076D01*
Y68555D01*
X131402Y72122D01*
X131508Y72016D01*
X135492D01*
X137484Y74008D01*
Y77992D01*
X135492Y79984D01*
D02*
G37*
G36*
X91976Y139926D02*
X90097D01*
X90100Y139269D01*
X90084Y139411D01*
X90039Y139539D01*
X89963Y139652D01*
X89856Y139749D01*
X89720Y139831D01*
X89554Y139899D01*
X89454Y139926D01*
X89076D01*
Y137826D01*
X91976D01*
Y139926D01*
D02*
G37*
%LPD*%
G36*
X40179Y147991D02*
X40188Y147887D01*
X40203Y147795D01*
X40224Y147715D01*
X40251Y147648D01*
X40284Y147593D01*
X40323Y147550D01*
X40368Y147520D01*
X40419Y147501D01*
X40476Y147495D01*
X39276D01*
X39333Y147501D01*
X39384Y147520D01*
X39429Y147550D01*
X39468Y147593D01*
X39501Y147648D01*
X39528Y147715D01*
X39549Y147795D01*
X39564Y147887D01*
X39573Y147991D01*
X39576Y148107D01*
X40176D01*
X40179Y147991D01*
D02*
G37*
G36*
X45979D02*
X45988Y147887D01*
X46003Y147795D01*
X46024Y147715D01*
X46051Y147648D01*
X46084Y147593D01*
X46123Y147550D01*
X46168Y147520D01*
X46219Y147501D01*
X46276Y147495D01*
X45076D01*
X45133Y147501D01*
X45184Y147520D01*
X45229Y147550D01*
X45268Y147593D01*
X45301Y147648D01*
X45328Y147715D01*
X45349Y147795D01*
X45364Y147887D01*
X45373Y147991D01*
X45376Y148107D01*
X45976D01*
X45979Y147991D01*
D02*
G37*
G36*
X46333Y149240D02*
X46265Y149154D01*
X46204Y149068D01*
X46151Y148982D01*
X46104Y148896D01*
X46065Y148810D01*
X46033Y148724D01*
X46008Y148638D01*
X45990Y148552D01*
X45980Y148465D01*
X45976Y148379D01*
X45376Y148315D01*
X45372Y148404D01*
X45359Y148492D01*
X45339Y148576D01*
X45310Y148659D01*
X45272Y148738D01*
X45227Y148816D01*
X45173Y148890D01*
X45111Y148963D01*
X45041Y149032D01*
X44962Y149100D01*
X45716Y149869D01*
X46333Y149240D01*
D02*
G37*
G36*
X55234Y161485D02*
X55127Y161483D01*
X55025Y161474D01*
X54928Y161459D01*
X54835Y161438D01*
X54747Y161410D01*
X54663Y161376D01*
X54584Y161336D01*
X54510Y161289D01*
X54440Y161236D01*
X54375Y161176D01*
X53951Y161601D01*
X54011Y161666D01*
X54064Y161735D01*
X54111Y161810D01*
X54151Y161889D01*
X54185Y161972D01*
X54213Y162060D01*
X54234Y162153D01*
X54249Y162250D01*
X54257Y162353D01*
X54260Y162459D01*
X55234Y161485D01*
D02*
G37*
G36*
X59171Y158785D02*
X59064Y158783D01*
X58962Y158774D01*
X58865Y158759D01*
X58772Y158738D01*
X58684Y158710D01*
X58600Y158676D01*
X58521Y158636D01*
X58447Y158589D01*
X58377Y158536D01*
X58312Y158476D01*
X57888Y158901D01*
X57948Y158966D01*
X58001Y159036D01*
X58048Y159110D01*
X58088Y159189D01*
X58122Y159272D01*
X58150Y159360D01*
X58171Y159453D01*
X58186Y159550D01*
X58194Y159652D01*
X58197Y159759D01*
X59171Y158785D01*
D02*
G37*
G36*
X40180Y151309D02*
X40192Y151222D01*
X40211Y151136D01*
X40238Y151052D01*
X40273Y150969D01*
X40316Y150887D01*
X40367Y150806D01*
X40425Y150727D01*
X40491Y150649D01*
X40565Y150572D01*
X39187D01*
X39261Y150649D01*
X39327Y150727D01*
X39385Y150806D01*
X39436Y150887D01*
X39479Y150969D01*
X39514Y151052D01*
X39541Y151136D01*
X39560Y151222D01*
X39572Y151309D01*
X39576Y151397D01*
X40176D01*
X40180Y151309D01*
D02*
G37*
G36*
X41372Y141493D02*
X41396Y141425D01*
X41436Y141365D01*
X41492Y141313D01*
X41564Y141269D01*
X41652Y141233D01*
X41756Y141205D01*
X41876Y141185D01*
X42012Y141173D01*
X42164Y141169D01*
Y140369D01*
X42012Y140365D01*
X41876Y140353D01*
X41756Y140333D01*
X41652Y140305D01*
X41564Y140269D01*
X41492Y140225D01*
X41436Y140173D01*
X41396Y140113D01*
X41372Y140045D01*
X41364Y139969D01*
Y141569D01*
X41372Y141493D01*
D02*
G37*
G36*
X38400Y139969D02*
X38392Y140045D01*
X38368Y140113D01*
X38327Y140173D01*
X38270Y140225D01*
X38197Y140269D01*
X38108Y140305D01*
X38002Y140333D01*
X37880Y140353D01*
X37800Y140360D01*
X37773Y140357D01*
X37683Y140343D01*
X37598Y140323D01*
X37517Y140297D01*
X37441Y140265D01*
X37369Y140227D01*
X37301Y140184D01*
X37238Y140135D01*
X37179Y140080D01*
Y141458D01*
X37238Y141403D01*
X37301Y141354D01*
X37369Y141311D01*
X37441Y141273D01*
X37517Y141241D01*
X37598Y141215D01*
X37683Y141195D01*
X37773Y141181D01*
X37800Y141178D01*
X37880Y141185D01*
X38002Y141205D01*
X38108Y141233D01*
X38197Y141269D01*
X38270Y141313D01*
X38327Y141365D01*
X38368Y141425D01*
X38392Y141493D01*
X38400Y141569D01*
Y139969D01*
D02*
G37*
G36*
X45976Y151359D02*
X45980Y151273D01*
X45990Y151186D01*
X46008Y151100D01*
X46033Y151014D01*
X46065Y150928D01*
X46104Y150842D01*
X46151Y150756D01*
X46204Y150670D01*
X46265Y150584D01*
X46333Y150498D01*
X45716Y149869D01*
X44962Y150638D01*
X45041Y150706D01*
X45111Y150775D01*
X45173Y150848D01*
X45227Y150923D01*
X45272Y151000D01*
X45310Y151079D01*
X45339Y151162D01*
X45359Y151246D01*
X45372Y151334D01*
X45376Y151423D01*
X45976Y151359D01*
D02*
G37*
G36*
X40491Y149089D02*
X40425Y149011D01*
X40367Y148932D01*
X40316Y148851D01*
X40273Y148769D01*
X40238Y148686D01*
X40211Y148602D01*
X40192Y148516D01*
X40180Y148429D01*
X40176Y148341D01*
X39576D01*
X39572Y148429D01*
X39560Y148516D01*
X39541Y148602D01*
X39514Y148686D01*
X39479Y148769D01*
X39436Y148851D01*
X39385Y148932D01*
X39327Y149011D01*
X39261Y149089D01*
X39187Y149166D01*
X40565D01*
X40491Y149089D01*
D02*
G37*
G36*
X44200Y139969D02*
X44192Y140045D01*
X44168Y140113D01*
X44127Y140173D01*
X44070Y140225D01*
X43997Y140269D01*
X43908Y140305D01*
X43802Y140333D01*
X43680Y140353D01*
X43542Y140365D01*
X43388Y140369D01*
Y141169D01*
X43542Y141173D01*
X43680Y141185D01*
X43802Y141205D01*
X43908Y141233D01*
X43997Y141269D01*
X44070Y141313D01*
X44127Y141365D01*
X44168Y141425D01*
X44192Y141493D01*
X44200Y141569D01*
Y139969D01*
D02*
G37*
G36*
X94884Y149042D02*
X94943Y148940D01*
X95041Y148849D01*
X95179Y148771D01*
X95356Y148704D01*
X95573Y148650D01*
X95829Y148608D01*
X96124Y148577D01*
X96833Y148553D01*
Y147397D01*
X97276Y147569D01*
X97776D01*
X98076Y147869D01*
X98276Y147669D01*
Y145369D01*
X96276D01*
Y146069D01*
X95817Y146528D01*
X95573Y146488D01*
X95356Y146434D01*
X95179Y146367D01*
X95041Y146289D01*
X94943Y146198D01*
X94884Y146096D01*
X94864Y145981D01*
Y149157D01*
X94884Y149042D01*
D02*
G37*
G36*
X131621Y73414D02*
X131584Y73444D01*
X131543Y73463D01*
X131498Y73471D01*
X131450Y73469D01*
X131398Y73456D01*
X131342Y73432D01*
X131283Y73397D01*
X131220Y73352D01*
X131153Y73296D01*
X131082Y73229D01*
X130729Y73582D01*
X130796Y73653D01*
X130852Y73720D01*
X130897Y73783D01*
X130932Y73842D01*
X130956Y73898D01*
X130969Y73950D01*
X130972Y73998D01*
X130963Y74043D01*
X130944Y74084D01*
X130914Y74121D01*
X131621Y73414D01*
D02*
G37*
G36*
X121271Y48418D02*
X121204Y48347D01*
X121148Y48280D01*
X121103Y48217D01*
X121068Y48158D01*
X121044Y48102D01*
X121031Y48050D01*
X121028Y48002D01*
X121037Y47957D01*
X121056Y47916D01*
X121086Y47879D01*
X120379Y48586D01*
X120416Y48556D01*
X120457Y48537D01*
X120502Y48529D01*
X120550Y48531D01*
X120602Y48544D01*
X120658Y48568D01*
X120717Y48603D01*
X120780Y48648D01*
X120847Y48704D01*
X120918Y48771D01*
X121271Y48418D01*
D02*
G37*
%LPC*%
G36*
X66576Y120169D02*
X65076D01*
Y118669D01*
X66576D01*
Y120169D01*
D02*
G37*
G36*
X71076Y120169D02*
X70588D01*
Y119882D01*
X70580Y119956D01*
X70556Y120023D01*
X70517Y120082D01*
X70462Y120133D01*
X70404Y120169D01*
X69576D01*
Y118669D01*
X71076D01*
Y120169D01*
D02*
G37*
G36*
X64276Y115569D02*
X63151D01*
X63139Y115503D01*
X63153Y115415D01*
X63196Y115310D01*
X63266Y115189D01*
X63365Y115050D01*
X63492Y114895D01*
X63633Y114745D01*
X63667Y114716D01*
X63722Y114675D01*
X63775Y114640D01*
X63825Y114611D01*
X63874Y114588D01*
X63920Y114571D01*
X63964Y114560D01*
X63977Y114559D01*
X63990Y114560D01*
X64035Y114571D01*
X64083Y114588D01*
X64133Y114611D01*
X64184Y114639D01*
X64237Y114674D01*
X64276Y114703D01*
Y115569D01*
D02*
G37*
G36*
X79876Y110624D02*
X78376D01*
Y109124D01*
X79876D01*
Y109611D01*
X79688D01*
X79761Y109617D01*
X79837Y109633D01*
X79876Y109646D01*
Y110624D01*
D02*
G37*
G36*
X63376Y109669D02*
X61876D01*
Y108169D01*
X62364D01*
Y108406D01*
X62371Y108342D01*
X62393Y108285D01*
X62430Y108234D01*
X62482Y108190D01*
X62520Y108169D01*
X63027D01*
X63096Y108254D01*
X63134Y108309D01*
X63164Y108363D01*
X63187Y108414D01*
X63202Y108464D01*
X63211Y108512D01*
X63212Y108558D01*
X63206Y108602D01*
X63376Y108491D01*
Y109669D01*
D02*
G37*
G36*
X63094Y114522D02*
X62776Y114516D01*
Y114069D01*
X63113D01*
X63089Y114108D01*
X63049Y114164D01*
X63003Y114221D01*
X62892Y114342D01*
X63094Y114522D01*
D02*
G37*
G36*
X79876Y113169D02*
X78376D01*
Y111669D01*
X79876D01*
Y112679D01*
X79837Y112688D01*
X79767Y112693D01*
X79876D01*
Y113169D01*
D02*
G37*
G36*
X63976Y114528D02*
X63470Y114069D01*
X64276D01*
Y114256D01*
X63976Y114528D01*
D02*
G37*
G36*
X73357Y103169D02*
X73276D01*
Y103055D01*
X73282Y103062D01*
X73357Y103169D01*
D02*
G37*
G36*
X74576Y116869D02*
X73076D01*
Y115369D01*
X74576D01*
Y116869D01*
D02*
G37*
G36*
X62985Y115569D02*
X62776D01*
Y115496D01*
X62985Y115569D01*
D02*
G37*
%LPD*%
D10*
X118982Y147669D02*
G03*
X118982Y147669I-5906J0D01*
G01*
X34582Y37969D02*
G03*
X34582Y37969I-5906J0D01*
G01*
X73014Y109905D02*
X74292Y111182D01*
X75574Y104787D02*
X76854Y106067D01*
X73012Y99669D02*
Y101479D01*
X67894Y120076D02*
X69132Y121313D01*
X63976Y113823D02*
X65255Y112543D01*
X53819Y116304D02*
X55098Y115024D01*
X66676Y108686D02*
X67893Y109904D01*
X69173Y108624D02*
X70452Y109904D01*
X67893Y109904D02*
X69173Y108624D01*
X66615Y106068D02*
X67894Y104788D01*
X73012Y94551D02*
X75571Y97110D01*
X69174Y123980D02*
X69862Y124669D01*
X65926Y124669D02*
X66615Y123980D01*
X73016Y102228D02*
X74296Y103507D01*
X63976Y113823D02*
X66535Y116382D01*
X66614Y116304D02*
X67892Y115024D01*
X75573Y115024D02*
X76853Y113744D01*
X74294Y113745D02*
X75573Y115024D01*
X74294Y116304D02*
X75573Y115024D01*
X74176Y111304D02*
Y113769D01*
X74270D01*
X71776Y108670D02*
Y108769D01*
X71879D01*
X73013Y109903D01*
X71733Y111182D02*
X73013Y109903D01*
X73014Y109905D01*
X74292Y108626D01*
X74290Y111185D02*
X74292Y111182D01*
X74290Y111185D02*
X74292Y111188D01*
X74243Y111237D02*
X74292Y111188D01*
X74296Y111185D01*
X74295Y106066D02*
X75574Y107345D01*
X76851Y106068D01*
X74292Y108626D02*
X74293Y108626D01*
X75573Y109906D01*
X74295Y106066D02*
X75574Y104787D01*
X71737Y103507D02*
X73016Y104787D01*
X71737Y106067D02*
X73016Y104787D01*
X75574Y104787D02*
X76853Y103508D01*
X69174Y103508D02*
X70453Y104788D01*
X69174Y106069D02*
X70456Y104787D01*
X70454Y107348D02*
X71736Y106067D01*
X70454Y107348D02*
X71732Y108625D01*
X71682Y108675D02*
X71732Y108625D01*
X71776Y108670D01*
X70454Y112462D02*
X71733Y111182D01*
X67892Y115024D02*
X69172Y116304D01*
X69172Y111186D02*
X69172D01*
X69172Y111186D01*
X70355Y112369D02*
X70355Y112369D01*
X70355Y112369D02*
X70450Y112464D01*
X67893Y112465D02*
X69076Y113648D01*
X67892Y115024D02*
X67893Y115024D01*
X67892Y115024D02*
X67892Y115024D01*
X65334Y112465D02*
X66614Y113744D01*
X67893Y112465D01*
X65334Y115024D02*
X66614Y113744D01*
X67893Y112465D02*
X69172Y111186D01*
X65334Y112465D02*
X67893Y109906D01*
X67893Y109904D02*
X67893Y109904D01*
X65273Y109966D02*
X66535Y111228D01*
X67893Y109904D02*
X67894Y109904D01*
X67891Y109902D02*
X69170Y111181D01*
X70450Y109902D01*
X67895Y107347D02*
X69173Y108624D01*
X69177Y108625D02*
X70454Y107348D01*
X65337Y107346D02*
X66615Y106068D01*
X67895Y107347D01*
X67895Y107347D02*
X67895Y107347D01*
X67893Y107345D02*
X67895Y107347D01*
X66616Y108626D02*
X67895Y107347D01*
X65337Y107346D02*
X66616Y108626D01*
X66576Y108666D02*
X66616Y108626D01*
X66676Y108686D01*
Y108766D01*
X66576Y108666D02*
X66676Y108766D01*
Y108769D01*
X66470D02*
X66676D01*
X65335Y109904D02*
X66470Y108769D01*
X65273Y109966D02*
X65335Y109904D01*
X67894Y104788D02*
X69174Y103508D01*
X67894Y104788D02*
X69174Y106069D01*
X67897Y107346D02*
X69174Y106069D01*
X70454Y107348D01*
X64056Y108626D02*
X65337Y107346D01*
X69172Y111186D02*
X69173Y111186D01*
X71653Y98469D02*
X73012Y97110D01*
Y97110D02*
X74276Y98374D01*
Y98469D01*
X74212D02*
X74276D01*
X73012Y99669D02*
X74212Y98469D01*
X74176Y111304D02*
X74243Y111237D01*
X69170Y111185D02*
X69172Y111186D01*
X71576Y98469D02*
X71653D01*
X70456Y104787D02*
X71736Y106067D01*
X74296Y103507D02*
X75574Y104787D01*
X70454Y109903D02*
X71733Y111182D01*
X74293Y108626D02*
X75574Y107345D01*
X76854Y108625D01*
X75575Y109905D02*
X76854Y108625D01*
X74296Y111185D02*
X75575Y109905D01*
X71736Y106067D02*
X73015Y107346D01*
X71736Y108625D02*
X73015Y107346D01*
X70454Y109903D02*
X71682Y108675D01*
X71733Y111182D02*
X73013Y112462D01*
X71731Y113744D02*
X73013Y112462D01*
X70454Y115021D02*
X71731Y113744D01*
X69172Y116304D02*
X70451Y115024D01*
X69172Y111186D02*
X70355Y112369D01*
X69076Y113648D02*
X70355Y112369D01*
X69076Y113648D02*
X69173Y113744D01*
X67893Y115024D02*
X69173Y113744D01*
X66614D02*
X67893Y115024D01*
X63976Y108769D02*
X64076D01*
X63976Y108628D02*
X65255Y107349D01*
X63976Y106069D02*
X65255Y107349D01*
X64056Y106068D02*
X66654Y103469D01*
X66776Y103670D02*
X67894Y104788D01*
X66776Y103469D02*
Y103670D01*
X66654Y103469D02*
X66776D01*
X63876D02*
X63950D01*
X65269Y104788D01*
X71653Y98469D02*
X71812D01*
X52539Y115024D02*
X53752Y116237D01*
X71576Y120669D02*
X73539D01*
X75044D02*
X77676D01*
X62250Y120669D02*
X64576D01*
X62186Y124669D02*
X64576D01*
X56379Y113744D02*
X58276Y115642D01*
Y116069D01*
X61215Y103507D02*
X61376Y103669D01*
X52181Y97469D02*
X52976D01*
X52181Y97469D02*
X52181Y97469D01*
X50876Y70069D02*
Y72073D01*
X69862Y124669D02*
X71576D01*
X64576Y124669D02*
X65926D01*
X69776Y120669D02*
X71576D01*
X74876Y124669D02*
X77676D01*
X71576D02*
X73676D01*
X73014Y107347D02*
X74295Y106066D01*
X73016Y104787D02*
X74295Y106066D01*
X73014Y107347D02*
X74293Y108626D01*
X73016Y104787D02*
X74296Y103507D01*
X75575Y109905D02*
X76854Y111185D01*
X64056Y111184D02*
X65273Y109966D01*
X64056Y111184D02*
X65335Y112463D01*
X64076Y108769D02*
X65273Y109966D01*
X71812Y98469D02*
X73012Y99669D01*
X75571Y97110D02*
X76783Y95898D01*
X76850Y95831D02*
X76850Y95831D01*
X75571Y94551D02*
X76783Y95763D01*
X73014Y115024D02*
X74294Y116304D01*
X84376Y113669D02*
X84528Y113516D01*
Y111186D02*
Y113516D01*
Y108776D02*
Y111186D01*
X84376Y108624D02*
X84528Y108776D01*
X84376Y106220D02*
Y108624D01*
X80376D02*
X81969Y110217D01*
X49776Y73173D02*
X50876Y72073D01*
X49776Y73173D02*
Y73369D01*
X81969Y110217D02*
Y111186D01*
X71732Y95831D02*
X73012Y94551D01*
X71666Y95831D02*
X71732D01*
X84376Y106220D02*
X84528Y106068D01*
X66615Y121355D02*
X67894Y120076D01*
X69176Y121269D02*
X69776Y120669D01*
X73539D02*
X74291Y121422D01*
X75044Y120669D01*
X74276Y124069D02*
X74876Y124669D01*
X73676D02*
X74276Y124069D01*
X52539Y115024D02*
X53819Y113744D01*
X55098Y115024D01*
X53752Y116237D02*
X53819D01*
X76783Y95831D02*
Y95898D01*
Y95831D02*
X76850D01*
X76783Y95763D02*
Y95831D01*
X74291Y95831D02*
X75571Y94551D01*
X69132Y121313D02*
X69174Y121355D01*
X66615Y123980D02*
X69174D01*
X51261Y98390D02*
X52181Y97469D01*
X58938Y103507D02*
X61215D01*
X70457Y104787D02*
X71737Y103507D01*
X63976Y113823D02*
X63976Y113823D01*
X61497Y123980D02*
X62186Y124669D01*
X61497Y121422D02*
X62250Y120669D01*
X73014Y115024D02*
X74270Y113769D01*
D12*
X113076Y147669D02*
D03*
X28676Y37969D02*
D03*
D17*
X75876Y137169D02*
D03*
X81376D02*
D03*
D18*
X39876Y140769D02*
D03*
Y146269D02*
D03*
X45676Y140769D02*
D03*
Y146269D02*
D03*
D21*
X81176Y63469D02*
D03*
Y59469D02*
D03*
X90676Y69469D02*
D03*
Y73469D02*
D03*
X42976Y50169D02*
D03*
Y54169D02*
D03*
X71576Y124669D02*
D03*
Y120669D02*
D03*
X34876Y113969D02*
D03*
X34876Y117969D02*
D03*
X52976Y93469D02*
D03*
X52976Y97469D02*
D03*
X77676Y124669D02*
D03*
Y120669D02*
D03*
X64576Y124669D02*
D03*
Y120669D02*
D03*
X48776Y93469D02*
D03*
X48776Y97469D02*
D03*
X69176Y95169D02*
D03*
Y99169D02*
D03*
X61376Y103669D02*
D03*
Y107669D02*
D03*
D34*
X92476Y140426D02*
D03*
X92476Y147569D02*
D03*
D43*
X98776Y161269D02*
X104364D01*
X48776Y97469D02*
X52181D01*
X79626Y77046D02*
X82399D01*
X82476Y76969D01*
X81201Y66945D02*
X82076Y67820D01*
X81176Y66920D02*
X81201Y66945D01*
X87676Y73269D02*
X90426D01*
X52976Y97469D02*
X52976Y97469D01*
X52181Y97469D02*
X52976D01*
X81176Y63469D02*
Y66920D01*
X90451Y73244D02*
X90676Y73469D01*
X93076Y98881D02*
X93898Y98059D01*
X133014Y116307D02*
X136516D01*
X111376Y85207D02*
X112303Y84280D01*
X111376Y85207D02*
Y88269D01*
X134776Y86216D02*
Y89469D01*
X136023Y84969D02*
X136024Y84968D01*
X131876Y84969D02*
X136023D01*
X134776Y86216D02*
X136023Y84969D01*
X82076Y67820D02*
Y70169D01*
X43753Y54346D02*
X46555D01*
X81201D02*
Y59344D01*
X93898Y98059D02*
X96176Y100337D01*
X90426Y73269D02*
X90451Y73244D01*
X92133Y140769D02*
X92476Y140426D01*
X86776Y140769D02*
X92133D01*
X98776Y158369D02*
X100064D01*
X104364D01*
X100064Y154281D02*
Y158369D01*
Y159869D01*
X96176Y100337D02*
Y111569D01*
D44*
X76851Y113669D02*
X80376D01*
X76776Y113744D02*
X76851Y113669D01*
X76854Y111185D02*
X76855Y111186D01*
X79476Y103769D02*
X81876Y106169D01*
X54466Y52734D02*
X56031Y51169D01*
X80376Y109592D02*
X81969Y111186D01*
X80376Y108624D02*
Y109592D01*
X75076Y87169D02*
X79776D01*
X80176Y86769D01*
Y86169D02*
Y86769D01*
X79776Y85769D02*
X80176Y86169D01*
X71476Y88769D02*
X72520D01*
X72532Y88782D01*
X72581D01*
X71076Y89169D02*
X71476Y88769D01*
X71076Y89169D02*
Y90769D01*
X69676Y92169D02*
X71076Y90769D01*
X69876Y88269D02*
Y90011D01*
X69676Y92169D02*
Y92869D01*
X70078Y93271D01*
X84351Y63312D02*
Y66945D01*
X42976Y61569D02*
X51376D01*
X34876Y69669D02*
X42976Y61569D01*
X56003Y54346D02*
Y57042D01*
X54076Y58969D02*
X56003Y57042D01*
X51318Y119811D02*
X51796Y120289D01*
X35676Y104169D02*
X45576Y114069D01*
X46353Y114846D01*
X46735Y114846D01*
X47329Y114252D01*
X47711D01*
X48284Y114825D01*
Y115207D01*
X47499Y115992D02*
X48284Y115207D01*
X47499Y115992D02*
Y116374D01*
X48072Y116947D01*
X48454D01*
X49239Y116162D01*
X49621D01*
X50194Y116735D01*
Y117117D01*
X49409Y117902D02*
X50194Y117117D01*
X49307Y118004D02*
X49409Y117902D01*
X49307Y118004D02*
Y118386D01*
X49880Y118959D01*
X50261D01*
X50466D01*
X51318Y119811D01*
X35676Y100484D02*
Y104169D01*
X34261Y99069D02*
X35676Y100484D01*
X26176Y99069D02*
X34261D01*
X25476Y98369D02*
X26176Y99069D01*
X25476Y78669D02*
Y98369D01*
Y78669D02*
X26476Y77669D01*
X28176D01*
X33476Y72369D01*
Y69269D02*
Y72369D01*
Y69269D02*
X42476Y60269D01*
X55676D01*
X59153Y56792D01*
Y51197D02*
Y56792D01*
X81776Y81169D02*
X86976D01*
X81476Y81469D02*
X81776Y81169D01*
X86976D02*
X92976Y75169D01*
X81476Y92969D02*
X81830Y93323D01*
X81476Y92469D02*
Y92969D01*
Y81469D02*
Y82669D01*
Y84704D01*
X81814Y85042D01*
X85142D01*
X85479Y85379D01*
Y86055D01*
X85142Y86392D02*
X85479Y86055D01*
X81476Y86392D02*
X85142D01*
X81176Y86692D02*
X81476Y86392D01*
X81176Y86692D02*
Y87442D01*
X81476Y87743D01*
X85142D01*
X85479Y88080D01*
Y88755D01*
X85142Y89093D02*
X85479Y88755D01*
X81476Y89093D02*
X85142D01*
X81176Y89393D02*
X81476Y89093D01*
X81176Y89393D02*
Y90143D01*
X81476Y90443D01*
X85142D01*
X85479Y90781D01*
Y91456D01*
X85142Y91794D02*
X85479Y91456D01*
X81814Y91794D02*
X85142D01*
X81476Y92131D02*
X81814Y91794D01*
X81476Y92131D02*
Y92469D01*
X67876Y63769D02*
X68603Y64496D01*
X66776Y63769D02*
X67876D01*
X66176Y64369D02*
X66776Y63769D01*
X66176Y64369D02*
Y66869D01*
X68603Y64496D02*
Y66945D01*
X66989Y52182D02*
X71276Y56469D01*
Y59469D01*
X70476Y60269D02*
X71276Y59469D01*
X71676Y63169D02*
Y82569D01*
X70476Y61969D02*
X71676Y63169D01*
X73276Y56669D02*
Y57405D01*
Y56669D02*
X73776Y56169D01*
X80076Y46469D02*
X80576Y45969D01*
X69476Y46469D02*
X80076D01*
X68376Y47569D02*
X69476Y46469D01*
X78476Y49669D02*
X79276Y50469D01*
X75676Y49669D02*
X78476D01*
X71752Y44007D02*
Y44882D01*
X71414Y43669D02*
X71752Y44007D01*
X70739Y43669D02*
X71414D01*
X70402Y44007D02*
X70739Y43669D01*
X70402Y44007D02*
Y44882D01*
X66989Y44756D02*
X68076Y43669D01*
X66989Y44756D02*
Y52182D01*
X60676Y50269D02*
X61285Y49660D01*
X62940D01*
X62949Y49669D02*
X63830D01*
X62940Y49660D02*
X62949Y49669D01*
X63830D02*
X65452Y48047D01*
X57576Y65069D02*
X60690Y61955D01*
X47789Y46132D02*
X49626Y47969D01*
X40813Y46132D02*
X47789D01*
X60690Y50560D02*
Y61955D01*
X60676Y50546D02*
X60690Y50560D01*
X60676Y50269D02*
Y50546D01*
X49626Y47969D02*
X49676D01*
X67065Y67758D02*
Y71667D01*
X66738Y71993D02*
X67065Y71667D01*
X66176Y66869D02*
X67065Y67758D01*
X65576Y86043D02*
X66076Y86543D01*
X63120Y86043D02*
X65576D01*
X67076Y76943D02*
X68039Y77906D01*
X69213D01*
X67076Y75369D02*
Y76943D01*
X69213Y77906D02*
X69476Y78169D01*
Y78969D01*
X69153Y79291D02*
X69476Y78969D01*
X65738Y79291D02*
X69153D01*
X63120D02*
X65738D01*
X62782Y79629D02*
X63120Y79291D01*
X62782Y79629D02*
Y80304D01*
X63120Y80642D01*
X66076D01*
X69032D01*
X69370Y80980D01*
Y81655D01*
X69032Y81992D02*
X69370Y81655D01*
X66076Y81992D02*
X69032D01*
X63120D02*
X66076D01*
X62782Y82330D02*
X63120Y81992D01*
X62782Y82330D02*
Y83005D01*
X63120Y83343D01*
X66076D01*
X68138D01*
X68476Y83680D01*
Y84355D01*
X68138Y84693D02*
X68476Y84355D01*
X66076Y84693D02*
X68138D01*
X63120D02*
X66076D01*
X62782Y85031D02*
X63120Y84693D01*
X62782Y85031D02*
Y85706D01*
X63120Y86043D01*
X92976Y65969D02*
Y75169D01*
X91476Y64469D02*
X92976Y65969D01*
X88076Y64469D02*
X91476D01*
X87500Y63893D02*
X88076Y64469D01*
X87500Y63669D02*
Y63893D01*
Y54346D02*
Y56069D01*
Y63496D02*
Y63669D01*
Y62416D02*
Y63496D01*
Y62416D02*
X87770Y62146D01*
X91804D01*
X92074Y61876D01*
Y61065D02*
Y61876D01*
X91804Y60795D02*
X92074Y61065D01*
X87500Y60795D02*
X91804D01*
X83741D02*
X87500D01*
X83471Y60525D02*
X83741Y60795D01*
X83471Y59715D02*
Y60525D01*
Y59715D02*
X83741Y59445D01*
X87500D01*
X94806D01*
X95076Y59175D01*
Y58365D02*
Y59175D01*
X94806Y58095D02*
X95076Y58365D01*
X87500Y58095D02*
X94806D01*
X83741D02*
X87500D01*
X83471Y57824D02*
X83741Y58095D01*
X83471Y57014D02*
Y57824D01*
Y57014D02*
X83741Y56744D01*
X87230D01*
X87500Y56474D01*
Y56069D02*
Y56474D01*
X67876Y86369D02*
X71676Y82569D01*
X69876Y88269D02*
X73276Y84869D01*
X74776Y87469D02*
X75076Y87169D01*
X85476Y75069D02*
X85976Y74569D01*
Y73969D02*
Y74569D01*
X85576Y73569D02*
X85976Y73969D01*
X80401Y73569D02*
X85576D01*
X80076Y73244D02*
X80401Y73569D01*
X78176Y75069D02*
X85476D01*
X65689Y71993D02*
X66738D01*
X65351Y72331D02*
X65689Y71993D01*
X65351Y72331D02*
Y73006D01*
X65689Y73343D01*
X67076D01*
X69463D01*
X69801Y73681D01*
Y74356D01*
X69463Y74694D02*
X69801Y74356D01*
X67414Y74694D02*
X69463D01*
X67076Y75031D02*
X67414Y74694D01*
X67076Y75031D02*
Y75369D01*
X73276Y75769D02*
Y76394D01*
Y62469D02*
Y67669D01*
Y68830D01*
X73739Y69293D01*
X75219D01*
X75682Y69755D01*
Y70680D01*
X75219Y71143D02*
X75682Y70680D01*
X73276Y71143D02*
X75219D01*
X73189D02*
X73276D01*
X72726Y71606D02*
X73189Y71143D01*
X72726Y71606D02*
Y72531D01*
X73189Y72993D01*
X73276D01*
X75219D01*
X75682Y73456D01*
Y74381D01*
X75219Y74844D02*
X75682Y74381D01*
X73739Y74844D02*
X75219D01*
X73276Y75306D02*
X73739Y74844D01*
X73276Y75306D02*
Y75769D01*
X94681Y78664D02*
X95376Y77969D01*
X94299Y78664D02*
X94681D01*
X93152Y77518D02*
X94299Y78664D01*
X92770Y77518D02*
X93152D01*
X92198Y78091D02*
X92770Y77518D01*
X92198Y78091D02*
Y78473D01*
X93535Y79810D01*
X93583Y79858D01*
Y80240D01*
X93010Y80813D02*
X93583Y80240D01*
X92628Y80813D02*
X93010D01*
X92580Y80765D02*
X92628Y80813D01*
X91243Y79428D02*
X92580Y80765D01*
X90861Y79428D02*
X91243D01*
X90288Y80001D02*
X90861Y79428D01*
X90288Y80001D02*
Y80383D01*
X91625Y81720D01*
X91673Y81768D01*
Y82150D01*
X91100Y82723D02*
X91673Y82150D01*
X90718Y82723D02*
X91100D01*
X90670Y82675D02*
X90718Y82723D01*
X89333Y81337D02*
X90670Y82675D01*
X88951Y81337D02*
X89333D01*
X88378Y81910D02*
X88951Y81337D01*
X88378Y81910D02*
Y82292D01*
X89524Y83439D01*
Y83821D01*
X88761Y84584D02*
X89524Y83821D01*
X88283Y85062D02*
X88761Y84584D01*
X54376Y87369D02*
Y87869D01*
Y78469D02*
Y79369D01*
Y79604D01*
X54714Y79942D01*
X60436D01*
X60773Y80279D01*
Y80955D01*
X60436Y81292D02*
X60773Y80955D01*
X54376Y81292D02*
X60436D01*
X54041D02*
X54376D01*
X53704Y81630D02*
X54041Y81292D01*
X53704Y81630D02*
Y82305D01*
X54041Y82643D01*
X54376D01*
X60436D01*
X60773Y82980D01*
Y83655D01*
X60436Y83993D02*
X60773Y83655D01*
X54376Y83993D02*
X60436D01*
X54003D02*
X54376D01*
X53666Y84331D02*
X54003Y83993D01*
X53666Y84331D02*
Y85006D01*
X54003Y85343D01*
X54376D01*
X60436D01*
X60773Y85681D01*
Y86356D01*
X60436Y86694D02*
X60773Y86356D01*
X54714Y86694D02*
X60436D01*
X54376Y87031D02*
X54714Y86694D01*
X54376Y87031D02*
Y87369D01*
X80076Y43669D02*
X80576Y44169D01*
X68076Y43669D02*
X68376D01*
X77491D02*
X80076D01*
X77153Y43331D02*
X77491Y43669D01*
X77153Y42456D02*
Y43331D01*
X76816Y42118D02*
X77153Y42456D01*
X76141Y42118D02*
X76816D01*
X75803Y42456D02*
X76141Y42118D01*
X75803Y42456D02*
Y43669D01*
Y44882D01*
X75466Y45220D02*
X75803Y44882D01*
X74790Y45220D02*
X75466D01*
X74453Y44882D02*
X74790Y45220D01*
X74453Y43669D02*
Y44882D01*
Y42456D02*
Y43669D01*
X74115Y42118D02*
X74453Y42456D01*
X73440Y42118D02*
X74115D01*
X73102Y42456D02*
X73440Y42118D01*
X73102Y42456D02*
Y43669D01*
Y44882D01*
X72765Y45220D02*
X73102Y44882D01*
X72090Y45220D02*
X72765D01*
X71752Y44882D02*
X72090Y45220D01*
X70064D02*
X70402Y44882D01*
X69389Y45220D02*
X70064D01*
X69051Y44882D02*
X69389Y45220D01*
X69051Y44007D02*
Y44882D01*
X68714Y43669D02*
X69051Y44007D01*
X68376Y43669D02*
X68714D01*
X73276Y57405D02*
X73614Y57743D01*
X78344D01*
X78682Y58080D01*
Y58755D01*
X78344Y59093D02*
X78682Y58755D01*
X73276Y59093D02*
X78344D01*
X73064D02*
X73276D01*
X72726Y59431D02*
X73064Y59093D01*
X72726Y59431D02*
Y60106D01*
X73064Y60443D01*
X73276D01*
X78344D01*
X78682Y60781D01*
Y61456D01*
X78344Y61794D02*
X78682Y61456D01*
X73614Y61794D02*
X78344D01*
X73276Y62131D02*
X73614Y61794D01*
X73276Y62131D02*
Y62469D01*
Y84669D02*
Y84869D01*
Y76394D02*
Y77730D01*
X73739Y78193D01*
X75200D01*
X75663Y78655D01*
Y79580D01*
X75200Y80043D02*
X75663Y79580D01*
X73276Y80043D02*
X75200D01*
X73207D02*
X73276D01*
X72745Y80506D02*
X73207Y80043D01*
X72745Y80506D02*
Y81431D01*
X73207Y81893D01*
X73276D01*
X75200D01*
X75663Y82356D01*
Y83281D01*
X75200Y83744D02*
X75663Y83281D01*
X73739Y83744D02*
X75200D01*
X73276Y84206D02*
X73739Y83744D01*
X73276Y84206D02*
Y84669D01*
X28376Y94769D02*
Y95069D01*
Y82469D02*
Y89069D01*
Y89773D01*
X28646Y90043D01*
X29779D01*
X30049Y90313D01*
Y91123D01*
X29779Y91393D02*
X30049Y91123D01*
X28376Y91393D02*
X29779D01*
X28106Y91663D02*
X28376Y91393D01*
X28106Y91663D02*
Y92473D01*
X28376Y92743D01*
X29779D01*
X30049Y93014D01*
Y93824D01*
X29779Y94094D02*
X30049Y93824D01*
X28646Y94094D02*
X29779D01*
X28376Y94364D02*
X28646Y94094D01*
X28376Y94364D02*
Y94769D01*
X52476Y105169D02*
X52855D01*
X51572D02*
X52476D01*
X51302Y105439D02*
X51572Y105169D01*
X51302Y105439D02*
Y107481D01*
X51032Y107751D02*
X51302Y107481D01*
X50222Y107751D02*
X51032D01*
X49952Y107481D02*
X50222Y107751D01*
X49952Y105169D02*
Y107481D01*
Y102857D02*
Y105169D01*
X49682Y102587D02*
X49952Y102857D01*
X48872Y102587D02*
X49682D01*
X48602Y102857D02*
X48872Y102587D01*
X48602Y102857D02*
Y104899D01*
X48331Y105169D02*
X48602Y104899D01*
X47251Y105169D02*
X48331D01*
X46576D02*
X47251D01*
X43176Y101769D02*
X46576Y105169D01*
X31826Y69019D02*
X41876Y58969D01*
X24276Y76569D02*
X25576Y75269D01*
X30064Y70781D02*
X31826Y69019D01*
X29682Y70781D02*
X30064D01*
X29686Y70785D02*
X29719Y70819D01*
X29341Y70822D02*
X29723D01*
X28768Y71395D02*
X29341Y70822D01*
X28768Y71395D02*
Y71777D01*
X28918Y71927D01*
X30334Y73342D01*
Y73724D01*
X29761Y74297D02*
X30334Y73724D01*
X29379Y74297D02*
X29761D01*
X27963Y72882D02*
X29379Y74297D01*
X27814Y72732D02*
X27963Y72882D01*
X27431Y72732D02*
X27814D01*
X26859Y73305D02*
X27431Y72732D01*
X26859Y73305D02*
Y73687D01*
X27008Y73837D01*
X28424Y75252D01*
Y75634D01*
X27851Y76207D02*
X28424Y75634D01*
X27469Y76207D02*
X27851D01*
X26244Y74983D02*
X27469Y76207D01*
X25863Y74983D02*
X26244Y74983D01*
X25576Y75269D02*
X25863Y74983D01*
X54876Y77969D02*
X63076D01*
X78076Y132969D02*
Y134969D01*
X75876Y137169D02*
X78076Y134969D01*
X71079Y137169D02*
X75876D01*
X65079Y143169D02*
X71079Y137169D01*
X97736Y95629D02*
X103076Y100969D01*
X106876D01*
X97736Y84280D02*
Y95629D01*
X29976Y113969D02*
X32476D01*
X34876D01*
X126576Y69076D02*
X133500Y76000D01*
X126576Y54076D02*
Y69076D01*
X118500Y46000D02*
X126576Y54076D01*
X51476Y125869D02*
X54490D01*
X21676Y75269D02*
Y100569D01*
X31926Y110819D01*
X36426D01*
X33476Y102369D02*
Y105869D01*
X32576Y101469D02*
X33476Y102369D01*
X24776Y101469D02*
X32576D01*
X22976Y99669D02*
X24776Y101469D01*
X22976Y75769D02*
Y99669D01*
X34576Y101269D02*
Y105069D01*
X33376Y100069D02*
X34576Y101269D01*
X25476Y100069D02*
X33376D01*
X24276Y98869D02*
X25476Y100069D01*
X24276Y76569D02*
Y98869D01*
X41876Y58969D02*
X54076D01*
X84351Y70069D02*
X84751Y70469D01*
X77376Y75869D02*
X78176Y75069D01*
X80076Y72469D02*
Y73244D01*
Y72469D02*
X80476Y72069D01*
X86676D01*
X87076Y71669D01*
X84751Y70469D02*
X86676D01*
X87076Y70869D01*
Y71669D01*
X84351Y68969D02*
Y70069D01*
Y68969D02*
X84751Y68569D01*
X85576D01*
X85876Y68269D01*
Y63269D02*
Y68269D01*
X85576Y62969D02*
X85876Y63269D01*
X84351Y63312D02*
X84694Y62969D01*
X85576D01*
X46076Y65069D02*
X57576D01*
X45876Y83669D02*
Y95169D01*
X43176Y97869D02*
X45876Y95169D01*
X43176Y97869D02*
Y101769D01*
X28176Y97769D02*
X35076D01*
X34876Y69669D02*
Y73069D01*
X26876Y81069D02*
X34876Y73069D01*
X26876Y81069D02*
Y96469D01*
X28176Y97769D01*
X35076D02*
X37076Y99769D01*
Y103769D01*
X39976Y106669D01*
X43576Y63169D02*
X45476D01*
X36376Y70369D02*
X43576Y63169D01*
X36376Y70369D02*
Y74469D01*
X28376Y82469D02*
X36376Y74469D01*
X28376Y95069D02*
X29376Y96069D01*
X35476D01*
X38476Y99069D01*
Y102908D01*
X40038Y104469D01*
X43376D01*
X74901Y50444D02*
Y54346D01*
Y50444D02*
X75676Y49669D01*
X73776Y56169D02*
X78576D01*
X79276Y55469D01*
Y50469D02*
Y55469D01*
X80576Y44169D02*
Y45969D01*
X68376Y47569D02*
Y50469D01*
X69104Y51197D01*
X71752D01*
X70476Y60269D02*
Y61969D01*
X62276Y57522D02*
X65452Y54346D01*
X62276Y57522D02*
Y61569D01*
X54376Y78469D02*
X54876Y77969D01*
X54376Y87869D02*
X54976Y88469D01*
X80376Y112779D02*
Y113669D01*
X63916Y63209D02*
Y70731D01*
X63076Y77969D02*
X63916Y77129D01*
Y70731D02*
Y77129D01*
X44039Y67106D02*
Y81832D01*
Y67106D02*
X46076Y65069D01*
X44039Y81832D02*
X45876Y83669D01*
X45676Y99069D02*
X47576Y100969D01*
X51376Y61569D02*
X52676Y62869D01*
X52776D01*
X43376Y104469D02*
X45576Y106669D01*
X39976D02*
X43176D01*
X80376Y112779D02*
X81969Y111186D01*
X54876Y91669D02*
X62453D01*
X54376Y91169D02*
X54876Y91669D01*
X54376Y90269D02*
Y91169D01*
Y90269D02*
X54676Y89969D01*
X73076Y91169D02*
X73676Y91769D01*
X73076Y89276D02*
Y91169D01*
X72581Y88782D02*
X73076Y89276D01*
X70078Y93271D02*
X74294D01*
X73676Y91769D02*
X79476D01*
X84527Y103507D02*
X88776Y107756D01*
X36426Y110819D02*
X51476Y125869D01*
X51587Y123980D02*
X53819D01*
X54466Y52734D02*
Y56179D01*
X52676Y57969D02*
X54466Y56179D01*
X40776Y57969D02*
X52676D01*
X79876Y82369D02*
X80276Y82769D01*
Y83669D01*
X79976Y83969D02*
X80276Y83669D01*
X76976Y83969D02*
X79976D01*
X76876Y85769D02*
X79776D01*
X76476Y84469D02*
X76976Y83969D01*
X76476Y84469D02*
Y85369D01*
X76876Y85769D01*
X76976Y82069D02*
X77276Y82369D01*
X79876D01*
X76976Y80869D02*
Y82069D01*
Y80869D02*
X77276Y80569D01*
X77376Y75869D02*
Y78169D01*
X77832Y78625D01*
X77276Y80569D02*
X80676D01*
X77832Y78625D02*
X80732D01*
X81204Y79097D02*
Y80041D01*
X80732Y78625D02*
X81204Y79097D01*
X80676Y80569D02*
X81204Y80041D01*
X97539Y68506D02*
X99976Y66069D01*
X97539Y68506D02*
Y77806D01*
X91776Y83569D02*
X97539Y77806D01*
X91776Y83569D02*
Y84569D01*
X92176Y84969D01*
X93977D01*
X94376Y85368D01*
Y86769D01*
X93976Y87169D02*
X94376Y86769D01*
X90176Y87169D02*
X93976D01*
X89645Y87700D02*
X90176Y87169D01*
X89645Y87700D02*
Y88669D01*
X90145Y89169D01*
X95676D01*
X96076Y89569D01*
Y90569D01*
X95576Y91069D02*
X96076Y90569D01*
X91848Y91069D02*
X95576D01*
X93799Y38646D02*
Y39869D01*
Y47069D02*
Y48047D01*
Y46664D02*
Y47069D01*
Y46664D02*
X94069Y46394D01*
X95917D01*
X96187Y46124D01*
Y45314D02*
Y46124D01*
X95917Y45043D02*
X96187Y45314D01*
X93799Y45043D02*
X95917D01*
X90846D02*
X93799D01*
X90576Y44773D02*
X90846Y45043D01*
X90576Y43963D02*
Y44773D01*
Y43963D02*
X90846Y43693D01*
X93799D01*
X95917D01*
X96187Y43423D01*
Y42613D02*
Y43423D01*
X95917Y42343D02*
X96187Y42613D01*
X93799Y42343D02*
X95917D01*
X90846D02*
X93799D01*
X90576Y42073D02*
X90846Y42343D01*
X90576Y41262D02*
Y42073D01*
Y41262D02*
X90846Y40992D01*
X93529D01*
X93799Y40722D01*
Y39869D02*
Y40722D01*
X97776Y44469D02*
X99976Y46669D01*
Y59344D02*
Y60269D01*
Y57771D02*
Y59344D01*
X99699Y57494D02*
X99976Y57771D01*
X97829Y57494D02*
X99699D01*
X97551Y57217D02*
X97829Y57494D01*
X97551Y55922D02*
Y57217D01*
Y55922D02*
X97829Y55644D01*
X99699D01*
X99976Y55366D01*
Y54071D02*
Y55366D01*
X99699Y53794D02*
X99976Y54071D01*
X97829Y53794D02*
X99699D01*
X97551Y53517D02*
X97829Y53794D01*
X97551Y52222D02*
Y53517D01*
Y52222D02*
X97829Y51944D01*
X99699D01*
X99976Y51666D01*
Y50371D02*
Y51666D01*
X99699Y50094D02*
X99976Y50371D01*
X97829Y50094D02*
X99699D01*
X97551Y49817D02*
X97829Y50094D01*
X97551Y48522D02*
Y49817D01*
Y48522D02*
X97829Y48244D01*
X99699D01*
X99976Y47967D01*
Y46669D02*
Y47967D01*
Y60269D02*
Y66069D01*
X93799Y38646D02*
X94176Y38269D01*
X97776Y38869D02*
Y44469D01*
X97176Y38269D02*
X97776Y38869D01*
X94176Y38269D02*
X97176D01*
X95376Y77969D02*
X96076Y77269D01*
X94050Y74673D02*
X94320Y74943D01*
X94050Y73863D02*
Y74673D01*
Y73863D02*
X94320Y73593D01*
X96076D01*
X96232D01*
X96502Y73323D01*
Y72513D02*
Y73323D01*
X96232Y72243D02*
X96502Y72513D01*
X96076Y72243D02*
X96232D01*
X94320D02*
X96076D01*
X94050Y71973D02*
X94320Y72243D01*
X94050Y71162D02*
Y71973D01*
Y71162D02*
X94320Y70892D01*
X96076D01*
X96232D01*
X96502Y70622D01*
Y69812D02*
Y70622D01*
X96232Y69542D02*
X96502Y69812D01*
X96076Y69542D02*
X96232D01*
X94320D02*
X96076D01*
X94050Y69272D02*
X94320Y69542D01*
X94050Y68462D02*
Y69272D01*
Y68462D02*
X94320Y68191D01*
X96076D01*
X96432D01*
X96702Y67921D01*
Y67111D02*
Y67921D01*
X96432Y66841D02*
X96702Y67111D01*
X96076Y66841D02*
X96432D01*
X94320D02*
X96076D01*
X94050Y66571D02*
X94320Y66841D01*
X94050Y65761D02*
Y66571D01*
Y65761D02*
X94320Y65491D01*
X96076D01*
X98632D01*
X98902Y65221D01*
Y64410D02*
Y65221D01*
X98632Y64140D02*
X98902Y64410D01*
X96076Y64140D02*
X98632D01*
X92573D02*
X96076D01*
X92303Y63870D02*
X92573Y64140D01*
X92303Y63060D02*
Y63870D01*
Y63060D02*
X92573Y62790D01*
X96076D01*
X98632D01*
X98902Y62520D01*
Y61710D02*
Y62520D01*
X98632Y61440D02*
X98902Y61710D01*
X96346Y61440D02*
X98632D01*
X92186Y49584D02*
X93799Y51197D01*
X95576Y74943D02*
X96076Y75443D01*
X94320Y74943D02*
X95576D01*
X96076Y75443D02*
Y77269D01*
X96076Y57469D02*
Y59589D01*
X96076Y59589D02*
X96076Y59589D01*
X96076Y59589D02*
Y61169D01*
X96346Y61440D01*
X89112Y53105D02*
Y55305D01*
X90276Y56469D01*
X95076D01*
X96076Y57469D01*
X82738Y50007D02*
X83161Y49584D01*
X92186D01*
X83241Y52734D02*
X88741D01*
X89112Y53105D01*
X82738Y52231D02*
X83241Y52734D01*
X82738Y50007D02*
Y52231D01*
X81830Y93323D02*
X86921D01*
X89645Y93271D02*
X91848Y91069D01*
X79476Y101169D02*
Y103769D01*
X91076Y108269D02*
X91476Y107869D01*
X91076Y108269D02*
Y109369D01*
X91476Y109769D01*
X86609Y99702D02*
X89576Y102669D01*
Y104969D01*
X90176Y105569D01*
X91476Y107869D02*
X92276D01*
X92876Y107269D01*
Y105969D02*
Y107269D01*
X92476Y105569D02*
X92876Y105969D01*
X90176Y105569D02*
X92476D01*
Y109769D02*
X92876Y110169D01*
X91476Y109769D02*
X92476D01*
X92376Y111769D02*
X92876Y111269D01*
Y110169D02*
Y111269D01*
X88776Y107756D02*
Y110869D01*
X89676Y111769D01*
X92376D01*
X76476Y68469D02*
X78176Y70169D01*
X76476Y65469D02*
Y68469D01*
X74876Y63869D02*
X76476Y65469D01*
X55976Y51169D02*
X56031D01*
X39226Y59519D02*
X40776Y57969D01*
X33176Y53769D02*
X40813Y46132D01*
X33176Y53769D02*
Y63769D01*
X21676Y75269D02*
X33176Y63769D01*
X22976Y75769D02*
X34876Y63869D01*
Y56969D02*
Y63869D01*
Y56969D02*
X35576Y56269D01*
X36976D01*
X37576Y56869D01*
Y59069D01*
X38026Y59519D01*
X39226D01*
X46676Y111169D02*
X56576D01*
X63916Y70731D02*
X63916Y70731D01*
X62276Y61569D02*
X63916Y63209D01*
X65376Y89969D02*
X66076Y89269D01*
Y86543D02*
Y89269D01*
X67876Y86369D02*
Y88469D01*
X66615Y93271D02*
X69876Y90011D01*
X47576Y100969D02*
X58917D01*
X61497Y98390D01*
X54676Y89969D02*
X65376D01*
X54976Y88469D02*
X64076D01*
X62453Y91669D02*
X66615Y95831D01*
X33476Y105869D02*
X51587Y123980D01*
X34576Y105069D02*
X50928Y121422D01*
X56379D01*
X54490Y125869D02*
X56379Y123980D01*
X56376Y105969D02*
Y106130D01*
X52855Y105169D02*
X56312Y108626D01*
X76855Y111186D02*
X81969D01*
D45*
X129510Y129535D02*
X135138D01*
D46*
X34776Y117669D02*
X39776D01*
X49876Y82119D02*
X52854Y79141D01*
Y76394D02*
Y79141D01*
X48776Y89569D02*
X49876Y88469D01*
X48776Y89569D02*
Y93469D01*
D47*
X63976Y113769D02*
Y113823D01*
X63976Y108628D02*
Y108769D01*
X71576Y98469D02*
Y98669D01*
X71076Y99169D02*
X71576Y98669D01*
X63976Y108544D02*
Y108628D01*
X42976Y50169D02*
X43763Y49382D01*
X47889D02*
X49576Y51069D01*
X43763Y49382D02*
X47889D01*
X62276Y115523D02*
Y116069D01*
X61376Y107669D02*
X63101D01*
X72776Y101169D02*
Y102468D01*
X132879Y124772D02*
X136516D01*
X132876Y124769D02*
X132879Y124772D01*
X63101Y107669D02*
X63976Y108544D01*
X62276Y115523D02*
X63976Y113823D01*
X64576Y120669D02*
X65928D01*
X90676Y66971D02*
Y69469D01*
X90650Y66945D02*
X90676Y66971D01*
X86476Y76969D02*
Y77043D01*
X84350Y79169D02*
X86476Y77043D01*
X46555Y69748D02*
X46876Y70069D01*
X81376Y137169D02*
Y141269D01*
X36476Y140769D02*
X39876D01*
X45676D01*
X26076Y117869D02*
X29976D01*
X69176Y95169D02*
X71071D01*
X69090Y121355D02*
X69132Y121313D01*
X69176Y99169D02*
X71076D01*
X76776Y101169D02*
X76876Y101069D01*
X71071Y95169D02*
X71666Y95764D01*
X46555Y66945D02*
Y69748D01*
X71666Y95764D02*
Y95831D01*
X65928Y120669D02*
X66615Y121355D01*
X69090D01*
X69132Y121313D02*
X69176Y121269D01*
X49576Y51069D02*
X49676D01*
X76876Y98469D02*
Y101069D01*
X71737Y103507D02*
X72776Y102468D01*
D48*
X132576Y107646D02*
X136516D01*
X94476Y116469D02*
Y120741D01*
X92476Y147569D02*
X97276D01*
X94776Y112969D02*
Y116169D01*
Y112969D02*
X96176Y111569D01*
D50*
X135501Y95669D02*
X136516Y94654D01*
X132269Y111976D02*
X136516D01*
X125976Y99269D02*
X136231D01*
X136516Y98984D01*
X131007Y120638D02*
X136516D01*
X120876Y101369D02*
Y119069D01*
X127591Y94654D02*
X136516D01*
X125276Y107515D02*
X129476Y103315D01*
X125276Y107515D02*
Y113744D01*
X129476Y103315D02*
X136516D01*
X129476Y122169D02*
X131007Y120638D01*
X129476Y122169D02*
Y124769D01*
X122976Y102269D02*
X125976Y99269D01*
X122976Y102269D02*
Y116869D01*
X120876Y101369D02*
X127591Y94654D01*
X127676Y116569D02*
X132269Y111976D01*
X117876Y127969D02*
X122976Y122869D01*
Y116869D02*
Y122869D01*
X114576Y127969D02*
X120876Y121669D01*
Y119069D02*
Y121669D01*
X125276Y113744D02*
Y126269D01*
X80376Y128669D02*
X82676Y130969D01*
X120576D02*
X125276Y126269D01*
X122576Y132369D02*
X127676Y127269D01*
Y116569D02*
Y127269D01*
X82676Y130969D02*
X120576D01*
X80376Y123087D02*
X81968Y121494D01*
X80376Y123087D02*
Y128669D01*
X80676Y132369D02*
X122576D01*
D51*
X109239Y123534D02*
X110204D01*
X108844Y123928D02*
X109239Y123534D01*
X102738Y44085D02*
X103481Y43343D01*
X102738Y44085D02*
Y91431D01*
X102638Y91531D02*
X102738Y91431D01*
X101776Y44197D02*
Y91033D01*
X101676Y91132D02*
X101776Y91033D01*
X101676Y91132D02*
Y91930D01*
X112203Y102456D01*
Y121535D01*
X110204Y123534D02*
X112203Y121535D01*
X102638Y91531D02*
X113165Y102058D01*
X100921Y43343D02*
X101776Y44197D01*
X110602Y125679D02*
X110602Y124496D01*
X113165Y102058D02*
Y121933D01*
X110602Y124496D02*
X113165Y121933D01*
D52*
X74776Y88469D02*
X75176Y88869D01*
X74776Y87469D02*
Y88469D01*
X82579Y99702D02*
X82579Y99702D01*
X82512Y99702D02*
X82579D01*
X82512Y99702D02*
X82512Y99702D01*
X80943Y99702D02*
X82512D01*
X79476Y101169D02*
X80943Y99702D01*
X88283Y94468D02*
X89645Y95831D01*
X75176Y88869D02*
X79376D01*
X80176Y89669D01*
Y91069D01*
X79476Y91769D02*
X80176Y91069D01*
X88283Y85062D02*
Y94468D01*
X82579Y99702D02*
X86609D01*
X56576Y111169D02*
X57625Y110120D01*
X56376Y106130D02*
X57625Y107379D01*
Y110120D01*
D53*
X45676Y146369D02*
Y155769D01*
X57681Y158269D02*
X59181Y159769D01*
X45676Y155769D02*
X48176Y158269D01*
X39876Y153369D02*
X47176Y160669D01*
X53444D01*
X55244Y162469D01*
X39876Y149869D02*
Y153369D01*
Y146269D02*
Y149869D01*
X48176Y158269D02*
X57681D01*
D71*
X130000Y142500D02*
D03*
X10000D02*
D03*
D72*
X117974Y5737D02*
D03*
X91982D02*
D03*
D73*
X118500Y76000D02*
D03*
Y66000D02*
D03*
Y56000D02*
D03*
Y46000D02*
D03*
Y36000D02*
D03*
Y26000D02*
D03*
X6500Y76000D02*
D03*
Y66000D02*
D03*
Y56000D02*
D03*
Y46000D02*
D03*
Y36000D02*
D03*
Y26000D02*
D03*
Y16000D02*
D03*
Y6000D02*
D03*
X133500Y76000D02*
D03*
Y66000D02*
D03*
Y56000D02*
D03*
Y46000D02*
D03*
Y36000D02*
D03*
Y26000D02*
D03*
Y16000D02*
D03*
Y6000D02*
D03*
D74*
X90900Y154095D02*
D03*
X49134D02*
D03*
D75*
X31937Y25000D02*
D03*
X24000D02*
D03*
D76*
X12000Y163000D02*
D03*
X128000D02*
D03*
D77*
X81969Y111186D02*
D03*
X71736Y106067D02*
D03*
X76853Y103508D02*
D03*
X69173Y113744D02*
D03*
X63976Y113769D02*
D03*
X69148Y108769D02*
D03*
X66676D02*
D03*
X74291Y98469D02*
D03*
X71776Y108769D02*
D03*
X69172Y116304D02*
D03*
X66614Y113744D02*
D03*
X63976Y108769D02*
D03*
Y106069D02*
D03*
X66776Y103469D02*
D03*
X63876D02*
D03*
X79626Y77046D02*
D03*
X84351Y66945D02*
D03*
X81201Y66945D02*
D03*
X52854Y54346D02*
D03*
X56003Y54346D02*
D03*
X59276Y132969D02*
D03*
X99076Y70069D02*
D03*
X81201Y48047D02*
D03*
X74901Y48047D02*
D03*
X78051D02*
D03*
X46576Y47669D02*
D03*
Y51197D02*
D03*
X49676Y47969D02*
D03*
X52854Y51197D02*
D03*
X52854Y48047D02*
D03*
X49676Y51197D02*
D03*
X68676Y76369D02*
D03*
X65453Y70094D02*
D03*
X65453Y76394D02*
D03*
X62303D02*
D03*
X87676Y73269D02*
D03*
X59153Y73244D02*
D03*
X62303Y73244D02*
D03*
X59154Y70094D02*
D03*
X59153Y76394D02*
D03*
X56004Y70095D02*
D03*
X56379Y113744D02*
D03*
X69170Y111185D02*
D03*
X49705Y76394D02*
D03*
X52854D02*
D03*
X56004Y76394D02*
D03*
X74901D02*
D03*
X52854Y73244D02*
D03*
X93799Y54346D02*
D03*
X93799Y51197D02*
D03*
X90649Y51197D02*
D03*
X71752Y51197D02*
D03*
X87500Y54346D02*
D03*
X90649Y54346D02*
D03*
X84350Y54346D02*
D03*
X74901Y54346D02*
D03*
X65452D02*
D03*
X59153Y48047D02*
D03*
X62303Y48047D02*
D03*
X65452D02*
D03*
X71752D02*
D03*
X84350Y48047D02*
D03*
X87500Y48047D02*
D03*
X90649D02*
D03*
X93799Y48047D02*
D03*
X81201Y51197D02*
D03*
X84350Y51197D02*
D03*
X87500D02*
D03*
X52854Y66945D02*
D03*
X49705D02*
D03*
X68603Y66945D02*
D03*
X87500D02*
D03*
X90650D02*
D03*
X78051Y73244D02*
D03*
X68602Y70094D02*
D03*
X56330Y103457D02*
D03*
X84528Y111186D02*
D03*
X74902Y66945D02*
D03*
X61876Y64169D02*
D03*
X45476Y63169D02*
D03*
X69174Y126541D02*
D03*
X80676Y132369D02*
D03*
X84350Y79169D02*
D03*
X62303Y51197D02*
D03*
X46555Y54346D02*
D03*
X49704D02*
D03*
X59153Y51197D02*
D03*
X99576Y74869D02*
D03*
X71751Y54347D02*
D03*
X81201Y54346D02*
D03*
X74876Y63869D02*
D03*
X45576Y79469D02*
D03*
Y76869D02*
D03*
X46555Y66945D02*
D03*
X49776Y73369D02*
D03*
X50976Y93369D02*
D03*
X78051Y66945D02*
D03*
X52776Y62869D02*
D03*
X47676Y107069D02*
D03*
X45576Y106669D02*
D03*
X43176D02*
D03*
X87088Y108693D02*
D03*
X81976Y118869D02*
D03*
X81969Y126541D02*
D03*
X81968Y121494D02*
D03*
X87088Y123979D02*
D03*
X95376Y129369D02*
D03*
X76851Y111188D02*
D03*
X84527Y116304D02*
D03*
X84594Y118862D02*
D03*
X87088Y118861D02*
D03*
X84527Y121422D02*
D03*
X81969Y123980D02*
D03*
X84528Y123980D02*
D03*
X87088Y121354D02*
D03*
X79409Y95831D02*
D03*
X81968Y106067D02*
D03*
X79409Y98390D02*
D03*
X89645Y95831D02*
D03*
X94076Y92469D02*
D03*
X73076Y87469D02*
D03*
X76783Y93271D02*
D03*
X79478D02*
D03*
X71666Y95831D02*
D03*
X74294Y93271D02*
D03*
X75573Y90182D02*
D03*
X78132Y90182D02*
D03*
X84528Y106068D02*
D03*
X84527Y103507D02*
D03*
X81969Y101015D02*
D03*
X66615Y121355D02*
D03*
X69174Y124069D02*
D03*
X69176Y121269D02*
D03*
X74291Y121422D02*
D03*
X74292Y126540D02*
D03*
X74276Y124069D02*
D03*
X66615D02*
D03*
X53819Y113744D02*
D03*
Y123980D02*
D03*
X53819Y116237D02*
D03*
X76783Y95831D02*
D03*
X74291Y95831D02*
D03*
X84527Y95831D02*
D03*
X86921Y93323D02*
D03*
X89645Y93271D02*
D03*
X81968Y98390D02*
D03*
X84527Y98390D02*
D03*
X84528Y101015D02*
D03*
X56003Y48047D02*
D03*
X55976Y51169D02*
D03*
X74176Y111169D02*
D03*
X76876Y98469D02*
D03*
X71576D02*
D03*
X67876Y88469D02*
D03*
X66615Y93271D02*
D03*
X76851Y106068D02*
D03*
X61576Y95869D02*
D03*
X58871Y95854D02*
D03*
X61497Y98390D02*
D03*
X58871Y98439D02*
D03*
X58938Y103507D02*
D03*
X64056Y95831D02*
D03*
X64076Y88469D02*
D03*
X66615Y98390D02*
D03*
X71737Y103507D02*
D03*
X66615Y106068D02*
D03*
X66615Y95831D02*
D03*
X53819Y118862D02*
D03*
X56379Y121422D02*
D03*
X57576Y130069D02*
D03*
X56379Y123980D02*
D03*
X58872Y123980D02*
D03*
X56379Y118862D02*
D03*
X61497Y123980D02*
D03*
Y121422D02*
D03*
Y118862D02*
D03*
X58872Y121422D02*
D03*
X58938Y108626D02*
D03*
X56376Y105969D02*
D03*
X56312Y108626D02*
D03*
X61497Y93270D02*
D03*
X87076Y103569D02*
D03*
X74270Y113769D02*
D03*
X76853Y113744D02*
D03*
D78*
X11256Y116949D02*
D03*
X22376Y122269D02*
D03*
X19376Y115669D02*
D03*
X19676Y135069D02*
D03*
X14776Y130869D02*
D03*
X5176Y86969D02*
D03*
X15276Y83369D02*
D03*
X15676Y60869D02*
D03*
X13976Y40869D02*
D03*
X14276Y50669D02*
D03*
X18776Y20869D02*
D03*
X35776Y11669D02*
D03*
X39776Y23169D02*
D03*
X39076Y5269D02*
D03*
X13576Y5169D02*
D03*
X63576Y7769D02*
D03*
X54376Y7869D02*
D03*
X82176Y20369D02*
D03*
X89176Y31869D02*
D03*
X127976Y11069D02*
D03*
X125976Y21369D02*
D03*
X124976Y30469D02*
D03*
X112976Y30769D02*
D03*
X113576Y50769D02*
D03*
X121576Y71269D02*
D03*
X130776Y81469D02*
D03*
X131676Y91669D02*
D03*
X89476Y135769D02*
D03*
X104676Y154269D02*
D03*
X93776Y169669D02*
D03*
X86776Y140769D02*
D03*
X30776Y53869D02*
D03*
X77176Y14869D02*
D03*
X89176Y25069D02*
D03*
X123376Y3732D02*
D03*
X136476Y41069D02*
D03*
X136876Y30969D02*
D03*
D79*
X109776Y121369D02*
D03*
X108844Y123928D02*
D03*
X104376Y124069D02*
D03*
X110602Y125679D02*
D03*
X59213Y147769D02*
D03*
X59276Y135469D02*
D03*
X59181Y159769D02*
D03*
X55236Y143169D02*
D03*
X48576Y131569D02*
D03*
X27276Y125669D02*
D03*
X15476Y32269D02*
D03*
X19276Y32312D02*
D03*
X20176Y44569D02*
D03*
X17376Y46969D02*
D03*
X31276Y48969D02*
D03*
X31176Y45369D02*
D03*
X11976Y16769D02*
D03*
X8576Y20969D02*
D03*
X73576Y17169D02*
D03*
X76776Y7669D02*
D03*
X85276Y4169D02*
D03*
X81276Y7269D02*
D03*
X45776Y7226D02*
D03*
X41976Y10069D02*
D03*
X44876Y42269D02*
D03*
X51876Y25236D02*
D03*
X100921Y43343D02*
D03*
X103481D02*
D03*
X120876Y119069D02*
D03*
X122976Y116869D02*
D03*
X65118Y147769D02*
D03*
X65079Y143169D02*
D03*
X69055Y147769D02*
D03*
X69016Y143169D02*
D03*
X84768D02*
D03*
X86776Y159769D02*
D03*
X78876D02*
D03*
X67055Y162469D02*
D03*
X63118D02*
D03*
X55244D02*
D03*
X39876Y149869D02*
D03*
X45576D02*
D03*
X81376Y141269D02*
D03*
X67076Y159769D02*
D03*
X74976Y162469D02*
D03*
X70992Y159769D02*
D03*
X74976Y157769D02*
D03*
X125276Y113744D02*
D03*
X77576Y142561D02*
D03*
X78076Y132969D02*
D03*
X70992Y162469D02*
D03*
X106876Y100969D02*
D03*
X114676Y60869D02*
D03*
X111576Y71469D02*
D03*
X34137Y128909D02*
D03*
X37391Y132169D02*
D03*
X31214Y106769D02*
D03*
Y103507D02*
D03*
X25276Y62769D02*
D03*
X30276D02*
D03*
X25776Y51669D02*
D03*
X132576Y107646D02*
D03*
X32776Y145169D02*
D03*
X31796Y132669D02*
D03*
X133014Y116307D02*
D03*
X132876Y124769D02*
D03*
X129476D02*
D03*
X117876Y127969D02*
D03*
X114576D02*
D03*
X111376Y88269D02*
D03*
X134776Y89469D02*
D03*
X131876Y84969D02*
D03*
X129276Y96969D02*
D03*
X116323Y97569D02*
D03*
X111276Y78769D02*
D03*
X108376Y84869D02*
D03*
X72969Y143169D02*
D03*
X54676Y137569D02*
D03*
X120076Y91969D02*
D03*
X122576Y91069D02*
D03*
X85076Y161469D02*
D03*
X72976Y140169D02*
D03*
X32476Y113969D02*
D03*
X108576Y91669D02*
D03*
X37376Y54269D02*
D03*
X41476Y90469D02*
D03*
Y93269D02*
D03*
X15976Y88669D02*
D03*
Y99169D02*
D03*
Y95869D02*
D03*
X16176Y105069D02*
D03*
X61142Y145803D02*
D03*
X36476Y140769D02*
D03*
X26076Y117869D02*
D03*
X23176Y104969D02*
D03*
Y108969D02*
D03*
X20276Y111869D02*
D03*
X35039Y170905D02*
D03*
X105376Y171069D02*
D03*
X115476Y139569D02*
D03*
X113376D02*
D03*
X111276D02*
D03*
X78676Y28769D02*
D03*
X81776D02*
D03*
X84876D02*
D03*
X87702Y42269D02*
D03*
X102276Y31669D02*
D03*
X86376Y17769D02*
D03*
Y14769D02*
D03*
X91076Y20869D02*
D03*
X121756Y20149D02*
D03*
X116076Y11469D02*
D03*
X119276D02*
D03*
X97576Y10969D02*
D03*
X102976D02*
D03*
X107176D02*
D03*
X112476D02*
D03*
X93676Y12069D02*
D03*
X90676D02*
D03*
X129510Y129535D02*
D03*
X30276Y59569D02*
D03*
X108376Y87869D02*
D03*
X59776Y143169D02*
D03*
X45676Y99069D02*
D03*
X110576Y96269D02*
D03*
X106276Y89669D02*
D03*
X109976Y65169D02*
D03*
X39676Y117469D02*
D03*
X99776Y108269D02*
D03*
X109976Y114869D02*
D03*
X100076Y128909D02*
D03*
X101176Y112669D02*
D03*
X98276Y114869D02*
D03*
X99976Y120069D02*
D03*
X34176Y109069D02*
D03*
X110976Y74369D02*
D03*
X104776Y73569D02*
D03*
X52576Y131569D02*
D03*
X47376Y125369D02*
D03*
X49276Y128469D02*
D03*
X50976Y136069D02*
D03*
X54376Y134269D02*
D03*
X46676Y111169D02*
D03*
X82176Y42269D02*
D03*
X109976Y118769D02*
D03*
X51261Y98390D02*
D03*
X49076Y42269D02*
D03*
X51876Y22869D02*
D03*
X51776Y30569D02*
D03*
Y28069D02*
D03*
X48143Y30669D02*
D03*
X44576D02*
D03*
X97276Y147569D02*
D03*
X97276Y145369D02*
D03*
X98036Y141929D02*
D03*
X112676Y165069D02*
D03*
X110476D02*
D03*
X100064Y154281D02*
D03*
X104364Y161269D02*
D03*
Y158369D02*
D03*
X120076Y136569D02*
D03*
Y134269D02*
D03*
X94776Y116169D02*
D03*
X24000Y59569D02*
D03*
X40076Y167169D02*
D03*
X28876Y165369D02*
D03*
X23676Y153169D02*
D03*
X104974Y103769D02*
D03*
D80*
X133500Y157500D02*
D03*
X122500D02*
D03*
Y168500D02*
D03*
X133500D02*
D03*
X128000Y155000D02*
D03*
X120000Y163000D02*
D03*
X136000D02*
D03*
X128000Y171000D02*
D03*
X17500Y157500D02*
D03*
X6500D02*
D03*
Y168500D02*
D03*
X17500D02*
D03*
X12000Y155000D02*
D03*
X4000Y163000D02*
D03*
X20000D02*
D03*
X12000Y171000D02*
D03*
D93*
X112303Y84280D02*
D03*
X97736D02*
D03*
D94*
X93898Y98059D02*
D03*
Y121563D02*
D03*
D95*
X135138Y129535D02*
D03*
D96*
X136516Y124772D02*
D03*
D97*
Y120638D02*
D03*
Y116307D02*
D03*
Y111976D02*
D03*
Y107646D02*
D03*
Y103315D02*
D03*
Y98984D02*
D03*
Y94654D02*
D03*
D98*
X136024Y84968D02*
D03*
D99*
X82076Y70169D02*
D03*
X78176D02*
D03*
D100*
X58276Y116069D02*
D03*
X62276D02*
D03*
X72776Y101169D02*
D03*
X76776D02*
D03*
X75076Y117369D02*
D03*
X79076D02*
D03*
X84376Y113669D02*
D03*
X80376D02*
D03*
X84376Y108624D02*
D03*
X80376D02*
D03*
X86476Y76969D02*
D03*
X82476D02*
D03*
X46876Y70069D02*
D03*
X50876D02*
D03*
D101*
X49876Y88469D02*
D03*
Y82119D02*
D03*
D102*
X29976Y113969D02*
D03*
X29976Y117869D02*
D03*
D103*
X100064Y159869D02*
D03*
X111176D02*
D03*
D104*
X79076Y117369D02*
X80142Y116304D01*
X84527D01*
D105*
X51796Y120289D02*
X54952D01*
X56379Y118862D01*
D106*
X96492Y98379D02*
D03*
D107*
X112940Y81519D02*
D03*
D108*
X110017Y82415D02*
D03*
D109*
X50726Y93369D02*
D03*
D110*
X111426Y162969D02*
D03*
D111*
X71126Y109419D02*
D03*
M02*
