G04 Layer_Color=8388736*
%FSLAX25Y25*%
%MOIN*%
G70*
G01*
G75*
%ADD92C,0.06000*%
%ADD130R,0.03200X0.05200*%
%ADD131C,0.12000*%
%ADD132R,0.02000X0.05800*%
%ADD133R,0.06700X0.06000*%
%ADD134R,0.07900X0.07900*%
%ADD135R,0.04000X0.03600*%
%ADD136R,0.02900X0.03400*%
%ADD137R,0.03400X0.02900*%
%ADD138R,0.02762X0.01975*%
%ADD139R,0.02762X0.01581*%
%ADD140R,0.02400X0.02400*%
%ADD141R,0.02400X0.04337*%
%ADD142R,0.04400X0.04800*%
%ADD143R,0.04800X0.04400*%
%ADD144R,0.06700X0.06000*%
%ADD145R,0.04337X0.03943*%
%ADD146R,0.01600X0.06700*%
%ADD147R,0.04000X0.07500*%
%ADD148R,0.03392X0.03400*%
%ADD149R,0.03600X0.05200*%
%ADD150O,0.02762X0.05912*%
%ADD151R,0.02762X0.05912*%
%ADD152R,0.05200X0.02600*%
%ADD153R,0.05200X0.03600*%
%ADD154R,0.06000X0.05200*%
%ADD155R,0.03600X0.04000*%
%ADD156R,0.03700X0.02900*%
%ADD157R,0.08300X0.03600*%
%ADD158C,0.01975*%
%ADD159R,0.02762X0.05518*%
%ADD160R,0.19298X0.19298*%
%ADD161C,0.01581*%
%ADD162C,0.18117*%
%ADD163C,0.07000*%
%ADD164P,0.06927X8X22.5*%
%ADD165C,0.02800*%
%ADD166C,0.21400*%
G36*
X49915Y157023D02*
X50645Y156721D01*
X51271Y156240D01*
X51752Y155613D01*
X52054Y154884D01*
X52131Y154297D01*
X52131Y154100D01*
X52131Y153903D01*
X52054Y153316D01*
X51752Y152587D01*
X51271Y151960D01*
X50645Y151479D01*
X49915Y151177D01*
X49328Y151100D01*
X49132Y151100D01*
X48935Y151100D01*
X48348Y151177D01*
X47618Y151479D01*
X46992Y151960D01*
X46511Y152587D01*
X46209Y153316D01*
X46132Y153903D01*
X46132Y154100D01*
X46132Y154297D01*
X46209Y154884D01*
X46511Y155613D01*
X46992Y156240D01*
X47618Y156721D01*
X48348Y157023D01*
X48935Y157100D01*
X49132Y157100D01*
X49328Y157100D01*
X49915Y157023D01*
D02*
G37*
G36*
X91684D02*
X92413Y156721D01*
X93040Y156240D01*
X93521Y155613D01*
X93823Y154884D01*
X93900Y154297D01*
X93900Y154100D01*
X93900Y153903D01*
X93823Y153316D01*
X93521Y152587D01*
X93040Y151960D01*
X92413Y151479D01*
X91684Y151177D01*
X91097Y151100D01*
X90900Y151100D01*
X90703Y151100D01*
X90117Y151177D01*
X89387Y151479D01*
X88760Y151960D01*
X88279Y152587D01*
X87977Y153316D01*
X87900Y153903D01*
X87900Y154100D01*
X87900Y154297D01*
X87977Y154884D01*
X88279Y155613D01*
X88760Y156240D01*
X89387Y156721D01*
X90117Y157023D01*
X90703Y157100D01*
X90900Y157100D01*
X91097Y157100D01*
X91684Y157023D01*
D02*
G37*
D92*
X31937Y25000D02*
D03*
X24000D02*
D03*
D130*
X5700Y124406D02*
D03*
X11256D02*
D03*
X5700Y112500D02*
D03*
X11256D02*
D03*
D131*
X23976Y9169D02*
D03*
X28676Y37969D02*
D03*
X113076Y147669D02*
D03*
D132*
X104974Y16269D02*
D03*
X107574D02*
D03*
X102415D02*
D03*
X99856D02*
D03*
X110174D02*
D03*
D133*
X92376D02*
D03*
X117574D02*
D03*
D134*
X100250Y5737D02*
D03*
X109774D02*
D03*
D135*
X93202Y28500D02*
D03*
X84865Y24700D02*
D03*
Y32240D02*
D03*
D136*
X122476Y87769D02*
D03*
X127976D02*
D03*
X31796Y135669D02*
D03*
X26296D02*
D03*
X70776Y17169D02*
D03*
X65276D02*
D03*
X57276D02*
D03*
X51776D02*
D03*
X82202Y39000D02*
D03*
X76702D02*
D03*
D137*
X129076Y112969D02*
D03*
Y118469D02*
D03*
X112676Y106269D02*
D03*
Y100769D02*
D03*
X37776Y157769D02*
D03*
Y163269D02*
D03*
X102276Y54069D02*
D03*
Y48569D02*
D03*
X20476Y57169D02*
D03*
Y51669D02*
D03*
D138*
X8339Y95035D02*
D03*
Y101334D02*
D03*
X12276D02*
D03*
Y95035D02*
D03*
X117544Y123119D02*
D03*
Y116819D02*
D03*
X113608Y116819D02*
D03*
Y123119D02*
D03*
D139*
X8339Y97201D02*
D03*
Y99169D02*
D03*
X12276D02*
D03*
Y97201D02*
D03*
X117544Y120953D02*
D03*
Y118985D02*
D03*
X113608D02*
D03*
Y120953D02*
D03*
D140*
X20276Y104969D02*
D03*
Y108969D02*
D03*
D141*
X98036Y137469D02*
D03*
X94296Y147469D02*
D03*
X101776D02*
D03*
X101776Y137469D02*
D03*
X94296D02*
D03*
D142*
X30776Y129016D02*
D03*
Y122269D02*
D03*
X129276Y107569D02*
D03*
Y100822D02*
D03*
D143*
X37430Y135669D02*
D03*
X44176D02*
D03*
D144*
X46876Y37081D02*
D03*
Y25969D02*
D03*
X121276Y95957D02*
D03*
Y107069D02*
D03*
D145*
X44713Y128909D02*
D03*
X37391Y122767D02*
D03*
Y128909D02*
D03*
X44713Y122767D02*
D03*
D146*
X86800Y152913D02*
D03*
Y167100D02*
D03*
X84800Y152913D02*
D03*
Y167100D02*
D03*
X82800Y152913D02*
D03*
Y167100D02*
D03*
X80900Y152913D02*
D03*
Y167100D02*
D03*
X78900Y152913D02*
D03*
Y167100D02*
D03*
X76900Y152913D02*
D03*
Y167100D02*
D03*
X75000Y152913D02*
D03*
Y167100D02*
D03*
X73000Y152913D02*
D03*
Y167100D02*
D03*
X71000Y152913D02*
D03*
Y167100D02*
D03*
X69016Y152913D02*
D03*
Y167100D02*
D03*
X67047Y152913D02*
D03*
Y167100D02*
D03*
X65079Y152913D02*
D03*
Y167100D02*
D03*
X63110Y152913D02*
D03*
Y167100D02*
D03*
X61142Y152913D02*
D03*
Y167100D02*
D03*
X59173Y152913D02*
D03*
Y167100D02*
D03*
X57205Y152913D02*
D03*
Y167100D02*
D03*
X55236Y152913D02*
D03*
Y167100D02*
D03*
X53268Y152913D02*
D03*
Y167100D02*
D03*
D147*
X93700Y160000D02*
D03*
X46378D02*
D03*
D148*
X93202Y39000D02*
D03*
X87702D02*
D03*
D149*
X117119Y135069D02*
D03*
X109976D02*
D03*
D150*
X98536Y38299D02*
D03*
X106016D02*
D03*
Y27669D02*
D03*
X102276D02*
D03*
Y38299D02*
D03*
D151*
X98536Y27669D02*
D03*
D152*
X72895Y3929D02*
D03*
X72895Y7669D02*
D03*
X72895Y11469D02*
D03*
X62576Y11469D02*
D03*
X62576Y3929D02*
D03*
D153*
X45776Y10026D02*
D03*
Y17169D02*
D03*
X81276Y4126D02*
D03*
Y11269D02*
D03*
D154*
X28500Y170905D02*
D03*
Y159000D02*
D03*
X111500Y159095D02*
D03*
Y171000D02*
D03*
D155*
X28996Y150006D02*
D03*
X32796Y141669D02*
D03*
X25256D02*
D03*
D156*
X78576Y23941D02*
D03*
Y33069D02*
D03*
D157*
X53776Y3732D02*
D03*
Y11669D02*
D03*
D158*
X92224Y74819D02*
D03*
X92224Y71669D02*
D03*
Y68520D02*
D03*
X92224Y55921D02*
D03*
Y52772D02*
D03*
X92224Y49622D02*
D03*
X89075Y74819D02*
D03*
X89075Y71669D02*
D03*
Y68520D02*
D03*
Y55921D02*
D03*
Y52772D02*
D03*
X89075Y49622D02*
D03*
X85925Y74819D02*
D03*
X85925Y71669D02*
D03*
Y68520D02*
D03*
Y55921D02*
D03*
X85925Y52772D02*
D03*
Y49622D02*
D03*
X82776Y74819D02*
D03*
Y71669D02*
D03*
X82776Y68520D02*
D03*
X82776Y55921D02*
D03*
X82776Y52772D02*
D03*
X82776Y49622D02*
D03*
X79626Y74819D02*
D03*
Y71669D02*
D03*
Y68520D02*
D03*
Y55921D02*
D03*
Y52772D02*
D03*
Y49622D02*
D03*
X76476Y74819D02*
D03*
Y71669D02*
D03*
X76476Y68520D02*
D03*
Y55921D02*
D03*
Y52772D02*
D03*
X76476Y49622D02*
D03*
X73327Y74819D02*
D03*
X73327Y71669D02*
D03*
X73327Y68520D02*
D03*
X73327Y55921D02*
D03*
Y52772D02*
D03*
Y49622D02*
D03*
X70177Y74819D02*
D03*
X70177Y71669D02*
D03*
X70177Y68520D02*
D03*
X70177Y55921D02*
D03*
X70177Y52772D02*
D03*
Y49622D02*
D03*
X67028Y74819D02*
D03*
X67028Y71669D02*
D03*
Y68520D02*
D03*
X67028Y55921D02*
D03*
X67028Y52772D02*
D03*
X67028Y49622D02*
D03*
X63878Y74819D02*
D03*
X63878Y71669D02*
D03*
Y68520D02*
D03*
Y55921D02*
D03*
Y52772D02*
D03*
X63878Y49622D02*
D03*
X60728Y74819D02*
D03*
X60728Y71669D02*
D03*
X60728Y68520D02*
D03*
X60728Y55921D02*
D03*
X60728Y52772D02*
D03*
X60728Y49622D02*
D03*
X57579Y74819D02*
D03*
X57579Y71669D02*
D03*
Y68520D02*
D03*
X57579Y55921D02*
D03*
X57579Y52772D02*
D03*
X57579Y49622D02*
D03*
X54429Y74819D02*
D03*
X54429Y71669D02*
D03*
Y68520D02*
D03*
X54429Y55921D02*
D03*
X54429Y52772D02*
D03*
Y49622D02*
D03*
X51280Y74819D02*
D03*
X51280Y71669D02*
D03*
Y68520D02*
D03*
X51280Y55921D02*
D03*
Y52772D02*
D03*
X51280Y49622D02*
D03*
X48130Y74819D02*
D03*
X48130Y71669D02*
D03*
X48130Y68520D02*
D03*
Y55921D02*
D03*
Y52772D02*
D03*
Y49622D02*
D03*
D159*
X30296Y97829D02*
D03*
X35335Y97829D02*
D03*
X20216D02*
D03*
X25256Y97829D02*
D03*
Y67909D02*
D03*
X30296D02*
D03*
X35335Y67908D02*
D03*
X20217D02*
D03*
D160*
X27776Y82869D02*
D03*
D161*
X88367Y91992D02*
D03*
X85808D02*
D03*
X83249D02*
D03*
X80690D02*
D03*
X78131D02*
D03*
X75572D02*
D03*
X73012D02*
D03*
X70453D02*
D03*
X67894D02*
D03*
X65335D02*
D03*
X62776D02*
D03*
X60217D02*
D03*
X57658D02*
D03*
X55099D02*
D03*
X52540D02*
D03*
X88367Y94551D02*
D03*
X85808D02*
D03*
X83249D02*
D03*
X80690D02*
D03*
X78131D02*
D03*
X75572D02*
D03*
X73013D02*
D03*
X70454D02*
D03*
X67895D02*
D03*
X65336D02*
D03*
X62776D02*
D03*
X60217D02*
D03*
X57658D02*
D03*
X55099D02*
D03*
X52540D02*
D03*
X88367Y97110D02*
D03*
X85808D02*
D03*
X83249D02*
D03*
X80690D02*
D03*
X78131D02*
D03*
X75572D02*
D03*
X73012D02*
D03*
X70453D02*
D03*
X67894D02*
D03*
X65335D02*
D03*
X62776D02*
D03*
X60217D02*
D03*
X57658D02*
D03*
X55099D02*
D03*
X52540D02*
D03*
X88367Y99669D02*
D03*
X85808D02*
D03*
X83249D02*
D03*
X80690D02*
D03*
X78131D02*
D03*
X75572D02*
D03*
X73012D02*
D03*
X70453D02*
D03*
X67894D02*
D03*
X65335D02*
D03*
X62776D02*
D03*
X60217D02*
D03*
X57658D02*
D03*
X55099D02*
D03*
X52540D02*
D03*
X88367Y102228D02*
D03*
X85808D02*
D03*
X83249D02*
D03*
X80690D02*
D03*
X60217D02*
D03*
X57658D02*
D03*
X55099D02*
D03*
X52540D02*
D03*
X88367Y104787D02*
D03*
X85808D02*
D03*
X83249D02*
D03*
X80690D02*
D03*
X75572D02*
D03*
X73013D02*
D03*
X70454D02*
D03*
X67894D02*
D03*
X65335D02*
D03*
X60217D02*
D03*
X57658D02*
D03*
X55099D02*
D03*
X52540D02*
D03*
X88367Y107347D02*
D03*
X85808D02*
D03*
X83249D02*
D03*
X80690D02*
D03*
X75572D02*
D03*
X73012D02*
D03*
X70453D02*
D03*
X67894D02*
D03*
X65335D02*
D03*
X60217D02*
D03*
X57658D02*
D03*
X55099D02*
D03*
X52540D02*
D03*
X88367Y109906D02*
D03*
X85808D02*
D03*
X83249D02*
D03*
X80690D02*
D03*
X75572D02*
D03*
X73012D02*
D03*
X70453D02*
D03*
X67894D02*
D03*
X65335D02*
D03*
X60217D02*
D03*
X57658D02*
D03*
X55099D02*
D03*
X52540D02*
D03*
X88367Y112465D02*
D03*
X85808D02*
D03*
X83249D02*
D03*
X80690D02*
D03*
X75572D02*
D03*
X73012D02*
D03*
X70453D02*
D03*
X67894D02*
D03*
X65335D02*
D03*
X60217D02*
D03*
X57658D02*
D03*
X55099D02*
D03*
X52540D02*
D03*
X88367Y115024D02*
D03*
X85808D02*
D03*
X83249D02*
D03*
X80690D02*
D03*
X75572D02*
D03*
X73013D02*
D03*
X70454D02*
D03*
X67895D02*
D03*
X65336D02*
D03*
X60217D02*
D03*
X57658D02*
D03*
X55099D02*
D03*
X52540D02*
D03*
X88367Y117583D02*
D03*
X85808D02*
D03*
X83249D02*
D03*
X80690D02*
D03*
X60217D02*
D03*
X57658D02*
D03*
X55099D02*
D03*
X52540D02*
D03*
X88367Y120142D02*
D03*
X85808D02*
D03*
X83249D02*
D03*
X80690D02*
D03*
X78131D02*
D03*
X75572D02*
D03*
X73012D02*
D03*
X70453D02*
D03*
X67894D02*
D03*
X65335D02*
D03*
X62776D02*
D03*
X60217D02*
D03*
X57658D02*
D03*
X55099D02*
D03*
X52540D02*
D03*
X88367Y122701D02*
D03*
X85808D02*
D03*
X83249D02*
D03*
X80690D02*
D03*
X78131D02*
D03*
X75572D02*
D03*
X73013D02*
D03*
X70454D02*
D03*
X67894D02*
D03*
X65335D02*
D03*
X62776D02*
D03*
X60217D02*
D03*
X57658D02*
D03*
X55099D02*
D03*
X52540D02*
D03*
X88367Y125260D02*
D03*
X85808D02*
D03*
X83249D02*
D03*
X80690D02*
D03*
X78131D02*
D03*
X75572D02*
D03*
X73013D02*
D03*
X70454D02*
D03*
X67895D02*
D03*
X65336D02*
D03*
X62777D02*
D03*
X60218D02*
D03*
X57659D02*
D03*
X55100D02*
D03*
X52540D02*
D03*
X88367Y127819D02*
D03*
X85808D02*
D03*
X83249D02*
D03*
X80690D02*
D03*
X78131D02*
D03*
X75572D02*
D03*
X73012D02*
D03*
X70453D02*
D03*
X67894D02*
D03*
X65335D02*
D03*
X62776D02*
D03*
X60217D02*
D03*
X57658D02*
D03*
X55099D02*
D03*
X52540D02*
D03*
D162*
X130000Y142500D02*
D03*
X10000D02*
D03*
D163*
X117974Y5737D02*
D03*
X91982D02*
D03*
D164*
X118500Y76000D02*
D03*
Y66000D02*
D03*
Y56000D02*
D03*
Y46000D02*
D03*
Y36000D02*
D03*
Y26000D02*
D03*
X6500Y76000D02*
D03*
Y66000D02*
D03*
Y56000D02*
D03*
Y46000D02*
D03*
Y36000D02*
D03*
Y26000D02*
D03*
Y16000D02*
D03*
Y6000D02*
D03*
X133500Y76000D02*
D03*
Y66000D02*
D03*
Y56000D02*
D03*
Y46000D02*
D03*
Y36000D02*
D03*
Y26000D02*
D03*
Y16000D02*
D03*
Y6000D02*
D03*
D165*
X90900Y154095D02*
D03*
X49134D02*
D03*
D166*
X12000Y163000D02*
D03*
X128000D02*
D03*
M02*
