G04 Layer_Physical_Order=4*
G04 Layer_Color=16440176*
%FSLAX25Y25*%
%MOIN*%
G70*
G01*
G75*
%ADD44C,0.00500*%
%ADD52C,0.00350*%
%ADD73P,0.06494X8X22.5*%
%ADD75C,0.05600*%
%ADD77C,0.01575*%
%ADD78C,0.02362*%
%ADD79C,0.01969*%
%ADD80C,0.01800*%
%ADD92C,0.06000*%
G36*
X84737Y-13730D02*
X85353D01*
Y-14242D01*
X84737D01*
Y-15331D01*
X84179D01*
Y-14242D01*
X82204D01*
Y-13730D01*
X84284Y-10791D01*
X84737D01*
Y-13730D01*
D02*
G37*
G36*
X69858Y-10719D02*
X69904D01*
X70029Y-10732D01*
X70167Y-10752D01*
X70311Y-10785D01*
X70468Y-10824D01*
X70613Y-10877D01*
X70619D01*
X70632Y-10883D01*
X70652Y-10896D01*
X70678Y-10910D01*
X70744Y-10942D01*
X70829Y-11001D01*
X70928Y-11067D01*
X71026Y-11152D01*
X71118Y-11251D01*
X71203Y-11362D01*
Y-11369D01*
X71210Y-11375D01*
X71223Y-11395D01*
X71236Y-11415D01*
X71269Y-11480D01*
X71308Y-11566D01*
X71354Y-11671D01*
X71387Y-11795D01*
X71420Y-11926D01*
X71433Y-12071D01*
X70855Y-12117D01*
Y-12110D01*
Y-12097D01*
X70849Y-12077D01*
X70842Y-12044D01*
X70823Y-11972D01*
X70797Y-11874D01*
X70757Y-11769D01*
X70698Y-11664D01*
X70626Y-11566D01*
X70534Y-11474D01*
X70521Y-11467D01*
X70488Y-11441D01*
X70423Y-11402D01*
X70337Y-11362D01*
X70226Y-11323D01*
X70095Y-11283D01*
X69931Y-11257D01*
X69747Y-11251D01*
X69655D01*
X69616Y-11257D01*
X69563Y-11264D01*
X69445Y-11277D01*
X69314Y-11303D01*
X69183Y-11336D01*
X69058Y-11388D01*
X69006Y-11421D01*
X68953Y-11454D01*
X68940Y-11461D01*
X68914Y-11487D01*
X68874Y-11533D01*
X68835Y-11585D01*
X68789Y-11657D01*
X68750Y-11736D01*
X68723Y-11828D01*
X68710Y-11933D01*
Y-11946D01*
Y-11972D01*
X68717Y-12018D01*
X68730Y-12071D01*
X68750Y-12136D01*
X68783Y-12202D01*
X68822Y-12268D01*
X68881Y-12333D01*
X68888Y-12340D01*
X68920Y-12359D01*
X68947Y-12379D01*
X68973Y-12392D01*
X69012Y-12412D01*
X69058Y-12438D01*
X69117Y-12458D01*
X69183Y-12484D01*
X69255Y-12510D01*
X69340Y-12543D01*
X69432Y-12569D01*
X69537Y-12602D01*
X69655Y-12628D01*
X69786Y-12661D01*
X69793D01*
X69819Y-12668D01*
X69858Y-12674D01*
X69904Y-12687D01*
X69963Y-12700D01*
X70035Y-12720D01*
X70108Y-12740D01*
X70186Y-12760D01*
X70357Y-12805D01*
X70521Y-12851D01*
X70600Y-12878D01*
X70672Y-12904D01*
X70737Y-12923D01*
X70790Y-12950D01*
X70797D01*
X70810Y-12956D01*
X70829Y-12969D01*
X70855Y-12982D01*
X70928Y-13022D01*
X71013Y-13074D01*
X71111Y-13147D01*
X71210Y-13225D01*
X71302Y-13317D01*
X71380Y-13416D01*
X71387Y-13429D01*
X71413Y-13461D01*
X71439Y-13520D01*
X71479Y-13599D01*
X71512Y-13691D01*
X71544Y-13803D01*
X71564Y-13927D01*
X71571Y-14058D01*
Y-14065D01*
Y-14072D01*
Y-14091D01*
Y-14117D01*
X71557Y-14190D01*
X71544Y-14281D01*
X71518Y-14386D01*
X71485Y-14498D01*
X71433Y-14616D01*
X71361Y-14741D01*
Y-14747D01*
X71354Y-14754D01*
X71321Y-14793D01*
X71275Y-14852D01*
X71210Y-14918D01*
X71125Y-14996D01*
X71020Y-15082D01*
X70901Y-15160D01*
X70764Y-15233D01*
X70757D01*
X70744Y-15239D01*
X70724Y-15246D01*
X70698Y-15259D01*
X70659Y-15272D01*
X70613Y-15292D01*
X70508Y-15318D01*
X70383Y-15351D01*
X70232Y-15383D01*
X70068Y-15403D01*
X69891Y-15410D01*
X69786D01*
X69734Y-15403D01*
X69675D01*
X69609Y-15397D01*
X69530Y-15390D01*
X69366Y-15364D01*
X69196Y-15338D01*
X69025Y-15292D01*
X68861Y-15233D01*
X68855D01*
X68842Y-15226D01*
X68822Y-15213D01*
X68796Y-15200D01*
X68717Y-15160D01*
X68625Y-15101D01*
X68520Y-15023D01*
X68409Y-14931D01*
X68304Y-14819D01*
X68205Y-14695D01*
Y-14688D01*
X68192Y-14675D01*
X68186Y-14655D01*
X68166Y-14629D01*
X68153Y-14596D01*
X68133Y-14557D01*
X68087Y-14458D01*
X68041Y-14334D01*
X68002Y-14196D01*
X67976Y-14039D01*
X67963Y-13875D01*
X68527Y-13822D01*
Y-13829D01*
Y-13835D01*
X68533Y-13855D01*
Y-13881D01*
X68546Y-13940D01*
X68566Y-14026D01*
X68592Y-14111D01*
X68619Y-14209D01*
X68664Y-14301D01*
X68710Y-14386D01*
X68717Y-14393D01*
X68737Y-14419D01*
X68769Y-14465D01*
X68822Y-14511D01*
X68888Y-14570D01*
X68960Y-14629D01*
X69058Y-14688D01*
X69163Y-14741D01*
X69170D01*
X69176Y-14747D01*
X69196Y-14754D01*
X69216Y-14760D01*
X69281Y-14780D01*
X69366Y-14806D01*
X69471Y-14832D01*
X69589Y-14852D01*
X69721Y-14865D01*
X69865Y-14872D01*
X69924D01*
X69990Y-14865D01*
X70068Y-14859D01*
X70160Y-14846D01*
X70265Y-14832D01*
X70370Y-14806D01*
X70468Y-14773D01*
X70482Y-14767D01*
X70514Y-14754D01*
X70560Y-14728D01*
X70619Y-14701D01*
X70678Y-14655D01*
X70744Y-14609D01*
X70810Y-14557D01*
X70862Y-14491D01*
X70869Y-14485D01*
X70882Y-14458D01*
X70901Y-14426D01*
X70928Y-14373D01*
X70954Y-14321D01*
X70974Y-14255D01*
X70987Y-14183D01*
X70993Y-14104D01*
Y-14098D01*
Y-14065D01*
X70987Y-14026D01*
X70980Y-13973D01*
X70960Y-13921D01*
X70941Y-13855D01*
X70908Y-13789D01*
X70862Y-13730D01*
X70855Y-13724D01*
X70836Y-13704D01*
X70810Y-13678D01*
X70764Y-13638D01*
X70711Y-13599D01*
X70639Y-13553D01*
X70554Y-13507D01*
X70455Y-13468D01*
X70449Y-13461D01*
X70416Y-13455D01*
X70363Y-13435D01*
X70331Y-13429D01*
X70285Y-13416D01*
X70239Y-13396D01*
X70180Y-13383D01*
X70114Y-13363D01*
X70035Y-13343D01*
X69957Y-13324D01*
X69865Y-13297D01*
X69760Y-13271D01*
X69648Y-13245D01*
X69642D01*
X69622Y-13238D01*
X69589Y-13232D01*
X69550Y-13219D01*
X69498Y-13206D01*
X69439Y-13192D01*
X69307Y-13153D01*
X69163Y-13107D01*
X69012Y-13061D01*
X68881Y-13015D01*
X68822Y-12989D01*
X68769Y-12963D01*
X68763D01*
X68756Y-12956D01*
X68717Y-12930D01*
X68658Y-12897D01*
X68592Y-12845D01*
X68514Y-12786D01*
X68435Y-12714D01*
X68356Y-12628D01*
X68291Y-12536D01*
X68284Y-12523D01*
X68264Y-12490D01*
X68238Y-12438D01*
X68212Y-12372D01*
X68186Y-12287D01*
X68159Y-12189D01*
X68140Y-12084D01*
X68133Y-11972D01*
Y-11966D01*
Y-11959D01*
Y-11940D01*
Y-11913D01*
X68146Y-11848D01*
X68159Y-11762D01*
X68179Y-11664D01*
X68212Y-11552D01*
X68258Y-11441D01*
X68323Y-11329D01*
Y-11323D01*
X68330Y-11316D01*
X68363Y-11277D01*
X68409Y-11224D01*
X68468Y-11159D01*
X68546Y-11087D01*
X68645Y-11008D01*
X68763Y-10936D01*
X68894Y-10870D01*
X68901D01*
X68914Y-10864D01*
X68933Y-10857D01*
X68960Y-10844D01*
X68993Y-10831D01*
X69038Y-10818D01*
X69137Y-10791D01*
X69261Y-10765D01*
X69406Y-10739D01*
X69557Y-10719D01*
X69727Y-10713D01*
X69813D01*
X69858Y-10719D01*
D02*
G37*
G36*
X76399D02*
X76451D01*
X76576Y-10732D01*
X76714Y-10752D01*
X76858Y-10785D01*
X77015Y-10824D01*
X77166Y-10877D01*
X77173D01*
X77186Y-10883D01*
X77206Y-10890D01*
X77232Y-10903D01*
X77304Y-10942D01*
X77396Y-10988D01*
X77494Y-11054D01*
X77599Y-11133D01*
X77698Y-11218D01*
X77789Y-11323D01*
X77803Y-11336D01*
X77829Y-11375D01*
X77868Y-11434D01*
X77921Y-11520D01*
X77973Y-11625D01*
X78032Y-11756D01*
X78091Y-11900D01*
X78137Y-12064D01*
X77593Y-12208D01*
Y-12202D01*
X77586Y-12195D01*
X77579Y-12176D01*
X77573Y-12149D01*
X77553Y-12090D01*
X77527Y-12012D01*
X77488Y-11920D01*
X77442Y-11834D01*
X77396Y-11743D01*
X77337Y-11664D01*
X77330Y-11657D01*
X77311Y-11631D01*
X77271Y-11598D01*
X77225Y-11552D01*
X77166Y-11500D01*
X77087Y-11447D01*
X77002Y-11395D01*
X76904Y-11349D01*
X76891Y-11343D01*
X76858Y-11329D01*
X76799Y-11310D01*
X76720Y-11283D01*
X76628Y-11264D01*
X76523Y-11244D01*
X76405Y-11231D01*
X76281Y-11224D01*
X76209D01*
X76176Y-11231D01*
X76136D01*
X76038Y-11238D01*
X75926Y-11257D01*
X75802Y-11277D01*
X75684Y-11310D01*
X75566Y-11356D01*
X75552Y-11362D01*
X75513Y-11375D01*
X75461Y-11408D01*
X75395Y-11441D01*
X75316Y-11493D01*
X75231Y-11546D01*
X75152Y-11611D01*
X75080Y-11684D01*
X75074Y-11690D01*
X75047Y-11716D01*
X75015Y-11762D01*
X74975Y-11815D01*
X74929Y-11880D01*
X74883Y-11959D01*
X74837Y-12044D01*
X74792Y-12136D01*
Y-12143D01*
X74785Y-12156D01*
X74778Y-12176D01*
X74765Y-12208D01*
X74752Y-12248D01*
X74739Y-12294D01*
X74719Y-12346D01*
X74706Y-12405D01*
X74673Y-12543D01*
X74647Y-12700D01*
X74628Y-12864D01*
X74621Y-13048D01*
Y-13055D01*
Y-13074D01*
Y-13107D01*
X74628Y-13147D01*
Y-13199D01*
X74634Y-13265D01*
X74641Y-13330D01*
X74647Y-13402D01*
X74673Y-13566D01*
X74706Y-13737D01*
X74759Y-13907D01*
X74824Y-14072D01*
Y-14078D01*
X74837Y-14091D01*
X74844Y-14111D01*
X74864Y-14137D01*
X74910Y-14209D01*
X74982Y-14301D01*
X75067Y-14400D01*
X75172Y-14498D01*
X75297Y-14590D01*
X75434Y-14675D01*
X75441D01*
X75454Y-14682D01*
X75474Y-14695D01*
X75507Y-14708D01*
X75539Y-14721D01*
X75585Y-14734D01*
X75690Y-14773D01*
X75821Y-14806D01*
X75966Y-14839D01*
X76123Y-14865D01*
X76287Y-14872D01*
X76353D01*
X76392Y-14865D01*
X76432D01*
X76530Y-14852D01*
X76648Y-14839D01*
X76773Y-14813D01*
X76910Y-14773D01*
X77048Y-14728D01*
X77055D01*
X77068Y-14721D01*
X77081Y-14714D01*
X77107Y-14701D01*
X77179Y-14668D01*
X77258Y-14629D01*
X77350Y-14583D01*
X77448Y-14531D01*
X77540Y-14472D01*
X77619Y-14406D01*
Y-13553D01*
X76281D01*
Y-13015D01*
X78209D01*
Y-14701D01*
X78203Y-14708D01*
X78190Y-14714D01*
X78163Y-14734D01*
X78131Y-14760D01*
X78091Y-14786D01*
X78045Y-14819D01*
X77986Y-14859D01*
X77927Y-14898D01*
X77789Y-14983D01*
X77632Y-15075D01*
X77468Y-15160D01*
X77291Y-15233D01*
X77284D01*
X77271Y-15239D01*
X77245Y-15246D01*
X77212Y-15259D01*
X77166Y-15272D01*
X77114Y-15292D01*
X77055Y-15305D01*
X76996Y-15318D01*
X76851Y-15351D01*
X76687Y-15383D01*
X76510Y-15403D01*
X76327Y-15410D01*
X76261D01*
X76215Y-15403D01*
X76156D01*
X76084Y-15397D01*
X76005Y-15383D01*
X75920Y-15377D01*
X75730Y-15338D01*
X75526Y-15292D01*
X75316Y-15220D01*
X75211Y-15180D01*
X75106Y-15128D01*
X75100Y-15121D01*
X75080Y-15114D01*
X75054Y-15095D01*
X75015Y-15075D01*
X74969Y-15042D01*
X74923Y-15010D01*
X74798Y-14918D01*
X74667Y-14800D01*
X74529Y-14655D01*
X74398Y-14491D01*
X74280Y-14301D01*
Y-14295D01*
X74267Y-14275D01*
X74254Y-14249D01*
X74234Y-14203D01*
X74214Y-14157D01*
X74195Y-14091D01*
X74168Y-14026D01*
X74142Y-13947D01*
X74116Y-13862D01*
X74090Y-13763D01*
X74070Y-13665D01*
X74050Y-13560D01*
X74017Y-13330D01*
X74004Y-13088D01*
Y-13081D01*
Y-13055D01*
Y-13022D01*
X74011Y-12976D01*
Y-12917D01*
X74017Y-12845D01*
X74031Y-12773D01*
X74037Y-12687D01*
X74057Y-12596D01*
X74070Y-12497D01*
X74122Y-12287D01*
X74188Y-12071D01*
X74280Y-11854D01*
X74286Y-11848D01*
X74293Y-11828D01*
X74306Y-11802D01*
X74332Y-11762D01*
X74359Y-11710D01*
X74391Y-11657D01*
X74483Y-11533D01*
X74595Y-11388D01*
X74733Y-11251D01*
X74890Y-11113D01*
X74982Y-11054D01*
X75074Y-10995D01*
X75080Y-10988D01*
X75100Y-10982D01*
X75126Y-10969D01*
X75165Y-10949D01*
X75218Y-10929D01*
X75277Y-10903D01*
X75343Y-10877D01*
X75421Y-10851D01*
X75507Y-10824D01*
X75598Y-10805D01*
X75697Y-10778D01*
X75802Y-10759D01*
X76031Y-10726D01*
X76149Y-10713D01*
X76359D01*
X76399Y-10719D01*
D02*
G37*
G36*
X126611Y173296D02*
X125969Y173211D01*
X124653Y172859D01*
X123395Y172338D01*
X122216Y171657D01*
X121135Y170828D01*
X120172Y169865D01*
X119343Y168784D01*
X118662Y167605D01*
X118141Y166347D01*
X117789Y165031D01*
X117611Y163681D01*
Y162319D01*
X117789Y160969D01*
X118141Y159653D01*
X118662Y158395D01*
X119343Y157216D01*
X120172Y156135D01*
X121135Y155172D01*
X122216Y154343D01*
X123395Y153662D01*
X124653Y153141D01*
X125969Y152789D01*
X127319Y152611D01*
X128681D01*
X130031Y152789D01*
X131347Y153141D01*
X132605Y153662D01*
X133784Y154343D01*
X134865Y155172D01*
X135828Y156135D01*
X136657Y157216D01*
X137338Y158395D01*
X137859Y159653D01*
X138211Y160969D01*
X138296Y161611D01*
X138796Y161578D01*
Y1204D01*
X119532D01*
X119433Y1704D01*
X120135Y1995D01*
X121030Y2682D01*
X121717Y3577D01*
X122148Y4619D01*
X122296Y5737D01*
X122148Y6856D01*
X121717Y7898D01*
X121030Y8793D01*
X120135Y9480D01*
X119093Y9911D01*
X117974Y10059D01*
X116856Y9911D01*
X115814Y9480D01*
X114919Y8793D01*
X114232Y7898D01*
X113801Y6856D01*
X113653Y5737D01*
X113801Y4619D01*
X114232Y3577D01*
X114919Y2682D01*
X115814Y1995D01*
X116516Y1704D01*
X116417Y1204D01*
X93540D01*
X93440Y1704D01*
X94143Y1995D01*
X95038Y2682D01*
X95725Y3577D01*
X96156Y4619D01*
X96303Y5737D01*
X96156Y6856D01*
X95725Y7898D01*
X95038Y8793D01*
X94143Y9480D01*
X93101Y9911D01*
X91982Y10059D01*
X90864Y9911D01*
X89822Y9480D01*
X88927Y8793D01*
X88240Y7898D01*
X87808Y6856D01*
X87661Y5737D01*
X87808Y4619D01*
X88240Y3577D01*
X88927Y2682D01*
X89822Y1995D01*
X90524Y1704D01*
X90425Y1204D01*
X1204D01*
Y161578D01*
X1704Y161611D01*
X1789Y160969D01*
X2141Y159653D01*
X2662Y158395D01*
X3343Y157216D01*
X4172Y156135D01*
X5135Y155172D01*
X6216Y154343D01*
X7395Y153662D01*
X8653Y153141D01*
X9969Y152789D01*
X11319Y152611D01*
X12681D01*
X14031Y152789D01*
X15347Y153141D01*
X16605Y153662D01*
X17784Y154343D01*
X18865Y155172D01*
X19828Y156135D01*
X20657Y157216D01*
X21338Y158395D01*
X21859Y159653D01*
X22211Y160969D01*
X22389Y162319D01*
Y163681D01*
X22211Y165031D01*
X21859Y166347D01*
X21338Y167605D01*
X20657Y168784D01*
X19828Y169865D01*
X18865Y170828D01*
X17784Y171657D01*
X16605Y172338D01*
X15347Y172859D01*
X14031Y173211D01*
X13389Y173296D01*
X13422Y173796D01*
X126578D01*
X126611Y173296D01*
D02*
G37*
G36*
X73099Y-15331D02*
X72496D01*
Y-10791D01*
X73099D01*
Y-15331D01*
D02*
G37*
G36*
X80479Y-10778D02*
X80564Y-10791D01*
X80663Y-10811D01*
X80768Y-10837D01*
X80879Y-10870D01*
X80984Y-10923D01*
X80991D01*
X80997Y-10929D01*
X81030Y-10949D01*
X81083Y-10982D01*
X81148Y-11028D01*
X81220Y-11093D01*
X81299Y-11165D01*
X81371Y-11251D01*
X81443Y-11349D01*
X81450Y-11362D01*
X81476Y-11395D01*
X81502Y-11454D01*
X81548Y-11539D01*
X81588Y-11638D01*
X81640Y-11749D01*
X81686Y-11880D01*
X81725Y-12025D01*
Y-12031D01*
X81732Y-12044D01*
X81739Y-12064D01*
X81745Y-12097D01*
X81752Y-12136D01*
X81758Y-12182D01*
X81771Y-12241D01*
X81778Y-12307D01*
X81791Y-12379D01*
X81798Y-12458D01*
X81804Y-12550D01*
X81817Y-12641D01*
X81824Y-12746D01*
Y-12851D01*
X81830Y-12969D01*
Y-13094D01*
Y-13101D01*
Y-13127D01*
Y-13173D01*
Y-13225D01*
X81824Y-13297D01*
Y-13376D01*
X81817Y-13461D01*
X81811Y-13553D01*
X81791Y-13763D01*
X81758Y-13980D01*
X81719Y-14190D01*
X81693Y-14288D01*
X81660Y-14386D01*
Y-14393D01*
X81653Y-14406D01*
X81640Y-14432D01*
X81627Y-14465D01*
X81614Y-14511D01*
X81588Y-14557D01*
X81535Y-14668D01*
X81470Y-14786D01*
X81384Y-14918D01*
X81286Y-15036D01*
X81168Y-15147D01*
X81161D01*
X81155Y-15160D01*
X81135Y-15174D01*
X81109Y-15187D01*
X81076Y-15206D01*
X81043Y-15233D01*
X80945Y-15279D01*
X80827Y-15324D01*
X80689Y-15370D01*
X80525Y-15397D01*
X80348Y-15410D01*
X80282D01*
X80236Y-15403D01*
X80184Y-15397D01*
X80118Y-15383D01*
X80046Y-15370D01*
X79967Y-15351D01*
X79889Y-15324D01*
X79803Y-15298D01*
X79718Y-15259D01*
X79633Y-15213D01*
X79548Y-15160D01*
X79462Y-15095D01*
X79383Y-15023D01*
X79311Y-14944D01*
X79305Y-14937D01*
X79292Y-14918D01*
X79272Y-14885D01*
X79239Y-14832D01*
X79206Y-14773D01*
X79174Y-14695D01*
X79128Y-14603D01*
X79088Y-14498D01*
X79049Y-14380D01*
X79010Y-14242D01*
X78970Y-14091D01*
X78937Y-13921D01*
X78905Y-13737D01*
X78885Y-13540D01*
X78872Y-13324D01*
X78865Y-13094D01*
Y-13088D01*
Y-13061D01*
Y-13015D01*
Y-12963D01*
X78872Y-12891D01*
Y-12812D01*
X78878Y-12727D01*
X78885Y-12628D01*
X78905Y-12425D01*
X78937Y-12208D01*
X78977Y-11992D01*
X79003Y-11894D01*
X79029Y-11795D01*
Y-11789D01*
X79036Y-11776D01*
X79049Y-11749D01*
X79062Y-11716D01*
X79075Y-11671D01*
X79101Y-11625D01*
X79154Y-11513D01*
X79220Y-11395D01*
X79305Y-11270D01*
X79403Y-11146D01*
X79521Y-11041D01*
X79528D01*
X79534Y-11028D01*
X79554Y-11015D01*
X79580Y-11001D01*
X79613Y-10975D01*
X79653Y-10955D01*
X79751Y-10903D01*
X79869Y-10857D01*
X80007Y-10811D01*
X80171Y-10785D01*
X80348Y-10772D01*
X80407D01*
X80479Y-10778D01*
D02*
G37*
%LPC*%
G36*
X84179Y-11697D02*
X82749Y-13730D01*
X84179D01*
Y-11697D01*
D02*
G37*
G36*
X132576Y109653D02*
X131808Y109500D01*
X131157Y109065D01*
X130722Y108414D01*
X130569Y107646D01*
X130722Y106878D01*
X131157Y106227D01*
X131808Y105792D01*
X132576Y105639D01*
X133344Y105792D01*
X133995Y106227D01*
X134430Y106878D01*
X134583Y107646D01*
X134430Y108414D01*
X133995Y109065D01*
X133344Y109500D01*
X132576Y109653D01*
D02*
G37*
G36*
X31214Y108776D02*
X30446Y108623D01*
X29795Y108188D01*
X29360Y107537D01*
X29207Y106769D01*
X29360Y106001D01*
X29713Y105473D01*
X29763Y105138D01*
X29713Y104804D01*
X29360Y104276D01*
X29207Y103507D01*
X29360Y102739D01*
X29795Y102088D01*
X30446Y101653D01*
X31214Y101500D01*
X31983Y101653D01*
X32634Y102088D01*
X33069Y102739D01*
X33222Y103507D01*
X33069Y104276D01*
X32716Y104804D01*
X32666Y105138D01*
X32716Y105473D01*
X33069Y106001D01*
X33222Y106769D01*
X33069Y107537D01*
X32634Y108188D01*
X31983Y108623D01*
X31214Y108776D01*
D02*
G37*
G36*
X84876Y30776D02*
X84108Y30623D01*
X83457Y30188D01*
X83195D01*
X82544Y30623D01*
X81776Y30776D01*
X81008Y30623D01*
X80357Y30188D01*
X80095D01*
X79444Y30623D01*
X78676Y30776D01*
X77908Y30623D01*
X77257Y30188D01*
X76822Y29537D01*
X76669Y28769D01*
X76822Y28001D01*
X77257Y27350D01*
X77908Y26915D01*
X78676Y26762D01*
X79444Y26915D01*
X80095Y27350D01*
X80357D01*
X81008Y26915D01*
X81776Y26762D01*
X82544Y26915D01*
X83195Y27350D01*
X83457D01*
X84108Y26915D01*
X84876Y26762D01*
X85644Y26915D01*
X86295Y27350D01*
X86730Y28001D01*
X86883Y28769D01*
X86730Y29537D01*
X86295Y30188D01*
X85644Y30623D01*
X84876Y30776D01*
D02*
G37*
G36*
X23176Y106976D02*
X22408Y106823D01*
X21757Y106388D01*
X21322Y105737D01*
X21169Y104969D01*
X21322Y104201D01*
X21757Y103550D01*
X22408Y103115D01*
X23176Y102962D01*
X23944Y103115D01*
X24595Y103550D01*
X25030Y104201D01*
X25183Y104969D01*
X25030Y105737D01*
X24595Y106388D01*
X23944Y106823D01*
X23176Y106976D01*
D02*
G37*
G36*
X48143Y32676D02*
X47375Y32523D01*
X46723Y32088D01*
X46609Y31917D01*
X46109D01*
X45995Y32088D01*
X45344Y32523D01*
X44576Y32676D01*
X43808Y32523D01*
X43157Y32088D01*
X42722Y31437D01*
X42569Y30669D01*
X42722Y29901D01*
X43157Y29250D01*
X43808Y28815D01*
X44576Y28662D01*
X45344Y28815D01*
X45995Y29250D01*
X46109Y29421D01*
X46609D01*
X46723Y29250D01*
X47375Y28815D01*
X48143Y28662D01*
X48911Y28815D01*
X49321Y29089D01*
X49912Y28992D01*
X49957Y28958D01*
X49977Y28921D01*
X49922Y28837D01*
X49769Y28069D01*
X49922Y27301D01*
X50357Y26650D01*
X50424Y26605D01*
X50022Y26004D01*
X49869Y25236D01*
X50022Y24468D01*
X50299Y24052D01*
X50022Y23637D01*
X49869Y22869D01*
X50022Y22101D01*
X50457Y21450D01*
X51108Y21015D01*
X51876Y20862D01*
X52644Y21015D01*
X53295Y21450D01*
X53730Y22101D01*
X53883Y22869D01*
X53730Y23637D01*
X53453Y24052D01*
X53730Y24468D01*
X53883Y25236D01*
X53730Y26004D01*
X53295Y26655D01*
X53228Y26700D01*
X53630Y27301D01*
X53783Y28069D01*
X53630Y28837D01*
X53308Y29319D01*
X53630Y29801D01*
X53783Y30569D01*
X53630Y31337D01*
X53195Y31988D01*
X52544Y32423D01*
X51776Y32576D01*
X51008Y32423D01*
X50357Y31988D01*
X50243Y31817D01*
X49743D01*
X49562Y32088D01*
X48911Y32523D01*
X48143Y32676D01*
D02*
G37*
G36*
X8492Y39984D02*
X4508D01*
X2516Y37992D01*
Y34008D01*
X4508Y32016D01*
X8492D01*
X10484Y34008D01*
Y37992D01*
X8492Y39984D01*
D02*
G37*
G36*
X99776Y110276D02*
X99008Y110123D01*
X98357Y109688D01*
X97922Y109037D01*
X97769Y108269D01*
X97922Y107501D01*
X98357Y106850D01*
X99008Y106415D01*
X99776Y106262D01*
X100544Y106415D01*
X101195Y106850D01*
X101630Y107501D01*
X101783Y108269D01*
X101630Y109037D01*
X101195Y109688D01*
X100544Y110123D01*
X99776Y110276D01*
D02*
G37*
G36*
X120876Y121076D02*
X120108Y120923D01*
X119457Y120488D01*
X119022Y119837D01*
X118869Y119069D01*
X119022Y118301D01*
X119457Y117650D01*
X120108Y117215D01*
X120876Y117062D01*
X121026Y116582D01*
X121122Y116101D01*
X121557Y115450D01*
X122208Y115015D01*
X122976Y114862D01*
X123066Y114880D01*
X123239Y114701D01*
X123407Y114438D01*
X123269Y113744D01*
X123422Y112976D01*
X123857Y112325D01*
X124508Y111890D01*
X125276Y111737D01*
X126044Y111890D01*
X126695Y112325D01*
X127130Y112976D01*
X127283Y113744D01*
X127130Y114513D01*
X126695Y115164D01*
X126044Y115599D01*
X125276Y115752D01*
X125186Y115734D01*
X125013Y115913D01*
X124845Y116176D01*
X124983Y116869D01*
X124830Y117637D01*
X124395Y118288D01*
X123744Y118723D01*
X122976Y118876D01*
X122826Y119356D01*
X122730Y119837D01*
X122295Y120488D01*
X121644Y120923D01*
X120876Y121076D01*
D02*
G37*
G36*
X98276Y116876D02*
X97508Y116723D01*
X96857Y116288D01*
X96422Y115637D01*
X96269Y114869D01*
X96422Y114101D01*
X96857Y113450D01*
X97508Y113015D01*
X98276Y112862D01*
X98715Y112949D01*
X99154Y112679D01*
X99188Y112572D01*
X99322Y111901D01*
X99757Y111250D01*
X100408Y110815D01*
X101176Y110662D01*
X101944Y110815D01*
X102595Y111250D01*
X103030Y111901D01*
X103183Y112669D01*
X103030Y113437D01*
X102595Y114088D01*
X101944Y114523D01*
X101176Y114676D01*
X100737Y114589D01*
X100298Y114859D01*
X100264Y114966D01*
X100130Y115637D01*
X99695Y116288D01*
X99044Y116723D01*
X98276Y116876D01*
D02*
G37*
G36*
X11256Y119157D02*
X10411Y118989D01*
X9695Y118510D01*
X9216Y117794D01*
X9048Y116949D01*
X9216Y116104D01*
X9695Y115388D01*
X10411Y114909D01*
X11256Y114741D01*
X12101Y114909D01*
X12817Y115388D01*
X13296Y116104D01*
X13464Y116949D01*
X13296Y117794D01*
X12817Y118510D01*
X12101Y118989D01*
X11256Y119157D01*
D02*
G37*
G36*
X122500Y25500D02*
X119000D01*
Y22000D01*
X120500D01*
X122500Y24000D01*
Y25500D01*
D02*
G37*
G36*
X118000Y30000D02*
X116500D01*
X114500Y28000D01*
Y26500D01*
X118000D01*
Y30000D01*
D02*
G37*
G36*
X120500D02*
X119000D01*
Y26500D01*
X122500D01*
Y28000D01*
X120500Y30000D01*
D02*
G37*
G36*
X8492Y29984D02*
X4508D01*
X2516Y27992D01*
Y24008D01*
X4508Y22016D01*
X8492D01*
X10484Y24008D01*
Y27992D01*
X8492Y29984D01*
D02*
G37*
G36*
X32437Y28767D02*
Y25500D01*
X35704D01*
X35639Y25992D01*
X35256Y26916D01*
X34647Y27710D01*
X33853Y28319D01*
X32929Y28702D01*
X32437Y28767D01*
D02*
G37*
G36*
X120492Y39984D02*
X116508D01*
X114516Y37992D01*
Y34008D01*
X116508Y32016D01*
X120492D01*
X122484Y34008D01*
Y37992D01*
X120492Y39984D01*
D02*
G37*
G36*
X8492Y69984D02*
X4508D01*
X2516Y67992D01*
Y64008D01*
X4508Y62016D01*
X8492D01*
X10484Y64008D01*
Y67992D01*
X8492Y69984D01*
D02*
G37*
G36*
X30276Y64776D02*
X29508Y64623D01*
X28857Y64188D01*
X28422Y63537D01*
X28269Y62769D01*
X28422Y62001D01*
X28857Y61350D01*
X29508Y60915D01*
X30276Y60762D01*
X31044Y60915D01*
X31695Y61350D01*
X32130Y62001D01*
X32283Y62769D01*
X32130Y63537D01*
X31695Y64188D01*
X31044Y64623D01*
X30276Y64776D01*
D02*
G37*
G36*
X25276D02*
X24508Y64623D01*
X23857Y64188D01*
X23422Y63537D01*
X23269Y62769D01*
X23422Y62001D01*
X23857Y61350D01*
X24508Y60915D01*
X25276Y60762D01*
X26044Y60915D01*
X26695Y61350D01*
X27130Y62001D01*
X27283Y62769D01*
X27130Y63537D01*
X26695Y64188D01*
X26044Y64623D01*
X25276Y64776D01*
D02*
G37*
G36*
X135492Y69984D02*
X131508D01*
X129516Y67992D01*
Y64008D01*
X131508Y62016D01*
X135492D01*
X137484Y64008D01*
Y67992D01*
X135492Y69984D01*
D02*
G37*
G36*
X8492Y79984D02*
X4508D01*
X2516Y77992D01*
Y74008D01*
X4508Y72016D01*
X8492D01*
X10484Y74008D01*
Y77992D01*
X8492Y79984D01*
D02*
G37*
G36*
X120492D02*
X116508D01*
X114516Y77992D01*
Y74008D01*
X116508Y72016D01*
X120492D01*
X122484Y74008D01*
Y77992D01*
X120492Y79984D01*
D02*
G37*
G36*
X135492D02*
X131508D01*
X129516Y77992D01*
Y74008D01*
X131508Y72016D01*
X135492D01*
X137484Y74008D01*
Y77992D01*
X135492Y79984D01*
D02*
G37*
G36*
X37376Y56276D02*
X36608Y56123D01*
X35957Y55688D01*
X35522Y55037D01*
X35369Y54269D01*
X35522Y53501D01*
X35957Y52850D01*
X36608Y52415D01*
X37376Y52262D01*
X38144Y52415D01*
X38795Y52850D01*
X39230Y53501D01*
X39383Y54269D01*
X39230Y55037D01*
X38795Y55688D01*
X38144Y56123D01*
X37376Y56276D01*
D02*
G37*
G36*
X135492Y49984D02*
X131508D01*
X129516Y47992D01*
Y44008D01*
X131508Y42016D01*
X135492D01*
X137484Y44008D01*
Y47992D01*
X135492Y49984D01*
D02*
G37*
G36*
X8492D02*
X4508D01*
X2516Y47992D01*
Y44008D01*
X4508Y42016D01*
X8492D01*
X10484Y44008D01*
Y47992D01*
X8492Y49984D01*
D02*
G37*
G36*
X106876Y102976D02*
X106108Y102823D01*
X105457Y102388D01*
X105022Y101737D01*
X104869Y100969D01*
X105022Y100201D01*
X105457Y99550D01*
X106108Y99115D01*
X106876Y98962D01*
X107644Y99115D01*
X108295Y99550D01*
X108730Y100201D01*
X108883Y100969D01*
X108730Y101737D01*
X108295Y102388D01*
X107644Y102823D01*
X106876Y102976D01*
D02*
G37*
G36*
X25776Y53676D02*
X25008Y53523D01*
X24357Y53088D01*
X23922Y52437D01*
X23769Y51669D01*
X23922Y50901D01*
X24357Y50250D01*
X25008Y49815D01*
X25776Y49662D01*
X26544Y49815D01*
X27195Y50250D01*
X27630Y50901D01*
X27783Y51669D01*
X27630Y52437D01*
X27195Y53088D01*
X26544Y53523D01*
X25776Y53676D01*
D02*
G37*
G36*
X135492Y59984D02*
X131508D01*
X129516Y57992D01*
Y54008D01*
X131508Y52016D01*
X135492D01*
X137484Y54008D01*
Y57992D01*
X135492Y59984D01*
D02*
G37*
G36*
X8492D02*
X4508D01*
X2516Y57992D01*
Y54008D01*
X4508Y52016D01*
X8492D01*
X10484Y54008D01*
Y57992D01*
X8492Y59984D01*
D02*
G37*
G36*
X110576Y98276D02*
X109808Y98123D01*
X109157Y97688D01*
X108722Y97037D01*
X108569Y96269D01*
X108722Y95501D01*
X109157Y94850D01*
X109808Y94415D01*
X110576Y94262D01*
X111344Y94415D01*
X111995Y94850D01*
X112430Y95501D01*
X112583Y96269D01*
X112430Y97037D01*
X111995Y97688D01*
X111344Y98123D01*
X110576Y98276D01*
D02*
G37*
G36*
X118000Y25500D02*
X114500D01*
Y24000D01*
X116500Y22000D01*
X118000D01*
Y25500D01*
D02*
G37*
G36*
X36476Y142776D02*
X35708Y142623D01*
X35057Y142188D01*
X34622Y141537D01*
X34469Y140769D01*
X34622Y140001D01*
X35057Y139350D01*
X35708Y138915D01*
X36476Y138762D01*
X37244Y138915D01*
X37895Y139350D01*
X38330Y140001D01*
X38483Y140769D01*
X38330Y141537D01*
X37895Y142188D01*
X37244Y142623D01*
X36476Y142776D01*
D02*
G37*
G36*
X112676Y167076D02*
X111908Y166923D01*
X111576Y166701D01*
X111244Y166923D01*
X110476Y167076D01*
X109708Y166923D01*
X109057Y166488D01*
X108622Y165837D01*
X108469Y165069D01*
X108622Y164301D01*
X109057Y163650D01*
X109708Y163215D01*
X110476Y163062D01*
X111244Y163215D01*
X111576Y163436D01*
X111908Y163215D01*
X112676Y163062D01*
X113444Y163215D01*
X114095Y163650D01*
X114530Y164301D01*
X114683Y165069D01*
X114530Y165837D01*
X114095Y166488D01*
X113444Y166923D01*
X112676Y167076D01*
D02*
G37*
G36*
X85076Y163476D02*
X84308Y163323D01*
X83657Y162888D01*
X83222Y162237D01*
X83069Y161469D01*
X83222Y160701D01*
X83657Y160050D01*
X84308Y159615D01*
X84820Y159513D01*
X84922Y159001D01*
X85357Y158350D01*
X86008Y157915D01*
X86776Y157762D01*
X87544Y157915D01*
X88195Y158350D01*
X88630Y159001D01*
X88783Y159769D01*
X88630Y160537D01*
X88195Y161188D01*
X87544Y161623D01*
X87032Y161725D01*
X86930Y162237D01*
X86495Y162888D01*
X85844Y163323D01*
X85076Y163476D01*
D02*
G37*
G36*
X130000Y149423D02*
X128649Y149290D01*
X127351Y148896D01*
X126154Y148256D01*
X125105Y147395D01*
X124244Y146346D01*
X123604Y145149D01*
X123210Y143851D01*
X123077Y142500D01*
X123210Y141149D01*
X123604Y139851D01*
X124244Y138654D01*
X125105Y137605D01*
X126154Y136744D01*
X127351Y136104D01*
X128649Y135710D01*
X130000Y135577D01*
X131351Y135710D01*
X132649Y136104D01*
X133846Y136744D01*
X134895Y137605D01*
X135756Y138654D01*
X136396Y139851D01*
X136790Y141149D01*
X136923Y142500D01*
X136790Y143851D01*
X136396Y145149D01*
X135756Y146346D01*
X134895Y147395D01*
X133846Y148256D01*
X132649Y148896D01*
X131351Y149290D01*
X130000Y149423D01*
D02*
G37*
G36*
X133000Y5500D02*
X129500D01*
Y4000D01*
X131500Y2000D01*
X133000D01*
Y5500D01*
D02*
G37*
G36*
X35039Y172913D02*
X34271Y172760D01*
X33620Y172325D01*
X33185Y171674D01*
X33032Y170905D01*
X33185Y170137D01*
X33620Y169486D01*
X34271Y169051D01*
X35039Y168898D01*
X35808Y169051D01*
X36459Y169486D01*
X36894Y170137D01*
X37047Y170905D01*
X36894Y171674D01*
X36459Y172325D01*
X35808Y172760D01*
X35039Y172913D01*
D02*
G37*
G36*
X10000Y149423D02*
X8649Y149290D01*
X7351Y148896D01*
X6154Y148256D01*
X5105Y147395D01*
X4244Y146346D01*
X3604Y145149D01*
X3210Y143851D01*
X3077Y142500D01*
X3210Y141149D01*
X3604Y139851D01*
X4244Y138654D01*
X5105Y137605D01*
X6154Y136744D01*
X7351Y136104D01*
X8649Y135710D01*
X10000Y135577D01*
X11351Y135710D01*
X12649Y136104D01*
X13846Y136744D01*
X14895Y137605D01*
X15756Y138654D01*
X16396Y139851D01*
X16790Y141149D01*
X16923Y142500D01*
X16790Y143851D01*
X16396Y145149D01*
X15756Y146346D01*
X14895Y147395D01*
X13846Y148256D01*
X12649Y148896D01*
X11351Y149290D01*
X10000Y149423D01*
D02*
G37*
G36*
X115476Y141576D02*
X114708Y141423D01*
X114426Y141235D01*
X114144Y141423D01*
X113376Y141576D01*
X112608Y141423D01*
X112326Y141235D01*
X112044Y141423D01*
X111276Y141576D01*
X110508Y141423D01*
X109857Y140988D01*
X109422Y140337D01*
X109269Y139569D01*
X109422Y138801D01*
X109857Y138150D01*
X110508Y137715D01*
X111276Y137562D01*
X112044Y137715D01*
X112326Y137903D01*
X112608Y137715D01*
X113376Y137562D01*
X114144Y137715D01*
X114426Y137903D01*
X114708Y137715D01*
X115476Y137562D01*
X116244Y137715D01*
X116895Y138150D01*
X117330Y138801D01*
X117483Y139569D01*
X117330Y140337D01*
X116895Y140988D01*
X116244Y141423D01*
X115476Y141576D01*
D02*
G37*
G36*
X39876Y151876D02*
X39108Y151723D01*
X38457Y151288D01*
X38022Y150637D01*
X37869Y149869D01*
X38022Y149101D01*
X38457Y148450D01*
X39108Y148015D01*
X39876Y147862D01*
X40644Y148015D01*
X41295Y148450D01*
X41730Y149101D01*
X41883Y149869D01*
X41730Y150637D01*
X41295Y151288D01*
X40644Y151723D01*
X39876Y151876D01*
D02*
G37*
G36*
X45576D02*
X44808Y151723D01*
X44157Y151288D01*
X43722Y150637D01*
X43569Y149869D01*
X43722Y149101D01*
X44157Y148450D01*
X44808Y148015D01*
X45576Y147862D01*
X46344Y148015D01*
X46995Y148450D01*
X47430Y149101D01*
X47583Y149869D01*
X47430Y150637D01*
X46995Y151288D01*
X46344Y151723D01*
X45576Y151876D01*
D02*
G37*
G36*
X97276Y149576D02*
X96508Y149423D01*
X95857Y148988D01*
X95422Y148337D01*
X95269Y147569D01*
X95422Y146801D01*
X95644Y146469D01*
X95422Y146137D01*
X95269Y145369D01*
X95422Y144601D01*
X95857Y143950D01*
X96508Y143515D01*
X97276Y143362D01*
X98044Y143515D01*
X98695Y143950D01*
X99130Y144601D01*
X99283Y145369D01*
X99130Y146137D01*
X98909Y146469D01*
X99130Y146801D01*
X99283Y147569D01*
X99130Y148337D01*
X98695Y148988D01*
X98044Y149423D01*
X97276Y149576D01*
D02*
G37*
G36*
X71776Y166927D02*
X55876D01*
X55394Y166832D01*
X54986Y166559D01*
X52086Y163659D01*
X51813Y163251D01*
X51718Y162769D01*
Y154864D01*
X51218Y154815D01*
X51191Y154947D01*
X50709Y155669D01*
X49986Y156152D01*
X49134Y156322D01*
X48282Y156152D01*
X47559Y155669D01*
X47076Y154947D01*
X46907Y154095D01*
X47076Y153242D01*
X47559Y152520D01*
X48282Y152037D01*
X49134Y151867D01*
X49986Y152037D01*
X50709Y152520D01*
X51191Y153242D01*
X51218Y153374D01*
X51718Y153325D01*
Y142769D01*
X51813Y142287D01*
X52086Y141879D01*
X54062Y139903D01*
X53944Y139516D01*
X53864Y139394D01*
X53257Y138988D01*
X52822Y138337D01*
X52721Y137832D01*
X52186Y137628D01*
X51744Y137923D01*
X50976Y138076D01*
X50208Y137923D01*
X49557Y137488D01*
X49122Y136837D01*
X48969Y136069D01*
X49000Y135914D01*
X48683Y135527D01*
X45876D01*
X45394Y135432D01*
X44986Y135159D01*
X28412Y118584D01*
X27861Y118741D01*
X27495Y119288D01*
X26844Y119723D01*
X26076Y119876D01*
X25308Y119723D01*
X24657Y119288D01*
X24222Y118637D01*
X24069Y117869D01*
X24222Y117101D01*
X24657Y116450D01*
X25204Y116084D01*
X25361Y115533D01*
X16783Y106955D01*
X16176Y107076D01*
X15408Y106923D01*
X14757Y106488D01*
X14322Y105837D01*
X14169Y105069D01*
X14322Y104301D01*
X14757Y103650D01*
X15408Y103215D01*
X16176Y103062D01*
X16944Y103215D01*
X17595Y103650D01*
X18030Y104301D01*
X18052Y104409D01*
X18076Y104471D01*
X18199Y104753D01*
X18219Y104793D01*
X18276Y104890D01*
X46397Y133011D01*
X50570D01*
X50838Y132511D01*
X50722Y132337D01*
X50569Y131569D01*
X50722Y130801D01*
X51157Y130150D01*
X51808Y129715D01*
X52576Y129562D01*
X53218Y129690D01*
X53718Y129409D01*
Y128769D01*
X53813Y128287D01*
X54086Y127879D01*
X54676Y127289D01*
X54485Y126827D01*
X53276D01*
X52794Y126732D01*
X52386Y126459D01*
X50015Y124088D01*
X49742Y123680D01*
X49647Y123198D01*
Y108209D01*
X49147Y108057D01*
X48953Y108346D01*
X48367Y108738D01*
X47971Y108817D01*
X47836Y109011D01*
X47953Y109655D01*
X48095Y109750D01*
X48530Y110401D01*
X48683Y111169D01*
X48530Y111937D01*
X48095Y112588D01*
X47444Y113023D01*
X46676Y113176D01*
X45908Y113023D01*
X45257Y112588D01*
X44949Y112127D01*
X44364Y112004D01*
X41510Y114859D01*
X41101Y115132D01*
X40620Y115227D01*
X34054D01*
X34051Y115229D01*
X34024Y115248D01*
X33988Y115275D01*
X33946Y115312D01*
X33895Y115388D01*
X33244Y115823D01*
X32476Y115976D01*
X31708Y115823D01*
X31057Y115388D01*
X30622Y114737D01*
X30469Y113969D01*
X30622Y113201D01*
X31057Y112550D01*
X31708Y112115D01*
X32476Y111962D01*
X33244Y112115D01*
X33895Y112550D01*
X33946Y112626D01*
X33988Y112663D01*
X34024Y112690D01*
X34051Y112709D01*
X34054Y112711D01*
X40099D01*
X44013Y108796D01*
X43739Y108363D01*
X43176Y108475D01*
X42485Y108338D01*
X41899Y107946D01*
X41507Y107360D01*
X41370Y106669D01*
X41507Y105978D01*
X41899Y105392D01*
X42485Y105000D01*
X43176Y104863D01*
X43867Y105000D01*
X44376Y105340D01*
X44885Y105000D01*
X45576Y104863D01*
X45918Y104931D01*
X46418Y104545D01*
Y101323D01*
X46031Y101005D01*
X45676Y101076D01*
X44908Y100923D01*
X44257Y100488D01*
X43822Y99837D01*
X43669Y99069D01*
X43789Y98463D01*
X43669Y98317D01*
X43669D01*
Y95276D01*
X41476D01*
X40708Y95123D01*
X40057Y94688D01*
X40006Y94612D01*
X39964Y94575D01*
X39928Y94548D01*
X39901Y94529D01*
X39898Y94527D01*
X24997D01*
X19466Y100059D01*
X19058Y100332D01*
X18576Y100427D01*
X17554D01*
X17551Y100429D01*
X17524Y100448D01*
X17488Y100475D01*
X17446Y100512D01*
X17395Y100588D01*
X16744Y101023D01*
X15976Y101176D01*
X15208Y101023D01*
X14557Y100588D01*
X14122Y99937D01*
X13969Y99169D01*
X14122Y98401D01*
X14557Y97750D01*
Y97288D01*
X14122Y96637D01*
X13969Y95869D01*
X14122Y95101D01*
X14557Y94450D01*
Y90088D01*
X14122Y89437D01*
X13969Y88669D01*
X14122Y87901D01*
X14557Y87250D01*
X15208Y86815D01*
X15976Y86662D01*
X16744Y86815D01*
X17395Y87250D01*
X17446Y87326D01*
X17488Y87363D01*
X17524Y87390D01*
X17551Y87409D01*
X17554Y87411D01*
X42576D01*
X42576Y83049D01*
X41186Y81659D01*
X40913Y81251D01*
X40818Y80769D01*
Y48869D01*
X40913Y48387D01*
X41186Y47979D01*
X44286Y44879D01*
X44694Y44606D01*
X45176Y44511D01*
X65855D01*
X74486Y35879D01*
X74894Y35606D01*
X75376Y35511D01*
X109269D01*
X109751Y35606D01*
X110159Y35879D01*
X116402Y42122D01*
X116508Y42016D01*
X120492D01*
X122484Y44008D01*
Y47992D01*
X120492Y49984D01*
Y52016D01*
X122484Y54008D01*
Y57992D01*
X120492Y59984D01*
Y62016D01*
X122484Y64008D01*
Y67992D01*
X120492Y69984D01*
X113553D01*
X113286Y70484D01*
X113430Y70701D01*
X113583Y71469D01*
X113430Y72237D01*
X112995Y72888D01*
X112552Y73184D01*
X112830Y73601D01*
X112983Y74369D01*
X112830Y75137D01*
X112395Y75788D01*
X111911Y76112D01*
Y76888D01*
X112044Y76915D01*
X112695Y77350D01*
X113130Y78001D01*
X113283Y78769D01*
Y81311D01*
X120355D01*
X123918Y77748D01*
Y34324D01*
X124013Y33842D01*
X124286Y33434D01*
X129622Y28098D01*
X129516Y27992D01*
Y24008D01*
X131508Y22016D01*
X135492D01*
X137484Y24008D01*
Y27992D01*
X135492Y29984D01*
Y32016D01*
X137484Y34008D01*
Y37992D01*
X135492Y39984D01*
X131508D01*
X131402Y39878D01*
X128934Y42345D01*
Y81669D01*
X128839Y82151D01*
X128566Y82559D01*
X118566Y92559D01*
X118158Y92832D01*
X117676Y92927D01*
X110154D01*
X110151Y92929D01*
X110124Y92948D01*
X110088Y92975D01*
X110046Y93012D01*
X109995Y93088D01*
X109344Y93523D01*
X108576Y93676D01*
X107808Y93523D01*
X107157Y93088D01*
X106722Y92437D01*
X106657Y92110D01*
X106276Y91676D01*
X105508Y91523D01*
X104857Y91088D01*
X104611Y90721D01*
X103990Y90635D01*
X95166Y99459D01*
X94758Y99732D01*
X94276Y99827D01*
X87266D01*
X86784Y99732D01*
X86724Y99691D01*
X86126Y99819D01*
X86008Y100040D01*
X86197Y100323D01*
X86335Y101015D01*
X86251Y101434D01*
X86660Y101846D01*
X87076Y101763D01*
X87767Y101900D01*
X88353Y102292D01*
X88745Y102878D01*
X88882Y103569D01*
X88745Y104260D01*
X88353Y104846D01*
X87767Y105238D01*
X87076Y105375D01*
X86692Y105299D01*
X86264Y105713D01*
X86335Y106068D01*
X86234Y106577D01*
X86577Y106954D01*
X86625Y106978D01*
X87088Y106886D01*
X87779Y107024D01*
X88365Y107415D01*
X88756Y108001D01*
X88894Y108693D01*
X88771Y109311D01*
X88961Y109766D01*
X88984Y109811D01*
X89976D01*
X90458Y109906D01*
X90866Y110179D01*
X91539Y110852D01*
X91812Y111260D01*
X91907Y111742D01*
Y113745D01*
X91812Y114227D01*
X91539Y114635D01*
X91015Y115159D01*
X90607Y115432D01*
X90126Y115527D01*
X86689D01*
X86279Y116027D01*
X86334Y116304D01*
X86248Y116736D01*
X86654Y117141D01*
X87088Y117055D01*
X87779Y117193D01*
X88365Y117584D01*
X88756Y118170D01*
X88894Y118861D01*
X88756Y119553D01*
X88385Y120108D01*
X88756Y120663D01*
X88894Y121354D01*
X88756Y122046D01*
X88365Y122632D01*
Y122702D01*
X88756Y123288D01*
X88894Y123979D01*
X88756Y124671D01*
X88365Y125257D01*
X87779Y125648D01*
X87088Y125786D01*
X86396Y125648D01*
X85810Y125257D01*
X85394Y125533D01*
X85220Y125649D01*
X84528Y125787D01*
X84095Y125700D01*
X83689Y126106D01*
X83776Y126541D01*
X83638Y127232D01*
X83247Y127818D01*
X82661Y128209D01*
X81969Y128347D01*
X81278Y128209D01*
X80692Y127818D01*
X80301Y127232D01*
X80163Y126541D01*
X80301Y125849D01*
X80417Y125675D01*
X80690Y125260D01*
X80417Y124846D01*
X80301Y124672D01*
X80163Y123980D01*
X80301Y123289D01*
X80669Y122738D01*
X80300Y122185D01*
X80162Y121494D01*
X80300Y120803D01*
X80448Y120580D01*
X80675Y120187D01*
X80451Y119776D01*
X80307Y119560D01*
X80170Y118869D01*
X80307Y118178D01*
X80699Y117592D01*
X81285Y117200D01*
X81976Y117063D01*
X82406Y117148D01*
X82808Y116738D01*
X82721Y116304D01*
X82776Y116027D01*
X82366Y115527D01*
X80676D01*
X80194Y115432D01*
X79786Y115159D01*
X78736Y114109D01*
X78463Y113701D01*
X78368Y113219D01*
Y102847D01*
X75620D01*
X75514Y102873D01*
X75134Y103276D01*
Y109369D01*
X75039Y109851D01*
X74766Y110259D01*
X73234Y111790D01*
Y122079D01*
X73734Y122370D01*
X74276Y122263D01*
X74967Y122400D01*
X75553Y122792D01*
X75945Y123378D01*
X76082Y124069D01*
X75945Y124760D01*
X75590Y125292D01*
X75961Y125848D01*
X76099Y126540D01*
X75961Y127231D01*
X75570Y127817D01*
X75331Y127976D01*
X75139Y128587D01*
X75234Y129069D01*
Y129674D01*
X75662Y130088D01*
X75884Y130132D01*
X76292Y130405D01*
X76562Y130675D01*
X76835Y131083D01*
X76885Y131104D01*
X77350Y131106D01*
X78076Y130962D01*
X78844Y131115D01*
X78945Y131182D01*
X79399Y131092D01*
X79985Y130700D01*
X80676Y130563D01*
X81367Y130700D01*
X81953Y131092D01*
X82345Y131678D01*
X82482Y132369D01*
X82345Y133060D01*
X81953Y133646D01*
X81367Y134038D01*
X80676Y134175D01*
X79985Y134038D01*
X79808Y133920D01*
X79495Y134388D01*
X78844Y134823D01*
X78076Y134976D01*
X75234D01*
Y135369D01*
X75139Y135851D01*
X74905Y136200D01*
Y139779D01*
X74906Y139783D01*
X74943Y139885D01*
X74958Y139978D01*
X74993Y140139D01*
X75004Y140179D01*
X75018Y140217D01*
X75029Y140242D01*
X75705Y140918D01*
X76157Y141142D01*
X76808Y140707D01*
X77576Y140554D01*
X78344Y140707D01*
X78897Y141077D01*
X79276Y140995D01*
X79441Y140909D01*
X79522Y140501D01*
X79957Y139850D01*
X80608Y139415D01*
X81376Y139262D01*
X82144Y139415D01*
X82795Y139850D01*
X83230Y140501D01*
X83383Y141269D01*
X83230Y142037D01*
X82795Y142688D01*
X82144Y143123D01*
X81376Y143276D01*
X80608Y143123D01*
X80055Y142754D01*
X79676Y142836D01*
X79511Y142922D01*
X79430Y143330D01*
X78995Y143981D01*
X78344Y144416D01*
X77576Y144569D01*
X76808Y144416D01*
X76675Y144327D01*
X76234Y144563D01*
Y155746D01*
X78251Y157762D01*
X78876D01*
X79644Y157915D01*
X80295Y158350D01*
X80730Y159001D01*
X80883Y159769D01*
X80730Y160537D01*
X80295Y161188D01*
X79644Y161623D01*
X78876Y161776D01*
X77398D01*
X76937Y162237D01*
X76983Y162469D01*
X76830Y163237D01*
X76395Y163888D01*
X75744Y164323D01*
X74976Y164476D01*
X74886Y164458D01*
X74830Y164462D01*
X74786Y164468D01*
X74754Y164474D01*
X74750Y164475D01*
X72666Y166559D01*
X72258Y166832D01*
X71776Y166927D01*
D02*
G37*
G36*
X90900Y156322D02*
X90048Y156152D01*
X89325Y155669D01*
X88842Y154947D01*
X88673Y154095D01*
X88842Y153242D01*
X89325Y152520D01*
X90048Y152037D01*
X90900Y151867D01*
X91752Y152037D01*
X92475Y152520D01*
X92958Y153242D01*
X93127Y154095D01*
X92958Y154947D01*
X92475Y155669D01*
X91752Y156152D01*
X90900Y156322D01*
D02*
G37*
G36*
X137500Y5500D02*
X134000D01*
Y2000D01*
X135500D01*
X137500Y4000D01*
Y5500D01*
D02*
G37*
G36*
X135500Y10000D02*
X134000D01*
Y6500D01*
X137500D01*
Y8000D01*
X135500Y10000D01*
D02*
G37*
G36*
X8492Y19984D02*
X4508D01*
X2516Y17992D01*
Y14008D01*
X4508Y12016D01*
X8492D01*
X10484Y14008D01*
Y17992D01*
X8492Y19984D01*
D02*
G37*
G36*
X49276Y130476D02*
X48508Y130323D01*
X47857Y129888D01*
X47422Y129237D01*
X47269Y128469D01*
X47422Y127701D01*
X47857Y127050D01*
X48508Y126615D01*
X49276Y126462D01*
X50044Y126615D01*
X50695Y127050D01*
X51130Y127701D01*
X51283Y128469D01*
X51130Y129237D01*
X50695Y129888D01*
X50044Y130323D01*
X49276Y130476D01*
D02*
G37*
G36*
X132876Y126776D02*
X132108Y126623D01*
X131484Y126207D01*
X131344Y126142D01*
X131008D01*
X130868Y126207D01*
X130244Y126623D01*
X129476Y126776D01*
X128708Y126623D01*
X128057Y126188D01*
X127622Y125537D01*
X127469Y124769D01*
X127622Y124001D01*
X128057Y123350D01*
X128708Y122915D01*
X129476Y122762D01*
X130244Y122915D01*
X130868Y123331D01*
X131008Y123396D01*
X131344D01*
X131484Y123331D01*
X132108Y122915D01*
X132876Y122762D01*
X133644Y122915D01*
X134295Y123350D01*
X134730Y124001D01*
X134883Y124769D01*
X134730Y125537D01*
X134295Y126188D01*
X133644Y126623D01*
X132876Y126776D01*
D02*
G37*
G36*
X110602Y127686D02*
X109834Y127533D01*
X109183Y127098D01*
X108748Y126447D01*
X108638Y125894D01*
X108076Y125783D01*
X107425Y125348D01*
X106990Y124697D01*
X106860Y124041D01*
X106383Y124069D01*
X106230Y124837D01*
X105795Y125488D01*
X105144Y125923D01*
X104376Y126076D01*
X103608Y125923D01*
X102957Y125488D01*
X102522Y124837D01*
X102369Y124069D01*
X102522Y123301D01*
X102957Y122650D01*
X103608Y122215D01*
X104376Y122062D01*
X105144Y122215D01*
X105795Y122650D01*
X106230Y123301D01*
X106361Y123957D01*
X106837Y123928D01*
X106990Y123160D01*
X107425Y122509D01*
X107940Y122165D01*
X107922Y122137D01*
X107769Y121369D01*
X107922Y120601D01*
X108357Y119950D01*
X108385Y119931D01*
X108122Y119537D01*
X107969Y118769D01*
X108122Y118001D01*
X108557Y117350D01*
X108901Y117120D01*
Y116518D01*
X108557Y116288D01*
X108122Y115637D01*
X107969Y114869D01*
X108122Y114101D01*
X108557Y113450D01*
X109208Y113015D01*
X109976Y112862D01*
X110744Y113015D01*
X111395Y113450D01*
X111830Y114101D01*
X111983Y114869D01*
X111830Y115637D01*
X111395Y116288D01*
X111051Y116518D01*
Y117120D01*
X111395Y117350D01*
X111830Y118001D01*
X111983Y118769D01*
X111830Y119537D01*
X111395Y120188D01*
X111367Y120207D01*
X111630Y120601D01*
X111783Y121369D01*
X111630Y122137D01*
X111195Y122788D01*
X110680Y123132D01*
X110699Y123160D01*
X110809Y123713D01*
X111371Y123824D01*
X112022Y124259D01*
X112457Y124910D01*
X112610Y125679D01*
X112457Y126447D01*
X112022Y127098D01*
X111371Y127533D01*
X110602Y127686D01*
D02*
G37*
G36*
X99976Y122076D02*
X99208Y121923D01*
X98557Y121488D01*
X98122Y120837D01*
X97969Y120069D01*
X98122Y119301D01*
X98557Y118650D01*
X99208Y118215D01*
X99976Y118062D01*
X100744Y118215D01*
X101395Y118650D01*
X101830Y119301D01*
X101983Y120069D01*
X101830Y120837D01*
X101395Y121488D01*
X100744Y121923D01*
X99976Y122076D01*
D02*
G37*
G36*
X24000Y28817D02*
X23012Y28687D01*
X22092Y28306D01*
X21301Y27699D01*
X20695Y26908D01*
X20313Y25988D01*
X20183Y25000D01*
X20313Y24012D01*
X20695Y23092D01*
X21301Y22301D01*
X22092Y21695D01*
X23012Y21313D01*
X24000Y21183D01*
X24988Y21313D01*
X25908Y21695D01*
X26699Y22301D01*
X27305Y23092D01*
X27687Y24012D01*
X27708Y24176D01*
X28213D01*
X28235Y24008D01*
X28618Y23084D01*
X29227Y22290D01*
X30021Y21681D01*
X30945Y21298D01*
X31437Y21233D01*
Y25000D01*
Y28767D01*
X30945Y28702D01*
X30021Y28319D01*
X29227Y27710D01*
X28618Y26916D01*
X28235Y25992D01*
X28213Y25824D01*
X27708D01*
X27687Y25988D01*
X27305Y26908D01*
X26699Y27699D01*
X25908Y28306D01*
X24988Y28687D01*
X24000Y28817D01*
D02*
G37*
G36*
X135492Y19984D02*
X131508D01*
X129516Y17992D01*
Y14008D01*
X131508Y12016D01*
X135492D01*
X137484Y14008D01*
Y17992D01*
X135492Y19984D01*
D02*
G37*
G36*
X35704Y24500D02*
X32437D01*
Y21233D01*
X32929Y21298D01*
X33853Y21681D01*
X34647Y22290D01*
X35256Y23084D01*
X35639Y24008D01*
X35704Y24500D01*
D02*
G37*
G36*
X95376Y131175D02*
X94685Y131038D01*
X94099Y130646D01*
X93707Y130060D01*
X93570Y129369D01*
X93707Y128678D01*
X94099Y128092D01*
X94685Y127700D01*
X95376Y127563D01*
X96067Y127700D01*
X96653Y128092D01*
X97045Y128678D01*
X97182Y129369D01*
X97045Y130060D01*
X96653Y130646D01*
X96067Y131038D01*
X95376Y131175D01*
D02*
G37*
G36*
X133000Y10000D02*
X131500D01*
X129500Y8000D01*
Y6500D01*
X133000D01*
Y10000D01*
D02*
G37*
G36*
X8492Y9984D02*
X4508D01*
X2516Y7992D01*
Y4008D01*
X4508Y2016D01*
X8492D01*
X10484Y4008D01*
Y7992D01*
X8492Y9984D01*
D02*
G37*
G36*
X117876Y129976D02*
X117108Y129823D01*
X116457Y129388D01*
X115995D01*
X115344Y129823D01*
X114576Y129976D01*
X113808Y129823D01*
X113157Y129388D01*
X112722Y128737D01*
X112569Y127969D01*
X112722Y127201D01*
X113157Y126550D01*
X113808Y126115D01*
X114576Y125962D01*
X115344Y126115D01*
X115995Y126550D01*
X116457D01*
X117108Y126115D01*
X117876Y125962D01*
X118644Y126115D01*
X119295Y126550D01*
X119730Y127201D01*
X119883Y127969D01*
X119730Y128737D01*
X119295Y129388D01*
X118644Y129823D01*
X117876Y129976D01*
D02*
G37*
G36*
X100076Y130916D02*
X99308Y130763D01*
X98657Y130328D01*
X98222Y129677D01*
X98069Y128909D01*
X98222Y128141D01*
X98657Y127490D01*
X99308Y127055D01*
X100076Y126902D01*
X100844Y127055D01*
X101495Y127490D01*
X101930Y128141D01*
X102083Y128909D01*
X101930Y129677D01*
X101495Y130328D01*
X100844Y130763D01*
X100076Y130916D01*
D02*
G37*
G36*
X105376Y173076D02*
X104608Y172923D01*
X103957Y172488D01*
X103522Y171837D01*
X103369Y171069D01*
X103522Y170301D01*
X103957Y169650D01*
X104608Y169215D01*
X105376Y169062D01*
X106144Y169215D01*
X106795Y169650D01*
X107230Y170301D01*
X107383Y171069D01*
X107230Y171837D01*
X106795Y172488D01*
X106144Y172923D01*
X105376Y173076D01*
D02*
G37*
%LPD*%
G36*
X78304Y68093D02*
X78313Y68022D01*
X78328Y67953D01*
X78349Y67886D01*
X78376Y67819D01*
X78409Y67754D01*
X78449Y67690D01*
X78494Y67628D01*
X78545Y67567D01*
X78602Y67507D01*
X77500D01*
X77557Y67567D01*
X77608Y67628D01*
X77653Y67690D01*
X77693Y67754D01*
X77726Y67819D01*
X77753Y67886D01*
X77774Y67953D01*
X77789Y68022D01*
X77798Y68093D01*
X77801Y68164D01*
X78301D01*
X78304Y68093D01*
D02*
G37*
G36*
X74243Y64859D02*
X74300Y64816D01*
X74359Y64778D01*
X74422Y64745D01*
X74488Y64717D01*
X74557Y64695D01*
X74630Y64677D01*
X74706Y64665D01*
X74785Y64658D01*
X74868Y64656D01*
X74089Y63877D01*
X74087Y63960D01*
X74080Y64039D01*
X74068Y64115D01*
X74050Y64188D01*
X74028Y64257D01*
X74000Y64323D01*
X73967Y64386D01*
X73929Y64445D01*
X73886Y64502D01*
X73837Y64554D01*
X74191Y64908D01*
X74243Y64859D01*
D02*
G37*
G36*
X72540Y54256D02*
X72547Y54177D01*
X72559Y54101D01*
X72577Y54028D01*
X72599Y53959D01*
X72627Y53893D01*
X72660Y53830D01*
X72698Y53771D01*
X72741Y53715D01*
X72790Y53662D01*
X72436Y53308D01*
X72383Y53357D01*
X72327Y53400D01*
X72268Y53438D01*
X72205Y53471D01*
X72139Y53499D01*
X72070Y53522D01*
X71997Y53539D01*
X71921Y53551D01*
X71842Y53558D01*
X71759Y53560D01*
X72538Y54339D01*
X72540Y54256D01*
D02*
G37*
G36*
X65947Y69472D02*
X65896Y69411D01*
X65851Y69349D01*
X65811Y69285D01*
X65778Y69220D01*
X65751Y69153D01*
X65730Y69086D01*
X65715Y69017D01*
X65706Y68947D01*
X65703Y68875D01*
X65203D01*
X65200Y68947D01*
X65191Y69017D01*
X65176Y69086D01*
X65155Y69153D01*
X65128Y69220D01*
X65095Y69285D01*
X65055Y69349D01*
X65010Y69411D01*
X64959Y69472D01*
X64902Y69532D01*
X66004D01*
X65947Y69472D01*
D02*
G37*
G36*
X85139Y54255D02*
X85146Y54176D01*
X85158Y54100D01*
X85176Y54027D01*
X85198Y53958D01*
X85226Y53892D01*
X85259Y53829D01*
X85297Y53770D01*
X85340Y53714D01*
X85389Y53661D01*
X85035Y53307D01*
X84983Y53356D01*
X84926Y53399D01*
X84867Y53437D01*
X84804Y53470D01*
X84738Y53498D01*
X84669Y53520D01*
X84596Y53538D01*
X84520Y53550D01*
X84441Y53557D01*
X84358Y53559D01*
X85137Y54338D01*
X85139Y54255D01*
D02*
G37*
G36*
X91143Y47425D02*
X91092Y47364D01*
X91047Y47302D01*
X91007Y47238D01*
X90974Y47173D01*
X90947Y47107D01*
X90926Y47039D01*
X90911Y46970D01*
X90902Y46900D01*
X90899Y46828D01*
X90399D01*
X90396Y46900D01*
X90387Y46970D01*
X90372Y47039D01*
X90351Y47107D01*
X90324Y47173D01*
X90291Y47238D01*
X90251Y47302D01*
X90206Y47364D01*
X90155Y47425D01*
X90098Y47485D01*
X91200D01*
X91143Y47425D01*
D02*
G37*
G36*
X78043Y47260D02*
X77960Y47258D01*
X77881Y47251D01*
X77805Y47239D01*
X77732Y47221D01*
X77663Y47199D01*
X77597Y47171D01*
X77534Y47138D01*
X77475Y47100D01*
X77419Y47057D01*
X77366Y47008D01*
X77012Y47362D01*
X77061Y47415D01*
X77104Y47471D01*
X77142Y47530D01*
X77175Y47593D01*
X77203Y47659D01*
X77226Y47728D01*
X77243Y47801D01*
X77255Y47877D01*
X77262Y47956D01*
X77264Y48039D01*
X78043Y47260D01*
D02*
G37*
G36*
X116621Y43414D02*
X116584Y43444D01*
X116543Y43463D01*
X116498Y43472D01*
X116450Y43469D01*
X116398Y43456D01*
X116342Y43432D01*
X116283Y43397D01*
X116220Y43352D01*
X116153Y43296D01*
X116082Y43229D01*
X115729Y43582D01*
X115796Y43653D01*
X115852Y43720D01*
X115897Y43783D01*
X115932Y43842D01*
X115956Y43898D01*
X115969Y43950D01*
X115972Y43998D01*
X115963Y44043D01*
X115944Y44084D01*
X115914Y44121D01*
X116621Y43414D01*
D02*
G37*
G36*
X131153Y28704D02*
X131220Y28648D01*
X131283Y28603D01*
X131342Y28568D01*
X131398Y28544D01*
X131450Y28531D01*
X131498Y28528D01*
X131543Y28537D01*
X131584Y28556D01*
X131621Y28586D01*
X130914Y27879D01*
X130944Y27916D01*
X130963Y27957D01*
X130972Y28002D01*
X130969Y28050D01*
X130956Y28102D01*
X130932Y28158D01*
X130897Y28217D01*
X130852Y28280D01*
X130796Y28347D01*
X130729Y28418D01*
X131082Y28771D01*
X131153Y28704D01*
D02*
G37*
G36*
Y38704D02*
X131220Y38648D01*
X131283Y38603D01*
X131342Y38568D01*
X131398Y38544D01*
X131450Y38531D01*
X131498Y38528D01*
X131543Y38537D01*
X131584Y38556D01*
X131621Y38586D01*
X130914Y37879D01*
X130944Y37916D01*
X130963Y37957D01*
X130972Y38002D01*
X130969Y38050D01*
X130956Y38102D01*
X130932Y38158D01*
X130897Y38217D01*
X130852Y38280D01*
X130796Y38347D01*
X130729Y38418D01*
X131082Y38771D01*
X131153Y38704D01*
D02*
G37*
G36*
X72791Y48732D02*
X72742Y48680D01*
X72699Y48623D01*
X72661Y48564D01*
X72628Y48501D01*
X72600Y48435D01*
X72578Y48366D01*
X72560Y48293D01*
X72548Y48217D01*
X72541Y48138D01*
X72539Y48055D01*
X71760Y48834D01*
X71843Y48836D01*
X71922Y48843D01*
X71998Y48855D01*
X72071Y48873D01*
X72140Y48895D01*
X72206Y48923D01*
X72269Y48956D01*
X72328Y48994D01*
X72385Y49037D01*
X72437Y49086D01*
X72791Y48732D01*
D02*
G37*
G36*
X61671Y52187D02*
X61727Y52144D01*
X61786Y52106D01*
X61849Y52073D01*
X61915Y52045D01*
X61984Y52022D01*
X62057Y52005D01*
X62133Y51993D01*
X62213Y51986D01*
X62295Y51984D01*
X61516Y51205D01*
X61514Y51288D01*
X61507Y51367D01*
X61495Y51443D01*
X61477Y51516D01*
X61455Y51585D01*
X61427Y51651D01*
X61394Y51714D01*
X61356Y51773D01*
X61313Y51829D01*
X61264Y51882D01*
X61618Y52236D01*
X61671Y52187D01*
D02*
G37*
G36*
X82240Y51882D02*
X82191Y51829D01*
X82148Y51773D01*
X82110Y51714D01*
X82077Y51651D01*
X82049Y51585D01*
X82027Y51516D01*
X82009Y51443D01*
X81997Y51367D01*
X81990Y51288D01*
X81988Y51205D01*
X81209Y51984D01*
X81292Y51986D01*
X81371Y51993D01*
X81447Y52005D01*
X81520Y52023D01*
X81589Y52045D01*
X81655Y52073D01*
X81718Y52106D01*
X81777Y52144D01*
X81833Y52187D01*
X81886Y52236D01*
X82240Y51882D01*
D02*
G37*
G36*
X88289Y51106D02*
X88296Y51027D01*
X88308Y50951D01*
X88326Y50878D01*
X88348Y50809D01*
X88376Y50743D01*
X88409Y50680D01*
X88447Y50621D01*
X88490Y50564D01*
X88539Y50512D01*
X88185Y50158D01*
X88133Y50207D01*
X88076Y50250D01*
X88017Y50288D01*
X87954Y50321D01*
X87888Y50349D01*
X87819Y50371D01*
X87746Y50389D01*
X87670Y50401D01*
X87591Y50408D01*
X87508Y50410D01*
X88287Y51189D01*
X88289Y51106D01*
D02*
G37*
G36*
X75940Y48732D02*
X75891Y48680D01*
X75848Y48623D01*
X75810Y48564D01*
X75777Y48501D01*
X75749Y48435D01*
X75727Y48366D01*
X75709Y48293D01*
X75697Y48217D01*
X75690Y48138D01*
X75688Y48055D01*
X74909Y48834D01*
X74992Y48836D01*
X75071Y48843D01*
X75147Y48855D01*
X75220Y48873D01*
X75289Y48895D01*
X75355Y48923D01*
X75418Y48956D01*
X75477Y48994D01*
X75533Y49037D01*
X75586Y49086D01*
X75940Y48732D01*
D02*
G37*
G36*
X84342Y50410D02*
X84259Y50408D01*
X84180Y50401D01*
X84104Y50389D01*
X84031Y50371D01*
X83962Y50349D01*
X83896Y50321D01*
X83833Y50288D01*
X83774Y50250D01*
X83718Y50207D01*
X83665Y50158D01*
X83311Y50512D01*
X83360Y50564D01*
X83403Y50621D01*
X83441Y50680D01*
X83474Y50743D01*
X83502Y50809D01*
X83524Y50878D01*
X83542Y50951D01*
X83554Y51027D01*
X83561Y51106D01*
X83563Y51189D01*
X84342Y50410D01*
D02*
G37*
G36*
X87340Y109840D02*
X87349Y109770D01*
X87365Y109701D01*
X87386Y109633D01*
X87413Y109567D01*
X87446Y109502D01*
X87485Y109438D01*
X87530Y109376D01*
X87581Y109315D01*
X87639Y109255D01*
X86536D01*
X86594Y109315D01*
X86645Y109376D01*
X86690Y109438D01*
X86729Y109502D01*
X86762Y109567D01*
X86789Y109633D01*
X86810Y109701D01*
X86826Y109770D01*
X86835Y109840D01*
X86838Y109912D01*
X87337D01*
X87340Y109840D01*
D02*
G37*
G36*
X58930Y107839D02*
X58827Y107838D01*
X58641Y107822D01*
X58558Y107808D01*
X58480Y107788D01*
X58408Y107765D01*
X58343Y107737D01*
X58284Y107704D01*
X58231Y107667D01*
X58184Y107626D01*
X57937Y107873D01*
X57978Y107920D01*
X58015Y107973D01*
X58048Y108032D01*
X58076Y108098D01*
X58100Y108169D01*
X58118Y108247D01*
X58133Y108330D01*
X58143Y108420D01*
X58149Y108516D01*
X58150Y108619D01*
X58930Y107839D01*
D02*
G37*
G36*
X46947Y108000D02*
X47003Y107957D01*
X47063Y107921D01*
X47126Y107891D01*
X47191Y107868D01*
X47258Y107851D01*
X47329Y107840D01*
X47403Y107836D01*
X47479Y107838D01*
X47558Y107847D01*
X46895Y106966D01*
X46882Y107051D01*
X46865Y107131D01*
X46844Y107208D01*
X46820Y107281D01*
X46791Y107351D01*
X46759Y107416D01*
X46723Y107479D01*
X46683Y107537D01*
X46639Y107592D01*
X46592Y107643D01*
X46893Y108050D01*
X46947Y108000D01*
D02*
G37*
G36*
X53811Y118075D02*
X53728Y118073D01*
X53649Y118066D01*
X53572Y118054D01*
X53500Y118037D01*
X53430Y118014D01*
X53364Y117987D01*
X53302Y117954D01*
X53242Y117915D01*
X53186Y117872D01*
X53133Y117824D01*
X52780Y118177D01*
X52828Y118230D01*
X52872Y118286D01*
X52910Y118346D01*
X52943Y118408D01*
X52970Y118474D01*
X52993Y118544D01*
X53010Y118616D01*
X53022Y118693D01*
X53029Y118772D01*
X53031Y118855D01*
X53811Y118075D01*
D02*
G37*
G36*
X60362Y117046D02*
X60008D01*
X60009Y117051D01*
X60009Y117127D01*
X60010Y117548D01*
X60360D01*
X60362Y117046D01*
D02*
G37*
G36*
X33265Y114575D02*
X33350Y114500D01*
X33435Y114434D01*
X33520Y114377D01*
X33604Y114329D01*
X33688Y114289D01*
X33771Y114259D01*
X33854Y114237D01*
X33936Y114223D01*
X34018Y114219D01*
Y113719D01*
X33936Y113715D01*
X33854Y113701D01*
X33771Y113680D01*
X33688Y113649D01*
X33604Y113609D01*
X33520Y113561D01*
X33435Y113504D01*
X33350Y113438D01*
X33265Y113363D01*
X33179Y113280D01*
Y114658D01*
X33265Y114575D01*
D02*
G37*
G36*
X65478Y104230D02*
X65124D01*
X65124Y104235D01*
X65125Y104311D01*
X65126Y104732D01*
X65476D01*
X65478Y104230D01*
D02*
G37*
G36*
X68309Y122516D02*
X68482Y122400D01*
X69174Y122263D01*
X69865Y122400D01*
X70218Y122636D01*
X70718Y122369D01*
Y111269D01*
X70813Y110787D01*
X71086Y110379D01*
X72618Y108848D01*
Y103490D01*
X71855Y102727D01*
X70476D01*
X69994Y102632D01*
X69586Y102359D01*
X68930Y101702D01*
X68268Y101657D01*
X66560Y103364D01*
Y104052D01*
X66483Y104442D01*
Y109079D01*
X67412Y110008D01*
X67668Y110392D01*
X67758Y110844D01*
Y111469D01*
X67668Y111921D01*
X67412Y112305D01*
X66483Y113234D01*
Y114588D01*
X66929D01*
X67381Y114678D01*
X67765Y114934D01*
X68005Y115174D01*
X68261Y115557D01*
X68351Y116010D01*
Y116730D01*
X68278Y117098D01*
X68631Y117335D01*
X68871Y117575D01*
X69128Y117958D01*
X69218Y118410D01*
Y119131D01*
X69128Y119583D01*
X68871Y119966D01*
X68631Y120206D01*
X68248Y120463D01*
X67796Y120553D01*
X66483D01*
Y122155D01*
X66615Y122263D01*
X67306Y122400D01*
X67479Y122516D01*
X67894Y122790D01*
X68309Y122516D01*
D02*
G37*
G36*
X75539Y101338D02*
X75535Y101335D01*
X75481Y101282D01*
X75183Y100985D01*
X74935Y101232D01*
X75289Y101588D01*
X75539Y101338D01*
D02*
G37*
G36*
X55208Y106954D02*
X54855Y106598D01*
X54605Y106848D01*
X54609Y106851D01*
X54663Y106905D01*
X54961Y107202D01*
X55208Y106954D01*
D02*
G37*
G36*
X17570Y105610D02*
X17525Y105560D01*
X17479Y105502D01*
X17433Y105435D01*
X17339Y105275D01*
X17292Y105183D01*
X17147Y104852D01*
X17098Y104725D01*
X16539Y105984D01*
X16637Y105949D01*
X16732Y105925D01*
X16823Y105912D01*
X16910Y105908D01*
X16994Y105915D01*
X17074Y105932D01*
X17151Y105960D01*
X17224Y105998D01*
X17293Y106047D01*
X17359Y106105D01*
X17570Y105610D01*
D02*
G37*
G36*
X48170Y106447D02*
X48119Y106386D01*
X48074Y106324D01*
X48034Y106260D01*
X48001Y106195D01*
X47974Y106129D01*
X47953Y106061D01*
X47938Y105992D01*
X47929Y105922D01*
X47926Y105850D01*
X47426D01*
X47423Y105922D01*
X47414Y105992D01*
X47399Y106061D01*
X47378Y106129D01*
X47351Y106195D01*
X47318Y106260D01*
X47278Y106324D01*
X47233Y106386D01*
X47182Y106447D01*
X47125Y106507D01*
X48227D01*
X48170Y106447D01*
D02*
G37*
G36*
X59366Y120800D02*
X59315Y120738D01*
X59270Y120676D01*
X59231Y120612D01*
X59198Y120547D01*
X59171Y120481D01*
X59149Y120413D01*
X59134Y120344D01*
X59125Y120274D01*
X59122Y120202D01*
X58622D01*
X58619Y120274D01*
X58610Y120344D01*
X58595Y120413D01*
X58574Y120481D01*
X58547Y120547D01*
X58514Y120612D01*
X58475Y120676D01*
X58430Y120738D01*
X58378Y120800D01*
X58321Y120859D01*
X59424D01*
X59366Y120800D01*
D02*
G37*
G36*
X57205Y159611D02*
X57326Y159001D01*
X57762Y158350D01*
X58413Y157915D01*
X59136Y157771D01*
Y157762D01*
X70992D01*
X71027Y157769D01*
X72969D01*
X73122Y157001D01*
X73557Y156350D01*
X73633Y156299D01*
X73670Y156257D01*
X73697Y156221D01*
X73716Y156194D01*
X73718Y156191D01*
Y145421D01*
X73331Y145104D01*
X72969Y145176D01*
X72200Y145023D01*
X71549Y144588D01*
X71289Y144199D01*
X70695D01*
X70435Y144588D01*
X69784Y145023D01*
X69016Y145176D01*
X68248Y145023D01*
X67597Y144588D01*
X67348Y144216D01*
X66747D01*
X66498Y144588D01*
X65847Y145023D01*
X65079Y145176D01*
X64311Y145023D01*
X63660Y144588D01*
X63225Y143937D01*
X61630D01*
X61195Y144588D01*
X60544Y145023D01*
X59776Y145176D01*
X59008Y145023D01*
X58525Y144700D01*
X55934Y147290D01*
Y159048D01*
X56714Y159828D01*
X57205Y159611D01*
D02*
G37*
G36*
X74309Y140948D02*
X74257Y140891D01*
X74208Y140825D01*
X74163Y140752D01*
X74122Y140673D01*
X74084Y140585D01*
X74050Y140490D01*
X74020Y140388D01*
X73971Y140162D01*
X73951Y140037D01*
X73127Y141142D01*
X73240Y141128D01*
X73347Y141121D01*
X73449Y141123D01*
X73546Y141133D01*
X73637Y141150D01*
X73722Y141175D01*
X73802Y141209D01*
X73876Y141250D01*
X73945Y141298D01*
X74009Y141355D01*
X74309Y140948D01*
D02*
G37*
G36*
X53673Y133580D02*
X53587Y133663D01*
X53502Y133738D01*
X53417Y133804D01*
X53332Y133861D01*
X53248Y133909D01*
X53164Y133949D01*
X53081Y133979D01*
X52998Y134001D01*
X52916Y134015D01*
X52833Y134019D01*
Y134519D01*
X52916Y134523D01*
X52998Y134537D01*
X53081Y134558D01*
X53164Y134589D01*
X53248Y134629D01*
X53332Y134677D01*
X53417Y134734D01*
X53502Y134800D01*
X53587Y134875D01*
X53673Y134958D01*
Y133580D01*
D02*
G37*
G36*
X74123Y163682D02*
X74191Y163633D01*
X74265Y163589D01*
X74346Y163552D01*
X74433Y163521D01*
X74527Y163496D01*
X74627Y163476D01*
X74733Y163463D01*
X74847Y163455D01*
X74966Y163453D01*
X73992Y162479D01*
X73990Y162599D01*
X73982Y162712D01*
X73969Y162818D01*
X73949Y162918D01*
X73924Y163012D01*
X73893Y163099D01*
X73856Y163180D01*
X73813Y163254D01*
X73763Y163322D01*
X73708Y163383D01*
X74062Y163736D01*
X74123Y163682D01*
D02*
G37*
G36*
X70139D02*
X70207Y163633D01*
X70281Y163589D01*
X70361Y163552D01*
X70449Y163521D01*
X70542Y163496D01*
X70642Y163476D01*
X70749Y163463D01*
X70862Y163455D01*
X70982Y163453D01*
X70008Y162479D01*
X70006Y162599D01*
X69998Y162712D01*
X69985Y162818D01*
X69965Y162918D01*
X69940Y163012D01*
X69908Y163099D01*
X69871Y163180D01*
X69828Y163254D01*
X69779Y163322D01*
X69724Y163383D01*
X70078Y163736D01*
X70139Y163682D01*
D02*
G37*
G36*
X75582Y156980D02*
X75507Y156895D01*
X75441Y156810D01*
X75384Y156725D01*
X75336Y156641D01*
X75296Y156557D01*
X75266Y156474D01*
X75244Y156391D01*
X75230Y156309D01*
X75226Y156227D01*
X74726D01*
X74722Y156309D01*
X74708Y156391D01*
X74686Y156474D01*
X74656Y156557D01*
X74616Y156641D01*
X74568Y156725D01*
X74511Y156810D01*
X74445Y156895D01*
X74370Y156980D01*
X74287Y157066D01*
X75665D01*
X75582Y156980D01*
D02*
G37*
G36*
X60362Y125078D02*
X60361Y125002D01*
X60360Y124581D01*
X60010D01*
X60008Y125083D01*
X60362D01*
X60362Y125078D01*
D02*
G37*
G36*
X65477Y124862D02*
X65477Y124786D01*
X65476Y124366D01*
X65126D01*
X65124Y124867D01*
X65478D01*
X65477Y124862D01*
D02*
G37*
G36*
X58284Y124992D02*
X58340Y124948D01*
X58399Y124909D01*
X58461Y124875D01*
X58527Y124846D01*
X58597Y124821D01*
X58670Y124800D01*
X58747Y124785D01*
X58827Y124773D01*
X58911Y124767D01*
X58087Y124035D01*
X58090Y124116D01*
X58087Y124194D01*
X58078Y124269D01*
X58064Y124341D01*
X58043Y124410D01*
X58017Y124476D01*
X57986Y124539D01*
X57948Y124598D01*
X57905Y124655D01*
X57856Y124708D01*
X58232Y125040D01*
X58284Y124992D01*
D02*
G37*
G36*
X60315Y133654D02*
X60266Y133601D01*
X60223Y133545D01*
X60185Y133486D01*
X60152Y133423D01*
X60124Y133357D01*
X60102Y133288D01*
X60084Y133215D01*
X60072Y133139D01*
X60065Y133060D01*
X60063Y132977D01*
X59284Y133756D01*
X59367Y133758D01*
X59446Y133765D01*
X59522Y133777D01*
X59595Y133795D01*
X59664Y133817D01*
X59730Y133845D01*
X59793Y133878D01*
X59852Y133916D01*
X59908Y133959D01*
X59961Y134008D01*
X60315Y133654D01*
D02*
G37*
G36*
X58211Y130549D02*
X58354Y130428D01*
X58424Y130379D01*
X58492Y130338D01*
X58559Y130304D01*
X58625Y130278D01*
X58690Y130259D01*
X58754Y130248D01*
X58816Y130244D01*
Y129894D01*
X58754Y129890D01*
X58690Y129879D01*
X58625Y129860D01*
X58559Y129834D01*
X58492Y129800D01*
X58424Y129759D01*
X58354Y129710D01*
X58283Y129653D01*
X58211Y129589D01*
X58138Y129518D01*
Y130620D01*
X58211Y130549D01*
D02*
G37*
G36*
X69428Y127688D02*
X69437Y127618D01*
X69452Y127549D01*
X69473Y127481D01*
X69500Y127415D01*
X69533Y127350D01*
X69572Y127286D01*
X69617Y127224D01*
X69668Y127163D01*
X69726Y127103D01*
X68623D01*
X68681Y127163D01*
X68732Y127224D01*
X68777Y127286D01*
X68816Y127350D01*
X68849Y127415D01*
X68876Y127481D01*
X68897Y127549D01*
X68912Y127618D01*
X68922Y127688D01*
X68924Y127760D01*
X69424D01*
X69428Y127688D01*
D02*
G37*
G36*
X40773Y89780D02*
X40687Y89863D01*
X40602Y89938D01*
X40517Y90004D01*
X40432Y90061D01*
X40348Y90109D01*
X40264Y90149D01*
X40181Y90180D01*
X40098Y90201D01*
X40016Y90215D01*
X39933Y90219D01*
Y90719D01*
X40016Y90723D01*
X40098Y90737D01*
X40181Y90759D01*
X40264Y90789D01*
X40348Y90829D01*
X40432Y90877D01*
X40517Y90934D01*
X40602Y91000D01*
X40687Y91075D01*
X40773Y91158D01*
Y89780D01*
D02*
G37*
G36*
X78754Y90676D02*
X78815Y90625D01*
X78877Y90579D01*
X78941Y90540D01*
X79006Y90507D01*
X79072Y90480D01*
X79140Y90459D01*
X79209Y90444D01*
X79279Y90435D01*
X79351Y90432D01*
Y89932D01*
X79279Y89929D01*
X79209Y89920D01*
X79140Y89905D01*
X79072Y89884D01*
X79006Y89856D01*
X78941Y89823D01*
X78877Y89784D01*
X78815Y89739D01*
X78754Y89688D01*
X78694Y89631D01*
Y90733D01*
X78754Y90676D01*
D02*
G37*
G36*
X76362Y90091D02*
X76369Y90012D01*
X76381Y89936D01*
X76398Y89863D01*
X76421Y89794D01*
X76449Y89728D01*
X76481Y89665D01*
X76520Y89605D01*
X76563Y89549D01*
X76612Y89497D01*
X76258Y89143D01*
X76205Y89192D01*
X76149Y89235D01*
X76090Y89273D01*
X76027Y89306D01*
X75961Y89334D01*
X75891Y89356D01*
X75819Y89374D01*
X75743Y89386D01*
X75663Y89393D01*
X75581Y89394D01*
X76360Y90174D01*
X76362Y90091D01*
D02*
G37*
G36*
X76775Y92484D02*
X76693Y92482D01*
X76613Y92475D01*
X76537Y92463D01*
X76465Y92446D01*
X76395Y92423D01*
X76329Y92396D01*
X76266Y92363D01*
X76207Y92325D01*
X76151Y92281D01*
X76098Y92233D01*
X75744Y92586D01*
X75793Y92639D01*
X75836Y92695D01*
X75875Y92755D01*
X75907Y92817D01*
X75935Y92883D01*
X75958Y92953D01*
X75975Y93025D01*
X75987Y93102D01*
X75994Y93181D01*
X75996Y93264D01*
X76775Y92484D01*
D02*
G37*
G36*
X62033Y92694D02*
X61975Y92636D01*
X61922Y92577D01*
X61876Y92516D01*
X61836Y92453D01*
X61803Y92389D01*
X61775Y92323D01*
X61754Y92256D01*
X61738Y92187D01*
X61729Y92117D01*
X61726Y92045D01*
X61226Y92059D01*
X61223Y92130D01*
X61214Y92200D01*
X61199Y92269D01*
X61179Y92337D01*
X61152Y92404D01*
X61120Y92470D01*
X61081Y92535D01*
X61037Y92599D01*
X60987Y92661D01*
X60931Y92723D01*
X62033Y92694D01*
D02*
G37*
G36*
X109365Y92275D02*
X109450Y92200D01*
X109535Y92134D01*
X109620Y92077D01*
X109704Y92029D01*
X109788Y91989D01*
X109871Y91958D01*
X109954Y91937D01*
X110036Y91923D01*
X110118Y91919D01*
Y91419D01*
X110036Y91415D01*
X109954Y91401D01*
X109871Y91379D01*
X109788Y91349D01*
X109704Y91309D01*
X109620Y91261D01*
X109535Y91204D01*
X109450Y91138D01*
X109365Y91063D01*
X109279Y90980D01*
Y92358D01*
X109365Y92275D01*
D02*
G37*
G36*
X65445Y75607D02*
X65362Y75605D01*
X65283Y75598D01*
X65207Y75586D01*
X65134Y75568D01*
X65065Y75546D01*
X64999Y75518D01*
X64936Y75485D01*
X64877Y75447D01*
X64820Y75404D01*
X64768Y75355D01*
X64414Y75709D01*
X64463Y75761D01*
X64506Y75818D01*
X64544Y75877D01*
X64577Y75940D01*
X64605Y76006D01*
X64627Y76075D01*
X64645Y76148D01*
X64657Y76224D01*
X64664Y76303D01*
X64666Y76386D01*
X65445Y75607D01*
D02*
G37*
G36*
X78347Y72511D02*
X78337Y72498D01*
X78329Y72479D01*
X78321Y72455D01*
X78315Y72426D01*
X78310Y72390D01*
X78303Y72303D01*
X78301Y72194D01*
X77801D01*
X77800Y72251D01*
X77787Y72426D01*
X77781Y72455D01*
X77773Y72479D01*
X77765Y72498D01*
X77755Y72511D01*
X77745Y72519D01*
X78357D01*
X78347Y72511D01*
D02*
G37*
G36*
X62797Y72622D02*
X62746Y72561D01*
X62701Y72499D01*
X62661Y72435D01*
X62628Y72370D01*
X62601Y72304D01*
X62580Y72236D01*
X62565Y72167D01*
X62556Y72097D01*
X62553Y72025D01*
X62053D01*
X62050Y72097D01*
X62041Y72167D01*
X62026Y72236D01*
X62005Y72304D01*
X61978Y72370D01*
X61945Y72435D01*
X61905Y72499D01*
X61860Y72561D01*
X61809Y72622D01*
X61752Y72682D01*
X62854D01*
X62797Y72622D01*
D02*
G37*
G36*
X16765Y89275D02*
X16850Y89200D01*
X16935Y89134D01*
X17020Y89077D01*
X17104Y89029D01*
X17188Y88989D01*
X17271Y88959D01*
X17354Y88937D01*
X17436Y88923D01*
X17518Y88919D01*
Y88419D01*
X17436Y88415D01*
X17354Y88401D01*
X17271Y88380D01*
X17188Y88349D01*
X17104Y88309D01*
X17020Y88261D01*
X16935Y88204D01*
X16850Y88138D01*
X16765Y88063D01*
X16679Y87980D01*
Y89358D01*
X16765Y89275D01*
D02*
G37*
G36*
X73865Y87378D02*
X73872Y87299D01*
X73884Y87223D01*
X73902Y87150D01*
X73924Y87081D01*
X73952Y87015D01*
X73985Y86952D01*
X74023Y86893D01*
X74066Y86836D01*
X74115Y86784D01*
X73761Y86430D01*
X73708Y86479D01*
X73652Y86522D01*
X73593Y86560D01*
X73530Y86593D01*
X73464Y86621D01*
X73395Y86643D01*
X73322Y86661D01*
X73246Y86673D01*
X73167Y86680D01*
X73084Y86682D01*
X73863Y87461D01*
X73865Y87378D01*
D02*
G37*
G36*
X75154Y77541D02*
X75163Y77471D01*
X75178Y77402D01*
X75199Y77334D01*
X75226Y77268D01*
X75259Y77203D01*
X75299Y77139D01*
X75344Y77077D01*
X75395Y77016D01*
X75452Y76956D01*
X74350D01*
X74407Y77016D01*
X74458Y77077D01*
X74503Y77139D01*
X74543Y77203D01*
X74576Y77268D01*
X74603Y77334D01*
X74624Y77402D01*
X74639Y77471D01*
X74648Y77541D01*
X74651Y77613D01*
X75151D01*
X75154Y77541D01*
D02*
G37*
G36*
X40773Y92580D02*
X40687Y92663D01*
X40602Y92738D01*
X40517Y92804D01*
X40432Y92861D01*
X40348Y92909D01*
X40264Y92949D01*
X40181Y92980D01*
X40098Y93001D01*
X40016Y93015D01*
X39933Y93019D01*
Y93519D01*
X40016Y93523D01*
X40098Y93537D01*
X40181Y93559D01*
X40264Y93589D01*
X40348Y93629D01*
X40432Y93677D01*
X40517Y93734D01*
X40602Y93800D01*
X40687Y93875D01*
X40773Y93958D01*
Y92580D01*
D02*
G37*
G36*
X58239Y96844D02*
X58295Y96801D01*
X58354Y96763D01*
X58417Y96730D01*
X58483Y96702D01*
X58553Y96679D01*
X58625Y96662D01*
X58701Y96650D01*
X58781Y96643D01*
X58864Y96641D01*
X58084Y95862D01*
X58082Y95944D01*
X58075Y96024D01*
X58063Y96100D01*
X58046Y96172D01*
X58023Y96242D01*
X57995Y96308D01*
X57963Y96371D01*
X57924Y96430D01*
X57881Y96486D01*
X57832Y96539D01*
X58186Y96893D01*
X58239Y96844D01*
D02*
G37*
G36*
X85566Y96516D02*
X85518Y96463D01*
X85474Y96407D01*
X85436Y96347D01*
X85403Y96285D01*
X85376Y96219D01*
X85353Y96149D01*
X85336Y96076D01*
X85324Y96000D01*
X85317Y95921D01*
X85315Y95838D01*
X84535Y96618D01*
X84618Y96620D01*
X84697Y96627D01*
X84773Y96639D01*
X84846Y96656D01*
X84916Y96679D01*
X84982Y96706D01*
X85044Y96739D01*
X85104Y96777D01*
X85160Y96821D01*
X85213Y96869D01*
X85566Y96516D01*
D02*
G37*
G36*
X80031Y96324D02*
X80092Y96273D01*
X80154Y96228D01*
X80218Y96189D01*
X80283Y96156D01*
X80349Y96129D01*
X80417Y96108D01*
X80486Y96092D01*
X80556Y96083D01*
X80628Y96080D01*
Y95581D01*
X80556Y95578D01*
X80486Y95568D01*
X80417Y95553D01*
X80349Y95532D01*
X80283Y95505D01*
X80218Y95472D01*
X80154Y95433D01*
X80092Y95388D01*
X80031Y95337D01*
X79971Y95279D01*
Y96382D01*
X80031Y96324D01*
D02*
G37*
G36*
X59122Y99657D02*
X59125Y99580D01*
X59133Y99506D01*
X59146Y99435D01*
X59164Y99368D01*
X59188Y99304D01*
X59217Y99243D01*
X59251Y99186D01*
X59290Y99133D01*
X59335Y99083D01*
X59385Y99036D01*
X58360Y99037D01*
X58410Y99084D01*
X58454Y99134D01*
X58494Y99187D01*
X58528Y99244D01*
X58557Y99305D01*
X58580Y99369D01*
X58599Y99436D01*
X58612Y99506D01*
X58620Y99581D01*
X58622Y99658D01*
X59122Y99657D01*
D02*
G37*
G36*
X16765Y99775D02*
X16850Y99700D01*
X16935Y99634D01*
X17020Y99577D01*
X17104Y99529D01*
X17188Y99489D01*
X17271Y99458D01*
X17354Y99437D01*
X17436Y99423D01*
X17518Y99419D01*
Y98919D01*
X17436Y98915D01*
X17354Y98901D01*
X17271Y98879D01*
X17188Y98849D01*
X17104Y98809D01*
X17020Y98761D01*
X16935Y98704D01*
X16850Y98638D01*
X16765Y98563D01*
X16679Y98480D01*
Y99858D01*
X16765Y99775D01*
D02*
G37*
G36*
X46282Y98280D02*
X46207Y98195D01*
X46141Y98110D01*
X46084Y98025D01*
X46036Y97941D01*
X45996Y97857D01*
X45965Y97774D01*
X45944Y97691D01*
X45930Y97609D01*
X45926Y97527D01*
X45426D01*
X45422Y97609D01*
X45408Y97691D01*
X45386Y97774D01*
X45356Y97857D01*
X45316Y97941D01*
X45268Y98025D01*
X45211Y98110D01*
X45145Y98195D01*
X45070Y98280D01*
X44987Y98366D01*
X46365D01*
X46282Y98280D01*
D02*
G37*
G36*
X80100Y93765D02*
X80161Y93714D01*
X80223Y93669D01*
X80287Y93630D01*
X80352Y93597D01*
X80418Y93570D01*
X80486Y93549D01*
X80555Y93534D01*
X80625Y93524D01*
X80697Y93521D01*
Y93022D01*
X80625Y93019D01*
X80555Y93010D01*
X80486Y92994D01*
X80418Y92973D01*
X80352Y92946D01*
X80287Y92913D01*
X80223Y92874D01*
X80161Y92829D01*
X80100Y92778D01*
X80040Y92720D01*
Y93823D01*
X80100Y93765D01*
D02*
G37*
G36*
X72079Y93125D02*
X71726Y92769D01*
X71476Y93019D01*
X71480Y93023D01*
X71534Y93076D01*
X71832Y93372D01*
X72079Y93125D01*
D02*
G37*
G36*
X60361Y92837D02*
X60007D01*
X60007Y92843D01*
X60008Y92918D01*
X60009Y93339D01*
X60359D01*
X60361Y92837D01*
D02*
G37*
G36*
X16765Y96475D02*
X16850Y96400D01*
X16935Y96334D01*
X17020Y96277D01*
X17104Y96229D01*
X17188Y96189D01*
X17271Y96158D01*
X17354Y96137D01*
X17436Y96123D01*
X17518Y96119D01*
Y95619D01*
X17436Y95615D01*
X17354Y95601D01*
X17271Y95579D01*
X17188Y95549D01*
X17104Y95509D01*
X17020Y95461D01*
X16935Y95404D01*
X16850Y95338D01*
X16765Y95263D01*
X16679Y95180D01*
Y96558D01*
X16765Y96475D01*
D02*
G37*
G36*
X62352Y95698D02*
X62352Y95621D01*
X62358Y95547D01*
X62370Y95476D01*
X62388Y95407D01*
X62413Y95342D01*
X62443Y95279D01*
X62480Y95220D01*
X62523Y95163D01*
X62572Y95109D01*
X62179Y94795D01*
X62128Y94843D01*
X62073Y94886D01*
X62014Y94926D01*
X61951Y94961D01*
X61885Y94992D01*
X61816Y95019D01*
X61742Y95042D01*
X61666Y95060D01*
X61585Y95075D01*
X61501Y95085D01*
X62358Y95778D01*
X62352Y95698D01*
D02*
G37*
G36*
X64845Y95740D02*
X64852Y95661D01*
X64864Y95584D01*
X64881Y95512D01*
X64904Y95442D01*
X64931Y95376D01*
X64964Y95314D01*
X65002Y95254D01*
X65046Y95198D01*
X65094Y95145D01*
X64741Y94792D01*
X64688Y94840D01*
X64632Y94884D01*
X64572Y94922D01*
X64510Y94955D01*
X64444Y94982D01*
X64374Y95005D01*
X64302Y95022D01*
X64225Y95034D01*
X64146Y95041D01*
X64063Y95043D01*
X64843Y95823D01*
X64845Y95740D01*
D02*
G37*
%LPC*%
G36*
X59213Y149776D02*
X58445Y149623D01*
X57794Y149188D01*
X57359Y148537D01*
X57206Y147769D01*
X57359Y147001D01*
X57794Y146350D01*
X58445Y145915D01*
X59213Y145762D01*
X59981Y145915D01*
X60632Y146350D01*
X61067Y147001D01*
X61220Y147769D01*
X61067Y148537D01*
X60632Y149188D01*
X59981Y149623D01*
X59213Y149776D01*
D02*
G37*
G36*
X65118D02*
X64350Y149623D01*
X63699Y149188D01*
X63264Y148537D01*
X63112Y147769D01*
X63264Y147001D01*
X63699Y146350D01*
X64350Y145915D01*
X65118Y145762D01*
X65887Y145915D01*
X66538Y146350D01*
X66973Y147001D01*
X67126Y147769D01*
X66973Y148537D01*
X66538Y149188D01*
X65887Y149623D01*
X65118Y149776D01*
D02*
G37*
G36*
X80341Y-11231D02*
X80302D01*
X80276Y-11238D01*
X80203Y-11251D01*
X80118Y-11270D01*
X80020Y-11310D01*
X79915Y-11369D01*
X79862Y-11408D01*
X79810Y-11447D01*
X79764Y-11500D01*
X79718Y-11559D01*
Y-11566D01*
X79705Y-11579D01*
X79692Y-11605D01*
X79672Y-11638D01*
X79653Y-11690D01*
X79626Y-11749D01*
X79607Y-11821D01*
X79580Y-11907D01*
X79554Y-12005D01*
X79528Y-12117D01*
X79502Y-12241D01*
X79482Y-12379D01*
X79462Y-12536D01*
X79449Y-12707D01*
X79443Y-12891D01*
X79436Y-13094D01*
Y-13107D01*
Y-13140D01*
Y-13199D01*
X79443Y-13278D01*
Y-13363D01*
X79449Y-13468D01*
X79456Y-13579D01*
X79469Y-13698D01*
X79502Y-13953D01*
X79521Y-14078D01*
X79548Y-14196D01*
X79574Y-14308D01*
X79613Y-14413D01*
X79653Y-14504D01*
X79698Y-14583D01*
Y-14590D01*
X79712Y-14596D01*
X79744Y-14642D01*
X79803Y-14701D01*
X79875Y-14767D01*
X79974Y-14832D01*
X80085Y-14891D01*
X80210Y-14937D01*
X80276Y-14944D01*
X80348Y-14951D01*
X80387D01*
X80413Y-14944D01*
X80479Y-14931D01*
X80571Y-14905D01*
X80669Y-14859D01*
X80781Y-14793D01*
X80833Y-14754D01*
X80886Y-14701D01*
X80938Y-14649D01*
X80991Y-14583D01*
Y-14577D01*
X81004Y-14563D01*
X81017Y-14544D01*
X81030Y-14511D01*
X81056Y-14465D01*
X81076Y-14406D01*
X81102Y-14340D01*
X81129Y-14262D01*
X81148Y-14163D01*
X81174Y-14058D01*
X81201Y-13934D01*
X81220Y-13803D01*
X81233Y-13645D01*
X81247Y-13481D01*
X81260Y-13297D01*
Y-13094D01*
Y-13088D01*
Y-13081D01*
Y-13048D01*
Y-12989D01*
X81253Y-12910D01*
Y-12825D01*
X81247Y-12720D01*
X81240Y-12609D01*
X81227Y-12484D01*
X81194Y-12235D01*
X81174Y-12110D01*
X81148Y-11992D01*
X81122Y-11880D01*
X81083Y-11776D01*
X81043Y-11684D01*
X80997Y-11605D01*
Y-11598D01*
X80984Y-11592D01*
X80971Y-11572D01*
X80951Y-11546D01*
X80892Y-11487D01*
X80820Y-11415D01*
X80722Y-11349D01*
X80610Y-11290D01*
X80551Y-11264D01*
X80486Y-11244D01*
X80413Y-11238D01*
X80341Y-11231D01*
D02*
G37*
%LPD*%
D44*
X86600Y108693D02*
X86976Y109069D01*
X73976Y89169D02*
Y91169D01*
X74576Y91769D01*
X75281D01*
X75576Y87569D02*
X82076D01*
X76376Y84969D02*
X81776D01*
X82002Y85195D01*
Y85969D01*
X81602Y86369D02*
X82002Y85969D01*
X74176Y86369D02*
X81602D01*
X77086Y88669D02*
X82876D01*
X73976Y89169D02*
X75576Y87569D01*
X71476Y86169D02*
X77776Y79869D01*
X66476Y87069D02*
X74901Y78644D01*
X82076Y87569D02*
X83976Y85669D01*
X85976Y77469D02*
Y82869D01*
X86276Y83169D01*
X86876D02*
X87176Y82869D01*
Y76669D02*
Y82869D01*
X85076Y76569D02*
X85976Y77469D01*
X81576Y76569D02*
X85076D01*
X86276Y83169D02*
X86876D01*
X87176Y76669D02*
X87476Y76369D01*
X86139Y72032D02*
Y75006D01*
X85876Y75269D02*
X86139Y75006D01*
X81976Y71369D02*
X85476D01*
X86139Y72032D01*
X81676Y68569D02*
X87776D01*
X78051Y72194D02*
X81676Y68569D01*
X87776D02*
X88176Y68969D01*
X79776Y66269D02*
Y68769D01*
Y66269D02*
X80876Y65169D01*
X83276D01*
X82876Y88669D02*
X84576Y86969D01*
X74901Y48047D02*
X79576Y52722D01*
X74976Y49769D02*
X78576Y53369D01*
X73474Y49769D02*
X74976D01*
X76273Y46269D02*
X78051Y48047D01*
X71752D02*
X73474Y49769D01*
X65453Y57946D02*
Y70094D01*
X92050Y86299D02*
X92320Y86029D01*
X93130D01*
X93400Y86299D01*
Y88069D01*
X93670Y88339D01*
X94480D01*
X98426Y72163D02*
X98696Y71893D01*
X98426Y72163D02*
Y72973D01*
X98696Y73243D01*
X101106D01*
X101376Y73514D01*
Y74594D01*
Y75269D01*
X56076Y96969D02*
Y100669D01*
X58349Y81440D02*
X58686Y81777D01*
Y82452D01*
X58349Y82790D02*
X58686Y82452D01*
X56076Y82790D02*
X58349D01*
X54578D02*
X56076D01*
X54241Y83127D02*
X54578Y82790D01*
X54241Y83127D02*
Y83803D01*
X54578Y84140D01*
X56076D01*
X58349D01*
X58686Y84478D01*
Y85153D01*
X58349Y85491D02*
X58686Y85153D01*
X56076Y85491D02*
X58349D01*
X54578D02*
X56076D01*
X54241Y85828D02*
X54578Y85491D01*
X54241Y85828D02*
Y86503D01*
X54578Y86841D01*
X56076D01*
X58349D01*
X58686Y87179D01*
Y87854D01*
X58349Y88191D02*
X58686Y87854D01*
X56076Y88191D02*
X58349D01*
X54578D02*
X56076D01*
X54241Y88529D02*
X54578Y88191D01*
X54241Y88529D02*
Y89204D01*
X54578Y89542D01*
X56076D01*
X58349D01*
X58686Y89880D01*
Y90555D01*
X58349Y90892D02*
X58686Y90555D01*
X56076Y90892D02*
X58349D01*
X55738Y91230D02*
X56076Y90892D01*
X55738Y91230D02*
Y91905D01*
X56076Y92243D01*
X58349D01*
X58686Y92580D01*
Y93255D01*
X58349Y93593D02*
X58686Y93255D01*
X56076Y93593D02*
X58349D01*
X55738Y93931D02*
X56076Y93593D01*
X55738Y93931D02*
Y94606D01*
X56076Y94943D01*
X56832D01*
X57169Y95281D01*
Y95956D01*
X56832Y96294D02*
X57169Y95956D01*
X56414Y96294D02*
X56832D01*
X56076Y96631D02*
X56414Y96294D01*
X56076Y96631D02*
Y96969D01*
X71751Y54347D02*
X73429Y52669D01*
X75976D01*
X77176Y53869D01*
Y55369D01*
X76576Y55969D02*
X77176Y55369D01*
X68702Y55969D02*
X69576D01*
X74640D02*
X76576D01*
X74302Y56307D02*
X74640Y55969D01*
X74302Y56307D02*
Y57303D01*
X73965Y57640D02*
X74302Y57303D01*
X73290Y57640D02*
X73965D01*
X72952Y57303D02*
X73290Y57640D01*
X72952Y55969D02*
Y57303D01*
Y55958D02*
Y55969D01*
X72614Y55621D02*
X72952Y55958D01*
X71939Y55621D02*
X72614D01*
X71602Y55958D02*
X71939Y55621D01*
X71602Y55958D02*
Y55969D01*
Y57303D01*
X71264Y57640D02*
X71602Y57303D01*
X70589Y57640D02*
X71264D01*
X70251Y57303D02*
X70589Y57640D01*
X70251Y56307D02*
Y57303D01*
X69914Y55969D02*
X70251Y56307D01*
X69576Y55969D02*
X69914D01*
X73976Y134869D02*
Y135369D01*
Y129069D02*
Y129269D01*
Y134265D02*
Y134869D01*
X73706Y133995D02*
X73976Y134265D01*
X72431Y133995D02*
X73706D01*
X72161Y133725D02*
X72431Y133995D01*
X72161Y132915D02*
Y133725D01*
Y132915D02*
X72431Y132645D01*
X73976D01*
X75402D01*
X75673Y132375D01*
Y131565D02*
Y132375D01*
X75402Y131295D02*
X75673Y131565D01*
X73976Y131295D02*
X75402D01*
X72431D02*
X73976D01*
X72161Y131025D02*
X72431Y131295D01*
X72161Y130214D02*
Y131025D01*
Y130214D02*
X72431Y129944D01*
X73706D01*
X73976Y129674D01*
Y129269D02*
Y129674D01*
X92176Y83069D02*
X92776Y82469D01*
Y77117D02*
Y82469D01*
Y77117D02*
X93046Y76846D01*
X95351D01*
X95621Y76576D01*
Y75766D02*
Y76576D01*
X95351Y75496D02*
X95621Y75766D01*
X92776Y75496D02*
X95351D01*
X90101D02*
X92776D01*
X89831Y75226D02*
X90101Y75496D01*
X89831Y74416D02*
Y75226D01*
Y74416D02*
X90101Y74146D01*
X92776D01*
X95351D01*
X95621Y73876D01*
Y73065D02*
Y73876D01*
X95351Y72795D02*
X95621Y73065D01*
X92776Y72795D02*
X95351D01*
X90101D02*
X92776D01*
X89831Y72525D02*
X90101Y72795D01*
X89831Y71715D02*
Y72525D01*
Y71715D02*
X90101Y71445D01*
X92776D01*
X95351D01*
X95621Y71175D01*
Y70365D02*
Y71175D01*
X95351Y70095D02*
X95621Y70365D01*
X92776Y70095D02*
X95351D01*
X90101D02*
X92776D01*
X89831Y69824D02*
X90101Y70095D01*
X89831Y69014D02*
Y69824D01*
Y69014D02*
X90101Y68744D01*
X92506D01*
X92776Y68474D01*
Y68069D02*
Y68474D01*
X105759Y68893D02*
X106029Y68623D01*
X102876Y68893D02*
X105759D01*
X102692D02*
X102876D01*
X102422Y69163D02*
X102692Y68893D01*
X102422Y69163D02*
Y69973D01*
X102692Y70243D01*
X102876D01*
X105759D01*
X106029Y70513D01*
Y71324D01*
X105759Y71594D02*
X106029Y71324D01*
X103146Y71594D02*
X105759D01*
X62303Y69742D02*
Y73244D01*
X74901Y76394D02*
Y78644D01*
X68976Y48369D02*
X71076Y46269D01*
X76273D01*
X71776Y165669D02*
X74976Y162469D01*
X69092Y164369D02*
X70992Y162469D01*
X58376Y127069D02*
X60185Y125260D01*
X74976Y141969D02*
Y157769D01*
X73176Y140169D02*
X74976Y141969D01*
X72976Y140169D02*
X73176D01*
X109269Y36769D02*
X118500Y46000D01*
X127676Y41824D02*
X133500Y36000D01*
X127676Y41824D02*
Y81669D01*
X125176Y34324D02*
X133500Y26000D01*
X125176Y34324D02*
Y78269D01*
X120876Y82569D02*
X125176Y78269D01*
X108576Y91669D02*
X117676D01*
X127676Y81669D01*
X58872Y98439D02*
Y99665D01*
X42076Y80769D02*
X47698Y86391D01*
X42076Y48869D02*
Y80769D01*
X42576Y88669D02*
X45676Y91769D01*
X18676Y95869D02*
X24076Y90469D01*
X41476D01*
X15976Y95869D02*
X18676D01*
X15976Y99169D02*
X18576D01*
X24476Y93269D01*
X41476D01*
X15976Y88669D02*
X42576D01*
X16676Y105069D02*
X45876Y134269D01*
X87266Y98569D02*
X94276D01*
X104076Y88769D01*
Y85269D02*
Y88769D01*
Y85269D02*
X106776Y82569D01*
X120876D01*
X100576Y82869D02*
Y86569D01*
X97576Y89569D02*
X100576Y86569D01*
X100976Y78069D02*
X101376Y78469D01*
X98776Y78069D02*
X100976D01*
X98376Y77669D02*
X98776Y78069D01*
X98376Y76869D02*
Y77669D01*
Y76869D02*
X98776Y76469D01*
X101076D01*
X101376Y76169D01*
Y75269D02*
Y76169D01*
X89176Y86969D02*
X91576Y84569D01*
X81201Y51197D02*
X82776Y52772D01*
Y55069D01*
X83676Y55969D01*
X66876Y55869D02*
X68976Y53769D01*
Y48369D02*
Y53769D01*
X76176Y73669D02*
X77776Y75269D01*
X76176Y72369D02*
Y73669D01*
Y72369D02*
X79776Y68769D01*
X77776Y75269D02*
Y79869D01*
X78051Y72194D02*
Y73244D01*
X87776Y69969D02*
X88176Y69569D01*
X81976Y69969D02*
X87776D01*
X81676Y70269D02*
X81976Y69969D01*
X81676Y70269D02*
Y71069D01*
X81976Y71369D01*
X88176Y68969D02*
Y69569D01*
X75976Y84569D02*
X76376Y84969D01*
X83289Y80708D02*
X84115D01*
X75976Y84069D02*
Y84569D01*
X43476Y54969D02*
Y79869D01*
X74676Y71876D02*
Y73769D01*
X71976Y127069D02*
X73976Y129069D01*
X73476Y135869D02*
X73976Y135369D01*
X69976Y135869D02*
X73476D01*
X69174Y135067D02*
X69976Y135869D01*
X63576Y56069D02*
X65453Y57946D01*
X46076Y56069D02*
X63576D01*
X51476Y84169D02*
Y90969D01*
X53176Y92669D01*
X53076Y83469D02*
Y90169D01*
X49176Y58469D02*
Y64969D01*
Y58469D02*
X50276Y57369D01*
X62676D01*
X64176Y58869D01*
Y67869D01*
X62303Y69742D02*
X64176Y67869D01*
X83876Y59569D02*
Y64569D01*
X83276Y65169D02*
X83876Y64569D01*
X79576Y52722D02*
Y55269D01*
X83876Y59569D01*
X71576Y67169D02*
Y77964D01*
Y67169D02*
X74876Y63869D01*
X76476Y65569D02*
X77976Y64069D01*
X82002D01*
X82576Y60069D02*
Y63495D01*
X82002Y64069D02*
X82576Y63495D01*
X67976Y64169D02*
Y65169D01*
Y64169D02*
X68176Y63969D01*
X70276Y65869D02*
Y77369D01*
X68176Y63969D02*
X72776D01*
X73176Y63569D01*
X68476Y62469D02*
X72776D01*
X73176Y62869D01*
Y63569D01*
X68276Y62269D02*
X68476Y62469D01*
X68276Y61269D02*
Y62269D01*
Y61269D02*
X68576Y60969D01*
X74976D01*
X76676Y62669D01*
X80776D01*
X81076Y62369D01*
Y61569D02*
Y62369D01*
X80776Y61269D02*
X81076Y61569D01*
X77476Y61269D02*
X80776D01*
X75876Y59669D02*
X77476Y61269D01*
X68676Y59669D02*
X75876D01*
X68276Y59269D02*
X68676Y59669D01*
X68276Y56395D02*
Y59269D01*
Y56395D02*
X68702Y55969D01*
X53276Y80269D02*
X53676Y79869D01*
X53276Y80269D02*
Y81069D01*
X53646Y81440D01*
X60876Y78369D02*
X61176Y78669D01*
X53676Y79869D02*
X60876D01*
X61176Y79569D01*
Y78669D02*
Y79569D01*
X54676Y146769D02*
X57970Y143474D01*
Y136616D02*
Y143474D01*
X56110Y136170D02*
X56676Y136736D01*
Y139069D01*
X52976Y142769D02*
X56676Y139069D01*
X57276Y135922D02*
X57970Y136616D01*
X53076Y90169D02*
X54576Y91669D01*
X102676Y72064D02*
X103146Y71594D01*
X100576Y82869D02*
X105676Y77769D01*
Y76669D02*
Y77769D01*
X105176Y76169D02*
X105676Y76669D01*
X103176Y76169D02*
X105176D01*
X102676Y75669D02*
X103176Y76169D01*
X102676Y72064D02*
Y75669D01*
X82776Y49623D02*
X84350Y51197D01*
X107276Y61414D02*
Y61969D01*
Y78169D01*
X101776Y83669D02*
X107276Y78169D01*
X101776Y83669D02*
Y87069D01*
X98076Y90769D02*
X101776Y87069D01*
X87276Y90769D02*
X98076D01*
X87500Y51197D02*
X89113Y49584D01*
X84350Y54346D02*
X85927Y52769D01*
X73176Y71269D02*
Y78869D01*
Y71269D02*
X76476Y67969D01*
Y65569D02*
Y67969D01*
X74676Y73769D02*
X76576Y75669D01*
Y78769D01*
X67976Y65169D02*
X68215Y65408D01*
X69815D01*
X70276Y65869D01*
X66876Y75643D02*
X66990Y75757D01*
X66876Y55869D02*
Y69343D01*
X66990Y69457D01*
Y70731D01*
X66876Y70845D02*
X66990Y70731D01*
X66876Y70845D02*
Y75643D01*
X66990Y75757D02*
Y78455D01*
X60184Y85261D02*
X66990Y78455D01*
X63840Y74782D02*
X65453Y76394D01*
X54467Y77740D02*
X55095Y78369D01*
X60876D01*
X54467Y75578D02*
Y77740D01*
Y75578D02*
X55264Y74782D01*
X63840D01*
X53646Y81440D02*
X58349D01*
X47168Y79861D02*
X51476Y84169D01*
X48168Y78561D02*
X53076Y83469D01*
X48168Y75261D02*
Y78561D01*
X43476Y54969D02*
X45711Y52734D01*
X60766D02*
X62303Y51197D01*
X45711Y52734D02*
X60766D01*
X48168Y65977D02*
X49176Y64969D01*
X44976Y65969D02*
X47276Y63669D01*
X44976Y74069D02*
X47168Y76261D01*
Y79861D01*
X52235Y100910D02*
X53176Y99969D01*
X45676Y91769D02*
Y99069D01*
X60185Y116869D02*
X60476Y116578D01*
X57334Y97391D02*
Y99729D01*
X54976Y131569D02*
X56110Y132703D01*
Y136170D01*
X74676Y71876D02*
X78051Y68501D01*
Y66945D02*
Y68501D01*
X47676Y86413D02*
X47698Y86391D01*
X54576Y91669D02*
Y100469D01*
X53176Y92669D02*
Y99969D01*
X47676Y86413D02*
Y107069D01*
X47520D02*
X47676D01*
X32476Y113969D02*
X40620D01*
X84115Y80708D02*
X84350Y80943D01*
Y83643D01*
X40620Y113969D02*
X47520Y107069D01*
X73076Y87469D02*
X74176Y86369D01*
X75281Y91769D02*
X76783Y93271D01*
X79478D02*
X82774D01*
X75573Y90182D02*
X77086Y88669D01*
X78132Y90182D02*
X83663D01*
X79409Y95831D02*
X82214D01*
X87276Y90769D01*
X69174Y126541D02*
Y135067D01*
X45876Y134269D02*
X54376D01*
X54976Y128769D02*
Y131569D01*
X50905Y123198D02*
X53276Y125569D01*
X75976Y84069D02*
X76476Y83569D01*
X81776D02*
X82776D01*
X82976Y83369D01*
Y81021D02*
Y83369D01*
Y81021D02*
X83289Y80708D01*
X76476Y83569D02*
X79176D01*
X79776Y82969D01*
Y79269D02*
Y82969D01*
Y79269D02*
X81076Y77969D01*
X82376D01*
X82813Y78406D01*
X81476Y83269D02*
X81776Y83569D01*
X81476Y80469D02*
Y83269D01*
Y80469D02*
X82813Y79132D01*
Y78406D02*
Y79132D01*
X90776Y80269D02*
X91276Y80769D01*
X89076Y80269D02*
X90776D01*
X88476Y79669D02*
X89076Y80269D01*
X90676Y83069D02*
X92176D01*
X88476Y82569D02*
Y83469D01*
Y82569D02*
X89176Y81869D01*
X90876D01*
X91276Y81469D01*
Y80769D02*
Y81469D01*
X87476Y76369D02*
X88876D01*
X88476Y78869D02*
Y79669D01*
X88876Y76369D02*
X89376Y76869D01*
Y77969D01*
X88476Y78869D02*
X89376Y77969D01*
X80376Y73469D02*
Y75369D01*
X81576Y76569D01*
X80376Y73469D02*
X81276Y72569D01*
X82776D01*
X83176Y72969D01*
Y74769D01*
X83676Y75269D01*
X85876D01*
X91976Y64769D02*
X92776Y65569D01*
Y68069D01*
X85976Y64769D02*
X91976D01*
X85676Y64469D02*
X85976Y64769D01*
X85676Y63069D02*
X86176Y62569D01*
X92376D01*
X92776Y62169D01*
X92376Y60369D02*
X92776Y60769D01*
X86376Y60369D02*
X92376D01*
X85976Y59969D02*
X86376Y60369D01*
X85976Y58569D02*
Y59969D01*
Y58569D02*
X86376Y58169D01*
X92276D02*
X92776Y57669D01*
X85676Y63069D02*
Y64469D01*
X92776Y60769D02*
Y62169D01*
X86376Y58169D02*
X92276D01*
X83676Y55969D02*
X92276D01*
X92776Y56469D01*
Y57669D01*
X93799Y84569D02*
X94276Y84092D01*
Y78569D02*
Y84092D01*
Y78569D02*
X94676Y78169D01*
X95376D01*
X95776Y78569D01*
X96976Y84469D02*
X97276Y84169D01*
X91576Y84569D02*
X93799D01*
X95776Y78569D02*
Y84169D01*
X96076Y84469D02*
X96976D01*
X95776Y84169D02*
X96076Y84469D01*
X93876Y68269D02*
X94176Y68569D01*
X99776Y64969D02*
X100176Y65369D01*
X93976Y60569D02*
X94576Y61169D01*
X94476Y55843D02*
X95050Y55269D01*
X94576Y61169D02*
X99876D01*
X94176Y68569D02*
X96776D01*
X97276Y69069D01*
Y84169D01*
X100176Y65369D02*
Y66269D01*
X99676Y66769D02*
X100176Y66269D01*
X93876Y67045D02*
Y68269D01*
Y67045D02*
X94152Y66769D01*
X99676D01*
X94276Y64969D02*
X99776D01*
X93876Y64569D02*
X94276Y64969D01*
X93876Y63569D02*
Y64569D01*
Y63569D02*
X94476Y62969D01*
X99876D01*
X100276Y62569D01*
X93976Y59569D02*
Y60569D01*
Y59569D02*
X94476Y59069D01*
X97176D01*
X97076Y57069D02*
X97576Y57569D01*
Y58669D01*
X97176Y59069D02*
X97576Y58669D01*
X94476Y55843D02*
Y56669D01*
X94876Y57069D01*
X97076D01*
X85927Y52769D02*
X94876D01*
X95050Y55269D02*
X96276D01*
X97476Y54069D01*
X94876Y52769D02*
X96176Y51469D01*
X99076D01*
X99976Y52369D01*
X97476Y54069D02*
X99376D01*
X99976Y53469D01*
Y52369D02*
Y53469D01*
X107276Y60669D02*
Y61414D01*
Y60669D02*
X110876Y57069D01*
X82776Y46869D02*
Y49623D01*
X106029Y58716D02*
Y68623D01*
Y58716D02*
X109076Y55669D01*
X101376Y65469D02*
X101776Y65869D01*
X104376Y62169D02*
X104876Y62669D01*
X101376Y64369D02*
Y65469D01*
Y64369D02*
X101776Y63969D01*
X104376D01*
X104876Y63469D01*
Y62669D02*
Y63469D01*
X101776Y65869D02*
X104545D01*
X104876Y66200D01*
X104476Y67569D02*
X104876Y67169D01*
Y66200D02*
Y67169D01*
X99876Y61169D02*
X100276Y61569D01*
Y62569D01*
X101776Y62169D02*
X104376D01*
X101376Y61769D02*
X101776Y62169D01*
X101376Y60769D02*
Y61769D01*
Y60769D02*
X101776Y60369D01*
X104176Y58569D02*
X104776Y59169D01*
X101376Y53269D02*
X101876Y52769D01*
X107476D01*
X107976Y52269D01*
Y51069D02*
Y52269D01*
X107476Y50569D02*
X107976Y51069D01*
X101776Y60369D02*
X104176D01*
X104776Y59769D01*
Y59169D02*
Y59769D01*
X101376Y58169D02*
X101776Y58569D01*
X104176D01*
X101376Y57369D02*
Y58169D01*
Y57369D02*
X101876Y56869D01*
X106276D01*
X106376Y54969D02*
X106776Y55369D01*
Y56369D01*
X106276Y56869D02*
X106776Y56369D01*
X101376Y53269D02*
Y54569D01*
X101776Y54969D01*
X106376D01*
X89113Y49584D02*
X99691D01*
X100676Y50569D01*
X107476D01*
X109076Y42669D02*
Y55669D01*
X104976Y45677D02*
Y48769D01*
X104376Y45077D02*
X104976Y45677D01*
X103068Y45077D02*
X104376D01*
X102576Y45569D02*
X103068Y45077D01*
X95076D02*
X95476Y45477D01*
X90649Y45696D02*
Y48047D01*
Y45696D02*
X91268Y45077D01*
X95076D01*
X95476Y45477D02*
Y47469D01*
X95876Y47869D01*
X97476D01*
X97976Y47369D01*
Y45269D02*
Y47369D01*
Y45269D02*
X98168Y45077D01*
X99784D01*
X100176Y45469D01*
Y48069D01*
X100576Y48469D01*
X102176D01*
X102576Y48069D01*
Y45569D02*
Y48069D01*
X104976Y48769D02*
X105376Y49169D01*
X106576D01*
X106976Y48769D01*
Y42769D02*
X107376Y42369D01*
X108776D01*
X109076Y42669D01*
X106976Y42769D02*
Y48769D01*
X110876Y42069D02*
Y57069D01*
X108876Y40069D02*
X110876Y42069D01*
X92276Y43769D02*
X92676Y43369D01*
X97376Y43569D02*
X97876Y43069D01*
X90280Y88069D02*
X92050Y86299D01*
X101376Y78469D02*
Y79669D01*
X98576Y82469D02*
Y86469D01*
Y82469D02*
X101376Y79669D01*
X98696Y71893D02*
X100552D01*
X100976Y71469D01*
Y68269D02*
Y71469D01*
Y68269D02*
X101676Y67569D01*
X104476D01*
X94480Y88339D02*
X96706D01*
X98576Y86469D01*
X94576Y40069D02*
X95076Y40569D01*
X92676D02*
Y43369D01*
Y40569D02*
X93176Y40069D01*
X94576D01*
X86976D02*
X90176D01*
X90576Y40469D01*
Y43369D01*
X90976Y43769D01*
X92276D01*
X95076Y40569D02*
Y43069D01*
X95576Y43569D01*
X97376D01*
X97876Y40569D02*
Y43069D01*
Y40569D02*
X98376Y40069D01*
X108876D01*
X47276Y61669D02*
Y63669D01*
X44976Y59369D02*
X47276Y61669D01*
X44976Y57169D02*
Y59369D01*
Y57169D02*
X46076Y56069D01*
X44976Y65969D02*
Y68069D01*
X46276Y69369D01*
X44976Y72369D02*
Y74069D01*
Y72369D02*
X46276Y71069D01*
Y69369D02*
Y71069D01*
X46676Y72869D02*
Y73769D01*
X48168Y75261D01*
X48168Y65977D02*
Y71377D01*
X46676Y72869D02*
X48168Y71377D01*
X71976Y111269D02*
Y127069D01*
X84350Y83643D02*
X85076Y84369D01*
X87576D01*
X88476Y83469D01*
X83976Y85669D02*
X88076D01*
X90676Y83069D01*
X84576Y86969D02*
X89176D01*
X83663Y90182D02*
X85776Y88069D01*
X90280D01*
X82774Y93271D02*
X86476Y89569D01*
X97576D01*
X84527Y95831D02*
X87266Y98569D01*
X81876Y59369D02*
X82576Y60069D01*
X77076Y57669D02*
X78576Y56169D01*
Y53369D02*
Y56169D01*
X77076Y57669D02*
Y58569D01*
X77876Y59369D01*
X81876D01*
X79626Y113219D02*
X80676Y114269D01*
X79626Y102319D02*
Y113219D01*
X87088Y110369D02*
X87787Y111069D01*
X87088Y108693D02*
Y110369D01*
X87787Y111069D02*
X89976D01*
X90649Y111742D01*
X80676Y114269D02*
X90126D01*
X90649Y113745D01*
Y111742D02*
Y113745D01*
X43476Y79869D02*
X48876Y85269D01*
Y98740D01*
X50905Y100769D01*
X69576Y85769D02*
X76576Y78769D01*
X61476Y86169D02*
X70276Y77369D01*
X62476Y87063D02*
X71576Y77964D01*
X71976Y111269D02*
X73876Y109369D01*
X78895Y101588D02*
X79626Y102319D01*
X75539Y101588D02*
X78895D01*
X68276Y92373D02*
Y99869D01*
X71476Y86169D02*
Y92769D01*
X64076Y90469D02*
Y91910D01*
X61576Y95752D02*
Y95869D01*
X57334Y97391D02*
X58871Y95854D01*
X60184Y85261D02*
Y92661D01*
X60184Y92661D02*
X60184Y92661D01*
X57334Y99729D02*
X60476Y102871D01*
X65302Y102843D02*
Y102965D01*
X65302Y102965D01*
X61476Y86169D02*
Y93250D01*
X62476Y87063D02*
Y91969D01*
X73876Y102969D02*
Y109369D01*
X69576Y85769D02*
Y100569D01*
X70476Y101469D01*
X54605Y102140D02*
X56076Y100669D01*
X53476Y101569D02*
X54576Y100469D01*
X70476Y101469D02*
X72376D01*
X73876Y102969D01*
X65302Y102843D02*
X68276Y99869D01*
X65302Y102965D02*
Y104052D01*
X65301Y104053D02*
X65302Y104052D01*
X66476Y87069D02*
Y90573D01*
X68276Y92373D01*
X65301Y125044D02*
X67676Y127419D01*
Y136369D01*
X70276Y138969D01*
Y140369D01*
X69776Y140869D02*
X70276Y140369D01*
X62776Y140869D02*
X69776D01*
X61476Y139569D02*
X62776Y140869D01*
X61476Y135169D02*
Y139569D01*
X59276Y132969D02*
X61476Y135169D01*
X58872Y99665D02*
X61476Y102269D01*
X52976Y142769D02*
Y162769D01*
X55876Y165669D01*
X71776D01*
X54676Y146769D02*
Y159569D01*
X59476Y164369D01*
X69092D01*
X56076Y129369D02*
Y131069D01*
X57276Y132269D01*
Y135922D01*
X53276Y125569D02*
X57349D01*
X58872Y124046D01*
X52235Y100910D02*
Y117279D01*
X50905Y100769D02*
Y123198D01*
X52235Y117279D02*
X53819Y118862D01*
X60476Y102871D02*
Y116578D01*
X61476Y102269D02*
Y115969D01*
X57276Y128169D02*
X59412D01*
X56076Y129369D02*
X57276Y128169D01*
X54976Y128769D02*
X56676Y127069D01*
X58376D01*
X58872Y123980D02*
Y124046D01*
X59412Y128169D02*
X63028Y124554D01*
X61476Y115969D02*
X63028Y117521D01*
Y124554D01*
X58872Y113565D02*
Y121422D01*
X54605Y102140D02*
Y106598D01*
X53476Y101569D02*
Y108169D01*
X58872Y113565D01*
X61476Y93250D02*
X61497Y93270D01*
X62476Y91969D02*
X63176Y92669D01*
Y94152D01*
X61576Y95752D02*
X63176Y94152D01*
X64076Y91910D02*
X65076Y92910D01*
Y94810D01*
X64056Y95831D02*
X65076Y94810D01*
X65576Y86469D02*
X73176Y78869D01*
X65576Y86469D02*
Y88969D01*
X64076Y90469D02*
X65576Y88969D01*
X82776Y46869D02*
X84594Y45051D01*
Y42451D02*
Y45051D01*
Y42451D02*
X86976Y40069D01*
X45176Y45769D02*
X66376D01*
X75376Y36769D01*
X42076Y48869D02*
X45176Y45769D01*
X75376Y36769D02*
X109269D01*
D52*
X71476Y92769D02*
X72979Y94272D01*
Y99028D01*
X75539Y101588D01*
X60184Y92661D02*
Y99477D01*
X65301Y104053D02*
Y109569D01*
X66576Y110844D01*
Y111469D01*
X65301Y112744D02*
X66576Y111469D01*
X65301Y113969D02*
Y114569D01*
Y115530D01*
X65541Y115770D01*
X66929D01*
X67169Y116010D01*
Y116730D01*
X66929Y116970D02*
X67169Y116730D01*
X65541Y116970D02*
X66929D01*
X65301Y117210D02*
X65541Y116970D01*
X65301Y117210D02*
Y117930D01*
X65541Y118170D01*
X67796D01*
X68036Y118410D01*
Y119131D01*
X67796Y119371D02*
X68036Y119131D01*
X65541Y119371D02*
X67796D01*
X65301Y119611D02*
X65541Y119371D01*
X65301Y119611D02*
Y120169D01*
Y112744D02*
Y113969D01*
Y120169D02*
Y125044D01*
X60184Y99477D02*
X62489Y101782D01*
Y115682D01*
X57576Y130069D02*
X59376D01*
X60185Y125260D02*
X60185Y125260D01*
X59376Y130069D02*
X64028Y125417D01*
X62489Y115682D02*
X64028Y117221D01*
Y125417D01*
X60185Y116869D02*
Y125260D01*
X60185Y116869D02*
X60185Y116869D01*
X57625Y107314D02*
X58938Y108626D01*
X54605Y106598D02*
X55321Y107314D01*
X57625D01*
D73*
X118500Y46000D02*
D03*
Y26000D02*
D03*
X133500Y36000D02*
D03*
Y26000D02*
D03*
Y6000D02*
D03*
D75*
X31937Y25000D02*
D03*
D77*
X71736Y106067D02*
D03*
X76853Y103508D02*
D03*
X69173Y113744D02*
D03*
X69148Y108769D02*
D03*
X66676D02*
D03*
X71776D02*
D03*
X69172Y116304D02*
D03*
X66614Y113744D02*
D03*
X66776Y103469D02*
D03*
X59276Y132969D02*
D03*
X74901Y48047D02*
D03*
X78051D02*
D03*
X65453Y70094D02*
D03*
X65453Y76394D02*
D03*
X62303Y73244D02*
D03*
X69170Y111185D02*
D03*
X74901Y76394D02*
D03*
X84350Y54346D02*
D03*
X71752Y48047D02*
D03*
X90649D02*
D03*
X81201Y51197D02*
D03*
X84350Y51197D02*
D03*
X87500D02*
D03*
X78051Y73244D02*
D03*
X69174Y126541D02*
D03*
X62303Y51197D02*
D03*
X71751Y54347D02*
D03*
X74876Y63869D02*
D03*
X78051Y66945D02*
D03*
X47676Y107069D02*
D03*
X87088Y108693D02*
D03*
X76851Y111188D02*
D03*
X79409Y95831D02*
D03*
X73076Y87469D02*
D03*
X76783Y93271D02*
D03*
X79478D02*
D03*
X75573Y90182D02*
D03*
X78132Y90182D02*
D03*
X66615Y121355D02*
D03*
X69176Y121269D02*
D03*
X74291Y121422D02*
D03*
X84527Y95831D02*
D03*
X74176Y111169D02*
D03*
X76851Y106068D02*
D03*
X61576Y95869D02*
D03*
X58871Y95854D02*
D03*
Y98439D02*
D03*
X64056Y95831D02*
D03*
X71737Y103507D02*
D03*
X66615Y106068D02*
D03*
X53819Y118862D02*
D03*
X57576Y130069D02*
D03*
X58872Y123980D02*
D03*
Y121422D02*
D03*
X58938Y108626D02*
D03*
X61497Y93270D02*
D03*
X74270Y113769D02*
D03*
X76853Y113744D02*
D03*
D78*
X22376Y122269D02*
D03*
X19376Y115669D02*
D03*
X19676Y135069D02*
D03*
X14776Y130869D02*
D03*
X5176Y86969D02*
D03*
X15276Y83369D02*
D03*
X15676Y60869D02*
D03*
X13976Y40869D02*
D03*
X14276Y50669D02*
D03*
X18776Y20869D02*
D03*
X35776Y11669D02*
D03*
X39776Y23169D02*
D03*
X39076Y5269D02*
D03*
X13576Y5169D02*
D03*
X63576Y7769D02*
D03*
X54376Y7869D02*
D03*
X82176Y20369D02*
D03*
X89176Y31869D02*
D03*
X127976Y11069D02*
D03*
X125976Y21369D02*
D03*
X124976Y30469D02*
D03*
X112976Y30769D02*
D03*
X121576Y71269D02*
D03*
X130776Y81469D02*
D03*
X131676Y91669D02*
D03*
X89476Y135769D02*
D03*
X104676Y154269D02*
D03*
X93776Y169669D02*
D03*
X86776Y140769D02*
D03*
X30776Y53869D02*
D03*
X77176Y14869D02*
D03*
X89176Y25069D02*
D03*
X123376Y3732D02*
D03*
X136476Y41069D02*
D03*
X136876Y30969D02*
D03*
D79*
X48576Y131569D02*
D03*
X27276Y125669D02*
D03*
X15476Y32269D02*
D03*
X19276Y32312D02*
D03*
X20176Y44569D02*
D03*
X17376Y46969D02*
D03*
X31276Y48969D02*
D03*
X31176Y45369D02*
D03*
X11976Y16769D02*
D03*
X8576Y20969D02*
D03*
X73576Y17169D02*
D03*
X76776Y7669D02*
D03*
X85276Y4169D02*
D03*
X81276Y7269D02*
D03*
X45776Y7226D02*
D03*
X41976Y10069D02*
D03*
X44876Y42269D02*
D03*
X69055Y147769D02*
D03*
X84768Y143169D02*
D03*
X74976Y162469D02*
D03*
Y157769D02*
D03*
X70992Y162469D02*
D03*
X34137Y128909D02*
D03*
X37391Y132169D02*
D03*
X32776Y145169D02*
D03*
X31796Y132669D02*
D03*
X133014Y116307D02*
D03*
X134776Y89469D02*
D03*
X131876Y84969D02*
D03*
X129276Y96969D02*
D03*
X116323Y97569D02*
D03*
X120076Y91969D02*
D03*
X122576Y91069D02*
D03*
X72976Y140169D02*
D03*
X32476Y113969D02*
D03*
X108576Y91669D02*
D03*
X41476Y90469D02*
D03*
Y93269D02*
D03*
X15976Y88669D02*
D03*
Y99169D02*
D03*
Y95869D02*
D03*
X16176Y105069D02*
D03*
X61142Y145803D02*
D03*
X23176Y108969D02*
D03*
X20276Y111869D02*
D03*
X102276Y31669D02*
D03*
X86376Y17769D02*
D03*
Y14769D02*
D03*
X91076Y20869D02*
D03*
X121756Y20149D02*
D03*
X116076Y11469D02*
D03*
X119276D02*
D03*
X97576Y10969D02*
D03*
X102976D02*
D03*
X107176D02*
D03*
X112476D02*
D03*
X93676Y12069D02*
D03*
X90676D02*
D03*
X129510Y129535D02*
D03*
X30276Y59569D02*
D03*
X45676Y99069D02*
D03*
X39676Y117469D02*
D03*
X34176Y109069D02*
D03*
X47376Y125369D02*
D03*
X54376Y134269D02*
D03*
X49076Y42269D02*
D03*
X98036Y141929D02*
D03*
X100064Y154281D02*
D03*
X104364Y161269D02*
D03*
Y158369D02*
D03*
X120076Y136569D02*
D03*
Y134269D02*
D03*
X94776Y116169D02*
D03*
X24000Y59569D02*
D03*
X40076Y167169D02*
D03*
X28876Y165369D02*
D03*
X23676Y153169D02*
D03*
X104974Y103769D02*
D03*
D80*
X133500Y157500D02*
D03*
X122500D02*
D03*
Y168500D02*
D03*
X133500D02*
D03*
X128000Y155000D02*
D03*
X120000Y163000D02*
D03*
X136000D02*
D03*
X128000Y171000D02*
D03*
X17500Y157500D02*
D03*
X6500D02*
D03*
Y168500D02*
D03*
X17500D02*
D03*
X12000Y155000D02*
D03*
X4000Y163000D02*
D03*
X20000D02*
D03*
X12000Y171000D02*
D03*
D92*
Y163000D02*
D03*
X128000D02*
D03*
M02*
