M48
;Layer_Color=9474304
;FILE_FORMAT=2:5
INCH,LZ
;TYPE=PLATED
T1F00S00C0.00787
T2F00S00C0.01000
T3F00S00C0.01181
T4F00S00C0.01575
T5F00S00C0.02400
T6F00S00C0.03200
T7F00S00C0.04000
T8F00S00C0.04400
T9F00S00C0.11024
T10F00S00C0.11811
%
T01
X0046576Y0047669
X0049676Y0047969
Y0051197
X0046576
X0046555Y0054346
X0049704
X0052854
X0056003Y0054346
X0055976Y0051169
X0056003Y0048047
X0052854Y0048047
X0052854Y0051197
X0059153Y0051197
Y0048047
X0062303Y0048047
X0065452
X0062303Y0051197
X0065452Y0054346
X0071751Y0054347
X0071752Y0051197
X0071752Y0048047
X0074901
X0078051
X0081201Y0048047
X008435
X00875Y0048047
X0090649
X0090649Y0051197
X0090649Y0054346
X00875Y0054346
Y0051197
X008435
Y0054346
X0081201Y0054346
X0081201Y0051197
X0074901Y0054346
X0074876Y0063869
X0074902Y0066945
X0078051
X0081201Y0066945
X0084351Y0066945
X00875Y0066945
X009065
X0087676Y0073269
X008435Y0079169
X0079626Y0077046
X0074901Y0076394
X0068676Y0076369
X0065453Y0076394
X0062303
X0062303Y0073244
X0059153Y0073244
X0059153Y0076394
X0056004
X0052854Y0076394
X0049705
X0049776Y0073369
X0052854Y0073244
X0056004Y0070095
X0059154Y0070094
X0065453Y0070094
X0068602
X0068603Y0066945
X0061876Y0064169
X0052776Y0062869
X0052854Y0066945
X0049705
X0046555Y0066945
X0045476Y0063169
X0045576Y0076869
Y0079469
X0050976Y0093369
X0058871Y0095854
Y0098439
X0061497Y009839
X0061576Y0095869
X0064056Y0095831
X0066615Y0095831
Y009839
X0071576Y0098469
X0074291
X0076876
X0079409Y009839
X0081968Y009839
X0084527Y009839
Y0095831
X0086921Y0093323
X0089645Y0093271
X0089645Y0095831
X0094076Y0092469
X0079478Y0093271
X0079409Y0095831
X0076783Y0095831
X0074291Y0095831
X0074294Y0093271
X0076783Y0093271
X0075573Y0090182
X0078132Y0090182
X0073076Y0087469
X0067876Y0088469
X0064076
X0066615Y0093271
X0061497Y009327
X0063876Y0103469
X0063976Y0106069
X0066615Y0106068
X0066776Y0103469
X0071737Y0103507
X0071736Y0106067
X0071776Y0108769
X0069148
X006917Y0111185
X0069173Y0113744
X0066614
X0063976Y0113769
X0063976Y0108769
X0066676
X0058938Y0108626
X0056312Y0108626
X0056376Y0105969
X005633Y0103457
X0058938Y0103507
X0056379Y0113744
X0053819Y0113744
X0053819Y0116237
X0053819Y0118862
X0056379Y0118862
X0056379Y0121422
X0058872Y0121422
Y012398
X0056379Y012398
X0053819Y012398
X0061497Y012398
Y0121422
Y0118862
X0066615Y0121355
X0069176Y0121269
X0069174Y0124069
X0069174Y0126541
X0066615Y0124069
X0074276
X0074292Y012654
X0074291Y0121422
X007427Y0113769
X0076853Y0113744
X0076851Y0111188
X0074176Y0111169
X0076851Y0106068
X0076853Y0103508
X0081969Y0101015
X0084528Y0101015
X0084527Y0103507
X0084528Y0106068
X0081968Y0106067
X0081969Y0111186
X0084528
X0087088Y0108693
X0087076Y0103569
X0084527Y0116304
X0084594Y0118862
X0087088Y0118861
Y0121354
X0087088Y0123979
X0084528Y012398
X0081969Y012398
X0081968Y0121494
X0084527Y0121422
X0081976Y0118869
X0081969Y0126541
X0069172Y0116304
X0071666Y0095831
X0078051Y0073244
X0099576Y0074869
X0099076Y0070069
X0093799Y0054346
X0093799Y0051197
X0093799Y0048047
X0047676Y0107069
X0045576Y0106669
X0043176
X0057576Y0130069
X0059276Y0132969
X0080676Y0132369
X0095376Y0129369
T02
X00065Y01575
X0012Y0155
X00175Y01575
Y01685
X0012Y0171
X00065Y01685
X0004Y0163
X002
X012
X01225Y01575
X0128Y0155
X01335Y01575
X0136Y0163
X01335Y01685
X0128Y0171
X01225Y01685
T03
X0019276Y0032312
X0020176Y0044569
X0031176Y0045369
X0031276Y0048969
X0025776Y0051669
X0024Y0059569
X0025276Y0062769
X0030276
Y0059569
X0037376Y0054269
X0044876Y0042269
X0049076
X0048143Y0030669
X0044576
X0051776Y0030569
Y0028069
X0051876Y0025236
Y0022869
X0045776Y0007226
X0041976Y0010069
X0076776Y0007669
X0081276Y0007269
X0085276Y0004169
X0086376Y0014769
Y0017769
X0091076Y0020869
X0090676Y0012069
X0093676
X0097576Y0010969
X0102976
X0107176
X0112476
X0116076Y0011469
X0119276
X0121756Y0020149
X0102276Y0031669
X0103481Y0043343
X0100921
X0087702Y0042269
X0082176
X0081776Y0028769
X0078676
X0084876
X0073576Y0017169
X0109976Y0065169
X0111576Y0071469
X0110976Y0074369
X0111276Y0078769
X0108376Y0084869
Y0087869
X0111376Y0088269
X0108576Y0091669
X0106276Y0089669
X0110576Y0096269
X0116323Y0097569
X0120076Y0091969
X0122576Y0091069
X0129276Y0096969
X0134776Y0089469
X0131876Y0084969
X0132576Y0107646
X0133014Y0116307
X0132876Y0124769
X0129476
X0120876Y0119069
X0122976Y0116869
X0125276Y0113744
X0109976Y0114869
Y0118769
X0109776Y0121369
X0108844Y0123928
X0110602Y0125679
X0104376Y0124069
X0099976Y0120069
X0098276Y0114869
X0094776Y0116169
X0101176Y0112669
X0099776Y0108269
X0104974Y0103769
X0106876Y0100969
X0104776Y0073569
X0114676Y0060869
X0051261Y009839
X0045676Y0099069
X0041476Y0093269
Y0090469
X0031214Y0103507
Y0106769
X0034176Y0109069
X0032476Y0113969
X0026076Y0117869
X0027276Y0125669
X0047376Y0125369
X0046676Y0111169
X0039676Y0117469
X0023176Y0108969
Y0104969
X0020276Y0111869
X0016176Y0105069
X0015976Y0099169
Y0095869
Y0088669
X0017376Y0046969
X0015476Y0032269
X0008576Y0020969
X0011976Y0016769
X0034137Y0128909
X0031796Y0132669
X0037391Y0132169
X0036476Y0140769
X0032776Y0145169
X0039876Y0149869
X0045576
X0059213Y0147769
X0061142Y0145803
X0059776Y0143169
X0055236
X0054676Y0137569
X0054376Y0134269
X0052576Y0131569
X0048576
X0049276Y0128469
X0050976Y0136069
X0059276Y0135469
X0065079Y0143169
X0069016
X0072969
X0072976Y0140169
X0077576Y0142561
X0081376Y0141269
X0084768Y0143169
X0098036Y0141929
X0097276Y0145369
X0097276Y0147569
X0100064Y0154281
X0104364Y0158369
Y0161269
X0110476Y0165069
X0112676
X0105376Y0171069
X0086776Y0159769
X0085076Y0161469
X0078876Y0159769
X0074976Y0157769
Y0162469
X0070992
Y0159769
X0067076
X0067055Y0162469
X0063118
X0059181Y0159769
X0055244Y0162469
X0040076Y0167169
X0035039Y0170905
X0028876Y0165369
X0023676Y0153169
X0065118Y0147769
X0069055
X0078076Y0132969
X0100076Y0128909
X0114576Y0127969
X0117876
X0120076Y0134269
Y0136569
X0115476Y0139569
X0113376
X0111276
X012951Y0129535
T04
X0018776Y0020869
X0039776Y0023169
X0035776Y0011669
X0039076Y0005269
X0054376Y0007869
X0063576Y0007769
X0077176Y0014869
X0082176Y0020369
X0089176Y0025069
Y0031869
X0112976Y0030769
X0124976Y0030469
X0125976Y0021369
X0127976Y0011069
X0123376Y0003732
X0136876Y0030969
X0136476Y0041069
X0113576Y0050769
X0121576Y0071269
X0130776Y0081469
X0131676Y0091669
X0019376Y0115669
X0022376Y0122269
X0030776Y0053869
X0014276Y0050669
X0013976Y0040869
X0015676Y0060869
X0015276Y0083369
X0005176Y0086969
X0011256Y0116949
X0013576Y0005169
X0014776Y0130869
X0019676Y0135069
X0089476Y0135769
X0086776Y0140769
X0104676Y0154269
X0093776Y0169669
T05
X0049134Y0154095
X00909
T06
X0024Y0025
X0031937
T07
X01335Y0006
Y0016
Y0026
Y0036
Y0046
Y0056
Y0066
Y0076
X01185
Y0066
Y0056
Y0046
Y0036
Y0026
X00065
Y0036
Y0046
Y0056
Y0066
Y0076
Y0016
Y0006
T08
X0091982Y0005737
X0117974
T09
X0012Y0163
X0128
T10
X001Y01425
X013
M30
